<?xml version="1.0" encoding="UTF-8"?>
<svg xmlns="http://www.w3.org/2000/svg" viewBox="0 0 2000 1400">
  <defs>
    <style>
      .cls-1, .cls-2, .cls-3, .cls-4, .cls-5, .cls-6, .cls-7, .cls-8, .cls-9, .cls-10, .cls-11, .cls-12, .cls-13, .cls-14, .cls-15, .cls-16, .cls-17, .cls-18, .cls-19, .cls-20, .cls-21, .cls-22, .cls-23, .cls-24, .cls-25, .cls-26, .cls-27 {
        stroke: #000;
      }

      .cls-1, .cls-2, .cls-3, .cls-4, .cls-5, .cls-6, .cls-7, .cls-8, .cls-9, .cls-10, .cls-11, .cls-12, .cls-13, .cls-14, .cls-15, .cls-16, .cls-17, .cls-18, .cls-19, .cls-20, .cls-21, .cls-22, .cls-23, .cls-24, .cls-25, .cls-26, .cls-27, .cls-28 {
        stroke-miterlimit: 10;
      }

      .cls-1, .cls-2, .cls-3, .cls-5, .cls-6, .cls-7, .cls-9, .cls-10, .cls-11, .cls-12, .cls-14, .cls-15, .cls-16, .cls-17, .cls-18, .cls-19, .cls-20, .cls-21, .cls-22, .cls-23, .cls-24, .cls-25, .cls-26, .cls-27, .cls-28 {
        fill: none;
      }

      .cls-1, .cls-13, .cls-28 {
        stroke-width: .5px;
      }

      .cls-3 {
        stroke-dasharray: 11.88 11.88;
      }

      .cls-29 {
        font-size: 21px;
      }

      .cls-29, .cls-30, .cls-31, .cls-32, .cls-33 {
        font-family: UDDigiKyokashoN-R, 'UD Digi Kyokasho N-R';
      }

      .cls-34, .cls-4, .cls-8, .cls-13 {
        fill: #fff;
      }

      .cls-30 {
        font-size: 48px;
      }

      .cls-4, .cls-6 {
        stroke-dasharray: 12;
      }

      .cls-5 {
        stroke-dasharray: 12.57 12.57;
      }

      .cls-7 {
        stroke-dasharray: 13.5 13.5;
      }

      .cls-35 {
        fill: #e73964;
      }

      .cls-36 {
        fill: #b9dba9;
      }

      .cls-9 {
        stroke-dasharray: 15.33 15.33;
      }

      .cls-10 {
        stroke-dasharray: 11.46 11.46;
      }

      .cls-11 {
        stroke-dasharray: 11.9 11.9;
      }

      .cls-37 {
        fill: #f3a6b3;
      }

      .cls-12 {
        stroke-dasharray: 11.83 11.83;
      }

      .cls-31 {
        font-size: 19px;
      }

      .cls-38 {
        fill: #f9d0bd;
      }

      .cls-39 {
        fill: #b2dee2;
      }

      .cls-40 {
        fill: #f5f4a9;
      }

      .cls-32 {
        font-size: 24px;
      }

      .cls-14 {
        stroke-dasharray: 11.36 11.36;
      }

      .cls-15 {
        stroke-dasharray: 12.9 12.9;
      }

      .cls-16 {
        stroke-dasharray: 10.7 10.7;
      }

      .cls-17 {
        stroke-dasharray: 11.71 11.71;
      }

      .cls-18 {
        stroke-dasharray: 10.95 10.95;
      }

      .cls-19 {
        stroke-dasharray: 12.19 12.19;
      }

      .cls-41 {
        fill: #c3b7ab;
      }

      .cls-20 {
        stroke-dasharray: 13.03 13.03;
      }

      .cls-21 {
        stroke-dasharray: 12.24 12.24;
      }

      .cls-22 {
        stroke-dasharray: 12.09 12.09;
      }

      .cls-23 {
        stroke-dasharray: 11 11;
      }

      .cls-42 {
        fill: #2668b2;
      }

      .cls-24 {
        stroke-dasharray: 11.27 11.27;
      }

      .cls-25 {
        stroke-dasharray: 11.14 11.14;
      }

      .cls-33 {
        font-size: 14px;
      }

      .cls-26 {
        stroke-dasharray: 12.35 12.35;
      }

      .cls-27 {
        stroke-dasharray: 8 8;
      }

      .cls-28 {
        stroke: #231815;
      }
    </style>
  </defs>
  <g id="_色" data-name="色">
    <rect class="cls-38" x="183" y="358" width="72" height="71.83"/>
    <rect class="cls-38" x="182.75" y="429.5" width="72.25" height="82.5"/>
    <rect class="cls-38" x="255" y="453" width="84.5" height="59"/>
    <rect class="cls-38" x="291" y="357.83" width="142.38" height="55.42"/>
    <rect class="cls-38" x="339.5" y="453" width="93.88" height="59"/>
    <rect class="cls-38" x="433" y="453" width="37" height="59"/>
    <rect class="cls-38" x="433.25" y="358.25" width="64.25" height="55.08"/>
    <rect class="cls-38" x="470" y="452.92" width="63" height="59.08"/>
    <rect class="cls-39" x="183" y="601.25" width="95.5" height="90.12"/>
    <rect class="cls-39" x="278.5" y="622.25" width="83.69" height="69.25"/>
    <rect class="cls-39" x="361.75" y="622.25" width="41.75" height="69.25"/>
    <rect class="cls-39" x="403.5" y="601.25" width="129.5" height="90.25"/>
    <rect class="cls-40" x="568" y="601.25" width="116" height="90.25"/>
    <rect class="cls-40" x="720.13" y="636.1" width="37.28" height="55.15"/>
    <rect class="cls-40" x="757.41" y="636.03" width="64.41" height="54.97"/>
    <rect class="cls-40" x="821.81" y="636.03" width="39.75" height="54.97"/>
    <rect class="cls-40" x="861.67" y="636.33" width="60.65" height="54.67"/>
    <rect class="cls-40" x="922.31" y="636.1" width="82.81" height="54.9"/>
    <rect class="cls-36" x="568" y="388.25" width="95.25" height="90"/>
    <rect class="cls-36" x="663.25" y="423.25" width="20.75" height="54.75"/>
    <rect class="cls-36" x="720" y="423.33" width="67.5" height="54.92"/>
    <rect class="cls-36" x="787.5" y="423.33" width="100.25" height="54.67"/>
    <rect class="cls-41" x="563" y="186.5" width="121" height="90"/>
    <rect class="cls-41" x="720" y="220.83" width="38.5" height="55.42"/>
    <rect class="cls-41" x="758.5" y="220.58" width="47.29" height="55.42"/>
    <rect class="cls-41" x="805.79" y="220.58" width="76.69" height="55.67"/>
    <rect class="cls-41" x="882.5" y="220.83" width="76.67" height="55.67"/>
    <rect class="cls-41" x="959.17" y="220.83" width="45.83" height="55.42"/>
    <rect class="cls-36" x="887.75" y="423.5" width="65.25" height="54.5"/>
    <rect class="cls-36" x="953" y="423.33" width="52.37" height="54.67"/>
    <rect class="cls-34" x="1065.12" y="333.08" width="29.88" height="55.17"/>
    <rect class="cls-34" x="1044.75" y="186.5" width="50.25" height="64.67"/>
    <rect class="cls-34" x="1131" y="333.08" width="75" height="55.23"/>
    <rect class="cls-34" x="1206" y="333" width="24" height="27.65"/>
    <rect class="cls-34" x="1206" y="360.7" width="24" height="27.61"/>
    <rect class="cls-34" x="1230" y="333" width="24" height="55.31"/>
    <rect class="cls-34" x="1252.88" y="332.63" width="62.18" height="55"/>
    <rect class="cls-34" x="1315.06" y="333" width="40.94" height="55"/>
    <rect class="cls-34" x="1392" y="298.33" width="132" height="89.92"/>
    <rect class="cls-34" x="1424" y="600.92" width="100" height="90.33"/>
    <rect class="cls-34" x="1392" y="636.08" width="32" height="55.17"/>
    <rect class="cls-34" x="1299.71" y="635.99" width="56.29" height="55.26"/>
    <rect class="cls-34" x="1243.42" y="635.99" width="56.29" height="55.15"/>
    <rect class="cls-34" x="1187.13" y="635.99" width="56.28" height="55.15"/>
    <rect class="cls-34" x="1130.84" y="636.1" width="56.29" height="55.03"/>
    <rect class="cls-34" x="1064.76" y="636.1" width="30.08" height="55.17"/>
    <rect class="cls-34" x="1004.92" y="636.1" width="59.84" height="55.17"/>
    <rect class="cls-34" x="1044.75" y="251.17" width="50.25" height="24.08"/>
    <rect class="cls-34" x="1044.75" y="275.38" width="50.25" height="22.88"/>
    <rect class="cls-8" x="1005" y="152" width="90" height="34.5"/>
    <rect class="cls-34" x="684" y="186.54" width="35.5" height="89.71"/>
    <rect class="cls-34" x="719.5" y="186.54" width="325.25" height="34.05"/>
    <rect class="cls-34" x="1005.37" y="220.58" width="39.38" height="78.22"/>
    <rect class="cls-34" x="563" y="276.5" width="442.57" height="10.31"/>
    <rect class="cls-34" x="663.25" y="388.31" width="342.12" height="35.02"/>
    <rect class="cls-34" x="684" y="423.36" width="36" height="54.64"/>
    <rect class="cls-34" x="684" y="286.81" width="36" height="103.42"/>
    <rect class="cls-34" x="568" y="366.5" width="116" height="16.5"/>
    <polygon class="cls-34" points="533.24 392.32 568 366.5 568 383 533.24 408.08 533.24 392.32"/>
    <rect class="cls-34" x="255" y="358" width="36" height="94.83"/>
    <rect class="cls-34" x="286.75" y="413.25" width="246.25" height="39.58"/>
    <rect class="cls-34" x="497.5" y="357.83" width="35.5" height="55.67"/>
    <rect class="cls-34" x="568.17" y="478.25" width="436.96" height="10.75"/>
    <rect class="cls-34" x="328.67" y="570.75" width="74.83" height="51.25"/>
    <rect class="cls-34" x="278.69" y="601.25" width="51.94" height="21.06"/>
    <rect class="cls-34" x="183" y="581.5" width="34.17" height="8.25"/>
    <rect class="cls-34" x="182.92" y="587.33" width="9.33" height="13.92"/>
    <rect class="cls-34" x="369.5" y="714" width="20.67" height="96.67"/>
    <rect class="cls-34" x="390.17" y="792.25" width="302.83" height="18.42"/>
    <rect class="cls-34" x="1316" y="271.67" width="76" height="60.96"/>
    <rect class="cls-34" x="1355.75" y="331" width="36.25" height="57.19"/>
    <rect class="cls-34" x="1005" y="297.75" width="311" height="35.33"/>
    <rect class="cls-34" x="1095" y="331.5" width="36" height="56.13"/>
    <rect class="cls-34" x="1005" y="330.16" width="59.97" height="274.18"/>
    <rect class="cls-34" x="684" y="489" width="36" height="112.25"/>
    <rect class="cls-34" x="684" y="601.74" width="321.37" height="34.59"/>
    <rect class="cls-34" x="684" y="632.25" width="36.13" height="58.75"/>
    <rect class="cls-34" x="568" y="691.5" width="496.64" height="10.31"/>
    <rect class="cls-34" x="1002" y="601.74" width="422" height="34.09"/>
    <rect class="cls-34" x="1094.84" y="633.17" width="36" height="57.97"/>
    <rect class="cls-34" x="1355.75" y="385.67" width="36.25" height="305.25"/>
    <rect class="cls-34" x="1522.33" y="300.75" width="52.33" height="29.42"/>
    <rect class="cls-34" x="1571.5" y="337.5" width="38.94" height="310.83"/>
    <rect class="cls-34" x="1576" y="835.75" width="156" height="70"/>
    <rect class="cls-34" x="1575.92" y="792.92" width="29.08" height="45.5"/>
    <rect class="cls-34" x="1571.5" y="644.5" width="45.25" height="148.5"/>
    <rect class="cls-34" x="1524" y="604.34" width="47.5" height="28.41"/>
    <rect class="cls-34" x="1609.75" y="595.25" width="45.19" height="37.5"/>
    <rect class="cls-34" x="1610.44" y="579.91" width="101.23" height="15.34"/>
    <rect class="cls-34" x="1610.5" y="467.25" width="71.94" height="119"/>
    <rect class="cls-34" x="1680.75" y="528.91" width="30.92" height="52.22"/>
    <rect class="cls-34" x="1608" y="398.67" width="37.85" height="70.08"/>
    <rect class="cls-34" x="1875.67" y="296.83" width="28.33" height="40.67"/>
    <rect class="cls-34" x="1746.44" y="788.75" width="35" height="157.75"/>
    <rect class="cls-34" x="1746.44" y="918.5" width="84" height="35.75"/>
    <rect class="cls-34" x="1721.94" y="946.5" width="150.5" height="341"/>
    <rect class="cls-34" x="1473.75" y="396" width="39" height="45"/>
    <rect class="cls-41" x="150.67" y="207" width="382.33" height="103"/>
  </g>
  <g id="_テクスチャ" data-name="テクスチャ">
    <line class="cls-6" x1="720" y1="286.88" x2="720" y2="366.5"/>
    <line class="cls-6" x1="684" y1="366.64" x2="684" y2="286.88"/>
    <polyline class="cls-2" points="1051.5 691.25 1524 691.25 1524 601.25 1069.11 601.25"/>
    <rect class="cls-6" x="150.67" y="207" width="382.33" height="103"/>
    <polyline class="cls-2" points="1005 220.83 1005 276.5 563 276.5 563 186.5 1005 186.5"/>
    <polyline class="cls-2" points="1005 186.54 1005 152 1095 152 1095 298.75"/>
    <polyline class="cls-2" points="1095 298.25 1524 298.25 1524 388.25 1095 388.25"/>
    <rect class="cls-2" x="1316" y="271.67" width="76" height="26.67"/>
    <rect class="cls-2" x="1473.75" y="396" width="39" height="45"/>
    <rect class="cls-6" x="630.5" y="318" width="45.5" height="45.5"/>
    <line class="cls-6" x1="720" y1="489" x2="720" y2="601.25"/>
    <line class="cls-6" x1="684" y1="601.25" x2="684" y2="489"/>
    <rect class="cls-2" x="1356" y="388" width="36" height="213"/>
    <g>
      <polyline class="cls-34" points="720 825 720 701.81 684 701.81 684 825"/>
      <g>
        <line class="cls-2" x1="720" y1="825" x2="720" y2="819"/>
        <line class="cls-26" x1="720" y1="806.65" x2="720" y2="713.99"/>
        <polyline class="cls-2" points="720 707.81 720 701.81 714 701.81"/>
        <line class="cls-27" x1="706" y1="701.81" x2="694" y2="701.81"/>
        <polyline class="cls-2" points="690 701.81 684 701.81 684 707.81"/>
        <line class="cls-26" x1="684" y1="720.17" x2="684" y2="812.82"/>
        <line class="cls-2" x1="684" y1="819" x2="684" y2="825"/>
      </g>
    </g>
    <g>
      <rect class="cls-34" x="328.67" y="691.5" width="74.83" height="24"/>
      <g>
        <polyline class="cls-2" points="403.5 709.5 403.5 715.5 397.5 715.5"/>
        <line class="cls-5" x1="384.93" y1="715.5" x2="340.95" y2="715.5"/>
        <polyline class="cls-2" points="334.67 715.5 328.67 715.5 328.67 709.5"/>
        <polyline class="cls-2" points="328.67 697.5 328.67 691.5 334.67 691.5"/>
        <line class="cls-5" x1="347.23" y1="691.5" x2="391.22" y2="691.5"/>
        <polyline class="cls-2" points="397.5 691.5 403.5 691.5 403.5 697.5"/>
      </g>
    </g>
    <g>
      <polyline class="cls-37" points="1022 915 364 915 364 825 1022 825"/>
      <g>
        <line class="cls-2" x1="1022" y1="915" x2="1016" y2="915"/>
        <line class="cls-19" x1="1003.81" y1="915" x2="376.09" y2="915"/>
        <polyline class="cls-2" points="370 915 364 915 364 909"/>
        <line class="cls-25" x1="364" y1="897.86" x2="364" y2="836.57"/>
        <polyline class="cls-2" points="364 831 364 825 370 825"/>
        <line class="cls-19" x1="382.19" y1="825" x2="1009.91" y2="825"/>
        <line class="cls-2" x1="1016" y1="825" x2="1022" y2="825"/>
      </g>
    </g>
    <g>
      <polyline class="cls-34" points="1051.5 792.25 1496.67 792.25 1496.67 837.25 1051.5 837.25"/>
      <g>
        <line class="cls-2" x1="1051.5" y1="792.25" x2="1057.5" y2="792.25"/>
        <line class="cls-17" x1="1069.21" y1="792.25" x2="1484.81" y2="792.25"/>
        <polyline class="cls-2" points="1490.67 792.25 1496.67 792.25 1496.67 798.25"/>
        <line class="cls-23" x1="1496.67" y1="809.25" x2="1496.67" y2="825.75"/>
        <polyline class="cls-2" points="1496.67 831.25 1496.67 837.25 1490.67 837.25"/>
        <line class="cls-17" x1="1478.96" y1="837.25" x2="1063.35" y2="837.25"/>
        <line class="cls-2" x1="1057.5" y1="837.25" x2="1051.5" y2="837.25"/>
      </g>
    </g>
    <g>
      <polyline class="cls-34" points="1051.5 870 1496.67 870 1496.67 915 1051.5 915"/>
      <g>
        <line class="cls-2" x1="1051.5" y1="870" x2="1057.5" y2="870"/>
        <line class="cls-17" x1="1069.21" y1="870" x2="1484.81" y2="870"/>
        <polyline class="cls-2" points="1490.67 870 1496.67 870 1496.67 876"/>
        <line class="cls-23" x1="1496.67" y1="887" x2="1496.67" y2="903.5"/>
        <polyline class="cls-2" points="1496.67 909 1496.67 915 1490.67 915"/>
        <line class="cls-17" x1="1478.96" y1="915" x2="1063.35" y2="915"/>
        <line class="cls-2" x1="1057.5" y1="915" x2="1051.5" y2="915"/>
      </g>
    </g>
    <polyline class="cls-6" points="1610.44 398.67 1645.85 398.67 1645.85 467"/>
    <line class="cls-6" x1="1576" y1="836.5" x2="1576" y2="793"/>
    <line class="cls-6" x1="1605" y1="793" x2="1605" y2="836.5"/>
    <rect class="cls-2" x="1576" y="835.75" width="156" height="70"/>
    <line class="cls-6" x1="1746.44" y1="918.5" x2="1746.44" y2="793"/>
    <line class="cls-6" x1="1781.44" y1="793" x2="1781.44" y2="918.5"/>
    <polyline class="cls-6" points="1830.44 946.5 1830.44 918.5 1746.44 918.5 1746.44 946.5"/>
    <rect class="cls-6" x="1721.94" y="946.5" width="150.5" height="341"/>
    <rect class="cls-4" x="1825.44" y="519.75" width="43" height="113"/>
    <g>
      <rect class="cls-34" x="115" y="769.62" width="136" height="65.49"/>
      <g>
        <polyline class="cls-2" points="251 829.12 251 835.12 245 835.12"/>
        <line class="cls-24" x1="233.73" y1="835.12" x2="126.64" y2="835.12"/>
        <polyline class="cls-2" points="121 835.12 115 835.12 115 829.12"/>
        <line class="cls-16" x1="115" y1="818.42" x2="115" y2="780.97"/>
        <polyline class="cls-2" points="115 775.62 115 769.62 121 769.62"/>
        <line class="cls-24" x1="132.27" y1="769.62" x2="239.36" y2="769.62"/>
        <polyline class="cls-2" points="245 769.62 251 769.62 251 775.62"/>
        <line class="cls-16" x1="251" y1="786.32" x2="251" y2="823.77"/>
      </g>
    </g>
    <g>
      <rect class="cls-34" x="134" y="854.62" width="77.13" height="66.75"/>
      <g>
        <polyline class="cls-2" points="211.13 915.37 211.13 921.37 205.13 921.37"/>
        <line class="cls-20" x1="192.1" y1="921.37" x2="146.51" y2="921.37"/>
        <polyline class="cls-2" points="140 921.37 134 921.37 134 915.37"/>
        <line class="cls-18" x1="134" y1="904.42" x2="134" y2="866.09"/>
        <polyline class="cls-2" points="134 860.62 134 854.62 140 854.62"/>
        <line class="cls-20" x1="153.03" y1="854.62" x2="198.61" y2="854.62"/>
        <polyline class="cls-2" points="205.13 854.62 211.13 854.62 211.13 860.62"/>
        <line class="cls-18" x1="211.13" y1="871.57" x2="211.13" y2="909.89"/>
      </g>
    </g>
    <line class="cls-2" x1="684.5" y1="383" x2="568" y2="383"/>
    <line class="cls-2" x1="568" y1="366.5" x2="684" y2="366.5"/>
    <polyline class="cls-6" points="1610.44 580 1610.44 793 1571.5 793 1571.5 337.83"/>
    <line class="cls-6" x1="1610.44" y1="337.83" x2="1610.44" y2="467"/>
    <polyline class="cls-4" points="1610.94 793 1867.94 793 1867.94 644.5 1610.94 644.5"/>
    <rect class="cls-4" x="1732" y="571.33" width="93.44" height="61.42"/>
    <polyline class="cls-6" points="1610.44 632.75 1654.94 632.75 1654.94 595.25 1610.44 595.25"/>
    <rect class="cls-4" x="1721.44" y="370.63" width="156.5" height="116"/>
    <line class="cls-6" x1="1571.5" y1="632.75" x2="1524" y2="632.75"/>
    <line class="cls-6" x1="1524" y1="604.34" x2="1571.5" y2="604.34"/>
    <line class="cls-2" x1="568" y1="366.5" x2="533" y2="392.5"/>
    <line class="cls-2" x1="533" y1="408.25" x2="568" y2="383"/>
    <line class="cls-2" x1="1065.12" y1="388.25" x2="1065.12" y2="601.25"/>
    <line class="cls-2" x1="363.54" y1="979.28" x2="1005.54" y2="979.28"/>
    <line class="cls-2" x1="1078.54" y1="979.28" x2="1533.54" y2="979.28"/>
    <line class="cls-2" x1="1580.08" y1="976.61" x2="1680.46" y2="1040.98"/>
    <line class="cls-2" x1="1680.46" y1="1040.98" x2="1680.46" y2="1400"/>
    <line class="cls-2" x1="313.62" y1="979.28" x2="160.63" y2="979.28"/>
    <line class="cls-2" x1="160.63" y1="979.28" x2="48.14" y2="1075.57"/>
    <line class="cls-2" x1="48.14" y1="1075.57" x2="48.14" y2="1389.06"/>
    <g>
      <circle class="cls-34" cx="1343.5" cy="190" r="36.5"/>
      <circle class="cls-10" cx="1343.5" cy="190" r="36.5"/>
    </g>
    <g>
      <rect class="cls-34" x="1430" y="153.5" width="91.5" height="58"/>
      <g>
        <polyline class="cls-2" points="1430 205.5 1430 211.5 1436 211.5"/>
        <line class="cls-14" x1="1447.36" y1="211.5" x2="1509.82" y2="211.5"/>
        <polyline class="cls-2" points="1515.5 211.5 1521.5 211.5 1521.5 205.5"/>
        <line class="cls-9" x1="1521.5" y1="190.17" x2="1521.5" y2="167.17"/>
        <polyline class="cls-2" points="1521.5 159.5 1521.5 153.5 1515.5 153.5"/>
        <line class="cls-14" x1="1504.14" y1="153.5" x2="1441.68" y2="153.5"/>
        <polyline class="cls-2" points="1436 153.5 1430 153.5 1430 159.5"/>
        <line class="cls-9" x1="1430" y1="174.83" x2="1430" y2="197.83"/>
      </g>
    </g>
    <g>
      <rect class="cls-34" x="1183.5" y="153.5" width="79.5" height="71.5"/>
      <g>
        <polyline class="cls-2" points="1183.5 219 1183.5 225 1189.5 225"/>
        <line class="cls-7" x1="1203" y1="225" x2="1250.25" y2="225"/>
        <polyline class="cls-2" points="1257 225 1263 225 1263 219"/>
        <line class="cls-11" x1="1263" y1="207.1" x2="1263" y2="165.45"/>
        <polyline class="cls-2" points="1263 159.5 1263 153.5 1257 153.5"/>
        <line class="cls-7" x1="1243.5" y1="153.5" x2="1196.25" y2="153.5"/>
        <polyline class="cls-2" points="1189.5 153.5 1183.5 153.5 1183.5 159.5"/>
        <line class="cls-11" x1="1183.5" y1="171.4" x2="1183.5" y2="213.05"/>
      </g>
    </g>
    <line class="cls-2" x1="1005.11" y1="478.5" x2="1005.11" y2="601.74"/>
    <line class="cls-2" x1="1095" y1="388.25" x2="1065.12" y2="388.25"/>
    <line class="cls-2" x1="1069.11" y1="601.25" x2="1064.64" y2="601.25"/>
    <line class="cls-6" x1="1571.5" y1="330.16" x2="1524" y2="330.16"/>
    <line class="cls-6" x1="1524" y1="300.75" x2="1571.5" y2="300.75"/>
    <line class="cls-2" x1="1005" y1="186.5" x2="1095" y2="186.5"/>
    <rect class="cls-2" x="183" y="358" width="350" height="154"/>
    <line class="cls-6" x1="1879" y1="296.83" x2="1904" y2="296.83"/>
    <line class="cls-6" x1="1904" y1="337.5" x2="1879" y2="337.5"/>
    <line class="cls-6" x1="1904" y1="296.83" x2="1904" y2="337.5"/>
    <line class="cls-2" x1="1682.44" y1="580" x2="1712.15" y2="580"/>
    <line class="cls-2" x1="1711.67" y1="528.91" x2="1711.67" y2="580"/>
    <line class="cls-2" x1="1712.17" y1="528.91" x2="1682.44" y2="529"/>
    <g>
      <line class="cls-2" x1="369.5" y1="715.5" x2="369.5" y2="721.5"/>
      <line class="cls-3" x1="369.5" y1="733.38" x2="369.5" y2="798.73"/>
      <line class="cls-2" x1="369.5" y1="804.67" x2="369.5" y2="810.67"/>
    </g>
    <g>
      <line class="cls-2" x1="683.75" y1="810.67" x2="677.75" y2="810.67"/>
      <line class="cls-22" x1="665.66" y1="810.67" x2="381.55" y2="810.67"/>
      <line class="cls-2" x1="375.5" y1="810.67" x2="369.5" y2="810.67"/>
    </g>
    <g>
      <line class="cls-2" x1="390.17" y1="715.5" x2="390.17" y2="721.5"/>
      <line class="cls-15" x1="390.17" y1="734.4" x2="390.17" y2="779.55"/>
      <line class="cls-2" x1="390.17" y1="786" x2="390.17" y2="792"/>
    </g>
    <g>
      <line class="cls-2" x1="683.75" y1="792" x2="677.75" y2="792"/>
      <line class="cls-21" x1="665.51" y1="792" x2="402.29" y2="792"/>
      <line class="cls-2" x1="396.17" y1="792" x2="390.17" y2="792"/>
    </g>
    <line class="cls-2" x1="403.5" y1="691.5" x2="533" y2="691.5"/>
    <line class="cls-2" x1="335.5" y1="691.5" x2="183" y2="691.5"/>
    <polyline class="cls-2" points="403.5 601.25 533 601.25 533 691.5"/>
    <polyline class="cls-2" points="328.67 601.25 183 601.25 183 691.5"/>
    <line class="cls-2" x1="328.67" y1="601.75" x2="328.67" y2="570.27"/>
    <line class="cls-2" x1="403.76" y1="570.75" x2="403.76" y2="601.25"/>
    <line class="cls-2" x1="328.67" y1="570.75" x2="403.99" y2="570.75"/>
    <polyline class="cls-4" points="1879 337.5 1571.5 337.5 1571.5 112.5 1879 112.5 1879 296.83"/>
    <polyline class="cls-2" points="1610.44 580 1610.44 467 1682.44 467 1682.44 529"/>
    <line class="cls-2" x1="1682.44" y1="580" x2="1610.94" y2="580"/>
    <g>
      <polyline class="cls-34" points="1051.5 701.81 1051.5 915 1022 915 1022 701.81"/>
      <g>
        <line class="cls-2" x1="1051.5" y1="701.81" x2="1051.5" y2="707.81"/>
        <line class="cls-12" x1="1051.5" y1="719.65" x2="1051.5" y2="903.08"/>
        <polyline class="cls-2" points="1051.5 909 1051.5 915 1045.5 915"/>
        <polyline class="cls-2" points="1028 915 1022 915 1022 909"/>
        <line class="cls-12" x1="1022" y1="897.17" x2="1022" y2="713.73"/>
        <line class="cls-2" x1="1022" y1="707.81" x2="1022" y2="701.81"/>
      </g>
    </g>
    <polyline class="cls-2" points="1005.14 601.25 568 601.25 568 691.25 1022 691.25"/>
    <line class="cls-2" x1="684" y1="366.5" x2="720" y2="366.5"/>
    <line class="cls-2" x1="720" y1="388.25" x2="720" y2="366.5"/>
    <line class="cls-2" x1="684" y1="383" x2="684" y2="388.25"/>
    <line class="cls-2" x1="568.27" y1="478.25" x2="568.27" y2="488.62"/>
    <line class="cls-2" x1="1005.13" y1="489" x2="567.76" y2="489"/>
    <line class="cls-2" x1="563" y1="276.5" x2="563" y2="286.88"/>
    <line class="cls-2" x1="1005" y1="286.88" x2="562.5" y2="286.88"/>
    <line class="cls-2" x1="568" y1="691.44" x2="568" y2="701.81"/>
    <line class="cls-2" x1="1065.46" y1="701.81" x2="567.53" y2="701.81"/>
    <line class="cls-2" x1="1064.97" y1="691.25" x2="1064.97" y2="702.12"/>
  </g>
  <g id="_間取り" data-name="間取り">
    <line class="cls-2" x1="1356" y1="691.25" x2="1356" y2="636.08"/>
    <line class="cls-2" x1="1392" y1="691.25" x2="1392" y2="636.08"/>
    <line class="cls-1" x1="1374" y1="636.08" x2="1374" y2="675.42"/>
    <line class="cls-1" x1="1374" y1="675.42" x2="1356" y2="675.42"/>
    <line class="cls-1" x1="1374" y1="675.42" x2="1392" y2="675.42"/>
    <line class="cls-1" x1="1424" y1="636.08" x2="1391.52" y2="636.08"/>
    <line class="cls-1" x1="1005.13" y1="636.1" x2="1005.13" y2="691.52"/>
    <line class="cls-1" x1="1374" y1="655.75" x2="1392" y2="655.75"/>
    <line class="cls-1" x1="1374" y1="645.92" x2="1392" y2="645.92"/>
    <line class="cls-1" x1="1392" y1="665.58" x2="1374" y2="665.58"/>
    <line class="cls-1" x1="1356" y1="655.75" x2="1374" y2="655.75"/>
    <line class="cls-1" x1="1356" y1="645.92" x2="1374" y2="645.92"/>
    <line class="cls-1" x1="1374" y1="665.58" x2="1356" y2="665.58"/>
    <line class="cls-2" x1="1356" y1="388" x2="1356" y2="332.83"/>
    <line class="cls-2" x1="1392" y1="388" x2="1392" y2="298.33"/>
    <line class="cls-1" x1="1374" y1="332.83" x2="1374" y2="372.17"/>
    <line class="cls-1" x1="1374" y1="372.17" x2="1356" y2="372.17"/>
    <line class="cls-1" x1="1374" y1="372.17" x2="1392" y2="372.17"/>
    <line class="cls-1" x1="1374" y1="352.5" x2="1392" y2="352.5"/>
    <line class="cls-1" x1="1374" y1="342.67" x2="1392" y2="342.67"/>
    <line class="cls-1" x1="1392" y1="362.33" x2="1374" y2="362.33"/>
    <line class="cls-1" x1="1356" y1="352.5" x2="1374" y2="352.5"/>
    <line class="cls-1" x1="1356" y1="342.67" x2="1374" y2="342.67"/>
    <line class="cls-1" x1="1374" y1="362.33" x2="1356" y2="362.33"/>
    <line class="cls-1" x1="1005.13" y1="636.1" x2="719.5" y2="636.1"/>
    <line class="cls-2" x1="684" y1="691.5" x2="684" y2="635.83"/>
    <line class="cls-2" x1="720" y1="691" x2="720" y2="636.1"/>
    <line class="cls-1" x1="702" y1="635.83" x2="702" y2="675.67"/>
    <line class="cls-1" x1="702" y1="675.17" x2="684" y2="675.17"/>
    <line class="cls-1" x1="702" y1="675.17" x2="720" y2="675.17"/>
    <line class="cls-1" x1="702" y1="656" x2="720" y2="656"/>
    <line class="cls-1" x1="702" y1="645.67" x2="720" y2="645.67"/>
    <line class="cls-1" x1="720" y1="665.83" x2="702" y2="665.83"/>
    <line class="cls-1" x1="684" y1="656" x2="702" y2="656"/>
    <line class="cls-1" x1="684" y1="645.67" x2="702" y2="645.67"/>
    <line class="cls-1" x1="702" y1="665.83" x2="684" y2="665.83"/>
    <line class="cls-1" x1="1005.57" y1="423.36" x2="719.5" y2="423.36"/>
    <polyline class="cls-1" points="1005 220.83 1005 388.25 568 388.25 568 478.25 1005.13 478.25 1005.36 478.25 1005.37 423.33 1005.3 423.33"/>
    <line class="cls-2" x1="684" y1="478.5" x2="684" y2="423.06"/>
    <line class="cls-2" x1="720" y1="478" x2="720" y2="423.36"/>
    <line class="cls-1" x1="702" y1="423.33" x2="702" y2="462.67"/>
    <line class="cls-1" x1="702" y1="462.67" x2="684" y2="462.67"/>
    <line class="cls-1" x1="702" y1="462.67" x2="720" y2="462.67"/>
    <line class="cls-1" x1="702" y1="443" x2="720" y2="443"/>
    <line class="cls-1" x1="702" y1="433.17" x2="720" y2="433.17"/>
    <line class="cls-1" x1="720" y1="452.83" x2="702" y2="452.83"/>
    <line class="cls-1" x1="684" y1="443" x2="702" y2="443"/>
    <line class="cls-1" x1="684" y1="433.17" x2="702" y2="433.17"/>
    <line class="cls-1" x1="702" y1="452.83" x2="684" y2="452.83"/>
    <line class="cls-2" x1="684" y1="276.5" x2="684" y2="220.83"/>
    <line class="cls-2" x1="720" y1="276" x2="720" y2="220.83"/>
    <line class="cls-1" x1="702" y1="220.83" x2="702" y2="260.67"/>
    <line class="cls-1" x1="702" y1="260.67" x2="684" y2="260.67"/>
    <line class="cls-1" x1="702" y1="260.67" x2="720" y2="260.67"/>
    <line class="cls-1" x1="702" y1="241" x2="720" y2="241"/>
    <line class="cls-1" x1="702" y1="231.17" x2="720" y2="231.17"/>
    <line class="cls-1" x1="720" y1="250.83" x2="702" y2="250.83"/>
    <line class="cls-1" x1="684" y1="241" x2="702" y2="241"/>
    <line class="cls-1" x1="684" y1="231.17" x2="702" y2="231.17"/>
    <line class="cls-1" x1="702" y1="250.83" x2="684" y2="250.83"/>
    <line class="cls-1" x1="1605" y1="859.5" x2="1637.75" y2="859.5"/>
    <line class="cls-1" x1="1637.75" y1="905.75" x2="1637.75" y2="859.5"/>
    <line class="cls-1" x1="1605" y1="859.5" x2="1605" y2="905.75"/>
    <line class="cls-1" x1="1637.75" y1="859.5" x2="1637.75" y2="836.5"/>
    <line class="cls-1" x1="1590.97" y1="859.5" x2="1590.97" y2="892.5"/>
    <line class="cls-1" x1="1590.97" y1="859.5" x2="1576" y2="859.5"/>
    <line class="cls-1" x1="1590.97" y1="876" x2="1576" y2="876"/>
    <line class="cls-1" x1="1590.97" y1="884.25" x2="1576" y2="884.25"/>
    <line class="cls-1" x1="1605" y1="859.5" x2="1590.97" y2="859.5"/>
    <path class="cls-1" d="M1590.59,867.75h-14.97,14.97Z"/>
    <g>
      <line class="cls-1" x1="1583.11" y1="859.5" x2="1583.11" y2="887.48"/>
      <path d="M1583.11,890.5c-.53-1.42-1.43-3.18-2.38-4.27l2.38.86,2.38-.86c-.95,1.09-1.85,2.85-2.38,4.27Z"/>
    </g>
    <line class="cls-2" x1="1095" y1="388.25" x2="1095" y2="333.08"/>
    <line class="cls-2" x1="1131" y1="388.25" x2="1131" y2="333.08"/>
    <line class="cls-1" x1="1113" y1="333.08" x2="1113" y2="372.42"/>
    <line class="cls-1" x1="1113" y1="372.42" x2="1095" y2="372.42"/>
    <line class="cls-1" x1="1113" y1="372.42" x2="1131" y2="372.42"/>
    <line class="cls-1" x1="1113" y1="352.75" x2="1131" y2="352.75"/>
    <line class="cls-1" x1="1113" y1="342.92" x2="1131" y2="342.92"/>
    <line class="cls-1" x1="1131" y1="362.58" x2="1113" y2="362.58"/>
    <line class="cls-1" x1="1095" y1="352.75" x2="1113" y2="352.75"/>
    <line class="cls-1" x1="1095" y1="342.92" x2="1113" y2="342.92"/>
    <line class="cls-1" x1="1113" y1="362.58" x2="1095" y2="362.58"/>
    <polyline class="cls-1" points="1064.88 388.26 1064.88 333.08 1065.12 333.08 1095.49 333.08"/>
    <line class="cls-1" x1="1130.49" y1="333.09" x2="1356.5" y2="332.84"/>
    <line class="cls-1" x1="1254" y1="333.02" x2="1254" y2="388.31"/>
    <line class="cls-1" x1="1230" y1="332.99" x2="1230" y2="388.31"/>
    <line class="cls-1" x1="1206" y1="332.99" x2="1206" y2="388.31"/>
    <polyline class="cls-1" points="1095 298.5 1044.75 298.81 1044.75 298.25 1044.75 186.5"/>
    <line class="cls-1" x1="719.5" y1="220.83" x2="1005.49" y2="220.83"/>
    <line class="cls-1" x1="959.17" y1="276.25" x2="959.17" y2="220.58"/>
    <line class="cls-1" x1="882.48" y1="276.25" x2="882.48" y2="220.58"/>
    <line class="cls-1" x1="758.5" y1="220.58" x2="758.5" y2="276.25"/>
    <line class="cls-1" x1="805.79" y1="220.58" x2="805.79" y2="276.25"/>
    <line class="cls-1" x1="533" y1="453" x2="255" y2="452.83"/>
    <path class="cls-1" d="M497.5,358v55.33-55.33Z"/>
    <line class="cls-1" x1="532.5" y1="392" x2="515" y2="392"/>
    <line class="cls-1" x1="515" y1="372.5" x2="515" y2="392"/>
    <line class="cls-1" x1="515" y1="372.5" x2="497.5" y2="372.5"/>
    <line class="cls-1" x1="515" y1="382.25" x2="497.5" y2="382.25"/>
    <line class="cls-1" x1="532.5" y1="382.25" x2="515" y2="382.25"/>
    <line class="cls-1" x1="532.5" y1="372.5" x2="515" y2="372.5"/>
    <line class="cls-1" x1="515" y1="372.5" x2="533" y2="358"/>
    <line class="cls-1" x1="497.5" y1="358" x2="515" y2="372.5"/>
    <polyline class="cls-1" points="291 357.83 291 413.5 497.75 413.33"/>
    <line class="cls-2" x1="255" y1="358.33" x2="255" y2="413.5"/>
    <line class="cls-1" x1="273" y1="413.5" x2="273" y2="373.67"/>
    <line class="cls-1" x1="273" y1="373.67" x2="291" y2="373.67"/>
    <line class="cls-1" x1="273" y1="373.67" x2="255" y2="373.67"/>
    <line class="cls-1" x1="273" y1="393.33" x2="255" y2="393.33"/>
    <line class="cls-1" x1="273" y1="403.17" x2="255" y2="403.17"/>
    <line class="cls-1" x1="255" y1="383.5" x2="273" y2="383.5"/>
    <line class="cls-1" x1="291" y1="393.33" x2="273" y2="393.33"/>
    <line class="cls-1" x1="291" y1="403.17" x2="273" y2="403.17"/>
    <line class="cls-1" x1="273" y1="383.5" x2="291" y2="383.5"/>
    <line class="cls-1" x1="433.38" y1="357.92" x2="433.38" y2="413.25"/>
    <line class="cls-1" x1="339.5" y1="453" x2="339.5" y2="512"/>
    <line class="cls-2" x1="255" y1="452.83" x2="255" y2="512"/>
    <line class="cls-1" x1="433.38" y1="453" x2="433.38" y2="512"/>
    <line class="cls-1" x1="254.75" y1="413.5" x2="254.75" y2="452.83"/>
    <line class="cls-1" x1="684" y1="186.5" x2="684" y2="221.33"/>
    <line class="cls-1" x1="684.5" y1="423.25" x2="663.25" y2="423.25"/>
    <line class="cls-1" x1="663.25" y1="478.25" x2="663.25" y2="423.33"/>
    <line class="cls-1" x1="663.25" y1="388.25" x2="663.25" y2="423.33"/>
    <line class="cls-1" x1="684" y1="601.25" x2="684" y2="635.83"/>
    <line class="cls-1" x1="922.31" y1="636.08" x2="922.31" y2="690.75"/>
    <line class="cls-1" x1="861.56" y1="636.1" x2="861.56" y2="691"/>
    <line class="cls-1" x1="821.81" y1="636.1" x2="821.81" y2="692"/>
    <line class="cls-1" x1="757.41" y1="636.03" x2="757.41" y2="691.25"/>
    <line class="cls-1" x1="1064.97" y1="691.27" x2="1064.97" y2="635.85"/>
    <line class="cls-2" x1="1094.84" y1="691.27" x2="1094.84" y2="636.1"/>
    <line class="cls-2" x1="1130.84" y1="691.27" x2="1130.84" y2="636.1"/>
    <line class="cls-1" x1="1112.84" y1="636.1" x2="1112.84" y2="675.44"/>
    <line class="cls-1" x1="1112.84" y1="675.44" x2="1094.84" y2="675.44"/>
    <line class="cls-1" x1="1112.84" y1="675.44" x2="1130.84" y2="675.44"/>
    <line class="cls-1" x1="1112.84" y1="655.77" x2="1130.84" y2="655.77"/>
    <line class="cls-1" x1="1112.84" y1="645.94" x2="1130.84" y2="645.94"/>
    <line class="cls-1" x1="1130.84" y1="665.6" x2="1112.84" y2="665.6"/>
    <line class="cls-1" x1="1094.84" y1="655.77" x2="1112.84" y2="655.77"/>
    <line class="cls-1" x1="1094.84" y1="645.94" x2="1112.84" y2="645.94"/>
    <line class="cls-1" x1="1112.84" y1="665.6" x2="1094.84" y2="665.6"/>
    <line class="cls-1" x1="1064.97" y1="636.1" x2="1095.33" y2="636.1"/>
    <line class="cls-1" x1="1130.34" y1="636.08" x2="1356.49" y2="636.08"/>
    <line class="cls-1" x1="1424" y1="600.92" x2="1424" y2="690.92"/>
    <line class="cls-1" x1="1299.71" y1="635.99" x2="1299.71" y2="691.13"/>
    <line class="cls-1" x1="1243.42" y1="635.99" x2="1243.42" y2="691.13"/>
    <line class="cls-1" x1="1187.13" y1="635.99" x2="1187.13" y2="691.13"/>
    <line class="cls-2" x1="1711.67" y1="580" x2="1711.67" y2="595.75"/>
    <line class="cls-2" x1="1654.94" y1="595.25" x2="1711.67" y2="595.25"/>
    <line class="cls-1" x1="1691.83" y1="579.96" x2="1691.83" y2="595.3"/>
    <line class="cls-1" x1="1630.38" y1="579.96" x2="1630.38" y2="595.3"/>
    <line class="cls-1" x1="1661.1" y1="579.91" x2="1661.1" y2="595.25"/>
    <line class="cls-1" x1="1676.47" y1="579.96" x2="1676.47" y2="595.3"/>
    <line class="cls-1" x1="1645.74" y1="579.91" x2="1645.74" y2="595.25"/>
    <line class="cls-1" x1="1668.79" y1="579.96" x2="1668.79" y2="595.3"/>
    <line class="cls-1" x1="1684.15" y1="579.96" x2="1684.15" y2="595.3"/>
    <line class="cls-1" x1="1653.42" y1="579.91" x2="1653.42" y2="595.25"/>
    <line class="cls-1" x1="1638.06" y1="579.96" x2="1638.06" y2="595.3"/>
    <g>
      <line class="cls-1" x1="1625.39" y1="587.58" x2="1694.48" y2="587.58"/>
      <path d="M1697.5,587.58c-1.42.53-3.18,1.43-4.27,2.38l.86-2.38-.86-2.38c1.09.95,2.85,1.85,4.27,2.38Z"/>
    </g>
    <g>
      <line class="cls-1" x1="1383" y1="334" x2="1383" y2="375.32"/>
      <path d="M1383,378.33c-.53-1.42-1.43-3.18-2.38-4.27l2.38.86,2.38-.86c-.95,1.09-1.85,2.85-2.38,4.27Z"/>
    </g>
    <g>
      <line class="cls-1" x1="1104" y1="332.96" x2="1104" y2="375.36"/>
      <path d="M1104,378.38c-.53-1.42-1.43-3.18-2.38-4.27l2.38.86,2.38-.86c-.95,1.09-1.85,2.85-2.38,4.27Z"/>
    </g>
    <g>
      <line class="cls-1" x1="1383" y1="635.99" x2="1383" y2="680.15"/>
      <path d="M1383,683.17c-.53-1.42-1.43-3.18-2.38-4.27l2.38.86,2.38-.86c-.95,1.09-1.85,2.85-2.38,4.27Z"/>
    </g>
    <g>
      <line class="cls-1" x1="1103.84" y1="635.85" x2="1103.84" y2="679.23"/>
      <path d="M1103.84,682.25c-.53-1.42-1.43-3.18-2.38-4.27l2.38.86,2.38-.86c-.95,1.09-1.85,2.85-2.38,4.27Z"/>
    </g>
    <g>
      <line class="cls-1" x1="711" y1="635.83" x2="711" y2="679.21"/>
      <path d="M711,682.23c-.53-1.42-1.43-3.18-2.38-4.27l2.38.86,2.38-.86c-.95,1.09-1.85,2.85-2.38,4.27Z"/>
    </g>
    <g>
      <line class="cls-1" x1="711" y1="423.33" x2="711" y2="466.71"/>
      <path d="M711,469.73c-.53-1.42-1.43-3.18-2.38-4.27l2.38.86,2.38-.86c-.95,1.09-1.85,2.85-2.38,4.27Z"/>
    </g>
    <g>
      <line class="cls-1" x1="711" y1="220.83" x2="711" y2="264.21"/>
      <path d="M711,267.23c-.53-1.42-1.43-3.18-2.38-4.27l2.38.86,2.38-.86c-.95,1.09-1.85,2.85-2.38,4.27Z"/>
    </g>
    <line class="cls-1" x1="523.75" y1="392" x2="523.75" y2="365.25"/>
    <line class="cls-1" x1="506.25" y1="365.25" x2="523.75" y2="365.25"/>
    <g>
      <line class="cls-1" x1="506.25" y1="365.05" x2="506.25" y2="385.23"/>
      <path d="M506.25,388.25c-.53-1.42-1.43-3.18-2.38-4.27l2.38.86,2.38-.86c-.95,1.09-1.85,2.85-2.38,4.27Z"/>
    </g>
    <g>
      <line class="cls-1" x1="264" y1="413.5" x2="264" y2="368.77"/>
      <path d="M264,365.75c.53,1.42,1.43,3.18,2.38,4.27l-2.38-.86-2.38.86c.95-1.09,1.85-2.85,2.38-4.27Z"/>
    </g>
    <line class="cls-1" x1="273.25" y1="413.5" x2="255" y2="413.5"/>
    <line class="cls-13" x1="278.5" y1="601.12" x2="278.5" y2="691.37"/>
    <line class="cls-13" x1="403.5" y1="601.25" x2="403.5" y2="691.5"/>
    <line class="cls-8" x1="385" y1="601.25" x2="375.5" y2="586"/>
    <line class="cls-8" x1="346" y1="601.25" x2="356.33" y2="586"/>
    <line class="cls-13" x1="328.67" y1="584.67" x2="348.17" y2="570.75"/>
    <line class="cls-13" x1="403.5" y1="584.67" x2="384" y2="570.75"/>
    <line class="cls-1" x1="346" y1="601.25" x2="385" y2="601.25"/>
    <line class="cls-1" x1="356.33" y1="586" x2="375.5" y2="586"/>
    <line class="cls-1" x1="351.17" y1="593.62" x2="380.25" y2="593.62"/>
    <line class="cls-1" x1="353.92" y1="589.56" x2="377.9" y2="589.56"/>
    <line class="cls-1" x1="348.72" y1="597.23" x2="382.5" y2="597.23"/>
    <line class="cls-1" x1="377.9" y1="589.56" x2="391.43" y2="576.03"/>
    <line class="cls-1" x1="380.25" y1="593.62" x2="395.1" y2="578.77"/>
    <line class="cls-1" x1="382.5" y1="597.23" x2="398.4" y2="581.33"/>
    <line class="cls-1" x1="353.92" y1="589.56" x2="340.54" y2="576.18"/>
    <line class="cls-1" x1="351.17" y1="593.62" x2="336.6" y2="579.05"/>
    <line class="cls-1" x1="348.72" y1="597.23" x2="333.21" y2="581.72"/>
    <line class="cls-1" x1="356.33" y1="586" x2="344.07" y2="573.74"/>
    <line class="cls-1" x1="375.5" y1="586" x2="387.95" y2="573.55"/>
    <line class="cls-1" x1="346" y1="601.25" x2="329.1" y2="584.35"/>
    <line class="cls-1" x1="385" y1="601.25" x2="402.43" y2="583.82"/>
    <g>
      <line class="cls-1" x1="350.11" y1="579.77" x2="338.88" y2="598.66"/>
      <path d="M337.33,601.25c.27-1.49.4-3.46.14-4.89l1.6,1.95,2.48.48c-1.38.45-3.05,1.51-4.23,2.46Z"/>
    </g>
    <g>
      <line class="cls-1" x1="381.63" y1="579.87" x2="392.72" y2="598.65"/>
      <path d="M394.25,601.25c-1.18-.95-2.85-2.02-4.22-2.47l2.48-.47,1.61-1.95c-.26,1.42-.14,3.4.13,4.89Z"/>
    </g>
    <polyline class="cls-1" points="183 601.25 183 581.5 217.17 581.5 217.17 589.75 192.25 589.75 192.25 601.25"/>
    <line class="cls-1" x1="192.25" y1="589.75" x2="192.25" y2="581.5"/>
    <line class="cls-1" x1="204.5" y1="581.5" x2="204.5" y2="589.75"/>
    <line class="cls-1" x1="198.38" y1="581.31" x2="198.38" y2="589.56"/>
    <line class="cls-1" x1="211.19" y1="581.5" x2="211.19" y2="589.75"/>
    <line class="cls-1" x1="201.44" y1="581.41" x2="201.44" y2="589.66"/>
    <line class="cls-1" x1="195.31" y1="581.5" x2="195.31" y2="589.75"/>
    <line class="cls-1" x1="208.12" y1="581.41" x2="208.12" y2="589.66"/>
    <line class="cls-1" x1="214.12" y1="581.5" x2="214.12" y2="589.75"/>
    <g>
      <line class="cls-1" x1="217.17" y1="585.61" x2="189.98" y2="585.61"/>
      <path d="M186.96,585.61c1.42-.53,3.18-1.43,4.27-2.38l-.86,2.38.86,2.38c-1.09-.95-2.85-1.85-4.27-2.38Z"/>
    </g>
    <g>
      <line class="cls-1" x1="693" y1="266.25" x2="693" y2="223.85"/>
      <path d="M693,220.83c.53,1.42,1.43,3.18,2.38,4.27l-2.38-.86-2.38.86c.95-1.09,1.85-2.85,2.38-4.27Z"/>
    </g>
    <g>
      <line class="cls-1" x1="693" y1="681.74" x2="693" y2="639.34"/>
      <path d="M693,636.32c.53,1.42,1.43,3.18,2.38,4.27l-2.38-.86-2.38.86c.95-1.09,1.85-2.85,2.38-4.27Z"/>
    </g>
    <g>
      <line class="cls-1" x1="693" y1="468.75" x2="693" y2="426.35"/>
      <path d="M693,423.33c.53,1.42,1.43,3.18,2.38,4.27l-2.38-.86-2.38.86c.95-1.09,1.85-2.85,2.38-4.27Z"/>
    </g>
    <g>
      <line class="cls-1" x1="1122" y1="378.38" x2="1122" y2="335.98"/>
      <path d="M1122,332.96c.53,1.42,1.43,3.18,2.38,4.27l-2.38-.86-2.38.86c.95-1.09,1.85-2.85,2.38-4.27Z"/>
    </g>
    <g>
      <line class="cls-1" x1="1365" y1="378.25" x2="1365" y2="335.85"/>
      <path d="M1365,332.83c.53,1.42,1.43,3.18,2.38,4.27l-2.38-.86-2.38.86c.95-1.09,1.85-2.85,2.38-4.27Z"/>
    </g>
    <g>
      <line class="cls-1" x1="1365" y1="681.27" x2="1365" y2="638.87"/>
      <path d="M1365,635.85c.53,1.42,1.43,3.18,2.38,4.27l-2.38-.86-2.38.86c.95-1.09,1.85-2.85,2.38-4.27Z"/>
    </g>
    <g>
      <line class="cls-1" x1="365.92" y1="600.29" x2="365.92" y2="584.1"/>
      <path d="M365.92,581.08c.53,1.42,1.43,3.18,2.38,4.27l-2.38-.86-2.38.86c.95-1.09,1.85-2.85,2.38-4.27Z"/>
    </g>
    <line class="cls-1" x1="255" y1="429.83" x2="183" y2="429.83"/>
    <line class="cls-1" x1="470" y1="453" x2="470" y2="512"/>
    <line class="cls-1" x1="278.5" y1="622.25" x2="403.5" y2="622.25"/>
    <line class="cls-1" x1="362.19" y1="622.31" x2="362.19" y2="691.44"/>
    <line class="cls-1" x1="787.5" y1="423.33" x2="787.5" y2="478.25"/>
    <line class="cls-1" x1="887.75" y1="423.33" x2="887.75" y2="478"/>
    <line class="cls-1" x1="953" y1="423.33" x2="953" y2="478"/>
    <line class="cls-1" x1="771.75" y1="423.33" x2="771.75" y2="446.53"/>
    <line class="cls-1" x1="787.5" y1="446.53" x2="771.75" y2="446.53"/>
    <line class="cls-2" x1="1022" y1="691.25" x2="1051.5" y2="691.25"/>
    <line class="cls-1" x1="1004.92" y1="636.1" x2="1064.76" y2="636.1"/>
    <g>
      <line class="cls-1" x1="1121.84" y1="681.27" x2="1121.84" y2="638.87"/>
      <path d="M1121.84,635.85c.53,1.42,1.43,3.18,2.38,4.27l-2.38-.86-2.38.86c.95-1.09,1.85-2.85,2.38-4.27Z"/>
    </g>
    <line class="cls-1" x1="1206" y1="360.65" x2="1230" y2="360.65"/>
    <line class="cls-1" x1="1315.06" y1="388.19" x2="1315.06" y2="332.81"/>
    <line class="cls-1" x1="1044.75" y1="275.25" x2="1095.49" y2="275.25"/>
    <line class="cls-1" x1="1044.75" y1="251.17" x2="1095" y2="251.17"/>
  </g>
  <g id="_構内道路" data-name="構内道路">
    <circle class="cls-1" cx="1189.98" cy="456.56" r="26.87"/>
  </g>
  <g id="_レイヤー_5" data-name="レイヤー_5">
    <text class="cls-33" transform="translate(610.54 235.2)"><tspan x="0" y="0">C26</tspan></text>
    <text class="cls-33" transform="translate(728.75 253.23)"><tspan x="0" y="0">C25</tspan></text>
    <text class="cls-33" transform="translate(771.65 252.98)"><tspan x="0" y="0">C24</tspan></text>
    <text class="cls-33" transform="translate(833.64 253.1)"><tspan x="0" y="0">C23</tspan></text>
    <text class="cls-33" transform="translate(910.33 253.35)"><tspan x="0" y="0">C22</tspan></text>
    <text class="cls-33" transform="translate(208.38 475.44)"><tspan x="0" y="0">H25</tspan></text>
    <text class="cls-33" transform="translate(351.69 390.23)"><tspan x="0" y="0">H27</tspan></text>
    <text class="cls-33" transform="translate(454.88 390.48)"><tspan x="0" y="0">H28</tspan></text>
    <text class="cls-33" transform="translate(286.75 487.19)"><tspan x="0" y="0">H24</tspan></text>
    <text class="cls-33" transform="translate(375.94 487.19)"><tspan x="0" y="0">H23</tspan></text>
    <text class="cls-33" transform="translate(491 487.14)"><tspan x="0" y="0">H21</tspan></text>
    <text class="cls-33" transform="translate(220.25 651)"><tspan x="0" y="0">I24</tspan></text>
    <text class="cls-33" transform="translate(311.5 661.56) scale(.84 1)"><tspan x="0" y="0">I23</tspan></text>
    <text class="cls-33" transform="translate(457.75 651.06)"><tspan x="0" y="0">I21</tspan></text>
    <text class="cls-33" transform="translate(615.5 651.06)"><tspan x="0" y="0">E26</tspan></text>
    <text class="cls-33" transform="translate(728.27 668.36)"><tspan x="0" y="0">E25</tspan></text>
    <text class="cls-33" transform="translate(779.11 668.2)"><tspan x="0" y="0">E24</tspan></text>
    <text class="cls-33" transform="translate(831.19 668.2)"><tspan x="0" y="0">E23</tspan></text>
    <text class="cls-33" transform="translate(881.49 668.35)"><tspan x="0" y="0">E22</tspan></text>
    <text class="cls-33" transform="translate(953.22 668.24)"><tspan x="0" y="0">E21</tspan></text>
    <text class="cls-33" transform="translate(605.13 437.94)"><tspan x="0" y="0">D27</tspan></text>
    <text class="cls-33" transform="translate(655.33 505.25)"><tspan x="0" y="0">D26</tspan></text>
    <text class="cls-33" transform="translate(743.25 455.48)"><tspan x="0" y="0">D25</tspan></text>
    <text class="cls-33" transform="translate(827.13 455.35)"><tspan x="0" y="0">D23</tspan></text>
    <text class="cls-33" transform="translate(909.87 455.44)"><tspan x="0" y="0">D22</tspan></text>
    <text class="cls-33" transform="translate(968.69 455.35)"><tspan x="0" y="0">D21</tspan></text>
    <text class="cls-33" transform="translate(1158 365.38)"><tspan x="0" y="0">A25</tspan></text>
    <text class="cls-33" transform="translate(1216.05 322.14)"><tspan x="0" y="0">A25</tspan></text>
    <text class="cls-33" transform="translate(1272.91 364.82)"><tspan x="0" y="0">A23</tspan></text>
    <text class="cls-33" transform="translate(1447.5 347.98)"><tspan x="0" y="0">A21</tspan></text>
    <text class="cls-33" transform="translate(1148.49 668.3)"><tspan x="0" y="0">B26</tspan></text>
    <text class="cls-33" transform="translate(1204.78 668.25)"><tspan x="0" y="0">B25</tspan></text>
    <text class="cls-33" transform="translate(1261.07 668.25)"><tspan x="0" y="0">B24</tspan></text>
    <text class="cls-33" transform="translate(1317.36 668.3)"><tspan x="0" y="0">B23</tspan></text>
    <text class="cls-33" transform="translate(1397.5 668.35)"><tspan x="0" y="0">B22</tspan></text>
    <text class="cls-33" transform="translate(1463.5 650.77)"><tspan x="0" y="0">B21</tspan></text>
    <g>
      <g>
        <path class="cls-42" d="M1075.64,351.57c-.38.07-.71.31-.92.66-.17.29-.25.61-.22.97.04.55.39,1.06.86,1.26.19.08.28.1.51.1.22,0,.27,0,.44-.07.34-.12.67-.44.82-.8.16-.39.17-.83.02-1.22-.1-.25-.3-.52-.49-.66-.3-.22-.68-.31-1.01-.24Z"/>
        <path class="cls-42" d="M1074.19,354.92s-.06.01-.12.02c-.14.02-.35.1-.48.18-.5.28-.85.8-.94,1.42-.02.14-.02.28-.02,2.63v2.48l.03.1c.09.32.41.51.71.43.21-.05.35-.18.43-.4l.03-.09v-2.21s0-2.21,0-2.21h.29v5.92s0,5.92,0,5.92l.03.09c.08.24.2.4.38.5.25.13.51.13.76,0,.2-.1.35-.31.41-.56.01-.06.02-.76.02-3.52v-3.45h.28v3.43c0,2.96,0,3.45.02,3.53.08.42.44.7.85.67.34-.03.6-.24.7-.57l.04-.11v-5.92s0-5.92,0-5.92h.14s.14,0,.14,0v2.22c.01,1.57.02,2.23.03,2.26.1.29.3.45.58.45.3,0,.54-.23.58-.56.01-.08.01-.77.01-2.52,0-2.26,0-2.42-.03-2.54-.07-.42-.24-.77-.5-1.06-.24-.28-.51-.45-.87-.54l-.14-.04h-1.68c-.92,0-1.69,0-1.7,0Z"/>
      </g>
      <g>
        <path class="cls-35" d="M1083.47,351.55c-.49.08-.87.37-1.08.84-.14.31-.17.7-.09,1.04.04.16.14.37.24.51.28.4.77.63,1.23.57.58-.07,1.04-.49,1.2-1.11.02-.09.03-.15.03-.37,0-.25,0-.27-.04-.39-.02-.07-.06-.18-.08-.23-.22-.5-.69-.83-1.2-.85-.09,0-.18,0-.2,0Z"/>
        <path class="cls-35" d="M1082.44,354.91c-.38.05-.74.25-1.03.57-.25.27-.37.52-.51,1-.43,1.53-.48,1.71-.87,3.1-.08.29-.18.64-.22.78-.08.28-.1.42-.07.56.05.3.28.51.56.51.22,0,.41-.13.52-.36.03-.05.25-.83.58-2.04.3-1.07.54-1.97.54-1.99v-.04h.3l-.19.7c-.1.39-.32,1.17-.47,1.75s-.36,1.33-.45,1.68c-.5,1.86-.75,2.82-.75,2.84,0,.01.24.02.87.02h.87v2.6c0,2.82,0,2.69.07,2.85.1.21.3.34.53.36.33.02.62-.2.68-.53.01-.05.01-.84.01-2.69v-2.62h.38v2.63c0,2.28,0,2.64.02,2.71.05.23.19.39.4.47.11.04.35.04.46,0,.22-.09.35-.25.4-.49.01-.08.02-.51.02-2.69v-2.59h.86c.48,0,.87,0,.87,0s-.05-.23-.13-.51c-.07-.28-.22-.82-.32-1.2-.1-.38-.24-.89-.3-1.13s-.2-.73-.29-1.08-.23-.84-.29-1.08-.2-.75-.3-1.13c-.1-.38-.2-.73-.21-.77l-.02-.07h.16c.09,0,.16,0,.16,0s.03.1.06.22c.03.12.13.48.23.82s.26.95.38,1.38c.4,1.45.44,1.58.48,1.67.12.24.36.38.58.34.3-.06.49-.31.49-.65,0-.17.06.07-.56-2.12-.16-.57-.36-1.27-.44-1.56-.28-1-.28-1.01-.43-1.25-.24-.4-.59-.7-.98-.85-.25-.09-.19-.09-1.43-.09-.62,0-1.17,0-1.22,0Z"/>
      </g>
    </g>
    <g>
      <g>
        <path class="cls-42" d="M1075.38,654.59c-.38.07-.71.31-.92.66-.17.29-.25.61-.22.97.04.55.39,1.06.86,1.26.19.08.28.1.51.1.22,0,.27,0,.44-.07.34-.12.67-.44.82-.8.16-.39.17-.83.02-1.22-.1-.25-.3-.52-.49-.66-.3-.22-.68-.31-1.01-.24Z"/>
        <path class="cls-42" d="M1073.93,657.94s-.06.01-.12.02c-.14.02-.35.1-.48.18-.5.28-.85.8-.94,1.42-.02.14-.02.28-.02,2.63v2.48l.03.1c.09.32.41.51.71.43.21-.05.35-.18.43-.4l.03-.09v-2.21s0-2.21,0-2.21h.29v5.92s0,5.92,0,5.92l.03.09c.08.24.2.4.38.5.25.13.51.13.76,0,.2-.1.35-.31.41-.56.01-.06.02-.76.02-3.52v-3.45h.28v3.43c0,2.96,0,3.45.02,3.53.08.42.44.7.85.67.34-.03.6-.24.7-.57l.04-.11v-5.92s0-5.92,0-5.92h.14s.14,0,.14,0v2.22c.01,1.57.02,2.23.03,2.26.1.29.3.45.58.45.3,0,.54-.23.58-.56.01-.08.01-.77.01-2.52,0-2.26,0-2.42-.03-2.54-.07-.42-.24-.77-.5-1.06-.24-.28-.51-.45-.87-.54l-.14-.04h-1.68c-.92,0-1.69,0-1.7,0Z"/>
      </g>
      <g>
        <path class="cls-35" d="M1083.21,654.57c-.49.08-.87.37-1.08.84-.14.31-.17.7-.09,1.04.04.16.14.37.24.51.28.4.77.63,1.23.57.58-.07,1.04-.49,1.2-1.11.02-.09.03-.15.03-.37,0-.25,0-.27-.04-.39-.02-.07-.06-.18-.08-.23-.22-.5-.69-.83-1.2-.85-.09,0-.18,0-.2,0Z"/>
        <path class="cls-35" d="M1082.18,657.93c-.38.05-.74.25-1.03.57-.25.27-.37.52-.51,1-.43,1.53-.48,1.71-.87,3.1-.08.29-.18.64-.22.78-.08.28-.1.42-.07.56.05.3.28.51.56.51.22,0,.41-.13.52-.36.03-.05.25-.83.58-2.04.3-1.07.54-1.97.54-1.99v-.04h.3l-.19.7c-.1.39-.32,1.17-.47,1.75s-.36,1.33-.45,1.68c-.5,1.86-.75,2.82-.75,2.84,0,.01.24.02.87.02h.87v2.6c0,2.82,0,2.69.07,2.85.1.21.3.34.53.36.33.02.62-.2.68-.53.01-.05.01-.84.01-2.69v-2.62h.38v2.63c0,2.28,0,2.64.02,2.71.05.23.19.39.4.47.11.04.35.04.46,0,.22-.09.35-.25.4-.49.01-.08.02-.51.02-2.69v-2.59h.86c.48,0,.87,0,.87,0s-.05-.23-.13-.51c-.07-.28-.22-.82-.32-1.2-.1-.38-.24-.89-.3-1.13s-.2-.73-.29-1.08-.23-.84-.29-1.08-.2-.75-.3-1.13c-.1-.38-.2-.73-.21-.77l-.02-.07h.16c.09,0,.16,0,.16,0s.03.1.06.22c.03.12.13.48.23.82s.26.95.38,1.38c.4,1.45.44,1.58.48,1.67.12.24.36.38.58.34.3-.06.49-.31.49-.65,0-.17.06.07-.56-2.12-.16-.57-.36-1.27-.44-1.56-.28-1-.28-1.01-.43-1.25-.24-.4-.59-.7-.98-.85-.25-.09-.19-.09-1.43-.09-.62,0-1.17,0-1.22,0Z"/>
      </g>
    </g>
    <g>
      <g>
        <path class="cls-42" d="M1626.81,603.87c-.38.07-.71.31-.92.66-.17.29-.25.61-.22.97.04.55.39,1.06.86,1.26.19.08.28.1.51.1.22,0,.27,0,.44-.07.34-.12.67-.44.82-.8.16-.39.17-.83.02-1.22-.1-.25-.3-.52-.49-.66-.3-.22-.68-.31-1.01-.24Z"/>
        <path class="cls-42" d="M1625.37,607.22s-.06.01-.12.02c-.14.02-.35.1-.48.18-.5.28-.85.8-.94,1.42-.02.14-.02.28-.02,2.63v2.48l.03.1c.09.32.41.51.71.43.21-.05.35-.18.43-.4l.03-.09v-2.21s0-2.21,0-2.21h.29v5.92s0,5.92,0,5.92l.03.09c.08.24.2.4.38.5.25.13.51.13.76,0,.2-.1.35-.31.41-.56.01-.06.02-.76.02-3.52v-3.45h.28v3.43c0,2.96,0,3.45.02,3.53.08.42.44.7.85.67.34-.03.6-.24.7-.57l.04-.11v-5.92s0-5.92,0-5.92h.14s.14,0,.14,0v2.22c.01,1.57.02,2.23.03,2.26.1.29.3.45.58.45.3,0,.54-.23.58-.56.01-.08.01-.77.01-2.52,0-2.26,0-2.42-.03-2.54-.07-.42-.24-.77-.5-1.06-.24-.28-.51-.45-.87-.54l-.14-.04h-1.68c-.92,0-1.69,0-1.7,0Z"/>
      </g>
      <g>
        <path class="cls-35" d="M1634.65,603.86c-.49.08-.87.37-1.08.84-.14.31-.17.7-.09,1.04.04.16.14.37.24.51.28.4.77.63,1.23.57.58-.07,1.04-.49,1.2-1.11.02-.09.03-.15.03-.37,0-.25,0-.27-.04-.39-.02-.07-.06-.18-.08-.23-.22-.5-.69-.83-1.2-.85-.09,0-.18,0-.2,0Z"/>
        <path class="cls-35" d="M1633.61,607.21c-.38.05-.74.25-1.03.57-.25.27-.37.52-.51,1-.43,1.53-.48,1.71-.87,3.1-.08.29-.18.64-.22.78-.08.28-.1.42-.07.56.05.3.28.51.56.51.22,0,.41-.13.52-.36.03-.05.25-.83.58-2.04.3-1.07.54-1.97.54-1.99v-.04h.3l-.19.7c-.1.39-.32,1.17-.47,1.75s-.36,1.33-.45,1.68c-.5,1.86-.75,2.82-.75,2.84,0,.01.24.02.87.02h.87v2.6c0,2.82,0,2.69.07,2.85.1.21.3.34.53.36.33.02.62-.2.68-.53.01-.05.01-.84.01-2.69v-2.62h.38v2.63c0,2.28,0,2.64.02,2.71.05.23.19.39.4.47.11.04.35.04.46,0,.22-.09.35-.25.4-.49.01-.08.02-.51.02-2.69v-2.59h.86c.48,0,.87,0,.87,0s-.05-.23-.13-.51c-.07-.28-.22-.82-.32-1.2-.1-.38-.24-.89-.3-1.13s-.2-.73-.29-1.08-.23-.84-.29-1.08-.2-.75-.3-1.13c-.1-.38-.2-.73-.21-.77l-.02-.07h.16c.09,0,.16,0,.16,0s.03.1.06.22c.03.12.13.48.23.82s.26.95.38,1.38c.4,1.45.44,1.58.48,1.67.12.24.36.38.58.34.3-.06.49-.31.49-.65,0-.17.06.07-.56-2.12-.16-.57-.36-1.27-.44-1.56-.28-1-.28-1.01-.43-1.25-.24-.4-.59-.7-.98-.85-.25-.09-.19-.09-1.43-.09-.62,0-1.17,0-1.22,0Z"/>
      </g>
    </g>
    <text class="cls-33" transform="translate(1696.36 229.03) scale(.98 1)"><tspan x="0" y="0">大体育館</tspan></text>
    <text class="cls-33" transform="translate(1777.66 432.66) scale(.98 1)"><tspan x="0" y="0">プール</tspan></text>
    <text class="cls-33" transform="translate(1655.99 875.15) scale(.98 1)"><tspan x="0" y="0">家庭科棟</tspan></text>
    <text class="cls-33" transform="translate(1767.11 1120.78) scale(.98 1)"><tspan x="0" y="0">小体育館</tspan></text>
    <text class="cls-33" transform="translate(1625.98 545.67) scale(.98 1)"><tspan x="0" y="0">同窓会館</tspan></text>
    <text class="cls-33" transform="translate(639.53 338.01) scale(.98 1)"><tspan x="0" y="0">危険</tspan><tspan x="-7" y="16.8">薬品庫</tspan></text>
    <line class="cls-28" x1="672.43" y1="468.7" x2="666.22" y2="491.25"/>
    <text class="cls-33" transform="translate(1059.38 223.52)"><tspan x="0" y="0">A28</tspan></text>
    <text class="cls-33" transform="translate(1059.38 267.89)"><tspan x="0" y="0">A27</tspan></text>
    <text class="cls-33" transform="translate(1059.38 291.5)"><tspan x="0" y="0">A26</tspan></text>
    <text class="cls-33" transform="translate(971.58 253.23)"><tspan x="0" y="0">C21</tspan></text>
    <text class="cls-33" transform="translate(770.9 415.25)"><tspan x="0" y="0">D24</tspan></text>
    <text class="cls-33" transform="translate(441 487.19)"><tspan x="0" y="0">H22</tspan></text>
    <text class="cls-33" transform="translate(208.5 398.6)"><tspan x="0" y="0">H26</tspan></text>
    <text class="cls-33" transform="translate(372.12 661.56)"><tspan x="0" y="0">I22</tspan></text>
    <text class="cls-33" transform="translate(1024.34 668.37)"><tspan x="0" y="0">B27</tspan></text>
    <text class="cls-33" transform="translate(1237.67 408.31)"><tspan x="0" y="0">A24</tspan></text>
    <text class="cls-33" transform="translate(1325.03 365.19)"><tspan x="0" y="0">A22</tspan></text>
    <line class="cls-28" x1="1222.17" y1="325.67" x2="1218" y2="345"/>
    <line class="cls-28" x1="1242" y1="379" x2="1244.67" y2="395"/>
    <line class="cls-28" x1="779.62" y1="418.12" x2="779.62" y2="430.75"/>
    <text class="cls-32" transform="translate(613.86 880.66) scale(.98 1)"><tspan x="0" y="0">機械実習棟(F棟)</tspan></text>
    <text class="cls-32" transform="translate(121.86 721.89) scale(.98 1)"><tspan x="0" y="0">情報工学科棟(I棟)</tspan></text>
    <text class="cls-32" transform="translate(148.19 539.14) scale(.98 1)"><tspan x="0" y="0">建築棟(H棟)</tspan></text>
    <text class="cls-32" transform="translate(744.18 595.28) scale(.98 1)"><tspan x="0" y="0">機械・電気科(E棟)</tspan></text>
    <text class="cls-32" transform="translate(789.22 382.25) scale(.98 1)"><tspan x="0" y="0">化学棟(D棟)</tspan></text>
    <text class="cls-32" transform="translate(753.94 310.74) scale(.98 1)"><tspan x="0" y="0">土木・建築棟(C棟)</tspan></text>
    <text class="cls-32" transform="translate(1152.18 293.18) scale(.98 1)"><tspan x="0" y="0">管理棟(A棟)</tspan></text>
    <text class="cls-32" transform="translate(1106.28 595.25) scale(.98 1)"><tspan x="0" y="0">ホームルーム棟(B棟)</tspan></text>
    <text class="cls-32" transform="translate(213.74 267.23) scale(.98 1)"><tspan x="0" y="0">土木・建築実習棟(G棟)</tspan></text>
    <text class="cls-30" transform="translate(743.96 1202.35) scale(.98 1)"><tspan x="0" y="0">グラウンド</tspan></text>
    <text class="cls-29" transform="translate(1250.12 860.64) scale(.98 1)"><tspan x="0" y="0">部室</tspan></text>
    <text class="cls-31" transform="translate(1324.88 145.21) scale(.98 1)"><tspan x="0" y="0">車廻</tspan></text>
    <text class="cls-33" transform="translate(1683.98 723.71) scale(.98 1)"><tspan x="0" y="0">格技室・柔道場</tspan></text>
  </g>
</svg>