<?xml version="1.0" encoding="UTF-8"?>
<svg xmlns="http://www.w3.org/2000/svg" viewBox="0 0 1414.64 579.75">
  <defs>
    <style>
      .cls-1 {
        stroke-width: .5px;
      }

      .cls-1, .cls-2, .cls-3, .cls-4, .cls-5 {
        stroke: #000;
        stroke-miterlimit: 10;
      }

      .cls-1, .cls-2, .cls-4 {
        fill: none;
      }

      .cls-6, .cls-3, .cls-5 {
        fill: #fff;
      }

      .cls-3, .cls-4 {
        stroke-dasharray: 12;
      }

      .cls-7 {
        fill: #e73964;
      }

      .cls-8 {
        fill: #f5f4a9;
      }

      .cls-9 {
        font-size: 24px;
      }

      .cls-9, .cls-10 {
        font-family: UDDigiKyokashoN-R, 'UD Digi Kyokasho N-R';
      }

      .cls-11 {
        fill: #231815;
      }

      .cls-11, .cls-12 {
        font-family: KozGoPr6N-Regular-90ms-RKSJ-H, 'Kozuka Gothic Pr6N';
        font-size: 12px;
      }

      .cls-13 {
        fill: #b9dba9;
      }

      .cls-14 {
        fill: #c3b7ab;
      }

      .cls-15 {
        fill: #2668b2;
      }

      .cls-10 {
        font-size: 14px;
      }
    </style>
  </defs>
  <g id="_レイヤー_4" data-name="レイヤー_4">
    <rect class="cls-6" x="641.14" y="221.08" width="56.27" height="55.04"/>
    <rect class="cls-6" x="697.4" y="220.95" width="56.27" height="54.92"/>
    <rect class="cls-6" x="753.62" y="220.95" width="60.78" height="55.17"/>
    <rect class="cls-6" x="814.4" y="220.95" width="51.73" height="55.04"/>
    <rect class="cls-6" x="902.14" y="220.83" width="66" height="55.42"/>
    <rect class="cls-6" x="968.14" y="220.83" width="66" height="55.42"/>
    <rect class="cls-6" x="935.14" y="489.25" width="94.52" height="90"/>
    <rect class="cls-6" x="902.14" y="524.08" width="33" height="55.25"/>
    <rect class="cls-6" x="809.85" y="523.98" width="56.29" height="55.26"/>
    <rect class="cls-6" x="753.56" y="523.98" width="56.29" height="55.26"/>
    <rect class="cls-6" x="697.27" y="523.98" width="56.29" height="55.26"/>
    <rect class="cls-6" x="640.98" y="524.1" width="56.29" height="55.03"/>
    <rect class="cls-6" x="575.1" y="524.1" width="29.88" height="55.17"/>
  </g>
  <g id="_色塗" data-name="色塗">
    <rect class="cls-14" x="73.14" y="74.5" width="442" height="90"/>
    <rect class="cls-13" x="78.14" y="276.25" width="437.13" height="90"/>
    <rect class="cls-8" x="78.14" y="489.25" width="437" height="90"/>
    <rect class="cls-6" x="515.14" y="40" width="90" height="236.25"/>
    <rect class="cls-6" x="515.26" y="260.41" width="59.84" height="318.85"/>
    <rect class="cls-6" x="575.26" y="489.25" width="359.88" height="34.83"/>
    <rect class="cls-6" x="866.14" y="523.98" width="36" height="55.35"/>
    <rect class="cls-6" x="604.97" y="524.17" width="36.01" height="54.96"/>
    <rect class="cls-6" x="1081.64" y=".5" width="307.5" height="225"/>
    <rect class="cls-6" x="1373.46" y="184.83" width="40.67" height="40.67"/>
  </g>
  <g id="_テクスチャ" data-name="テクスチャ">
    <line class="cls-3" x1="575.26" y1="276.25" x2="575.26" y2="489.25"/>
    <polyline class="cls-4" points="515.14 276.25 78.14 276.25 78.14 366.25 515.14 366.25"/>
    <polyline class="cls-2" points="557.15 579.25 1029.65 579.25 1029.65 489.25 574.76 489.25"/>
    <polyline class="cls-4" points="515.14 164.5 73.14 164.5 73.14 74.5 515.14 74.5"/>
    <polyline class="cls-4" points="515.14 74.53 515.14 40 605.14 40 605.14 186.75"/>
    <line class="cls-3" x1="515.14" y1="276.25" x2="515.14" y2="164.5"/>
    <polyline class="cls-5" points="605.14 186.25 1034.14 186.25 1034.14 276.25 605.14 276.25"/>
    <polyline class="cls-3" points="814.14 185.91 814.14 159.25 890.14 159.25 890.14 185.91"/>
    <line class="cls-4" x1="515.26" y1="366.25" x2="515.26" y2="489.25"/>
    <line class="cls-4" x1="605.14" y1="276.25" x2="575.26" y2="276.25"/>
    <line class="cls-4" x1="1389.14" y1="184.83" x2="1414.14" y2="184.83"/>
    <line class="cls-4" x1="1414.14" y1="225.5" x2="1389.14" y2="225.5"/>
    <line class="cls-4" x1="1414.14" y1="184.83" x2="1414.14" y2="225.5"/>
    <polyline class="cls-4" points="1389.14 225.5 1081.64 225.5 1081.64 .5 1389.14 .5 1389.14 184.83"/>
    <polyline class="cls-4" points="515.27 489.25 78.14 489.25 78.14 579.25 532.14 579.25"/>
    <line class="cls-2" x1="605.14" y1="221.08" x2="605.14" y2="186.25"/>
    <line class="cls-2" x1="575.1" y1="524.1" x2="575.26" y2="489.25"/>
  </g>
  <g id="_間取り" data-name="間取り">
    <line class="cls-2" x1="866.14" y1="579.25" x2="866.14" y2="524.08"/>
    <line class="cls-2" x1="902.14" y1="579.25" x2="902.14" y2="524.08"/>
    <line class="cls-1" x1="884.14" y1="524.08" x2="884.14" y2="563.41"/>
    <line class="cls-1" x1="884.14" y1="563.41" x2="866.14" y2="563.41"/>
    <line class="cls-1" x1="884.14" y1="563.41" x2="902.14" y2="563.41"/>
    <line class="cls-1" x1="935.14" y1="524.08" x2="901.63" y2="524.08"/>
    <line class="cls-1" x1="884.14" y1="543.75" x2="902.14" y2="543.75"/>
    <line class="cls-1" x1="884.14" y1="533.91" x2="902.14" y2="533.91"/>
    <line class="cls-1" x1="902.14" y1="553.58" x2="884.14" y2="553.58"/>
    <line class="cls-1" x1="866.14" y1="543.75" x2="884.14" y2="543.75"/>
    <line class="cls-1" x1="866.14" y1="533.91" x2="884.14" y2="533.91"/>
    <line class="cls-1" x1="884.14" y1="553.58" x2="866.14" y2="553.58"/>
    <line class="cls-2" x1="866.14" y1="276" x2="866.14" y2="220.83"/>
    <line class="cls-2" x1="902.14" y1="276" x2="902.14" y2="220.83"/>
    <line class="cls-1" x1="884.14" y1="220.83" x2="884.14" y2="260.16"/>
    <line class="cls-1" x1="884.14" y1="260.16" x2="866.14" y2="260.16"/>
    <line class="cls-1" x1="884.14" y1="260.16" x2="902.14" y2="260.16"/>
    <line class="cls-1" x1="884.14" y1="240.5" x2="902.14" y2="240.5"/>
    <line class="cls-1" x1="884.14" y1="230.66" x2="902.14" y2="230.66"/>
    <line class="cls-1" x1="902.14" y1="250.33" x2="884.14" y2="250.33"/>
    <line class="cls-1" x1="866.14" y1="240.5" x2="884.14" y2="240.5"/>
    <line class="cls-1" x1="866.14" y1="230.66" x2="884.14" y2="230.66"/>
    <line class="cls-1" x1="884.14" y1="250.33" x2="866.14" y2="250.33"/>
    <line class="cls-1" x1="1034.14" y1="220.83" x2="902.14" y2="220.83"/>
    <line class="cls-2" x1="605.14" y1="276.25" x2="605.14" y2="221.08"/>
    <line class="cls-1" x1="623.14" y1="221.08" x2="623.14" y2="260.41"/>
    <line class="cls-1" x1="623.14" y1="260.41" x2="605.14" y2="260.41"/>
    <line class="cls-1" x1="623.14" y1="260.41" x2="641.14" y2="260.41"/>
    <line class="cls-1" x1="623.14" y1="240.75" x2="641.14" y2="240.75"/>
    <line class="cls-1" x1="623.14" y1="230.91" x2="641.14" y2="230.91"/>
    <line class="cls-1" x1="641.14" y1="250.58" x2="623.14" y2="250.58"/>
    <line class="cls-1" x1="605.14" y1="240.75" x2="623.14" y2="240.75"/>
    <line class="cls-1" x1="605.14" y1="230.91" x2="623.14" y2="230.91"/>
    <line class="cls-1" x1="623.14" y1="250.58" x2="605.14" y2="250.58"/>
    <line class="cls-2" x1="641.14" y1="221.08" x2="641.14" y2="276.25"/>
    <line class="cls-1" x1="866.63" y1="220.83" x2="640.63" y2="221.08"/>
    <line class="cls-1" x1="814.4" y1="221.2" x2="814.4" y2="276.12"/>
    <line class="cls-1" x1="697.4" y1="221.2" x2="697.4" y2="276.12"/>
    <line class="cls-1" x1="753.67" y1="220.95" x2="753.67" y2="275.87"/>
    <line class="cls-1" x1="968.14" y1="220.83" x2="968.14" y2="276"/>
    <line class="cls-2" x1="575.1" y1="579.27" x2="575.1" y2="523.85"/>
    <line class="cls-2" x1="604.98" y1="579.27" x2="604.98" y2="524.1"/>
    <line class="cls-2" x1="640.98" y1="579.27" x2="640.98" y2="524.1"/>
    <line class="cls-1" x1="622.98" y1="524.1" x2="622.98" y2="563.43"/>
    <line class="cls-1" x1="622.98" y1="563.43" x2="604.98" y2="563.43"/>
    <line class="cls-1" x1="622.98" y1="563.43" x2="640.98" y2="563.43"/>
    <line class="cls-1" x1="622.98" y1="543.77" x2="640.98" y2="543.77"/>
    <line class="cls-1" x1="622.98" y1="533.93" x2="640.98" y2="533.93"/>
    <line class="cls-1" x1="640.98" y1="553.6" x2="622.98" y2="553.6"/>
    <line class="cls-1" x1="604.98" y1="543.77" x2="622.98" y2="543.77"/>
    <line class="cls-1" x1="604.98" y1="533.93" x2="622.98" y2="533.93"/>
    <line class="cls-1" x1="622.98" y1="553.6" x2="604.98" y2="553.6"/>
    <line class="cls-1" x1="575.1" y1="524.1" x2="605.48" y2="524.1"/>
    <line class="cls-1" x1="640.98" y1="524.08" x2="866.65" y2="524.08"/>
    <line class="cls-1" x1="935.14" y1="489.25" x2="935.14" y2="579.19"/>
    <line class="cls-1" x1="809.85" y1="523.98" x2="809.85" y2="579.13"/>
    <line class="cls-1" x1="753.56" y1="523.98" x2="753.56" y2="579.13"/>
    <line class="cls-1" x1="697.27" y1="523.98" x2="697.27" y2="579.13"/>
    <g>
      <line class="cls-1" x1="893.14" y1="220.95" x2="893.14" y2="263.31"/>
      <path d="M893.14,266.33c-.53-1.42-1.43-3.18-2.38-4.27l2.38.86,2.38-.86c-.95,1.09-1.85,2.85-2.38,4.27Z"/>
    </g>
    <g>
      <line class="cls-1" x1="614.14" y1="220.95" x2="614.14" y2="263.35"/>
      <path d="M614.14,266.37c-.53-1.42-1.43-3.18-2.38-4.27l2.38.86,2.38-.86c-.95,1.09-1.85,2.85-2.38,4.27Z"/>
    </g>
    <g>
      <line class="cls-1" x1="893.14" y1="523.98" x2="893.14" y2="568.15"/>
      <path d="M893.14,571.16c-.53-1.42-1.43-3.18-2.38-4.27l2.38.86,2.38-.86c-.95,1.09-1.85,2.85-2.38,4.27Z"/>
    </g>
    <g>
      <line class="cls-1" x1="613.98" y1="523.85" x2="613.98" y2="567.23"/>
      <path d="M613.98,570.25c-.53-1.42-1.43-3.18-2.38-4.27l2.38.86,2.38-.86c-.95,1.09-1.85,2.85-2.38,4.27Z"/>
    </g>
    <g>
      <line class="cls-1" x1="632.14" y1="266.37" x2="632.14" y2="223.97"/>
      <path d="M632.14,220.95c.53,1.42,1.43,3.18,2.38,4.27l-2.38-.86-2.38.86c.95-1.09,1.85-2.85,2.38-4.27Z"/>
    </g>
    <g>
      <line class="cls-1" x1="875.14" y1="266.25" x2="875.14" y2="223.85"/>
      <path d="M875.14,220.83c.53,1.42,1.43,3.18,2.38,4.27l-2.38-.86-2.38.86c.95-1.09,1.85-2.85,2.38-4.27Z"/>
    </g>
    <g>
      <line class="cls-1" x1="875.14" y1="569.27" x2="875.14" y2="526.87"/>
      <path d="M875.14,523.85c.53,1.42,1.43,3.18,2.38,4.27l-2.38-.86-2.38.86c.95-1.09,1.85-2.85,2.38-4.27Z"/>
    </g>
    <line class="cls-4" x1="532.14" y1="579.25" x2="561.64" y2="579.25"/>
    <g>
      <line class="cls-1" x1="631.98" y1="569.27" x2="631.98" y2="526.87"/>
      <path d="M631.98,523.85c.53,1.42,1.43,3.18,2.38,4.27l-2.38-.86-2.38.86c.95-1.09,1.85-2.85,2.38-4.27Z"/>
    </g>
    <line class="cls-1" x1="883.89" y1="220.83" x2="902.14" y2="220.83"/>
    <line class="cls-1" x1="605.14" y1="221.08" x2="623.4" y2="221.08"/>
    <line class="cls-1" x1="604.97" y1="524.1" x2="623.23" y2="524.1"/>
    <line class="cls-1" x1="883.88" y1="524.08" x2="902.14" y2="524.08"/>
  </g>
  <g id="_レイヤー_5" data-name="レイヤー_5">
    <text class="cls-11" transform="translate(658.72 251.85)"><tspan x="0" y="0">A46</tspan></text>
    <text class="cls-12" transform="translate(714.99 251.66)"><tspan x="0" y="0">A45</tspan></text>
    <text class="cls-12" transform="translate(773.46 251.78)"><tspan x="0" y="0">A44</tspan></text>
    <text class="cls-12" transform="translate(829.72 251.72)"><tspan x="0" y="0">A43</tspan></text>
    <text class="cls-12" transform="translate(924.59 251.78)"><tspan x="0" y="0">A42</tspan></text>
    <text class="cls-12" transform="translate(990.59 251.78)"><tspan x="0" y="0">A41</tspan></text>
    <text class="cls-12" transform="translate(974.54 537.49)"><tspan x="0" y="0">B41</tspan></text>
    <text class="cls-12" transform="translate(908.54 554.95)"><tspan x="0" y="0">B42</tspan></text>
    <text class="cls-12" transform="translate(827.9 554.86)"><tspan x="0" y="0">B43</tspan></text>
    <text class="cls-12" transform="translate(771.61 554.86)"><tspan x="0" y="0">B44</tspan></text>
    <text class="cls-12" transform="translate(715.32 554.86)"><tspan x="0" y="0">B45</tspan></text>
    <text class="cls-12" transform="translate(659.03 554.86)"><tspan x="0" y="0">B46</tspan></text>
    <g>
      <g>
        <path class="cls-15" d="M585.62,542.58c-.38.07-.71.31-.92.66-.17.29-.25.61-.22.97.04.55.39,1.06.86,1.26.19.08.28.1.51.1.22,0,.27,0,.44-.07.34-.12.67-.44.82-.8.16-.39.17-.83.02-1.22-.1-.25-.3-.52-.49-.66-.3-.22-.68-.31-1.01-.24Z"/>
        <path class="cls-15" d="M584.17,545.93s-.06.01-.12.02c-.14.02-.35.1-.48.18-.5.28-.85.8-.94,1.42-.02.14-.02.28-.02,2.63v2.48l.03.1c.09.32.41.51.71.43.21-.05.35-.18.43-.4l.03-.09v-2.21s0-2.21,0-2.21h.29v5.92s0,5.92,0,5.92l.03.09c.08.24.2.4.38.5.25.13.51.13.76,0,.2-.1.35-.31.41-.56.01-.06.02-.76.02-3.52v-3.45h.28v3.43c0,2.96,0,3.45.02,3.53.08.42.44.7.85.67.34-.03.6-.24.7-.57l.04-.11v-5.92s0-5.92,0-5.92h.14s.14,0,.14,0v2.22c.01,1.57.02,2.23.03,2.26.1.29.3.45.58.45.3,0,.54-.23.58-.56.01-.08.01-.77.01-2.52,0-2.26,0-2.42-.03-2.54-.07-.42-.24-.77-.5-1.06-.24-.28-.51-.45-.87-.54l-.14-.04h-1.68c-.92,0-1.69,0-1.7,0Z"/>
      </g>
      <g>
        <path class="cls-7" d="M593.45,542.56c-.49.08-.87.37-1.08.84-.14.31-.17.7-.09,1.04.04.16.14.37.24.51.28.4.77.63,1.23.57.58-.07,1.04-.49,1.2-1.11.02-.09.03-.15.03-.37,0-.25,0-.27-.04-.39-.02-.07-.06-.18-.08-.23-.22-.5-.69-.83-1.2-.85-.09,0-.18,0-.2,0Z"/>
        <path class="cls-7" d="M592.42,545.92c-.38.05-.74.25-1.03.57-.25.27-.37.52-.51,1-.43,1.53-.48,1.71-.87,3.1-.08.29-.18.64-.22.78-.08.28-.1.42-.07.56.05.3.28.51.56.51.22,0,.41-.13.52-.36.03-.05.25-.83.58-2.04.3-1.07.54-1.97.54-1.99v-.04h.3l-.19.7c-.1.39-.32,1.17-.47,1.75s-.36,1.33-.45,1.68c-.5,1.86-.75,2.82-.75,2.84,0,.01.24.02.87.02h.87v2.6c0,2.82,0,2.69.07,2.85.1.21.3.34.53.36.33.02.62-.2.68-.53.01-.05.01-.84.01-2.69v-2.62h.38v2.63c0,2.28,0,2.64.02,2.71.05.23.19.39.4.47.11.04.35.04.46,0,.22-.09.35-.25.4-.49.01-.08.02-.51.02-2.69v-2.59h.86c.48,0,.87,0,.87,0s-.05-.23-.13-.51c-.07-.28-.22-.82-.32-1.2-.1-.38-.24-.89-.3-1.13s-.2-.73-.29-1.08-.23-.84-.29-1.08-.2-.75-.3-1.13c-.1-.38-.2-.73-.21-.77l-.02-.07h.16c.09,0,.16,0,.16,0s.03.1.06.22c.03.12.13.48.23.82s.26.95.38,1.38c.4,1.45.44,1.58.48,1.67.12.24.36.38.58.34.3-.06.49-.31.49-.65,0-.17.06.07-.56-2.12-.16-.57-.36-1.27-.44-1.56-.28-1-.28-1.01-.43-1.25-.24-.4-.59-.7-.98-.85-.25-.09-.19-.09-1.43-.09-.62,0-1.17,0-1.22,0Z"/>
      </g>
    </g>
    <text class="cls-9" transform="translate(182.42 545.44) scale(.98 1)"><tspan x="0" y="0">機械・電気科棟(E棟)</tspan></text>
    <text class="cls-9" transform="translate(240.46 328.1) scale(.98 1)"><tspan x="0" y="0">化学棟(D棟)</tspan></text>
    <text class="cls-9" transform="translate(205.18 130.89) scale(.98 1)"><tspan x="0" y="0">土木・建築棟(C棟)</tspan></text>
    <text class="cls-9" transform="translate(660.73 180.62) scale(.98 1)"><tspan x="0" y="0">管理棟(A棟)</tspan></text>
    <text class="cls-9" transform="translate(613.81 477.36) scale(.98 1)"><tspan x="0" y="0">ホームルーム棟(B棟)</tspan></text>
    <text class="cls-10" transform="translate(1207.94 113) scale(.98 1)"><tspan x="0" y="0">大体育館</tspan></text>
  </g>
</svg>