<?xml version="1.0" encoding="UTF-8"?>
<svg xmlns="http://www.w3.org/2000/svg" viewBox="0 0 2000 1400">
  <defs>
    <style>
      .cls-1 {
        stroke-dasharray: 11.32 11.32;
      }

      .cls-1, .cls-2, .cls-3, .cls-4, .cls-5, .cls-6, .cls-7, .cls-8, .cls-9, .cls-10, .cls-11, .cls-12, .cls-13, .cls-14, .cls-15, .cls-16, .cls-17, .cls-18, .cls-19, .cls-20, .cls-21, .cls-22, .cls-23 {
        stroke: #000;
        stroke-miterlimit: 10;
      }

      .cls-1, .cls-2, .cls-3, .cls-4, .cls-5, .cls-6, .cls-8, .cls-9, .cls-10, .cls-11, .cls-12, .cls-13, .cls-14, .cls-15, .cls-16, .cls-17, .cls-19, .cls-20, .cls-21, .cls-22, .cls-23 {
        fill: none;
      }

      .cls-2 {
        stroke-width: .5px;
      }

      .cls-3 {
        stroke-dasharray: 11.66 11.66;
      }

      .cls-5 {
        stroke-dasharray: 13 13;
      }

      .cls-6 {
        stroke-dasharray: 12.26 12.26;
      }

      .cls-24 {
        fill: #f6f29b;
      }

      .cls-25, .cls-7, .cls-18 {
        fill: #fff;
      }

      .cls-26 {
        font-size: 48px;
      }

      .cls-26, .cls-27, .cls-28, .cls-29, .cls-30, .cls-31 {
        font-family: UDDigiKyokashoN-R, 'UD Digi Kyokasho N-R';
      }

      .cls-7, .cls-10 {
        stroke-dasharray: 12;
      }

      .cls-8 {
        stroke-dasharray: 11.84 11.84;
      }

      .cls-9 {
        stroke-dasharray: 12.57 12.57;
      }

      .cls-11 {
        stroke-dasharray: 11.22 11.22;
      }

      .cls-32 {
        fill: #e73964;
      }

      .cls-12 {
        stroke-dasharray: 11.18 11.18;
      }

      .cls-33 {
        fill: #c3b7ab;
      }

      .cls-13 {
        stroke-dasharray: 11.84 11.84;
      }

      .cls-27 {
        font-size: 20px;
      }

      .cls-28 {
        font-size: 13.5px;
      }

      .cls-34 {
        font-size: 13px;
      }

      .cls-35 {
        font-size: 18px;
      }

      .cls-14 {
        stroke-dasharray: 10 10;
      }

      .cls-36 {
        fill: #f9d0bd;
      }

      .cls-37 {
        fill: #b2dee2;
      }

      .cls-38 {
        font-size: 16px;
      }

      .cls-39, .cls-31 {
        font-size: 14px;
      }

      .cls-15 {
        stroke-dasharray: 11.35 11.35;
      }

      .cls-29, .cls-40 {
        font-size: 24px;
      }

      .cls-41 {
        font-size: 17px;
      }

      .cls-16 {
        stroke-dasharray: 12.15 12.15;
      }

      .cls-42 {
        font-size: 12px;
      }

      .cls-43 {
        fill: #b9dba9;
      }

      .cls-17 {
        stroke-dasharray: 12.91 12.91;
      }

      .cls-18 {
        stroke-width: .75px;
      }

      .cls-44 {
        font-size: 10px;
      }

      .cls-45 {
        fill: #2668b2;
      }

      .cls-40 {
        font-family: UDDigiKyokashoNK-R, 'UD Digi Kyokasho NK-R';
      }

      .cls-19 {
        stroke-dasharray: 13.06 13.06;
      }

      .cls-20 {
        stroke-dasharray: 8 8;
      }

      .cls-21 {
        stroke-dasharray: 6.17 6.17;
      }

      .cls-22 {
        stroke-dasharray: 12.75 12.75;
      }

      .cls-23 {
        stroke-dasharray: 12 12;
      }
    </style>
  </defs>
  <g id="_色分け" data-name="色分け">
    <rect class="cls-33" x="762" y="186.29" width="243" height="89.96"/>
    <rect class="cls-33" x="563" y="186.5" width="87.57" height="89.58"/>
    <rect class="cls-33" x="650.58" y="220.96" width="33.42" height="55.54"/>
    <rect class="cls-33" x="720" y="220.7" width="42" height="55.55"/>
    <rect class="cls-43" x="568" y="387.94" width="116" height="90"/>
    <rect class="cls-43" x="959.17" y="423.33" width="45.96" height="54.6"/>
    <rect class="cls-24" x="568" y="601.25" width="116" height="90"/>
    <rect class="cls-24" x="720" y="635.83" width="23" height="55.44"/>
    <rect class="cls-24" x="743.32" y="601.5" width="81.6" height="90"/>
    <rect class="cls-24" x="948.02" y="636.27" width="56.89" height="55"/>
    <rect class="cls-43" x="744.75" y="388.25" width="214.42" height="90"/>
    <rect class="cls-43" x="720.17" y="423.33" width="24.58" height="54.92"/>
    <polygon class="cls-25" points="1711.67 528.91 1682.44 528.91 1682.44 467 1610.44 467 1610.44 595.25 1682.44 595.25 1682.44 595.01 1711.67 595.01 1711.67 528.91"/>
    <polygon class="cls-25" points="1879 296.71 1879 112.5 1571.5 112.5 1571.5 337.5 1878.49 337.5 1879 337.5 1904 337.5 1904 296.71 1879 296.71"/>
    <polygon class="cls-25" points="568 366.5 568 367.53 567.67 367.07 525.49 397.61 533.19 408.23 568.03 383 684.33 383 684.33 388.25 720 388.25 720 383 720.17 383 720.17 366.5 568 366.5"/>
    <rect class="cls-25" x="684" y="388.25" width="60.75" height="35.08"/>
    <rect class="cls-25" x="684" y="422.87" width="36" height="55.13"/>
    <rect class="cls-25" x="684" y="478.25" width="36" height="123"/>
    <rect class="cls-25" x="684.1" y="601.27" width="59.22" height="34.56"/>
    <rect class="cls-25" x="684.1" y="635.83" width="35.9" height="55.17"/>
    <rect class="cls-25" x="1004.92" y="636.09" width="60.05" height="55.18"/>
    <rect class="cls-25" x="1065.03" y="636.13" width="29.81" height="55.14"/>
    <rect class="cls-25" x="1130.84" y="636.1" width="56.29" height="55.03"/>
    <rect class="cls-25" x="1187.13" y="635.99" width="56.29" height="55.15"/>
    <rect class="cls-25" x="1243.42" y="635.99" width="56.29" height="55.26"/>
    <rect class="cls-25" x="1299.71" y="636.08" width="56.29" height="55.17"/>
    <rect class="cls-25" x="1392" y="636.08" width="28" height="55.17"/>
    <rect class="cls-25" x="1420" y="601.25" width="104" height="90"/>
    <rect class="cls-25" x="1034.84" y="276" width="60.16" height="22.8"/>
    <rect class="cls-25" x="1005" y="152" width="90.5" height="124"/>
    <rect class="cls-25" x="1064.89" y="333.08" width="30.11" height="55.17"/>
    <rect class="cls-25" x="1131" y="332.89" width="56.25" height="55.24"/>
    <rect class="cls-25" x="1187.25" y="332.83" width="56.25" height="54.89"/>
    <rect class="cls-25" x="1243.5" y="332.62" width="56.29" height="55.29"/>
    <polygon class="cls-25" points="1299.79 332.62 1299.79 387.91 1332.27 387.91 1332.46 332.62 1299.79 332.62"/>
    <polygon class="cls-25" points="1356 332.62 1332.46 332.62 1332.27 387.91 1356 387.91 1356 332.62"/>
    <rect class="cls-25" x="1392" y="298.33" width="132" height="89.92"/>
    <rect class="cls-25" x="1095" y="332.83" width="36" height="55.42"/>
    <g>
      <rect class="cls-25" x="1355.93" y="635.9" width="36.13" height="55.32"/>
      <path class="cls-25" d="M1392,601.27v-268.29h.03v-34.62h-279.03v-22.36h-18v22.36h-30.19v.46h-29.97v-22.72h-29.92v112.17h-45.75v35.08h45.75v177.92h-56.89v34.6h146.82v54.9h36v-54.9h289.16v-34.6h-28ZM1356.07,601.27h-290.91v-268.29h290.83v55.29h.07v213Z"/>
    </g>
    <polygon class="cls-25" points="563 276.56 563 287.37 992 287.37 992 330.67 1004.8 330.67 1004.8 287.37 1005.12 287.37 1005.12 276.56 563 276.56"/>
    <polygon class="cls-25" points="762 186.29 650.52 186.29 650.52 220.7 684 220.7 684 276.25 720 276.25 720 220.7 762 220.7 762 186.29"/>
    <rect class="cls-25" x="1610.44" y="644.5" width="257.5" height="148.5"/>
    <rect class="cls-25" x="1576" y="835.75" width="156" height="70"/>
    <rect class="cls-25" x="1721.94" y="946.5" width="150.5" height="341"/>
    <rect class="cls-37" x="183" y="601.2" width="350" height="90.23"/>
    <rect class="cls-37" x="328.67" y="570.75" width="74.89" height="35.16"/>
    <rect class="cls-36" x="183" y="358" width="350" height="154"/>
    <rect class="cls-24" x="824.92" y="601.5" width="33.04" height="89.5"/>
    <rect class="cls-24" x="857.96" y="601.27" width="89.73" height="89.73"/>
  </g>
  <g id="_テクスチャ" data-name="テクスチャ">
    <g>
      <path class="cls-4" d="M183,364v-6h6"/>
      <line class="cls-3" x1="200.66" y1="358" x2="521.17" y2="358"/>
      <polyline class="cls-4" points="527 358 533 358 533 364"/>
      <line class="cls-17" x1="533" y1="376.91" x2="533" y2="499.55"/>
      <polyline class="cls-4" points="533 506 533 512 527 512"/>
      <line class="cls-3" x1="515.34" y1="512" x2="194.83" y2="512"/>
      <path class="cls-4" d="M189,512h-6v-6"/>
      <path class="cls-17" d="M183,493.1v-122.64"/>
    </g>
    <polyline class="cls-4" points="1005 388.25 568 388.25 568 478.25 1005 478.25"/>
    <polyline class="cls-4" points="1051.5 691.25 1524 691.25 1524 601.25 1069.11 601.25"/>
    <polyline class="cls-4" points="1005 186.29 563 186.29 563 287.37 992 287.37"/>
    <polyline class="cls-4" points="1004.8 220.9 1004.8 276.56 563.21 276.56"/>
    <polyline class="cls-4" points="1005 186.54 1005 152 1095 152 1095 298.75"/>
    <line class="cls-18" x1="1005" y1="388.25" x2="1005" y2="276"/>
    <polyline class="cls-4" points="1113 298.25 1524 298.25 1524 388.25 1095 388.25"/>
    <line class="cls-7" x1="720" y1="478.25" x2="720" y2="601.25"/>
    <line class="cls-7" x1="684" y1="601.25" x2="684" y2="478.25"/>
    <g>
      <line class="cls-4" x1="1356" y1="601.25" x2="1356" y2="595.25"/>
      <line class="cls-8" x1="1356" y1="583.41" x2="1356" y2="399.92"/>
      <line class="cls-4" x1="1356" y1="394" x2="1356" y2="388"/>
    </g>
    <g>
      <line class="cls-4" x1="1392" y1="388" x2="1392" y2="394"/>
      <line class="cls-13" x1="1392" y1="405.84" x2="1392" y2="589.33"/>
      <line class="cls-4" x1="1392" y1="595.25" x2="1392" y2="601.25"/>
    </g>
    <rect class="cls-10" x="1576" y="835.75" width="156" height="70"/>
    <rect class="cls-10" x="1721.94" y="946.5" width="150.5" height="341"/>
    <g>
      <polyline class="cls-4" points="684 388.25 684 383 678 383"/>
      <polyline class="cls-1" points="666.68 383 568 383 542.46 401.43"/>
      <line class="cls-4" x1="537.87" y1="404.74" x2="533" y2="408.25"/>
    </g>
    <g>
      <path class="cls-4" d="M684,366.5h-6"/>
      <path class="cls-15" d="M666.65,366.5h-98.65s-15.26,11.33-25.63,19.04"/>
      <path class="cls-4" d="M537.81,388.92c-2.91,2.17-4.81,3.58-4.81,3.58"/>
    </g>
    <path class="cls-10" d="M1867.69,644.5h-257.25c0,.15,0,.29,0,.29v148.21h257.5v-148.5h-.25Z"/>
    <line class="cls-4" x1="363.54" y1="979.28" x2="1005.54" y2="979.28"/>
    <line class="cls-4" x1="1078.54" y1="979.28" x2="1533.54" y2="979.28"/>
    <line class="cls-4" x1="1580.08" y1="976.61" x2="1680.46" y2="1040.98"/>
    <line class="cls-4" x1="1680.46" y1="1040.98" x2="1680.46" y2="1400"/>
    <line class="cls-4" x1="313.62" y1="979.28" x2="160.63" y2="979.28"/>
    <line class="cls-4" x1="160.63" y1="979.28" x2="48.14" y2="1075.57"/>
    <line class="cls-4" x1="48.14" y1="1075.57" x2="48.14" y2="1389.06"/>
    <line class="cls-4" x1="1095" y1="388.25" x2="1064.65" y2="388.25"/>
    <polyline class="cls-4" points="1070.79 601.25 1065.13 601.25 1065.13 388.25"/>
    <polyline class="cls-10" points="1879 337.5 1571.5 337.5 1571.5 112.5 1879 112.5 1879 296.83 1904 296.83 1904 337.5 1879 337.5"/>
    <g>
      <path class="cls-4" d="M1711.67,579.91v-6"/>
      <path class="cls-5" d="M1711.67,560.91v-19.51"/>
      <path class="cls-4" d="M1711.67,534.9v-6s-2.48,0-6,.02"/>
      <path class="cls-4" d="M1688.44,528.98c-3.52.01-6,.02-6,.02v-6"/>
      <path class="cls-14" d="M1682.44,513.02v-35"/>
      <path class="cls-4" d="M1682.44,473v-6h-6"/>
      <line class="cls-23" x1="1664.44" y1="467" x2="1622.44" y2="467"/>
      <polyline class="cls-4" points="1616.44 467 1610.44 467 1610.44 473"/>
      <line class="cls-11" x1="1610.44" y1="484.23" x2="1610.44" y2="568.39"/>
      <line class="cls-4" x1="1610.44" y1="574" x2="1610.44" y2="580"/>
    </g>
    <g>
      <line class="cls-4" x1="403.5" y1="691.5" x2="409.5" y2="691.5"/>
      <line class="cls-19" x1="422.56" y1="691.5" x2="520.47" y2="691.5"/>
      <polyline class="cls-4" points="527 691.5 533 691.5 533 685.5"/>
      <line class="cls-12" x1="533" y1="674.32" x2="533" y2="612.84"/>
      <polyline class="cls-4" points="533 607.25 533 601.25 527 601.25"/>
      <line class="cls-19" x1="513.94" y1="601.25" x2="416.03" y2="601.25"/>
      <polyline class="cls-4" points="409.5 601.25 403.5 601.25 403.5 595.25"/>
      <line class="cls-21" x1="403.5" y1="589.08" x2="403.5" y2="579.83"/>
      <polyline class="cls-4" points="403.5 576.75 403.5 570.75 397.5 570.75"/>
      <line class="cls-9" x1="384.93" y1="570.75" x2="340.95" y2="570.75"/>
      <polyline class="cls-4" points="334.67 570.75 328.67 570.75 328.67 576.75"/>
      <line class="cls-21" x1="328.67" y1="582.92" x2="328.67" y2="592.17"/>
      <polyline class="cls-4" points="328.67 595.25 328.67 601.25 322.67 601.25"/>
      <line class="cls-16" x1="310.52" y1="601.25" x2="195.08" y2="601.25"/>
      <polyline class="cls-4" points="189 601.25 183 601.25 183 607.25"/>
      <line class="cls-12" x1="183" y1="618.43" x2="183" y2="679.91"/>
      <polyline class="cls-4" points="183 685.5 183 691.5 189 691.5"/>
      <line class="cls-6" x1="201.26" y1="691.5" x2="391.37" y2="691.5"/>
      <line class="cls-4" x1="397.5" y1="691.5" x2="403.5" y2="691.5"/>
    </g>
    <path class="cls-4" d="M1022,691.25h-454v-90h437.13v-123"/>
    <g>
      <line class="cls-4" x1="684" y1="366.5" x2="690" y2="366.5"/>
      <line class="cls-20" x1="698" y1="366.5" x2="710" y2="366.5"/>
      <polyline class="cls-4" points="714 366.5 720 366.5 720 372.5"/>
      <line class="cls-4" x1="720" y1="382.25" x2="720" y2="388.25"/>
    </g>
    <line class="cls-4" x1="1005" y1="186.29" x2="1005" y2="221.5"/>
    <line class="cls-4" x1="1004.92" y1="330.67" x2="992" y2="330.67"/>
    <line class="cls-4" x1="992" y1="287.37" x2="992" y2="330.67"/>
  </g>
  <g id="_区分" data-name="区分">
    <text class="cls-31" transform="translate(962.67 236.94)"><tspan x="0" y="0">C31</tspan></text>
    <text class="cls-31" transform="translate(883.5 236.94)"><tspan x="0" y="0">C32</tspan></text>
    <text class="cls-31" transform="translate(792.96 237.1)"><tspan x="0" y="0">C33</tspan></text>
    <text class="cls-28" transform="translate(594.9 237.61) scale(1.04 1)"><tspan x="0" y="0">C37</tspan></text>
    <text class="cls-31" transform="translate(732 254.04)"><tspan x="0" y="0">C34</tspan></text>
    <text class="cls-31" transform="translate(638.11 314.08)"><tspan x="0" y="0">C36</tspan></text>
    <text class="cls-31" transform="translate(672 314.08)"><tspan x="0" y="0">C35</tspan></text>
    <text class="cls-31" transform="translate(1041.53 219.42)"><tspan x="0" y="0">A38</tspan></text>
    <text class="cls-31" transform="translate(1054.36 293.06)"><tspan x="0" y="0">A37</tspan></text>
    <text class="cls-31" transform="translate(1148.62 365)"><tspan x="0" y="0">A36</tspan></text>
    <text class="cls-31" transform="translate(1204.29 365)"><tspan x="0" y="0">A35</tspan></text>
    <text class="cls-30" transform="translate(1259.65 349.98)"><tspan class="cls-38"><tspan x="0" y="0">A34</tspan></tspan><tspan class="cls-41"><tspan x="-13.5" y="20.4">英語科</tspan></tspan><tspan class="cls-42"><tspan x="-6" y="34.8">研究室</tspan></tspan></text>
    <text class="cls-30" transform="translate(1304.13 353.51)"><tspan class="cls-38"><tspan x="0" y="0">A33</tspan></tspan><tspan class="cls-34"><tspan x="-1" y="15.6">国語</tspan></tspan><tspan class="cls-44"><tspan x="-3" y="27.6">研究室</tspan></tspan></text>
    <text class="cls-31" transform="translate(1333.74 365)"><tspan x="0" y="0">A32</tspan></text>
    <text class="cls-30" transform="translate(1446 337.5)"><tspan class="cls-38"><tspan x="0" y="0">A31</tspan></tspan><tspan class="cls-35"><tspan x="-51" y="21.6">図書館・司書室</tspan></tspan></text>
    <text class="cls-31" transform="translate(585.36 438)"><tspan x="0" y="0">D36</tspan></text>
    <text class="cls-31" transform="translate(640.7 438)"><tspan x="0" y="0">D35</tspan></text>
    <text class="cls-31" transform="translate(789.7 438)"><tspan x="0" y="0">D33</tspan></text>
    <text class="cls-31" transform="translate(722.36 456.67)"><tspan x="0" y="0">D34</tspan></text>
    <text class="cls-31" transform="translate(617.5 651.29)"><tspan x="0" y="0">E35</tspan></text>
    <text class="cls-31" transform="translate(896.03 438)"><tspan x="0" y="0">D32</tspan></text>
    <text class="cls-31" transform="translate(972.36 456.67)"><tspan x="0" y="0">D31</tspan></text>
    <text class="cls-31" transform="translate(774.5 651.29)"><tspan x="0" y="0">E34</tspan></text>
    <text class="cls-31" transform="translate(832.17 651.29)"><tspan x="0" y="0">E33</tspan></text>
    <text class="cls-31" transform="translate(891 651.29)"><tspan x="0" y="0">E32</tspan></text>
    <text class="cls-31" transform="translate(1025.83 668.96)"><tspan x="0" y="0">B37</tspan></text>
    <text class="cls-31" transform="translate(966.5 668.96)"><tspan x="0" y="0">E31</tspan></text>
    <text class="cls-30" transform="translate(1148.49 657.08)"><tspan class="cls-39"><tspan x="0" y="0">B36</tspan></tspan><tspan class="cls-39"><tspan x="-14" y="16.8">土木2年</tspan></tspan><tspan class="cls-42"><tspan x="4.5" y="31.2">HR</tspan></tspan></text>
    <text class="cls-30" transform="translate(1204.78 657.08)"><tspan class="cls-39"><tspan x="0" y="0">B35</tspan></tspan><tspan class="cls-39"><tspan x="-14" y="16.8">情報2年</tspan></tspan><tspan class="cls-42"><tspan x="4.5" y="31.2">HR</tspan></tspan></text>
    <text class="cls-30" transform="translate(1261.07 657.08)"><tspan class="cls-39"><tspan x="0" y="0">B34</tspan></tspan><tspan class="cls-39"><tspan x="-14" y="16.8">物質2年</tspan></tspan><tspan class="cls-42"><tspan x="4.5" y="31.2">HR</tspan></tspan></text>
    <text class="cls-30" transform="translate(1317.36 656.2)"><tspan class="cls-39"><tspan x="0" y="0">B33</tspan></tspan><tspan class="cls-39"><tspan x="-14" y="16.8">機械2年</tspan></tspan><tspan class="cls-42"><tspan x="4.5" y="31.2">HR</tspan></tspan></text>
    <text class="cls-31" transform="translate(1396.04 668.96)"><tspan x="0" y="0">B32</tspan></text>
    <text class="cls-31" transform="translate(1462.29 651.29)"><tspan x="0" y="0">B31</tspan></text>
    <g>
      <path class="cls-45" d="M1079.83,351.57c-.38.07-.71.31-.92.66-.17.29-.25.61-.22.97.04.55.39,1.06.86,1.26.19.08.28.1.51.1.22,0,.27,0,.44-.07.34-.12.67-.44.82-.8.16-.39.17-.83.02-1.22-.1-.25-.3-.52-.49-.66-.3-.22-.68-.31-1.01-.24Z"/>
      <path class="cls-45" d="M1078.39,354.92s-.06.01-.12.02c-.14.02-.35.1-.48.18-.5.28-.85.8-.94,1.42-.02.14-.02.28-.02,2.63v2.48l.03.1c.09.32.41.51.71.43.21-.05.35-.18.43-.4l.03-.09v-2.21s0-2.21,0-2.21h.29v5.92s0,5.92,0,5.92l.03.09c.08.24.2.4.38.5.25.13.51.13.76,0,.2-.1.35-.31.41-.56.01-.06.02-.76.02-3.52v-3.45h.28v3.43c0,2.96,0,3.45.02,3.53.08.42.44.7.85.67.34-.03.6-.24.7-.57l.04-.11v-5.92s0-5.92,0-5.92h.14s.14,0,.14,0v2.22c.01,1.57.02,2.23.03,2.26.1.29.3.45.58.45.3,0,.54-.23.58-.56.01-.08.01-.77.01-2.52,0-2.26,0-2.42-.03-2.54-.07-.42-.24-.77-.5-1.06-.24-.28-.51-.45-.87-.54l-.14-.04h-1.68c-.92,0-1.69,0-1.7,0Z"/>
    </g>
    <g>
      <g>
        <path class="cls-45" d="M1075.48,655.79c-.38.07-.71.31-.92.66-.17.29-.25.61-.22.97.04.55.39,1.06.86,1.26.19.08.28.1.51.1.22,0,.27,0,.44-.07.34-.12.67-.44.82-.8.16-.39.17-.83.02-1.22-.1-.25-.3-.52-.49-.66-.3-.22-.68-.31-1.01-.24Z"/>
        <path class="cls-45" d="M1074.04,659.14s-.06.01-.12.02c-.14.02-.35.1-.48.18-.5.28-.85.8-.94,1.42-.02.14-.02.28-.02,2.63v2.48l.03.1c.09.32.41.51.71.43.21-.05.35-.18.43-.4l.03-.09v-2.21s0-2.21,0-2.21h.29v5.92s0,5.92,0,5.92l.03.09c.08.24.2.4.38.5.25.13.51.13.76,0,.2-.1.35-.31.41-.56.01-.06.02-.76.02-3.52v-3.45h.28v3.43c0,2.96,0,3.45.02,3.53.08.42.44.7.85.67.34-.03.6-.24.7-.57l.04-.11v-5.92s0-5.92,0-5.92h.14s.14,0,.14,0v2.22c.01,1.57.02,2.23.03,2.26.1.29.3.45.58.45.3,0,.54-.23.58-.56.01-.08.01-.77.01-2.52,0-2.26,0-2.42-.03-2.54-.07-.42-.24-.77-.5-1.06-.24-.28-.51-.45-.87-.54l-.14-.04h-1.68c-.92,0-1.69,0-1.7,0Z"/>
      </g>
      <g>
        <path class="cls-32" d="M1083.31,655.77c-.49.08-.87.37-1.08.84-.14.31-.17.7-.09,1.04.04.16.14.37.24.51.28.4.77.63,1.23.57.58-.07,1.04-.49,1.2-1.11.02-.09.03-.15.03-.37,0-.25,0-.27-.04-.39-.02-.07-.06-.18-.08-.23-.22-.5-.69-.83-1.2-.85-.09,0-.18,0-.2,0Z"/>
        <path class="cls-32" d="M1082.28,659.13c-.38.05-.74.25-1.03.57-.25.27-.37.52-.51,1-.43,1.53-.48,1.71-.87,3.1-.08.29-.18.64-.22.78-.08.28-.1.42-.07.56.05.3.28.51.56.51.22,0,.41-.13.52-.36.03-.05.25-.83.58-2.04.3-1.07.54-1.97.54-1.99v-.04h.3l-.19.7c-.1.39-.32,1.17-.47,1.75s-.36,1.33-.45,1.68c-.5,1.86-.75,2.82-.75,2.84,0,.01.24.02.87.02h.87v2.6c0,2.82,0,2.69.07,2.85.1.21.3.34.53.36.33.02.62-.2.68-.53.01-.05.01-.84.01-2.69v-2.62h.38v2.63c0,2.28,0,2.64.02,2.71.05.23.19.39.4.47.11.04.35.04.46,0,.22-.09.35-.25.4-.49.01-.08.02-.51.02-2.69v-2.59h.86c.48,0,.87,0,.87,0s-.05-.23-.13-.51c-.07-.28-.22-.82-.32-1.2-.1-.38-.24-.89-.3-1.13s-.2-.73-.29-1.08-.23-.84-.29-1.08-.2-.75-.3-1.13c-.1-.38-.2-.73-.21-.77l-.02-.07h.16c.09,0,.16,0,.16,0s.03.1.06.22c.03.12.13.48.23.82s.26.95.38,1.38c.4,1.45.44,1.58.48,1.67.12.24.36.38.58.34.3-.06.49-.31.49-.65,0-.17.06.07-.56-2.12-.16-.57-.36-1.27-.44-1.56-.28-1-.28-1.01-.43-1.25-.24-.4-.59-.7-.98-.85-.25-.09-.19-.09-1.43-.09-.62,0-1.17,0-1.22,0Z"/>
      </g>
    </g>
    <text class="cls-31" transform="translate(572.06 618.54)"><tspan x="0" y="0">準</tspan><tspan x="0" y="16.8">備</tspan><tspan x="0" y="33.6">室</tspan></text>
    <text class="cls-31" transform="translate(724.12 651.29)"><tspan x="0" y="0">準</tspan><tspan x="0" y="16.8">備</tspan><tspan x="0" y="33.6">室</tspan></text>
    <line class="cls-2" x1="660" y1="270.62" x2="649.5" y2="299.38"/>
    <line class="cls-2" x1="676.12" y1="270.75" x2="683.25" y2="298.75"/>
    <text class="cls-29" transform="translate(1678.21 229.03) scale(.98 1)"><tspan x="0" y="0">大体育館</tspan></text>
    <text class="cls-27" transform="translate(1621.9 559.81) scale(.98 1)"><tspan x="0" y="0">同窓会館</tspan></text>
    <text class="cls-29" transform="translate(1750.15 1120.78) scale(.98 1)"><tspan x="0" y="0">小体育館</tspan></text>
    <text class="cls-26" transform="translate(788.62 1190.97) scale(.98 1)"><tspan x="0" y="0">グラウンド</tspan></text>
    <text class="cls-29" transform="translate(266.12 656) scale(.98 1)"><tspan x="0" y="0">情報工学科棟(I棟)</tspan></text>
    <text class="cls-29" transform="translate(293.32 443) scale(.98 1)"><tspan x="0" y="0">建築棟(H棟)</tspan></text>
    <text class="cls-29" transform="translate(746.24 591.05) scale(.98 1)"><tspan x="0" y="0">機械・電気科棟(E棟)</tspan></text>
    <text class="cls-29" transform="translate(780.57 379.5) scale(.98 1)"><tspan x="0" y="0">化学棟(D棟)</tspan></text>
    <text class="cls-29" transform="translate(745.29 313.89) scale(.98 1)"><tspan x="0" y="0">土木・建築棟(C棟)</tspan></text>
    <text class="cls-29" transform="translate(1178.82 290.01) scale(.98 1)"><tspan x="0" y="0">管理棟(A棟)</tspan></text>
    <text class="cls-29" transform="translate(1103.35 592.85) scale(.98 1)"><tspan x="0" y="0">ホームルーム棟(B棟)</tspan></text>
    <text class="cls-40" transform="translate(1663 722.16) scale(.98 1)"><tspan x="0" y="0">格技室・柔道場</tspan></text>
    <text class="cls-29" transform="translate(1606.96 881.21) scale(.98 1)"><tspan x="0" y="0">家庭科棟</tspan></text>
  </g>
  <g id="_間取り" data-name="間取り">
    <line class="cls-4" x1="1356" y1="691.25" x2="1356" y2="636.08"/>
    <line class="cls-4" x1="1392" y1="691.25" x2="1392" y2="636.08"/>
    <line class="cls-2" x1="1374" y1="636.08" x2="1374" y2="675.42"/>
    <line class="cls-2" x1="1374" y1="675.42" x2="1356" y2="675.42"/>
    <line class="cls-2" x1="1374" y1="675.42" x2="1392" y2="675.42"/>
    <line class="cls-2" x1="1420" y1="636.08" x2="1391.53" y2="636.08"/>
    <line class="cls-2" x1="1005.13" y1="636.1" x2="1005.13" y2="691.52"/>
    <line class="cls-2" x1="1374" y1="655.75" x2="1392" y2="655.75"/>
    <line class="cls-2" x1="1374" y1="645.92" x2="1392" y2="645.92"/>
    <line class="cls-2" x1="1392" y1="665.58" x2="1374" y2="665.58"/>
    <line class="cls-2" x1="1356" y1="655.75" x2="1374" y2="655.75"/>
    <line class="cls-2" x1="1356" y1="645.92" x2="1374" y2="645.92"/>
    <line class="cls-2" x1="1374" y1="665.58" x2="1356" y2="665.58"/>
    <line class="cls-4" x1="1356" y1="388" x2="1356" y2="332.83"/>
    <line class="cls-4" x1="1392" y1="388" x2="1392" y2="298.33"/>
    <line class="cls-2" x1="1374" y1="332.83" x2="1374" y2="372.17"/>
    <line class="cls-2" x1="1374" y1="372.17" x2="1356" y2="372.17"/>
    <line class="cls-2" x1="1374" y1="372.17" x2="1392" y2="372.17"/>
    <line class="cls-2" x1="1374" y1="352.5" x2="1392" y2="352.5"/>
    <line class="cls-2" x1="1374" y1="342.67" x2="1392" y2="342.67"/>
    <line class="cls-2" x1="1392" y1="362.33" x2="1374" y2="362.33"/>
    <line class="cls-2" x1="1356" y1="352.5" x2="1374" y2="352.5"/>
    <line class="cls-2" x1="1356" y1="342.67" x2="1374" y2="342.67"/>
    <line class="cls-2" x1="1374" y1="362.33" x2="1356" y2="362.33"/>
    <line class="cls-4" x1="684" y1="691.5" x2="684" y2="635.83"/>
    <line class="cls-4" x1="720" y1="691" x2="720" y2="635.83"/>
    <line class="cls-2" x1="702" y1="635.83" x2="702" y2="675.67"/>
    <line class="cls-2" x1="702" y1="675.17" x2="684" y2="675.17"/>
    <line class="cls-2" x1="702" y1="675.17" x2="720" y2="675.17"/>
    <line class="cls-2" x1="702" y1="656" x2="720" y2="656"/>
    <line class="cls-2" x1="702" y1="645.67" x2="720" y2="645.67"/>
    <line class="cls-2" x1="720" y1="665.83" x2="702" y2="665.83"/>
    <line class="cls-2" x1="684" y1="656" x2="702" y2="656"/>
    <line class="cls-2" x1="684" y1="645.67" x2="702" y2="645.67"/>
    <line class="cls-2" x1="702" y1="665.83" x2="684" y2="665.83"/>
    <line class="cls-2" x1="1064.89" y1="388.25" x2="1064.89" y2="332.83"/>
    <line class="cls-2" x1="1005.13" y1="479.41" x2="1005.13" y2="423.33"/>
    <line class="cls-4" x1="684" y1="478.5" x2="684" y2="423.33"/>
    <line class="cls-4" x1="720" y1="478" x2="720" y2="423.33"/>
    <line class="cls-2" x1="702" y1="423.33" x2="702" y2="462.67"/>
    <line class="cls-2" x1="702" y1="462.67" x2="684" y2="462.67"/>
    <line class="cls-2" x1="702" y1="462.67" x2="720" y2="462.67"/>
    <line class="cls-2" x1="702" y1="443" x2="720" y2="443"/>
    <line class="cls-2" x1="702" y1="433.17" x2="720" y2="433.17"/>
    <line class="cls-2" x1="720" y1="452.83" x2="702" y2="452.83"/>
    <line class="cls-2" x1="684" y1="443" x2="702" y2="443"/>
    <line class="cls-2" x1="684" y1="433.17" x2="702" y2="433.17"/>
    <line class="cls-2" x1="702" y1="452.83" x2="684" y2="452.83"/>
    <line class="cls-4" x1="684" y1="276.5" x2="684" y2="220.83"/>
    <line class="cls-4" x1="720" y1="276" x2="720" y2="220.7"/>
    <line class="cls-2" x1="702" y1="220.83" x2="702" y2="260.67"/>
    <line class="cls-2" x1="702" y1="260.67" x2="684" y2="260.67"/>
    <line class="cls-2" x1="702" y1="260.67" x2="720" y2="260.67"/>
    <line class="cls-2" x1="702" y1="241" x2="720" y2="241"/>
    <line class="cls-2" x1="702" y1="231.17" x2="720" y2="231.17"/>
    <line class="cls-2" x1="720" y1="250.83" x2="702" y2="250.83"/>
    <line class="cls-2" x1="684" y1="241" x2="702" y2="241"/>
    <line class="cls-2" x1="684" y1="231.17" x2="702" y2="231.17"/>
    <line class="cls-2" x1="702" y1="250.83" x2="684" y2="250.83"/>
    <line class="cls-4" x1="1095" y1="388.25" x2="1095" y2="333.08"/>
    <line class="cls-4" x1="1131" y1="388.25" x2="1131" y2="333.08"/>
    <line class="cls-2" x1="1113" y1="333.08" x2="1113" y2="372.42"/>
    <line class="cls-2" x1="1113" y1="372.42" x2="1095" y2="372.42"/>
    <line class="cls-2" x1="1113" y1="372.42" x2="1131" y2="372.42"/>
    <line class="cls-2" x1="1113" y1="352.75" x2="1131" y2="352.75"/>
    <line class="cls-2" x1="1113" y1="342.92" x2="1131" y2="342.92"/>
    <line class="cls-2" x1="1131" y1="362.58" x2="1113" y2="362.58"/>
    <line class="cls-2" x1="1095" y1="352.75" x2="1113" y2="352.75"/>
    <line class="cls-2" x1="1095" y1="342.92" x2="1113" y2="342.92"/>
    <line class="cls-2" x1="1113" y1="362.58" x2="1095" y2="362.58"/>
    <line class="cls-2" x1="1065.12" y1="333.08" x2="1095.49" y2="333.08"/>
    <line class="cls-2" x1="1130.52" y1="332.83" x2="1356.48" y2="332.83"/>
    <line class="cls-2" x1="1332.5" y1="332.7" x2="1332.25" y2="387.83"/>
    <line class="cls-2" x1="1299.75" y1="332.62" x2="1299.75" y2="387.91"/>
    <line class="cls-2" x1="1187.25" y1="332.89" x2="1187.25" y2="388.12"/>
    <line class="cls-2" x1="1243.5" y1="332.81" x2="1243.5" y2="387.72"/>
    <line class="cls-2" x1="940" y1="276.25" x2="940" y2="186.54"/>
    <line class="cls-2" x1="762" y1="186.54" x2="762" y2="276.25"/>
    <line class="cls-2" x1="845.25" y1="186.29" x2="845.25" y2="276.04"/>
    <line class="cls-2" x1="684" y1="601.25" x2="684" y2="635.83"/>
    <line class="cls-2" x1="947.83" y1="601.25" x2="947.83" y2="690.75"/>
    <line class="cls-2" x1="857.96" y1="601.25" x2="857.96" y2="691"/>
    <line class="cls-2" x1="824.92" y1="601.25" x2="824.92" y2="692"/>
    <line class="cls-2" x1="743" y1="601.25" x2="743" y2="691.28"/>
    <line class="cls-2" x1="1064.97" y1="691.27" x2="1064.97" y2="635.85"/>
    <line class="cls-4" x1="1094.84" y1="691.27" x2="1094.84" y2="636.1"/>
    <line class="cls-4" x1="1130.84" y1="691.27" x2="1130.84" y2="636.1"/>
    <line class="cls-2" x1="1112.84" y1="636.1" x2="1112.84" y2="675.44"/>
    <line class="cls-2" x1="1112.84" y1="675.44" x2="1094.84" y2="675.44"/>
    <line class="cls-2" x1="1112.84" y1="675.44" x2="1130.84" y2="675.44"/>
    <line class="cls-2" x1="1112.84" y1="655.77" x2="1130.84" y2="655.77"/>
    <line class="cls-2" x1="1112.84" y1="645.94" x2="1130.84" y2="645.94"/>
    <line class="cls-2" x1="1130.84" y1="665.6" x2="1112.84" y2="665.6"/>
    <line class="cls-2" x1="1094.84" y1="655.77" x2="1112.84" y2="655.77"/>
    <line class="cls-2" x1="1094.84" y1="645.94" x2="1112.84" y2="645.94"/>
    <line class="cls-2" x1="1112.84" y1="665.6" x2="1094.84" y2="665.6"/>
    <line class="cls-2" x1="1064.97" y1="636.1" x2="1095.29" y2="636.1"/>
    <line class="cls-2" x1="1130.38" y1="636.08" x2="1356.44" y2="636.08"/>
    <line class="cls-2" x1="1420" y1="601.25" x2="1420" y2="691.25"/>
    <line class="cls-2" x1="1299.71" y1="635.99" x2="1299.71" y2="691.13"/>
    <line class="cls-2" x1="1243.42" y1="635.99" x2="1243.42" y2="691.13"/>
    <line class="cls-2" x1="1187.13" y1="635.99" x2="1187.13" y2="691.13"/>
    <g>
      <line class="cls-4" x1="1711.67" y1="580" x2="1711.67" y2="586"/>
      <path class="cls-4" d="M1711.67,589.25v6h-6"/>
      <path class="cls-22" d="M1692.89,595.25h-70.11"/>
      <path class="cls-4" d="M1616.43,595.25h-6"/>
    </g>
    <g>
      <line class="cls-2" x1="1383" y1="334" x2="1383" y2="375.32"/>
      <path d="M1383,378.33c-.53-1.42-1.43-3.18-2.38-4.27l2.38.86,2.38-.86c-.95,1.09-1.85,2.85-2.38,4.27Z"/>
    </g>
    <g>
      <line class="cls-2" x1="1104" y1="332.96" x2="1104" y2="375.36"/>
      <path d="M1104,378.38c-.53-1.42-1.43-3.18-2.38-4.27l2.38.86,2.38-.86c-.95,1.09-1.85,2.85-2.38,4.27Z"/>
    </g>
    <g>
      <line class="cls-2" x1="1383" y1="635.99" x2="1383" y2="680.15"/>
      <path d="M1383,683.17c-.53-1.42-1.43-3.18-2.38-4.27l2.38.86,2.38-.86c-.95,1.09-1.85,2.85-2.38,4.27Z"/>
    </g>
    <g>
      <line class="cls-2" x1="1103.84" y1="635.85" x2="1103.84" y2="679.23"/>
      <path d="M1103.84,682.25c-.53-1.42-1.43-3.18-2.38-4.27l2.38.86,2.38-.86c-.95,1.09-1.85,2.85-2.38,4.27Z"/>
    </g>
    <g>
      <line class="cls-2" x1="711" y1="635.83" x2="711" y2="679.21"/>
      <path d="M711,682.23c-.53-1.42-1.43-3.18-2.38-4.27l2.38.86,2.38-.86c-.95,1.09-1.85,2.85-2.38,4.27Z"/>
    </g>
    <g>
      <line class="cls-2" x1="711" y1="423.33" x2="711" y2="466.71"/>
      <path d="M711,469.73c-.53-1.42-1.43-3.18-2.38-4.27l2.38.86,2.38-.86c-.95,1.09-1.85,2.85-2.38,4.27Z"/>
    </g>
    <g>
      <line class="cls-2" x1="711" y1="220.83" x2="711" y2="264.21"/>
      <path d="M711,267.23c-.53-1.42-1.43-3.18-2.38-4.27l2.38.86,2.38-.86c-.95,1.09-1.85,2.85-2.38,4.27Z"/>
    </g>
    <g>
      <line class="cls-2" x1="693" y1="266.25" x2="693" y2="223.85"/>
      <path d="M693,220.83c.53,1.42,1.43,3.18,2.38,4.27l-2.38-.86-2.38.86c.95-1.09,1.85-2.85,2.38-4.27Z"/>
    </g>
    <g>
      <line class="cls-2" x1="693" y1="681.74" x2="693" y2="639.34"/>
      <path d="M693,636.32c.53,1.42,1.43,3.18,2.38,4.27l-2.38-.86-2.38.86c.95-1.09,1.85-2.85,2.38-4.27Z"/>
    </g>
    <g>
      <line class="cls-2" x1="693" y1="468.75" x2="693" y2="426.35"/>
      <path d="M693,423.33c.53,1.42,1.43,3.18,2.38,4.27l-2.38-.86-2.38.86c.95-1.09,1.85-2.85,2.38-4.27Z"/>
    </g>
    <g>
      <line class="cls-2" x1="1122" y1="378.38" x2="1122" y2="335.98"/>
      <path d="M1122,332.96c.53,1.42,1.43,3.18,2.38,4.27l-2.38-.86-2.38.86c.95-1.09,1.85-2.85,2.38-4.27Z"/>
    </g>
    <g>
      <line class="cls-2" x1="1365" y1="378.25" x2="1365" y2="335.85"/>
      <path d="M1365,332.83c.53,1.42,1.43,3.18,2.38,4.27l-2.38-.86-2.38.86c.95-1.09,1.85-2.85,2.38-4.27Z"/>
    </g>
    <g>
      <line class="cls-2" x1="1365" y1="681.27" x2="1365" y2="638.87"/>
      <path d="M1365,635.85c.53,1.42,1.43,3.18,2.38,4.27l-2.38-.86-2.38.86c.95-1.09,1.85-2.85,2.38-4.27Z"/>
    </g>
    <line class="cls-2" x1="744.75" y1="388.25" x2="744.75" y2="478.25"/>
    <line class="cls-2" x1="851.96" y1="387.88" x2="851.96" y2="478"/>
    <line class="cls-2" x1="959.17" y1="388.25" x2="959.17" y2="478"/>
    <line class="cls-4" x1="1022" y1="691.25" x2="1051.5" y2="691.25"/>
    <line class="cls-2" x1="1004.92" y1="636.1" x2="1064.76" y2="636.1"/>
    <g>
      <line class="cls-2" x1="1121.84" y1="681.27" x2="1121.84" y2="638.87"/>
      <path d="M1121.84,635.85c.53,1.42,1.43,3.18,2.38,4.27l-2.38-.86-2.38.86c.95-1.09,1.85-2.85,2.38-4.27Z"/>
    </g>
    <line class="cls-2" x1="650.83" y1="276.04" x2="650.33" y2="186.54"/>
    <line class="cls-2" x1="650.52" y1="220.83" x2="684.47" y2="220.83"/>
    <line class="cls-2" x1="667.5" y1="276.5" x2="667.5" y2="220.58"/>
    <line class="cls-2" x1="684" y1="423.33" x2="684" y2="388.25"/>
    <line class="cls-2" x1="620" y1="388.25" x2="620" y2="478.74"/>
    <polyline class="cls-2" points="592.13 601.25 592.13 656 568 656"/>
    <line class="cls-2" x1="743" y1="635.83" x2="719.54" y2="635.83"/>
    <line class="cls-2" x1="744.75" y1="423.33" x2="719.56" y2="423.33"/>
    <line class="cls-2" x1="1005.13" y1="423.33" x2="959.17" y2="423.33"/>
    <line class="cls-2" x1="1005.13" y1="636.1" x2="947.83" y2="636.08"/>
    <line class="cls-2" x1="719.52" y1="220.57" x2="762" y2="220.57"/>
    <line class="cls-2" x1="1005" y1="276" x2="1095" y2="276"/>
    <path class="cls-2" d="M1034.84,276s0,22.63,0,22.74h60.66"/>
    <polyline class="cls-2" points="1095 276 1112.84 276 1113 298.74"/>
  </g>
  <g id="_構内道路" data-name="構内道路">
    <circle class="cls-2" cx="1189.98" cy="456.56" r="26.87"/>
  </g>
</svg>