<?xml version="1.0" encoding="UTF-8"?>
<svg xmlns="http://www.w3.org/2000/svg" viewBox="0 0 2000 1402.65">
  <defs>
    <style>
      .cls-1, .cls-2, .cls-3, .cls-4, .cls-5, .cls-6, .cls-7, .cls-8, .cls-9, .cls-10 {
        stroke-miterlimit: 10;
      }

      .cls-1, .cls-2, .cls-3, .cls-4, .cls-5, .cls-7, .cls-8, .cls-9 {
        stroke: #000;
      }

      .cls-1, .cls-2, .cls-3, .cls-4, .cls-7, .cls-9, .cls-10 {
        fill: none;
      }

      .cls-1, .cls-3, .cls-8, .cls-10 {
        stroke-width: .5px;
      }

      .cls-11 {
        font-size: 9px;
      }

      .cls-3 {
        stroke-linecap: round;
      }

      .cls-4 {
        stroke-width: .75px;
      }

      .cls-12, .cls-13, .cls-14, .cls-15, .cls-16, .cls-17, .cls-18, .cls-19, .cls-20, .cls-21, .cls-22, .cls-23, .cls-24, .cls-25, .cls-26, .cls-27, .cls-28, .cls-29, .cls-30, .cls-31, .cls-32 {
        font-family: UDDigiKyokashoN-R, 'UD Digi Kyokasho N-R';
      }

      .cls-12, .cls-33 {
        font-size: 16px;
      }

      .cls-13, .cls-34 {
        font-size: 21px;
      }

      .cls-14 {
        font-size: 7.1px;
      }

      .cls-14, .cls-17, .cls-19, .cls-20, .cls-22, .cls-23, .cls-24, .cls-29, .cls-32 {
        fill: #231815;
      }

      .cls-35, .cls-5, .cls-8 {
        fill: #fff;
      }

      .cls-15 {
        font-size: 48px;
      }

      .cls-6 {
        fill: #eff0a8;
      }

      .cls-6, .cls-10 {
        stroke: #231815;
      }

      .cls-36 {
        fill: #e73964;
      }

      .cls-37 {
        fill: #b9dba9;
      }

      .cls-38 {
        fill: #c3b7ab;
      }

      .cls-16, .cls-39 {
        font-size: 20px;
      }

      .cls-17 {
        font-size: 11.52px;
      }

      .cls-18 {
        font-size: 40px;
      }

      .cls-40 {
        font-size: 13px;
      }

      .cls-19 {
        font-size: 8.06px;
      }

      .cls-7 {
        stroke-width: 2px;
      }

      .cls-41 {
        fill: #f3a6b3;
      }

      .cls-20 {
        font-size: 14.54px;
      }

      .cls-21 {
        font-size: 19px;
      }

      .cls-42 {
        font-size: 18px;
      }

      .cls-22 {
        font-size: 11.7px;
      }

      .cls-43 {
        fill: #9adeff;
      }

      .cls-23 {
        font-size: 15.68px;
      }

      .cls-44 {
        fill: #f9d0bd;
      }

      .cls-24 {
        font-size: 10.55px;
      }

      .cls-45 {
        fill: #b2dee2;
      }

      .cls-46 {
        font-size: 11px;
      }

      .cls-47 {
        fill: #f5f4a9;
      }

      .cls-48, .cls-30 {
        font-size: 14px;
      }

      .cls-25, .cls-49 {
        font-size: 17px;
      }

      .cls-50, .cls-26 {
        font-size: 24px;
      }

      .cls-51, .cls-31 {
        font-size: 12px;
      }

      .cls-52 {
        fill: #b9dba9;
      }

      .cls-53 {
        fill: #c3b7ab;
      }

      .cls-54 {
        fill: #2668b2;
      }

      .cls-55 {
        fill: #42b035;
      }

      .cls-28 {
        font-size: 10px;
      }

      .cls-29 {
        font-size: 9.9px;
      }

      .cls-56 {
        fill: #b2dee2;
      }

      .cls-9 {
        stroke-width: 5px;
      }

      .cls-32 {
        font-size: 20.36px;
      }
    </style>
  </defs>
  <g id="_レイヤー_5" data-name="レイヤー_5">
    <rect class="cls-45" x="244.2" y="601.25" width="159.3" height="89.75"/>
    <rect class="cls-56" x="328.67" y="691.5" width="74.83" height="24"/>
    <rect class="cls-56" x="328.67" y="570.75" width="74.83" height="31.34"/>
    <rect class="cls-44" x="183" y="358" width="350" height="154"/>
    <rect class="cls-52" x="740.75" y="388" width="59.75" height="90"/>
    <rect class="cls-52" x="720" y="423.33" width="20.75" height="54.67"/>
    <rect class="cls-52" x="663.25" y="423.33" width="20.5" height="54.67"/>
    <rect class="cls-37" x="568" y="388.25" width="95.25" height="89.75"/>
    <rect class="cls-41" x="364" y="825" width="126.31" height="90"/>
    <rect class="cls-38" x="563" y="186.17" width="121" height="90"/>
    <rect class="cls-38" x="720" y="220.83" width="38.5" height="55.42"/>
    <rect class="cls-38" x="800.5" y="186.75" width="102.25" height="89.75"/>
    <rect class="cls-47" x="568" y="601.25" width="60" height="89.75"/>
    <rect class="cls-47" x="628" y="635.33" width="55.67" height="55.67"/>
    <rect class="cls-47" x="720" y="635.33" width="64.5" height="55.92"/>
    <polyline class="cls-53" points="235.87 207 255 207 255 310 150.67 310 150.67 207 235.87 207"/>
    <rect class="cls-38" x="663.25" y="221.08" width="20.75" height="55.08"/>
    <rect class="cls-38" x="758.5" y="220.58" width="42" height="55.67"/>
    <rect class="cls-38" x="882" y="221" width="20.75" height="55"/>
    <rect class="cls-38" x="984.25" y="220.58" width="20.88" height="55.42"/>
    <rect class="cls-53" x="255" y="207.5" width="67.58" height="102.5"/>
    <rect class="cls-53" x="322.58" y="207" width="70.21" height="103"/>
    <rect class="cls-53" x="392.5" y="207" width="70.5" height="103"/>
    <rect class="cls-53" x="463" y="207.5" width="70" height="102.5"/>
    <rect class="cls-53" x="229.67" y="206.5" width="25.33" height="34.25"/>
    <rect class="cls-53" x="427.9" y="207.5" width="35.1" height="16.5"/>
    <rect class="cls-44" x="183" y="358.33" width="72" height="153.17"/>
    <rect class="cls-44" x="291" y="358.33" width="26.5" height="55.17"/>
    <rect class="cls-44" x="317.5" y="358.33" width="25.5" height="55.17"/>
    <rect class="cls-44" x="343.72" y="358" width="122.95" height="55.5"/>
    <rect class="cls-44" x="466.67" y="358.33" width="30.83" height="54.17"/>
    <rect class="cls-44" x="254.33" y="452.83" width="36.17" height="59.17"/>
    <rect class="cls-44" x="291" y="453" width="119" height="58.5"/>
    <rect class="cls-44" x="410" y="452.83" width="122.5" height="58.67"/>
    <rect class="cls-45" x="183" y="601.25" width="61.2" height="89.75"/>
    <rect class="cls-45" x="244.2" y="622.88" width="58.94" height="67.62"/>
    <rect class="cls-45" x="303.47" y="641.25" width="25.2" height="49.25"/>
    <rect class="cls-45" x="403.5" y="601.25" width="129.5" height="89.75"/>
    <rect class="cls-52" x="800.5" y="388" width="43.5" height="90.25"/>
    <rect class="cls-52" x="843.5" y="389" width="44" height="89"/>
    <rect class="cls-47" x="784.81" y="635.58" width="37" height="55.42"/>
    <rect class="cls-47" x="821.81" y="635.25" width="39.75" height="55.75"/>
    <rect class="cls-47" x="861.56" y="635.25" width="60.75" height="55.75"/>
    <rect class="cls-47" x="922.31" y="635.33" width="82.81" height="55.92"/>
    <rect class="cls-41" x="490.5" y="825.5" width="46.46" height="89.5"/>
    <rect class="cls-41" x="536.96" y="824.5" width="91.04" height="90.5"/>
    <rect class="cls-41" x="628" y="825.5" width="83" height="89.5"/>
    <rect class="cls-41" x="711" y="825.5" width="65.67" height="29.83"/>
    <rect class="cls-41" x="711" y="855.67" width="65.67" height="59.33"/>
    <rect class="cls-41" x="776.67" y="824.5" width="245.33" height="90.5"/>
    <rect class="cls-41" x="807.03" y="892.5" width="45.97" height="22.5"/>
    <rect class="cls-41" x="428.25" y="825.5" width="15.42" height="18.83"/>
    <rect class="cls-41" x="428.25" y="875.67" width="15.5" height="38.83"/>
    <rect class="cls-41" x="482.25" y="875.67" width="16" height="39.33"/>
    <rect class="cls-41" x="569.25" y="875.67" width="15.75" height="39.33"/>
    <rect class="cls-35" x="887.5" y="422.83" width="58.81" height="55.17"/>
    <rect class="cls-35" x="946.31" y="422.83" width="58.81" height="55.42"/>
    <rect class="cls-35" x="1044.75" y="186.5" width="50.25" height="111.75"/>
    <rect class="cls-35" x="1065.12" y="332.83" width="29.88" height="55.42"/>
    <rect class="cls-35" x="1131" y="333.08" width="23.25" height="54.79"/>
    <rect class="cls-35" x="1154.25" y="333.02" width="51.75" height="54.85"/>
    <rect class="cls-35" x="1206" y="333.21" width="24" height="54.92"/>
    <rect class="cls-35" x="1230" y="333.02" width="24" height="55.29"/>
    <rect class="cls-35" x="1254" y="332.83" width="62" height="55.17"/>
    <rect class="cls-35" x="1316" y="271.67" width="76" height="26.48"/>
    <rect class="cls-35" x="1392" y="332.83" width="62" height="55.17"/>
    <rect class="cls-35" x="1453.75" y="341.83" width="19.88" height="46.17"/>
    <rect class="cls-35" x="1473.75" y="341.83" width="19.5" height="46.17"/>
    <rect class="cls-35" x="1454.25" y="332.75" width="39.25" height="9.08"/>
    <rect class="cls-35" x="1493.25" y="332.75" width="30.75" height="55.5"/>
    <rect class="cls-35" x="1473.75" y="396" width="39" height="45"/>
    <rect class="cls-35" x="1458" y="636.1" width="66" height="55.15"/>
    <rect class="cls-35" x="1392" y="636.08" width="66" height="55.05"/>
    <rect class="cls-35" x="1299.71" y="635.99" width="56.29" height="55.26"/>
    <rect class="cls-35" x="1243.42" y="635.99" width="56.29" height="55.26"/>
    <rect class="cls-35" x="1187.13" y="635.99" width="56.29" height="55.15"/>
    <rect class="cls-35" x="1130.84" y="636.1" width="56.29" height="55.03"/>
    <rect class="cls-35" x="1064.97" y="635.85" width="29.88" height="55.42"/>
    <rect class="cls-35" x="1571.5" y="112.5" width="307.5" height="225"/>
    <rect class="cls-35" x="1721.44" y="370.63" width="156.5" height="116"/>
    <rect class="cls-35" x="1610.94" y="467" width="71.5" height="113"/>
    <rect class="cls-35" x="1732" y="571.33" width="93.44" height="61.42"/>
    <rect class="cls-35" x="1825.44" y="519.75" width="43" height="113"/>
    <rect class="cls-35" x="1610.44" y="595.25" width="44.25" height="18.75"/>
    <rect class="cls-35" x="1610.44" y="614" width="44.5" height="18.75"/>
    <rect class="cls-35" x="1610.44" y="644.5" width="171" height="148.5"/>
    <rect class="cls-35" x="1781.33" y="644.67" width="86.6" height="148.34"/>
    <rect class="cls-35" x="1637.75" y="836.5" width="94.25" height="69.25"/>
    <rect class="cls-35" x="1605" y="859.5" width="33.06" height="46.25"/>
    <rect class="cls-38" x="902.75" y="186.17" width="102.25" height="90.33"/>
    <rect x="1064.97" y="444.67" width="30.03" height="25.04"/>
    <rect x="1064.97" y="469.71" width="30.03" height="25.04"/>
    <rect class="cls-35" x="115" y="769.62" width="136" height="65.04"/>
    <rect class="cls-35" x="134" y="854.62" width="77.13" height="66.75"/>
    <rect class="cls-35" x="1722.19" y="946.74" width="150" height="340.5"/>
    <rect class="cls-41" x="807.03" y="892.5" width="45.97" height="22.5"/>
    <rect class="cls-43" x="1721.44" y="370.63" width="156.5" height="116"/>
    <rect class="cls-52" x="887.5" y="422.61" width="58.81" height="55.64"/>
  </g>
  <g id="_白塗り" data-name="白塗り">
    <rect class="cls-35" x="182.69" y="570.75" width="54.15" height="12.62"/>
    <rect class="cls-35" x="183" y="582" width="14.39" height="18.67"/>
    <rect class="cls-35" x="369.5" y="715.5" width="20.67" height="95.17"/>
    <rect class="cls-35" x="388.25" y="792" width="295.5" height="18.67"/>
    <rect class="cls-35" x="567.75" y="366.42" width="121.5" height="16.58"/>
    <polygon class="cls-35" points="568 366.42 533 392.42 533 408.17 568 382.92 568 366.42"/>
    <rect class="cls-35" x="663.25" y="388.25" width="77.5" height="34.87"/>
    <rect class="cls-35" x="684" y="422.54" width="36" height="55.46"/>
    <rect class="cls-35" x="683.75" y="186.48" width="116.75" height="34.1"/>
    <rect class="cls-35" x="684.12" y="219.88" width="35.88" height="59.12"/>
    <rect class="cls-35" x="683.75" y="633.31" width="36.25" height="59.94"/>
    <rect class="cls-35" x="628" y="601.1" width="383.25" height="34.23"/>
    <rect class="cls-35" x="1016" y="601.23" width="508" height="34.87"/>
    <rect class="cls-35" x="1005" y="152" width="90" height="180.83"/>
    <rect class="cls-35" x="1006" y="325.81" width="59.12" height="365.19"/>
    <rect class="cls-35" x="887.5" y="387.96" width="118.5" height="34.87"/>
    <rect class="cls-35" x="1022" y="688.94" width="29.5" height="226.06"/>
    <rect class="cls-35" x="1356" y="319.5" width="36" height="372"/>
    <rect class="cls-35" x="1030.25" y="298.15" width="493.75" height="34.6"/>
    <rect class="cls-35" x="1316.23" y="326.25" width="39.77" height="61.75"/>
    <rect class="cls-35" x="1106.24" y="200.81" width="50.04" height="33.58"/>
    <rect class="cls-35" x="1430" y="153.5" width="76.51" height="58"/>
    <rect class="cls-35" x="1524" y="300.75" width="47.5" height="29.41"/>
    <rect class="cls-35" x="1571.25" y="337.6" width="39.19" height="455.4"/>
    <rect class="cls-35" x="1524" y="604.34" width="47.5" height="28.41"/>
    <rect class="cls-35" x="1610.94" y="528.95" width="100.06" height="66.3"/>
    <rect class="cls-35" x="1610.44" y="398.67" width="38.23" height="68.34"/>
    <rect class="cls-35" x="1844.67" y="296.83" width="59.33" height="40.67"/>
    <rect class="cls-35" x="1576" y="793" width="29" height="43.49"/>
    <rect class="cls-35" x="1576" y="835.75" width="61.75" height="70"/>
    <rect class="cls-35" x="1746.44" y="792.25" width="35" height="126.25"/>
    <rect class="cls-35" x="1746.44" y="918.5" width="84" height="28"/>
    <rect class="cls-35" x="1095" y="331.94" width="36" height="56.33"/>
    <rect class="cls-35" x="1094.84" y="635.99" width="36.16" height="55.01"/>
    <rect class="cls-35" x="1051.44" y="792.11" width="445.29" height="45.27"/>
    <rect class="cls-35" x="1051.44" y="870.41" width="445.29" height="44.59"/>
    <rect class="cls-35" x="683.75" y="276" width="36.25" height="111.96"/>
    <rect class="cls-35" x="1106.24" y="249.9" width="50.04" height="33.58"/>
    <rect class="cls-35" x="1178.88" y="261.49" width="113.38" height="33.58"/>
    <rect class="cls-35" x="1532.5" y="112.5" width="32.01" height="138.47"/>
    <rect class="cls-35" x="1318.15" y="18.19" width="50.04" height="33.58"/>
    <rect class="cls-35" x="1159.13" y="75.8" width="149.78" height="49.12"/>
    <rect class="cls-35" x="1440.05" y="259.87" width="47.84" height="33.58"/>
    <rect class="cls-35" x="1526.34" y="335.02" width="25.66" height="66.33"/>
    <rect class="cls-35" x="1468.53" y="448.48" width="47.84" height="33.57"/>
    <rect class="cls-35" x="1468.53" y="486.86" width="47.84" height="33.58"/>
    <rect class="cls-35" x="1416.13" y="486.86" width="47.84" height="33.58"/>
    <rect class="cls-5" x="1242.75" y="411.35" width="106.16" height="65.1"/>
    <rect class="cls-5" x="1295.07" y="563.21" width="47.84" height="33.58"/>
    <rect class="cls-5" x="1188.19" y="562.83" width="47.84" height="33.58"/>
    <rect class="cls-5" x="1130.84" y="562.83" width="47.84" height="33.58"/>
    <rect class="cls-5" x="1469.58" y="563.69" width="47.84" height="33.58"/>
  </g>
  <g id="_テクスチャ" data-name="テクスチャ">
    <polyline class="cls-2" points="533 358 183 358 183 512 533 512"/>
    <polyline class="cls-2" points="1005 388.25 568 388.25 568 478.25 1005 478.25"/>
    <rect class="cls-2" x="150.67" y="207" width="382.33" height="103"/>
    <rect class="cls-2" x="563" y="186.5" width="442" height="90"/>
    <polyline class="cls-2" points="1005.13 388.25 1005.13 152 1095 152 1095 298.75"/>
    <polyline class="cls-2" points="1095 298.25 1524 298.25 1524 388.25 1095 388.25"/>
    <rect class="cls-2" x="1316" y="271.67" width="76" height="26.58"/>
    <rect class="cls-5" x="1473.75" y="396" width="39" height="45"/>
    <rect class="cls-5" x="630.5" y="318" width="45.5" height="45.5"/>
    <rect class="cls-5" x="577" y="152" width="120" height="21"/>
    <rect class="cls-5" x="706" y="152" width="122" height="21"/>
    <rect class="cls-5" x="836" y="152" width="119" height="21"/>
    <rect class="cls-5" x="568" y="75" width="509" height="38"/>
    <rect class="cls-5" x="684" y="478.25" width="36" height="123"/>
    <rect class="cls-2" x="1356" y="388.25" width="36" height="212.75"/>
    <rect class="cls-5" x="684" y="691.5" width="36" height="133.5"/>
    <rect class="cls-2" x="328.67" y="691.5" width="74.83" height="24"/>
    <rect class="cls-2" x="364" y="825" width="658" height="90"/>
    <rect class="cls-2" x="1051.5" y="792.25" width="445.17" height="45"/>
    <rect class="cls-2" x="1051.5" y="870" width="445.17" height="45"/>
    <rect class="cls-2" x="1610.94" y="398.67" width="37.73" height="68.34"/>
    <line class="cls-5" x1="1576" y1="835.75" x2="1576" y2="793"/>
    <line class="cls-5" x1="1605" y1="793" x2="1605" y2="835.75"/>
    <rect class="cls-2" x="1576" y="835.75" width="156" height="70"/>
    <rect class="cls-2" x="1746.44" y="793" width="35" height="125.49"/>
    <rect class="cls-2" x="1746.44" y="918.5" width="84" height="28"/>
    <rect class="cls-2" x="1721.94" y="946.5" width="150.5" height="341"/>
    <rect class="cls-2" x="1825.44" y="519.75" width="43" height="113"/>
    <rect class="cls-5" x="115" y="769.62" width="136" height="65.49"/>
    <rect class="cls-5" x="134" y="854.62" width="77.13" height="66.75"/>
    <rect class="cls-2" x="1571.5" y="337.5" width="38.94" height="455.5"/>
    <rect class="cls-2" x="1610.44" y="644.5" width="257.5" height="148.5"/>
    <rect class="cls-2" x="1732" y="571.33" width="93.44" height="61.42"/>
    <rect class="cls-2" x="1610.44" y="595.25" width="44.5" height="37.5"/>
    <rect class="cls-2" x="1721.44" y="370.63" width="156.5" height="116"/>
    <rect class="cls-5" x="349.12" y="75" width="48" height="107"/>
    <rect class="cls-5" x="418.5" y="75" width="91.5" height="27"/>
    <rect class="cls-5" x="418.5" y="128.43" width="45.75" height="16.88"/>
    <line class="cls-5" x1="1571.5" y1="632.75" x2="1524" y2="632.75"/>
    <line class="cls-5" x1="1524" y1="604.34" x2="1571.5" y2="604.34"/>
    <rect class="cls-5" x="470.5" y="128.43" width="43" height="16.88"/>
    <rect class="cls-5" x="418.5" y="149" width="95" height="19"/>
    <rect class="cls-5" x="182.5" y="75" width="59.5" height="107"/>
    <polyline class="cls-2" points="533 408.25 568.11 382.95 684.5 383"/>
    <line class="cls-5" x1="1065.12" y1="388.25" x2="1065.12" y2="601.25"/>
    <line class="cls-2" x1="363.54" y1="979.28" x2="1005.54" y2="979.28"/>
    <line class="cls-2" x1="1078.54" y1="979.28" x2="1533.54" y2="979.28"/>
    <path class="cls-2" d="M1579.29,979.28l100.38,64.37v359.01"/>
    <line class="cls-2" x1="313.62" y1="979.28" x2="160.63" y2="979.28"/>
    <line class="cls-2" x1="160.63" y1="979.28" x2="48.14" y2="1075.57"/>
    <line class="cls-2" x1="48.14" y1="1075.57" x2="48.14" y2="1389.06"/>
    <circle class="cls-5" cx="1343.5" cy="190" r="36.5"/>
    <rect class="cls-2" x="1430" y="153.5" width="76.51" height="58"/>
    <path class="cls-2" d="M1005.13,478.25v123h-437.13v90h454v223.75h29.5v-223.75h472.5v-90h-454.89"/>
    <line class="cls-2" x1="1095" y1="388.25" x2="1065.12" y2="388.25"/>
    <line class="cls-2" x1="1069" y1="601.25" x2="1065.12" y2="601.25"/>
    <line class="cls-5" x1="1571.5" y1="330.16" x2="1524" y2="330.16"/>
    <line class="cls-5" x1="1524" y1="300.75" x2="1571.5" y2="300.75"/>
    <line class="cls-2" x1="1781.44" y1="793" x2="1781.44" y2="644.5"/>
    <line class="cls-2" x1="1005" y1="186.5" x2="1095" y2="186.5"/>
    <line class="cls-2" x1="533" y1="358" x2="533" y2="512"/>
    <polyline class="cls-2" points="1879 337.5 1904 337.5 1904 296.83 1879 296.83 1879 112.5 1571.5 112.5 1571.5 337.5 1879 337.5"/>
    <line class="cls-2" x1="1682.44" y1="580" x2="1711.67" y2="580"/>
    <path class="cls-2" d="M1711.67,579.91v-51.01l-29.23.09v-61.99h-71.5v113h71.5"/>
    <polyline class="cls-2" points="369.5 715.5 369.5 810.67 683.75 810.67"/>
    <polyline class="cls-2" points="683.75 792 390.17 792 390.17 715.5"/>
    <polyline class="cls-2" points="403.5 691.5 533 691.5 533 601.25 403.5 601.25 403.5 570.75 328.67 570.75 328.67 601.25 183 601.25 183 691.5 335.5 691.5"/>
    <path class="cls-2" d="M533,392.5l35-26s.05-.03.11-.08h115.89c0-3.07,0-89.92,0-89.92h36v111.75h-36v-5.25"/>
    <line class="cls-2" x1="1005.13" y1="388.25" x2="1005.13" y2="478.25"/>
  </g>
  <g id="_間取り" data-name="間取り">
    <line class="cls-2" x1="1356" y1="691.25" x2="1356" y2="636.08"/>
    <line class="cls-2" x1="1392" y1="691.25" x2="1392" y2="636.08"/>
    <line class="cls-1" x1="1374" y1="675.42" x2="1356" y2="675.42"/>
    <line class="cls-1" x1="1374" y1="675.42" x2="1392" y2="675.42"/>
    <line class="cls-1" x1="1524" y1="636.08" x2="1391.52" y2="636.08"/>
    <polyline class="cls-1" points="1356 636.08 1374 636.08 1374 675.42"/>
    <line class="cls-1" x1="1374" y1="655.75" x2="1392" y2="655.75"/>
    <line class="cls-1" x1="1374" y1="645.92" x2="1392" y2="645.92"/>
    <line class="cls-1" x1="1392" y1="665.58" x2="1374" y2="665.58"/>
    <line class="cls-1" x1="1356" y1="655.75" x2="1374" y2="655.75"/>
    <line class="cls-1" x1="1356" y1="645.92" x2="1374" y2="645.92"/>
    <line class="cls-1" x1="1374" y1="665.58" x2="1356" y2="665.58"/>
    <line class="cls-2" x1="1356" y1="388" x2="1356" y2="332.83"/>
    <line class="cls-2" x1="1392" y1="388" x2="1392" y2="332.83"/>
    <polyline class="cls-1" points="1374 372.17 1374 332.83 1355.5 332.83"/>
    <line class="cls-1" x1="1374" y1="372.17" x2="1356" y2="372.17"/>
    <line class="cls-1" x1="1374" y1="372.17" x2="1392" y2="372.17"/>
    <line class="cls-1" x1="1374" y1="352.5" x2="1392" y2="352.5"/>
    <line class="cls-1" x1="1374" y1="342.67" x2="1392" y2="342.67"/>
    <line class="cls-1" x1="1392" y1="362.33" x2="1374" y2="362.33"/>
    <line class="cls-1" x1="1356" y1="352.5" x2="1374" y2="352.5"/>
    <line class="cls-1" x1="1356" y1="342.67" x2="1374" y2="342.67"/>
    <line class="cls-1" x1="1374" y1="362.33" x2="1356" y2="362.33"/>
    <line class="cls-1" x1="1524" y1="332.83" x2="1391.49" y2="332.83"/>
    <path class="cls-1" d="M719.5,635.33h285.62v55.91"/>
    <line class="cls-2" x1="684" y1="691" x2="684" y2="635.33"/>
    <line class="cls-2" x1="720" y1="690.92" x2="720" y2="635.33"/>
    <line class="cls-1" x1="702" y1="675.17" x2="684" y2="675.17"/>
    <line class="cls-1" x1="702" y1="675.17" x2="720" y2="675.17"/>
    <line class="cls-1" x1="702" y1="655.5" x2="720" y2="655.5"/>
    <line class="cls-1" x1="702" y1="645.67" x2="720" y2="645.67"/>
    <line class="cls-1" x1="720" y1="665.33" x2="702" y2="665.33"/>
    <line class="cls-1" x1="684" y1="655.5" x2="702" y2="655.5"/>
    <line class="cls-1" x1="684" y1="645.67" x2="702" y2="645.67"/>
    <line class="cls-1" x1="702" y1="665.33" x2="684" y2="665.33"/>
    <line class="cls-1" x1="1095" y1="298.25" x2="1044.75" y2="298.25"/>
    <line class="cls-1" x1="1005.13" y1="479.41" x2="1005.13" y2="422.83"/>
    <line class="cls-1" x1="1005.13" y1="422.83" x2="887.5" y2="422.83"/>
    <line class="cls-2" x1="684" y1="478.5" x2="684" y2="423.33"/>
    <line class="cls-2" x1="720" y1="478" x2="720" y2="423.33"/>
    <line class="cls-1" x1="702" y1="423.33" x2="702" y2="462.67"/>
    <line class="cls-1" x1="702" y1="462.67" x2="684" y2="462.67"/>
    <line class="cls-1" x1="702" y1="462.67" x2="720" y2="462.67"/>
    <line class="cls-1" x1="702" y1="443" x2="720" y2="443"/>
    <line class="cls-1" x1="702" y1="433.17" x2="720" y2="433.17"/>
    <line class="cls-1" x1="720" y1="452.83" x2="702" y2="452.83"/>
    <line class="cls-1" x1="684" y1="443" x2="702" y2="443"/>
    <line class="cls-1" x1="684" y1="433.17" x2="702" y2="433.17"/>
    <line class="cls-1" x1="702" y1="452.83" x2="684" y2="452.83"/>
    <line class="cls-2" x1="684" y1="276.5" x2="684" y2="220.83"/>
    <line class="cls-2" x1="720" y1="276" x2="720" y2="220.83"/>
    <polyline class="cls-1" points="702 260.67 702 220.83 684 220.83"/>
    <line class="cls-1" x1="702" y1="260.67" x2="684" y2="260.67"/>
    <line class="cls-1" x1="702" y1="260.67" x2="720" y2="260.67"/>
    <line class="cls-1" x1="702" y1="241" x2="720" y2="241"/>
    <line class="cls-1" x1="702" y1="231.17" x2="720" y2="231.17"/>
    <line class="cls-1" x1="720" y1="250.83" x2="702" y2="250.83"/>
    <line class="cls-1" x1="684" y1="241" x2="702" y2="241"/>
    <line class="cls-1" x1="684" y1="231.17" x2="702" y2="231.17"/>
    <line class="cls-1" x1="702" y1="250.83" x2="684" y2="250.83"/>
    <line class="cls-1" x1="1605" y1="859.5" x2="1637.75" y2="859.5"/>
    <line class="cls-1" x1="1637.75" y1="905.75" x2="1637.75" y2="859.5"/>
    <line class="cls-1" x1="1605" y1="859.5" x2="1605" y2="905.75"/>
    <line class="cls-1" x1="1637.75" y1="859.5" x2="1637.75" y2="836.5"/>
    <polyline class="cls-1" points="1576 892.5 1590.97 892.5 1590.97 859.5 1605 859.5"/>
    <line class="cls-1" x1="1590.97" y1="876" x2="1576" y2="876"/>
    <line class="cls-1" x1="1590.97" y1="884.25" x2="1576" y2="884.25"/>
    <path class="cls-1" d="M1590.97,867.75h-15.34,15.34Z"/>
    <g>
      <line class="cls-1" x1="1583.48" y1="859.5" x2="1583.48" y2="887.48"/>
      <path d="M1583.48,890.5c-.53-1.42-1.43-3.18-2.38-4.27l2.38.86,2.38-.86c-.95,1.09-1.85,2.85-2.38,4.27Z"/>
    </g>
    <line class="cls-5" x1="1095" y1="388.25" x2="1095" y2="333.08"/>
    <line class="cls-5" x1="1131" y1="388.25" x2="1131" y2="333.08"/>
    <polyline class="cls-1" points="1113 372.42 1113 333.08 1131 333.08"/>
    <line class="cls-1" x1="1113" y1="372.42" x2="1095" y2="372.42"/>
    <line class="cls-1" x1="1113" y1="372.42" x2="1131" y2="372.42"/>
    <line class="cls-1" x1="1113" y1="352.75" x2="1131" y2="352.75"/>
    <line class="cls-1" x1="1113" y1="342.92" x2="1131" y2="342.92"/>
    <line class="cls-1" x1="1131" y1="362.58" x2="1113" y2="362.58"/>
    <line class="cls-1" x1="1095" y1="352.75" x2="1113" y2="352.75"/>
    <line class="cls-1" x1="1095" y1="342.92" x2="1113" y2="342.92"/>
    <line class="cls-1" x1="1113" y1="362.58" x2="1095" y2="362.58"/>
    <path class="cls-1" d="M1095.49,333.08h-30.63c0,4.02.01,55.19.01,55.19"/>
    <line class="cls-1" x1="1131" y1="333.08" x2="1316.25" y2="332.88"/>
    <line class="cls-1" x1="1316.25" y1="332.88" x2="1316" y2="388"/>
    <line class="cls-1" x1="1254" y1="333.02" x2="1254" y2="388.31"/>
    <line class="cls-1" x1="1154.25" y1="332.96" x2="1154.25" y2="387.88"/>
    <line class="cls-1" x1="1230" y1="333.21" x2="1230" y2="388.12"/>
    <line class="cls-1" x1="1206" y1="333.21" x2="1206" y2="388.12"/>
    <line class="cls-1" x1="1454" y1="332.83" x2="1454" y2="388"/>
    <line class="cls-1" x1="1493.25" y1="332.83" x2="1493.25" y2="388"/>
    <line class="cls-1" x1="1454" y1="341.83" x2="1493.25" y2="341.83"/>
    <line class="cls-1" x1="1473.62" y1="388" x2="1473.62" y2="341.83"/>
    <line class="cls-1" x1="1044.75" y1="298.25" x2="1044.75" y2="186.5"/>
    <line class="cls-1" x1="719.51" y1="220.83" x2="800.42" y2="220.83"/>
    <line class="cls-1" x1="800.5" y1="276.25" x2="800.5" y2="220.58"/>
    <line class="cls-1" x1="758.5" y1="220.83" x2="758.5" y2="276.25"/>
    <line class="cls-1" x1="800.5" y1="221.08" x2="800.5" y2="186.75"/>
    <line class="cls-1" x1="902.75" y1="186.17" x2="902.75" y2="276.17"/>
    <polyline class="cls-1" points="882 276.17 882 221 902.75 221"/>
    <polyline class="cls-1" points="1005 220.83 984.25 220.83 984.25 276"/>
    <polyline class="cls-1" points="683.75 220.83 663.25 220.83 663.25 276"/>
    <line class="cls-1" x1="533" y1="453" x2="255" y2="452.83"/>
    <line class="cls-1" x1="497.5" y1="413.33" x2="291" y2="413.33"/>
    <line class="cls-2" x1="497.5" y1="358" x2="497.5" y2="413.58"/>
    <polyline class="cls-1" points="515 372.5 515 392 497.5 392"/>
    <line class="cls-1" x1="515" y1="372.5" x2="497.5" y2="372.5"/>
    <line class="cls-1" x1="515" y1="382.25" x2="497.5" y2="382.25"/>
    <line class="cls-1" x1="532.5" y1="382.25" x2="515" y2="382.25"/>
    <line class="cls-1" x1="532.5" y1="372.5" x2="515" y2="372.5"/>
    <line class="cls-1" x1="515" y1="372.5" x2="533" y2="358"/>
    <line class="cls-1" x1="497.5" y1="358" x2="515" y2="372.5"/>
    <line class="cls-1" x1="466.67" y1="358" x2="466.67" y2="413.33"/>
    <line class="cls-2" x1="291" y1="357.83" x2="291" y2="413.33"/>
    <line class="cls-2" x1="255" y1="358.33" x2="255" y2="413.5"/>
    <path class="cls-1" d="M273,373.67v39.67h18"/>
    <line class="cls-1" x1="273" y1="373.67" x2="291" y2="373.67"/>
    <line class="cls-1" x1="273" y1="373.67" x2="255" y2="373.67"/>
    <line class="cls-1" x1="273" y1="393.33" x2="255" y2="393.33"/>
    <line class="cls-1" x1="273" y1="403.17" x2="255" y2="403.17"/>
    <line class="cls-1" x1="255" y1="383.5" x2="273" y2="383.5"/>
    <line class="cls-1" x1="291" y1="393.33" x2="273" y2="393.33"/>
    <line class="cls-1" x1="291" y1="403.17" x2="273" y2="403.17"/>
    <line class="cls-1" x1="273" y1="383.5" x2="291" y2="383.5"/>
    <line class="cls-1" x1="317.5" y1="358.33" x2="317.5" y2="413.33"/>
    <line class="cls-1" x1="343" y1="358" x2="343" y2="413.33"/>
    <line class="cls-1" x1="291" y1="453" x2="291" y2="512"/>
    <line class="cls-2" x1="255" y1="452.83" x2="255" y2="512"/>
    <line class="cls-1" x1="410" y1="453" x2="410" y2="512"/>
    <line class="cls-1" x1="255" y1="413.5" x2="255" y2="452.83"/>
    <line class="cls-1" x1="463" y1="207" x2="463" y2="310"/>
    <line class="cls-2" x1="392.79" y1="207" x2="392.79" y2="310"/>
    <line class="cls-1" x1="322.58" y1="207" x2="322.58" y2="310"/>
    <line class="cls-1" x1="255" y1="207" x2="255" y2="310"/>
    <polyline class="cls-1" points="229.67 207 229.67 263.56 254.93 263.56"/>
    <path class="cls-1" d="M427.9,207v17h35"/>
    <line class="cls-1" x1="684" y1="186.5" x2="684" y2="221.33"/>
    <line class="cls-1" x1="684" y1="423.33" x2="663.25" y2="423.33"/>
    <line class="cls-1" x1="663.25" y1="478.25" x2="663.25" y2="423.33"/>
    <line class="cls-1" x1="663.25" y1="388.25" x2="663.25" y2="423.33"/>
    <line class="cls-1" x1="800.5" y1="388.25" x2="800.5" y2="478"/>
    <line class="cls-1" x1="740.75" y1="423.33" x2="720" y2="423.33"/>
    <line class="cls-1" x1="740.75" y1="388.25" x2="740.75" y2="423.33"/>
    <line class="cls-1" x1="740.75" y1="478" x2="740.75" y2="423.33"/>
    <line class="cls-1" x1="887.5" y1="388.25" x2="887.5" y2="478"/>
    <line class="cls-1" x1="946.31" y1="422.83" x2="946.31" y2="478.5"/>
    <line class="cls-1" x1="844" y1="388.25" x2="844" y2="478.25"/>
    <line class="cls-1" x1="684" y1="635.33" x2="628" y2="635.33"/>
    <line class="cls-1" x1="628" y1="601.25" x2="628" y2="635.83"/>
    <line class="cls-1" x1="628" y1="635.83" x2="628" y2="690.89"/>
    <line class="cls-1" x1="922.31" y1="635.33" x2="922.31" y2="690"/>
    <line class="cls-1" x1="861.56" y1="635.83" x2="861.56" y2="691"/>
    <line class="cls-1" x1="821.81" y1="635.33" x2="821.81" y2="691.5"/>
    <line class="cls-1" x1="784.81" y1="635.58" x2="784.81" y2="691.25"/>
    <line class="cls-1" x1="1064.97" y1="691.27" x2="1064.97" y2="635.85"/>
    <line class="cls-2" x1="1094.84" y1="691.27" x2="1094.84" y2="636.1"/>
    <line class="cls-2" x1="1130.84" y1="691.27" x2="1130.84" y2="636.1"/>
    <line class="cls-1" x1="1112.84" y1="675.44" x2="1094.84" y2="675.44"/>
    <line class="cls-1" x1="1112.84" y1="675.44" x2="1130.84" y2="675.44"/>
    <line class="cls-1" x1="1112.84" y1="655.77" x2="1130.84" y2="655.77"/>
    <line class="cls-1" x1="1112.84" y1="645.94" x2="1130.84" y2="645.94"/>
    <line class="cls-1" x1="1130.84" y1="665.6" x2="1112.84" y2="665.6"/>
    <line class="cls-1" x1="1094.84" y1="655.77" x2="1112.84" y2="655.77"/>
    <line class="cls-1" x1="1094.84" y1="645.94" x2="1112.84" y2="645.94"/>
    <line class="cls-1" x1="1112.84" y1="665.6" x2="1094.84" y2="665.6"/>
    <line class="cls-1" x1="1064.97" y1="636.1" x2="1095.34" y2="636.1"/>
    <line class="cls-1" x1="1130.84" y1="636.08" x2="1356" y2="636.08"/>
    <line class="cls-1" x1="1458" y1="636.1" x2="1458" y2="691.25"/>
    <line class="cls-1" x1="1299.71" y1="635.99" x2="1299.71" y2="691.13"/>
    <line class="cls-1" x1="1243.42" y1="635.99" x2="1243.42" y2="691.13"/>
    <line class="cls-1" x1="1187.13" y1="635.99" x2="1187.13" y2="691.13"/>
    <polyline class="cls-1" points="1879 283.75 1835.5 283.75 1835.5 166.25 1879 166.25"/>
    <line class="cls-1" x1="1844.67" y1="283.75" x2="1844.67" y2="337.5"/>
    <line class="cls-1" x1="1844.67" y1="166.25" x2="1844.67" y2="112.5"/>
    <line class="cls-1" x1="1844.67" y1="297.08" x2="1879" y2="297.08"/>
    <polyline class="cls-2" points="1654.94 595.25 1711.67 595.25 1711.67 580"/>
    <line class="cls-1" x1="1691.83" y1="579.96" x2="1691.83" y2="595.3"/>
    <line class="cls-1" x1="1630.38" y1="579.96" x2="1630.38" y2="595.3"/>
    <line class="cls-1" x1="1661.1" y1="579.91" x2="1661.1" y2="595.25"/>
    <line class="cls-1" x1="1676.47" y1="579.96" x2="1676.47" y2="595.3"/>
    <line class="cls-1" x1="1645.74" y1="579.91" x2="1645.74" y2="595.25"/>
    <line class="cls-1" x1="1668.79" y1="579.96" x2="1668.79" y2="595.3"/>
    <line class="cls-1" x1="1684.15" y1="579.96" x2="1684.15" y2="595.3"/>
    <line class="cls-1" x1="1653.42" y1="579.91" x2="1653.42" y2="595.25"/>
    <line class="cls-1" x1="1638.06" y1="579.96" x2="1638.06" y2="595.3"/>
    <g>
      <line class="cls-1" x1="1625.39" y1="587.58" x2="1694.48" y2="587.58"/>
      <path d="M1697.5,587.58c-1.42.53-3.18,1.43-4.27,2.38l.86-2.38-.86-2.38c1.09.95,2.85,1.85,4.27,2.38Z"/>
    </g>
    <g>
      <line class="cls-1" x1="1383" y1="334" x2="1383" y2="375.32"/>
      <path d="M1383,378.33c-.53-1.42-1.43-3.18-2.38-4.27l2.38.86,2.38-.86c-.95,1.09-1.85,2.85-2.38,4.27Z"/>
    </g>
    <g>
      <line class="cls-1" x1="1104" y1="332.96" x2="1104" y2="375.36"/>
      <path d="M1104,378.38c-.53-1.42-1.43-3.18-2.38-4.27l2.38.86,2.38-.86c-.95,1.09-1.85,2.85-2.38,4.27Z"/>
    </g>
    <g>
      <line class="cls-1" x1="1383" y1="635.99" x2="1383" y2="680.15"/>
      <path d="M1383,683.17c-.53-1.42-1.43-3.18-2.38-4.27l2.38.86,2.38-.86c-.95,1.09-1.85,2.85-2.38,4.27Z"/>
    </g>
    <g>
      <line class="cls-1" x1="1103.84" y1="635.85" x2="1103.84" y2="679.23"/>
      <path d="M1103.84,682.25c-.53-1.42-1.43-3.18-2.38-4.27l2.38.86,2.38-.86c-.95,1.09-1.85,2.85-2.38,4.27Z"/>
    </g>
    <polyline class="cls-1" points="1130.84 636.1 1112.84 636.1 1112.84 675.44"/>
    <g>
      <line class="cls-1" x1="711" y1="635.33" x2="711" y2="678.71"/>
      <path d="M711,681.73c-.53-1.42-1.43-3.18-2.38-4.27l2.38.86,2.38-.86c-.95,1.09-1.85,2.85-2.38,4.27Z"/>
    </g>
    <g>
      <line class="cls-1" x1="711" y1="423.33" x2="711" y2="466.71"/>
      <path d="M711,469.73c-.53-1.42-1.43-3.18-2.38-4.27l2.38.86,2.38-.86c-.95,1.09-1.85,2.85-2.38,4.27Z"/>
    </g>
    <g>
      <line class="cls-1" x1="711" y1="220.83" x2="711" y2="264.21"/>
      <path d="M711,267.23c-.53-1.42-1.43-3.18-2.38-4.27l2.38.86,2.38-.86c-.95,1.09-1.85,2.85-2.38,4.27Z"/>
    </g>
    <line class="cls-1" x1="523.75" y1="392" x2="523.75" y2="365.25"/>
    <line class="cls-1" x1="506.25" y1="365.25" x2="523.75" y2="365.25"/>
    <g>
      <line class="cls-1" x1="506.25" y1="365.05" x2="506.25" y2="385.23"/>
      <path d="M506.25,388.25c-.53-1.42-1.43-3.18-2.38-4.27l2.38.86,2.38-.86c-.95,1.09-1.85,2.85-2.38,4.27Z"/>
    </g>
    <g>
      <line class="cls-1" x1="264" y1="413.5" x2="264" y2="368.77"/>
      <path d="M264,365.75c.53,1.42,1.43,3.18,2.38,4.27l-2.38-.86-2.38.86c.95-1.09,1.85-2.85,2.38-4.27Z"/>
    </g>
    <polyline class="cls-1" points="684 635.33 702 635.33 702 675.17"/>
    <line class="cls-1" x1="684" y1="423.33" x2="702" y2="423.33"/>
    <polyline class="cls-5" points="1064.97 444.67 1095 444.67 1095 494.75 1065.12 494.75"/>
    <line class="cls-8" x1="1095" y1="469.71" x2="1065.12" y2="469.71"/>
    <line class="cls-8" x1="244.33" y1="601.25" x2="244.33" y2="691.5"/>
    <polyline class="cls-1" points="244.2 623.12 302.86 622.88 303.14 691.38"/>
    <polyline class="cls-1" points="302.94 641.25 328.67 641.25 328.67 691.5"/>
    <line class="cls-8" x1="403.5" y1="601.25" x2="403.5" y2="691.5"/>
    <line class="cls-5" x1="385" y1="601.25" x2="375.5" y2="586"/>
    <line class="cls-5" x1="346" y1="601.25" x2="356.33" y2="586"/>
    <line class="cls-8" x1="328.67" y1="584.67" x2="348.17" y2="570.75"/>
    <line class="cls-8" x1="403.5" y1="584.67" x2="384" y2="570.75"/>
    <line class="cls-1" x1="328.67" y1="601.5" x2="346" y2="601.5"/>
    <line class="cls-1" x1="356.33" y1="586" x2="375.5" y2="586"/>
    <line class="cls-1" x1="351.17" y1="593.62" x2="380.25" y2="593.62"/>
    <line class="cls-1" x1="353.92" y1="589.56" x2="377.9" y2="589.56"/>
    <line class="cls-1" x1="348.72" y1="597.23" x2="382.5" y2="597.23"/>
    <line class="cls-1" x1="377.9" y1="589.56" x2="391.43" y2="576.03"/>
    <line class="cls-1" x1="380.25" y1="593.62" x2="395.1" y2="578.77"/>
    <line class="cls-1" x1="382.5" y1="597.23" x2="398.4" y2="581.33"/>
    <line class="cls-1" x1="353.92" y1="589.56" x2="340.54" y2="576.18"/>
    <line class="cls-1" x1="351.17" y1="593.62" x2="336.6" y2="579.05"/>
    <line class="cls-1" x1="348.72" y1="597.23" x2="333.21" y2="581.72"/>
    <line class="cls-1" x1="356.33" y1="586" x2="344.07" y2="573.74"/>
    <line class="cls-1" x1="375.5" y1="586" x2="387.95" y2="573.55"/>
    <line class="cls-1" x1="346" y1="601.25" x2="329.1" y2="584.35"/>
    <line class="cls-1" x1="385" y1="601.25" x2="402.43" y2="583.82"/>
    <g>
      <line class="cls-1" x1="350.11" y1="579.77" x2="338.88" y2="598.66"/>
      <path d="M337.33,601.25c.27-1.49.4-3.46.14-4.89l1.6,1.95,2.48.48c-1.38.45-3.05,1.51-4.23,2.46Z"/>
    </g>
    <g>
      <line class="cls-1" x1="381.63" y1="579.87" x2="392.72" y2="598.65"/>
      <path d="M394.25,601.25c-1.18-.95-2.85-2.02-4.22-2.47l2.48-.47,1.61-1.95c-.26,1.42-.14,3.4.13,4.89Z"/>
    </g>
    <g>
      <line class="cls-1" x1="365.61" y1="603.25" x2="366.02" y2="582.79"/>
      <path d="M366.08,579.77c.5,1.43,1.36,3.21,2.29,4.32l-2.36-.91-2.39.81c.97-1.07,1.91-2.82,2.46-4.22Z"/>
    </g>
    <polyline class="cls-1" points="182.75 600.96 182.75 570.75 236.83 570.75 236.83 583.37 197.4 583.37 197.4 600.96"/>
    <line class="cls-1" x1="197.39" y1="583.67" x2="197.39" y2="571.05"/>
    <line class="cls-1" x1="216.83" y1="571.05" x2="216.83" y2="583.67"/>
    <line class="cls-1" x1="207.16" y1="570.76" x2="207.16" y2="583.38"/>
    <line class="cls-1" x1="227.39" y1="571.05" x2="227.39" y2="583.67"/>
    <line class="cls-1" x1="211.99" y1="570.9" x2="211.99" y2="583.52"/>
    <line class="cls-1" x1="202.32" y1="571.05" x2="202.32" y2="583.67"/>
    <line class="cls-1" x1="222.55" y1="570.9" x2="222.55" y2="583.52"/>
    <line class="cls-1" x1="232.03" y1="571.05" x2="232.03" y2="583.67"/>
    <g>
      <line class="cls-1" x1="236.83" y1="577.33" x2="192.14" y2="577.33"/>
      <path d="M189.13,577.33c1.42-.53,3.18-1.43,4.27-2.38l-.86,2.38.86,2.38c-1.09-.95-2.85-1.85-4.27-2.38Z"/>
    </g>
    <line class="cls-1" x1="536.96" y1="825" x2="536.96" y2="915"/>
    <polyline class="cls-1" points="428.25 915 428.25 875.67 443.67 875.67 443.67 915"/>
    <polyline class="cls-1" points="428.25 825 428.25 844.33 443.67 844.33 443.67 825"/>
    <polyline class="cls-1" points="482.6 915 482.6 875.67 498.02 875.67 498.02 915"/>
    <line class="cls-1" x1="490.31" y1="825" x2="490.31" y2="875.67"/>
    <line class="cls-1" x1="628" y1="825" x2="628" y2="915"/>
    <line class="cls-1" x1="711" y1="825" x2="711" y2="915"/>
    <line class="cls-1" x1="776.67" y1="825" x2="776.67" y2="915"/>
    <line class="cls-1" x1="711" y1="855.67" x2="776.67" y2="855.67"/>
    <polyline class="cls-1" points="807 915 807 892.5 853.33 892.5 853.33 915"/>
    <polyline class="cls-1" points="569.62 915 569.62 875.67 585.04 875.67 585.04 915"/>
    <path class="cls-3" d="M384.71,601.3s.22.15.33.2c.9,0,18.46,0,18.46,0"/>
    <line class="cls-3" x1="346.24" y1="601.36" x2="346.01" y2="601.51"/>
  </g>
  <g id="_構内道路" data-name="構内道路">
    <path class="cls-1" d="M1392,558h132.25v43.25"/>
    <path class="cls-1" d="M1392,524.88h132.25v-136.62"/>
    <line class="cls-1" x1="1356" y1="524.88" x2="1065.12" y2="524.88"/>
    <line class="cls-1" x1="1356" y1="558" x2="1064.97" y2="558"/>
    <line class="cls-1" x1="1005" y1="524.88" x2="720" y2="524.88"/>
    <line class="cls-1" x1="1005" y1="558" x2="720" y2="558"/>
    <polyline class="cls-1" points="683.75 524.88 568 524.88 568 478.25"/>
    <path class="cls-1" d="M683.75,558h-115.75v43.25"/>
    <circle class="cls-1" cx="1189.98" cy="456.56" r="26.87"/>
    <polyline class="cls-1" points="568 691.25 568 718 683.75 718"/>
    <polyline class="cls-1" points="683.75 755 568 755 568 792"/>
    <line class="cls-1" x1="720" y1="718" x2="1022" y2="718"/>
    <line class="cls-1" x1="720" y1="755" x2="1022" y2="755"/>
    <path class="cls-1" d="M1051.5,718h472.78v-26.75"/>
    <line class="cls-1" x1="1051.5" y1="755" x2="1524" y2="755"/>
    <line class="cls-1" x1="1524" y1="755" x2="1524" y2="792.25"/>
    <line class="cls-1" x1="1496.67" y1="792.25" x2="1524" y2="792.25"/>
  </g>
  <g id="_レイヤー_6" data-name="レイヤー_6">
    <text class="cls-30" transform="translate(611.99 236.23)"><tspan x="0" y="0">C15</tspan></text>
    <text class="cls-30" transform="translate(728.33 253.29)"><tspan x="0" y="0">C14</tspan></text>
    <text class="cls-30" transform="translate(767.99 253.48)"><tspan x="0" y="0">C13</tspan></text>
    <text class="cls-27" transform="translate(823.96 224.89)" onclick="alert('測量の歴史と測量機器\n測量について学んでみよう')"><tspan class="cls-48"><tspan x="0" y="0">C12　</tspan></tspan><tspan class="cls-48"><tspan x="-17.5" y="16.8">土質実験室</tspan></tspan><tspan class="cls-40"><tspan x="-28" y="32.4">【土木工学班】</tspan></tspan></text>
    <text class="cls-27" transform="translate(926.33 224.89)" onclick="alert('実験模型つくり\n橋などの模型の展示が行われています！')"><tspan class="cls-48"><tspan x="0" y="0">C11　</tspan></tspan><tspan class="cls-48"><tspan x="-17.5" y="16.8">材料実験室</tspan></tspan><tspan class="cls-40"><tspan x="-28" y="32.4">【土木工学班】</tspan></tspan></text>
    <text class="cls-30" transform="translate(190.63 263.56)"><tspan x="0" y="0">G15</tspan></text>
    <text class="cls-30" transform="translate(276.92 263.81)"><tspan x="0" y="0">G14</tspan></text>
    <text class="cls-30" transform="translate(346.03 263.56)"><tspan x="0" y="0">G13</tspan></text>
    <text class="cls-30" transform="translate(415.88 263.56)"><tspan x="0" y="0">G12</tspan></text>
    <text class="cls-30" transform="translate(486.13 263.81)"><tspan x="0" y="0">G11</tspan></text>
    <text class="cls-30" transform="translate(207.11 439.98)"><tspan x="0" y="0">H14</tspan></text>
    <text class="cls-30" transform="translate(278.5 341.25)"><tspan x="0" y="0">H15</tspan></text>
    <text class="cls-30" transform="translate(324.5 341.75)"><tspan x="0" y="0">H16</tspan></text>
    <text class="cls-30" transform="translate(393.3 390.81)"><tspan x="0" y="0">H17</tspan></text>
    <text class="cls-30" transform="translate(470.19 390.48)"><tspan x="0" y="0">H18</tspan></text>
    <text class="cls-30" transform="translate(260.52 487.48)"><tspan x="0" y="0">H13</tspan></text>
    <text class="cls-30" transform="translate(338.61 487.31)"><tspan x="0" y="0">H12</tspan></text>
    <text class="cls-30" transform="translate(459.36 487.23)"><tspan x="0" y="0">H11</tspan></text>
    <text class="cls-30" transform="translate(203.81 651.18)"><tspan x="0" y="0">I13</tspan></text>
    <text class="cls-27" transform="translate(258.67 652.54)"><tspan class="cls-39"><tspan x="0" y="0">I12</tspan></tspan><tspan class="cls-46"><tspan x="-12.5" y="13.2">情報工学科</tspan></tspan><tspan class="cls-46"><tspan x="-1.5" y="26.4">研究室</tspan></tspan></text>
    <text class="cls-21" transform="translate(445.18 642.33)" onclick="alert('オリジナル印鑑の作成\n自分だけの印鑑を作ってみよう')"><tspan x="0" y="0">I11　</tspan><tspan x="-42.75" y="22.8">【情報工学科】</tspan></text>
    <text class="cls-30" transform="translate(385.91 869.75)"><tspan x="0" y="0">F18</tspan></text>
    <text class="cls-30" transform="translate(503.1 869.49)"><tspan x="0" y="0">F16</tspan></text>
    <text class="cls-30" transform="translate(571.06 869.49)"><tspan x="0" y="0">F15</tspan></text>
    <text class="cls-30" transform="translate(454.74 869.31)"><tspan x="0" y="0">F17</tspan></text>
    <text class="cls-30" transform="translate(660.3 875.88)"><tspan x="0" y="0">F14</tspan></text>
    <text class="cls-30" transform="translate(732.68 890.39)"><tspan x="0" y="0">F13</tspan></text>
    <text class="cls-30" transform="translate(888.18 874.81)"><tspan x="0" y="0">F11</tspan></text>
    <text class="cls-30" transform="translate(586.71 650.93)"><tspan x="0" y="0">E17</tspan></text>
    <text class="cls-30" transform="translate(644.21 668.48)"><tspan x="0" y="0">E16</tspan></text>
    <text class="cls-27" transform="translate(740.98 656.91) scale(.94 1)"><tspan class="cls-33"><tspan x="0" y="0">E15</tspan></tspan><tspan class="cls-40"><tspan x="-20.5" y="15.6">機械工学科</tspan></tspan><tspan class="cls-46"><tspan x="-4.5" y="28.8">研究室</tspan></tspan></text>
    <text class="cls-30" transform="translate(792.02 668.9)"><tspan x="0" y="0">E14</tspan></text>
    <text class="cls-30" transform="translate(830.39 668.9)"><tspan x="0" y="0">E13</tspan></text>
    <text class="cls-27" transform="translate(874.44 663.96)" onclick="alert('MCによるネームプレート製作・販売\n自分だけのネームプレートを作っちゃおう！')"><tspan class="cls-48"><tspan x="0" y="0">E12　</tspan></tspan><tspan class="cls-11"><tspan x="-14" y="10.8">【機械工学科】</tspan></tspan></text>
    <text class="cls-27" transform="translate(939.22 653.55)" onclick="alert('MCによるネームプレート製作・販売\n自分だけのネームプレートを作っちゃおう！')"><tspan class="cls-48"><tspan x="0" y="0">E11　　</tspan></tspan><tspan class="cls-51"><tspan x="-17.5" y="14.4">【機械工学科】</tspan></tspan><tspan class="cls-51"><tspan x="-17.5" y="28.8">【機械工学班】</tspan></tspan></text>
    <text class="cls-30" transform="translate(604 438.18)"><tspan x="0" y="0">D18</tspan></text>
    <text class="cls-30" transform="translate(656 501.56)"><tspan x="0" y="0">D17</tspan></text>
    <text class="cls-30" transform="translate(724 501.56)"><tspan x="0" y="0">D16</tspan></text>
    <text class="cls-30" transform="translate(758.62 438.06)"><tspan x="0" y="0">D15</tspan></text>
    <text class="cls-30" transform="translate(810.25 438.18)"><tspan x="0" y="0">D14</tspan></text>
    <text class="cls-30" transform="translate(852.73 438.56)"><tspan x="0" y="0">D13</tspan></text>
    <text class="cls-30" transform="translate(904.14 455.48)"><tspan x="0" y="0">D12</tspan></text>
    <text class="cls-27" transform="translate(963.72 450.54)"><tspan class="cls-33"><tspan x="0" y="0">D11</tspan></tspan><tspan class="cls-48"><tspan x="-16" y="16.8">生徒会室</tspan></tspan></text>
    <text class="cls-27" transform="translate(1168.13 357.89)"><tspan class="cls-33"><tspan x="0" y="0">A16</tspan></tspan><tspan class="cls-49"><tspan x="-13.5" y="20.4">応接室</tspan></tspan></text>
    <text class="cls-30" transform="translate(987.62 236.04)"><tspan x="0" y="0">準</tspan><tspan x="0" y="16.8">備</tspan><tspan x="0" y="33.6">室</tspan></text>
    <text class="cls-30" transform="translate(884.83 236.04)"><tspan x="0" y="0">準</tspan><tspan x="0" y="16.8">備</tspan><tspan x="0" y="33.6">室</tspan></text>
    <text class="cls-30" transform="translate(233.83 224)"><tspan x="0" y="0">準</tspan><tspan x="0" y="16.8">備</tspan><tspan x="0" y="33.6">室</tspan></text>
    <text class="cls-30" transform="translate(667 236.68)"><tspan x="0" y="0">準</tspan><tspan x="0" y="16.8">備</tspan><tspan x="0" y="33.6">室</tspan></text>
    <text class="cls-30" transform="translate(1131 409.33)"><tspan x="0" y="0">A17</tspan></text>
    <text class="cls-27" transform="translate(1206 409.03)"><tspan class="cls-33"><tspan x="0" y="0">A15</tspan></tspan><tspan class="cls-48"><tspan x="-9" y="16.8">校長室</tspan></tspan></text>
    <text class="cls-30" transform="translate(1235 357.33)"><tspan x="0" y="0">倉</tspan><tspan x="0" y="16.8">庫</tspan></text>
    <text class="cls-27" transform="translate(1413 357.89)"><tspan class="cls-33"><tspan x="0" y="0">A13</tspan></tspan><tspan class="cls-49"><tspan x="-13.5" y="20.4">保健室</tspan></tspan></text>
    <text class="cls-30" transform="translate(1438 406.67)"><tspan x="0" y="0">A12</tspan></text>
    <text class="cls-30" transform="translate(1499.23 367.24)"><tspan x="0" y="0">A11</tspan></text>
    <g>
      <path class="cls-55" d="M1077.49,449.63c-.39.12-.72.39-.91.74-.19.35-.21.8-.07,1.17.18.46.58.8,1.09.93.15.04.43.05.6.03.42-.06.82-.3,1.06-.64.26-.36.33-.85.19-1.26-.11-.33-.34-.61-.63-.8-.15-.09-.21-.12-.37-.17q-.13-.04-.49-.04c-.35,0-.36,0-.48.04Z"/>
      <path class="cls-55" d="M1077.78,453.01c-.55.07-1.02.46-1.18.98l-.03.11v5.34l.04.12c.17.52.6.87,1.15.96.13.02.37.01.48-.01.05-.01.08-.01.1,0,.02.01.71.02,2.63.02h2.59s1.29,2.12,1.29,2.12c.71,1.16,1.29,2.12,1.3,2.12,0,0,.12-.05.26-.13s.27-.14.3-.15.49-.26,1.03-.56c1.05-.58,1.08-.6,1.17-.75.14-.25.1-.54-.1-.75-.14-.14-.29-.2-.49-.2-.18,0-.25.03-.79.33-.27.15-.49.27-.5.26,0,0-.5-.82-1.11-1.82-.6-1-1.1-1.82-1.11-1.82,0,0-.02,0-.03,0-.03.03-.04.02-.04-.02,0-.06-.05-.22-.11-.32-.07-.13-.25-.3-.39-.37-.05-.03-.15-.07-.22-.09l-.12-.03h-2.26s-2.26,0-2.26,0v-1.11h1.75s1.75,0,1.75,0l.09-.03s.12-.06.17-.09c.32-.24.3-.7-.03-.92-.16-.1-.03-.1-1.98-.1h-1.74v-.98c-.01-.97-.01-.98-.04-1.09-.14-.48-.53-.84-1.02-.96-.15-.04-.38-.05-.53-.03Z"/>
      <path class="cls-55" d="M1075.61,456.59c-.41.24-.77.52-1.13.87-.47.46-.82.93-1.11,1.51-.56,1.11-.72,2.36-.47,3.58.19.88.59,1.71,1.2,2.43.3.35.81.81,1.21,1.08.46.31,1,.57,1.56.75.38.12.86.22,1.3.27.26.03,1,.02,1.26,0,.45-.05.81-.13,1.23-.26,1.34-.42,2.48-1.3,3.22-2.46.15-.23.35-.62.45-.86l.07-.18-.43-.71c-.24-.39-.43-.71-.44-.71s-.02.08-.03.18c-.1.66-.36,1.3-.76,1.88-.53.76-1.32,1.36-2.21,1.7-.58.22-1.14.32-1.79.32-1.28,0-2.46-.47-3.37-1.33-.81-.77-1.29-1.75-1.39-2.86-.02-.22,0-.73.02-.94.16-1.12.73-2.13,1.59-2.84l.18-.14v-.68c0-.37,0-.67-.01-.67s-.08.04-.15.08Z"/>
    </g>
    <g>
      <path class="cls-36" d="M1079.92,473.11c-.49.08-.87.37-1.08.84-.14.31-.17.7-.09,1.04.04.16.14.37.24.51.28.4.77.63,1.23.57.58-.07,1.04-.49,1.2-1.11.02-.09.03-.15.03-.37,0-.25,0-.27-.04-.39-.02-.07-.06-.18-.08-.23-.22-.5-.69-.83-1.2-.85-.09,0-.18,0-.2,0Z"/>
      <path class="cls-36" d="M1078.88,476.47c-.38.05-.74.25-1.03.57-.25.27-.37.52-.51,1-.43,1.53-.48,1.71-.87,3.1-.08.29-.18.64-.22.78-.08.28-.1.42-.07.56.05.3.28.51.56.51.22,0,.41-.13.52-.36.03-.05.25-.83.58-2.04.3-1.07.54-1.97.54-1.99v-.04h.3l-.19.7c-.1.39-.32,1.17-.47,1.75s-.36,1.33-.45,1.68c-.5,1.86-.75,2.82-.75,2.84,0,.01.24.02.87.02h.87v2.6c0,2.82,0,2.69.07,2.85.1.21.3.34.53.36.33.02.62-.2.68-.53.01-.05.01-.84.01-2.69v-2.62h.38v2.63c0,2.28,0,2.64.02,2.71.05.23.19.39.4.47.11.04.35.04.46,0,.22-.09.35-.25.4-.49.01-.08.02-.51.02-2.69v-2.59h.86c.48,0,.87,0,.87,0s-.05-.23-.13-.51c-.07-.28-.22-.82-.32-1.2-.1-.38-.24-.89-.3-1.13s-.2-.73-.29-1.08-.23-.84-.29-1.08-.2-.75-.3-1.13c-.1-.38-.2-.73-.21-.77l-.02-.07h.16c.09,0,.16,0,.16,0s.03.1.06.22c.03.12.13.48.23.82s.26.95.38,1.38c.4,1.45.44,1.58.48,1.67.12.24.36.38.58.34.3-.06.49-.31.49-.65,0-.17.06.07-.56-2.12-.16-.57-.36-1.27-.44-1.56-.28-1-.28-1.01-.43-1.25-.24-.4-.59-.7-.98-.85-.25-.09-.19-.09-1.43-.09-.62,0-1.17,0-1.22,0Z"/>
    </g>
    <g>
      <g>
        <path class="cls-54" d="M1075.48,351.44c-.38.07-.71.31-.92.66-.17.29-.25.61-.22.97.04.55.39,1.06.86,1.26.19.08.28.1.51.1.22,0,.27,0,.44-.07.34-.12.67-.44.82-.8.16-.39.17-.83.02-1.22-.1-.25-.3-.52-.49-.66-.3-.22-.68-.31-1.01-.24Z"/>
        <path class="cls-54" d="M1074.04,354.79s-.06.01-.12.02c-.14.02-.35.1-.48.18-.5.28-.85.8-.94,1.42-.02.14-.02.28-.02,2.63v2.48l.03.1c.09.32.41.51.71.43.21-.05.35-.18.43-.4l.03-.09v-2.21s0-2.21,0-2.21h.29v5.92s0,5.92,0,5.92l.03.09c.08.24.2.4.38.5.25.13.51.13.76,0,.2-.1.35-.31.41-.56.01-.06.02-.76.02-3.52v-3.45h.28v3.43c0,2.96,0,3.45.02,3.53.08.42.44.7.85.67.34-.03.6-.24.7-.57l.04-.11v-5.92s0-5.92,0-5.92h.14s.14,0,.14,0v2.22c.01,1.57.02,2.23.03,2.26.1.29.3.45.58.45.3,0,.54-.23.58-.56.01-.08.01-.77.01-2.52,0-2.26,0-2.42-.03-2.54-.07-.42-.24-.77-.5-1.06-.24-.28-.51-.45-.87-.54l-.14-.04h-1.68c-.92,0-1.69,0-1.7,0Z"/>
      </g>
      <g>
        <path class="cls-36" d="M1083.31,351.42c-.49.08-.87.37-1.08.84-.14.31-.17.7-.09,1.04.04.16.14.37.24.51.28.4.77.63,1.23.57.58-.07,1.04-.49,1.2-1.11.02-.09.03-.15.03-.37,0-.25,0-.27-.04-.39-.02-.07-.06-.18-.08-.23-.22-.5-.69-.83-1.2-.85-.09,0-.18,0-.2,0Z"/>
        <path class="cls-36" d="M1082.28,354.78c-.38.05-.74.25-1.03.57-.25.27-.37.52-.51,1-.43,1.53-.48,1.71-.87,3.1-.08.29-.18.64-.22.78-.08.28-.1.42-.07.56.05.3.28.51.56.51.22,0,.41-.13.52-.36.03-.05.25-.83.58-2.04.3-1.07.54-1.97.54-1.99v-.04h.3l-.19.7c-.1.39-.32,1.17-.47,1.75s-.36,1.33-.45,1.68c-.5,1.86-.75,2.82-.75,2.84,0,.01.24.02.87.02h.87v2.6c0,2.82,0,2.69.07,2.85.1.21.3.34.53.36.33.02.62-.2.68-.53.01-.05.01-.84.01-2.69v-2.62h.38v2.63c0,2.28,0,2.64.02,2.71.05.23.19.39.4.47.11.04.35.04.46,0,.22-.09.35-.25.4-.49.01-.08.02-.51.02-2.69v-2.59h.86c.48,0,.87,0,.87,0s-.05-.23-.13-.51c-.07-.28-.22-.82-.32-1.2-.1-.38-.24-.89-.3-1.13s-.2-.73-.29-1.08-.23-.84-.29-1.08-.2-.75-.3-1.13c-.1-.38-.2-.73-.21-.77l-.02-.07h.16c.09,0,.16,0,.16,0s.03.1.06.22c.03.12.13.48.23.82s.26.95.38,1.38c.4,1.45.44,1.58.48,1.67.12.24.36.38.58.34.3-.06.49-.31.49-.65,0-.17.06.07-.56-2.12-.16-.57-.36-1.27-.44-1.56-.28-1-.28-1.01-.43-1.25-.24-.4-.59-.7-.98-.85-.25-.09-.19-.09-1.43-.09-.62,0-1.17,0-1.22,0Z"/>
      </g>
    </g>
    <g>
      <g>
        <path class="cls-54" d="M311.64,656.78c-.38.07-.71.31-.92.66-.17.29-.25.61-.22.97.04.55.39,1.06.86,1.26.19.08.28.1.51.1.22,0,.27,0,.44-.07.34-.12.67-.44.82-.8.16-.39.17-.83.02-1.22-.1-.25-.3-.52-.49-.66-.3-.22-.68-.31-1.01-.24Z"/>
        <path class="cls-54" d="M310.2,660.12s-.06.01-.12.02c-.14.02-.35.1-.48.18-.5.28-.85.8-.94,1.42-.02.14-.02.28-.02,2.63v2.48l.03.1c.09.32.41.51.71.43.21-.05.35-.18.43-.4l.03-.09v-2.21s0-2.21,0-2.21h.29v5.92s0,5.92,0,5.92l.03.09c.08.24.2.4.38.5.25.13.51.13.76,0,.2-.1.35-.31.41-.56.01-.06.02-.76.02-3.52v-3.45h.28v3.43c0,2.96,0,3.45.02,3.53.08.42.44.7.85.67.34-.03.6-.24.7-.57l.04-.11v-5.92s0-5.92,0-5.92h.14s.14,0,.14,0v2.22c.01,1.57.02,2.23.03,2.26.1.29.3.45.58.45.3,0,.54-.23.58-.56.01-.08.01-.77.01-2.52,0-2.26,0-2.42-.03-2.54-.07-.42-.24-.77-.5-1.06-.24-.28-.51-.45-.87-.54l-.14-.04h-1.68c-.92,0-1.69,0-1.7,0Z"/>
      </g>
      <g>
        <path class="cls-36" d="M319.47,656.76c-.49.08-.87.37-1.08.84-.14.31-.17.7-.09,1.04.04.16.14.37.24.51.28.4.77.63,1.23.57.58-.07,1.04-.49,1.2-1.11.02-.09.03-.15.03-.37,0-.25,0-.27-.04-.39-.02-.07-.06-.18-.08-.23-.22-.5-.69-.83-1.2-.85-.09,0-.18,0-.2,0Z"/>
        <path class="cls-36" d="M318.44,660.11c-.38.05-.74.25-1.03.57-.25.27-.37.52-.51,1-.43,1.53-.48,1.71-.87,3.1-.08.29-.18.64-.22.78-.08.28-.1.42-.07.56.05.3.28.51.56.51.22,0,.41-.13.52-.36.03-.05.25-.83.58-2.04.3-1.07.54-1.97.54-1.99v-.04h.3l-.19.7c-.1.39-.32,1.17-.47,1.75s-.36,1.33-.45,1.68c-.5,1.86-.75,2.82-.75,2.84,0,.01.24.02.87.02h.87v2.6c0,2.82,0,2.69.07,2.85.1.21.3.34.53.36.33.02.62-.2.68-.53.01-.05.01-.84.01-2.69v-2.62h.38v2.63c0,2.28,0,2.64.02,2.71.05.23.19.39.4.47.11.04.35.04.46,0,.22-.09.35-.25.4-.49.01-.08.02-.51.02-2.69v-2.59h.86c.48,0,.87,0,.87,0s-.05-.23-.13-.51c-.07-.28-.22-.82-.32-1.2-.1-.38-.24-.89-.3-1.13s-.2-.73-.29-1.08-.23-.84-.29-1.08-.2-.75-.3-1.13c-.1-.38-.2-.73-.21-.77l-.02-.07h.16c.09,0,.16,0,.16,0s.03.1.06.22c.03.12.13.48.23.82s.26.95.38,1.38c.4,1.45.44,1.58.48,1.67.12.24.36.38.58.34.3-.06.49-.31.49-.65,0-.17.06.07-.56-2.12-.16-.57-.36-1.27-.44-1.56-.28-1-.28-1.01-.43-1.25-.24-.4-.59-.7-.98-.85-.25-.09-.19-.09-1.43-.09-.62,0-1.17,0-1.22,0Z"/>
      </g>
    </g>
    <g>
      <g>
        <path class="cls-54" d="M1075.48,653.57c-.38.07-.71.31-.92.66-.17.29-.25.61-.22.97.04.55.39,1.06.86,1.26.19.08.28.1.51.1.22,0,.27,0,.44-.07.34-.12.67-.44.82-.8.16-.39.17-.83.02-1.22-.1-.25-.3-.52-.49-.66-.3-.22-.68-.31-1.01-.24Z"/>
        <path class="cls-54" d="M1074.04,656.92s-.06.01-.12.02c-.14.02-.35.1-.48.18-.5.28-.85.8-.94,1.42-.02.14-.02.28-.02,2.63v2.48l.03.1c.09.32.41.51.71.43.21-.05.35-.18.43-.4l.03-.09v-2.21s0-2.21,0-2.21h.29v5.92s0,5.92,0,5.92l.03.09c.08.24.2.4.38.5.25.13.51.13.76,0,.2-.1.35-.31.41-.56.01-.06.02-.76.02-3.52v-3.45h.28v3.43c0,2.96,0,3.45.02,3.53.08.42.44.7.85.67.34-.03.6-.24.7-.57l.04-.11v-5.92s0-5.92,0-5.92h.14s.14,0,.14,0v2.22c.01,1.57.02,2.23.03,2.26.1.29.3.45.58.45.3,0,.54-.23.58-.56.01-.08.01-.77.01-2.52,0-2.26,0-2.42-.03-2.54-.07-.42-.24-.77-.5-1.06-.24-.28-.51-.45-.87-.54l-.14-.04h-1.68c-.92,0-1.69,0-1.7,0Z"/>
      </g>
      <g>
        <path class="cls-36" d="M1083.31,653.55c-.49.08-.87.37-1.08.84-.14.31-.17.7-.09,1.04.04.16.14.37.24.51.28.4.77.63,1.23.57.58-.07,1.04-.49,1.2-1.11.02-.09.03-.15.03-.37,0-.25,0-.27-.04-.39-.02-.07-.06-.18-.08-.23-.22-.5-.69-.83-1.2-.85-.09,0-.18,0-.2,0Z"/>
        <path class="cls-36" d="M1082.28,656.91c-.38.05-.74.25-1.03.57-.25.27-.37.52-.51,1-.43,1.53-.48,1.71-.87,3.1-.08.29-.18.64-.22.78-.08.28-.1.42-.07.56.05.3.28.51.56.51.22,0,.41-.13.52-.36.03-.05.25-.83.58-2.04.3-1.07.54-1.97.54-1.99v-.04h.3l-.19.7c-.1.39-.32,1.17-.47,1.75s-.36,1.33-.45,1.68c-.5,1.86-.75,2.82-.75,2.84,0,.01.24.02.87.02h.87v2.6c0,2.82,0,2.69.07,2.85.1.21.3.34.53.36.33.02.62-.2.68-.53.01-.05.01-.84.01-2.69v-2.62h.38v2.63c0,2.28,0,2.64.02,2.71.05.23.19.39.4.47.11.04.35.04.46,0,.22-.09.35-.25.4-.49.01-.08.02-.51.02-2.69v-2.59h.86c.48,0,.87,0,.87,0s-.05-.23-.13-.51c-.07-.28-.22-.82-.32-1.2-.1-.38-.24-.89-.3-1.13s-.2-.73-.29-1.08-.23-.84-.29-1.08-.2-.75-.3-1.13c-.1-.38-.2-.73-.21-.77l-.02-.07h.16c.09,0,.16,0,.16,0s.03.1.06.22c.03.12.13.48.23.82s.26.95.38,1.38c.4,1.45.44,1.58.48,1.67.12.24.36.38.58.34.3-.06.49-.31.49-.65,0-.17.06.07-.56-2.12-.16-.57-.36-1.27-.44-1.56-.28-1-.28-1.01-.43-1.25-.24-.4-.59-.7-.98-.85-.25-.09-.19-.09-1.43-.09-.62,0-1.17,0-1.22,0Z"/>
      </g>
    </g>
    <g>
      <g>
        <path class="cls-54" d="M1628.26,604.9c-.38.07-.71.31-.92.66-.17.29-.25.61-.22.97.04.55.39,1.06.86,1.26.19.08.28.1.51.1.22,0,.27,0,.44-.07.34-.12.67-.44.82-.8.16-.39.17-.83.02-1.22-.1-.25-.3-.52-.49-.66-.3-.22-.68-.31-1.01-.24Z"/>
        <path class="cls-54" d="M1626.82,608.25s-.06.01-.12.02c-.14.02-.35.1-.48.18-.5.28-.85.8-.94,1.42-.02.14-.02.28-.02,2.63v2.48l.03.1c.09.32.41.51.71.43.21-.05.35-.18.43-.4l.03-.09v-2.21s0-2.21,0-2.21h.29v5.92s0,5.92,0,5.92l.03.09c.08.24.2.4.38.5.25.13.51.13.76,0,.2-.1.35-.31.41-.56.01-.06.02-.76.02-3.52v-3.45h.28v3.43c0,2.96,0,3.45.02,3.53.08.42.44.7.85.67.34-.03.6-.24.7-.57l.04-.11v-5.92s0-5.92,0-5.92h.14s.14,0,.14,0v2.22c.01,1.57.02,2.23.03,2.26.1.29.3.45.58.45.3,0,.54-.23.58-.56.01-.08.01-.77.01-2.52,0-2.26,0-2.42-.03-2.54-.07-.42-.24-.77-.5-1.06-.24-.28-.51-.45-.87-.54l-.14-.04h-1.68c-.92,0-1.69,0-1.7,0Z"/>
      </g>
      <g>
        <path class="cls-36" d="M1636.09,604.88c-.49.08-.87.37-1.08.84-.14.31-.17.7-.09,1.04.04.16.14.37.24.51.28.4.77.63,1.23.57.58-.07,1.04-.49,1.2-1.11.02-.09.03-.15.03-.37,0-.25,0-.27-.04-.39-.02-.07-.06-.18-.08-.23-.22-.5-.69-.83-1.2-.85-.09,0-.18,0-.2,0Z"/>
        <path class="cls-36" d="M1635.06,608.24c-.38.05-.74.25-1.03.57-.25.27-.37.52-.51,1-.43,1.53-.48,1.71-.87,3.1-.08.29-.18.64-.22.78-.08.28-.1.42-.07.56.05.3.28.51.56.51.22,0,.41-.13.52-.36.03-.05.25-.83.58-2.04.3-1.07.54-1.97.54-1.99v-.04h.3l-.19.7c-.1.39-.32,1.17-.47,1.75s-.36,1.33-.45,1.68c-.5,1.86-.75,2.82-.75,2.84,0,.01.24.02.87.02h.87v2.6c0,2.82,0,2.69.07,2.85.1.21.3.34.53.36.33.02.62-.2.68-.53.01-.05.01-.84.01-2.69v-2.62h.38v2.63c0,2.28,0,2.64.02,2.71.05.23.19.39.4.47.11.04.35.04.46,0,.22-.09.35-.25.4-.49.01-.08.02-.51.02-2.69v-2.59h.86c.48,0,.87,0,.87,0s-.05-.23-.13-.51c-.07-.28-.22-.82-.32-1.2-.1-.38-.24-.89-.3-1.13s-.2-.73-.29-1.08-.23-.84-.29-1.08-.2-.75-.3-1.13c-.1-.38-.2-.73-.21-.77l-.02-.07h.16c.09,0,.16,0,.16,0s.03.1.06.22c.03.12.13.48.23.82s.26.95.38,1.38c.4,1.45.44,1.58.48,1.67.12.24.36.38.58.34.3-.06.49-.31.49-.65,0-.17.06.07-.56-2.12-.16-.57-.36-1.27-.44-1.56-.28-1-.28-1.01-.43-1.25-.24-.4-.59-.7-.98-.85-.25-.09-.19-.09-1.43-.09-.62,0-1.17,0-1.22,0Z"/>
      </g>
    </g>
    <text class="cls-13" transform="translate(1060.31 226.7) scale(.91 1)"><tspan x="0" y="0">入</tspan><tspan x="0" y="25.2">場</tspan><tspan x="0" y="50.4">口</tspan></text>
    <text class="cls-27" transform="translate(1649.47 212.21) scale(.98 1)" onclick="alert('文化班の発表\n軽音班 文化祭ライブ\n合唱・吹奏楽班 合同コンサート\nEV競技班 デモ走行と物品展示')"><tspan class="cls-50"><tspan x="0" y="0">大体育館　</tspan></tspan><tspan class="cls-39"><tspan x="-60" y="24">【軽音楽班】【EV競技班】</tspan></tspan><tspan class="cls-39"><tspan x="-50" y="48">【吹奏楽班】【合唱班】</tspan></tspan></text>
    <text class="cls-25" transform="translate(1795.19 360.5) scale(.98 1)"><tspan x="0" y="0">保健体育科研究室</tspan></text>
    <text class="cls-16" transform="translate(1770.29 435.06) scale(.98 1)"><tspan x="0" y="0">プール</tspan></text>
    <text class="cls-30" transform="translate(1758.14 607.1) scale(.98 1)"><tspan x="0" y="0">更衣室</tspan></text>
    <text class="cls-16" transform="translate(1627.09 528.56) scale(.98 1)"><tspan x="0" y="0">食堂</tspan></text>
    <text class="cls-26" transform="translate(1660.66 724.69) scale(.98 1)"><tspan x="0" y="0">格技室</tspan></text>
    <text class="cls-27" transform="translate(1790.16 703.57) scale(.98 1)" onclick="alert('トレーニングをしよう!\n柔道班が普段行っているトレーニングを体験してみよう!')"><tspan class="cls-50"><tspan x="0" y="0">柔道場</tspan></tspan><tspan class="cls-34"><tspan x="-16.5" y="25.2">【柔道班】</tspan></tspan></text>
    <text class="cls-30" transform="translate(1664.29 855.75) scale(.98 1)" onclick="alert('研究成果の発表\nフードダイバーシティーに関する発表災害食体験の展示があります。')"><tspan x="0" y="0">調理室</tspan><tspan x="-21" y="16.8">【家庭科班】</tspan></text>
    <text class="cls-27" transform="translate(1738.39 1120.78) scale(.98 1)" onclick="alert('招待試合\nプロバレーボールチームと親善試合を行います。\nがんばれ長工生!!')"><tspan class="cls-50"><tspan x="0" y="0">小体育館　</tspan></tspan><tspan class="cls-42"><tspan x="-21" y="21.6">【バレーボール班】</tspan></tspan></text>
    <text class="cls-30" transform="translate(1669.38 554.41) scale(.98 1)"><tspan x="0" y="0">２F</tspan><tspan x="-17.5" y="16.8">同窓会館</tspan></text>
    <text class="cls-30" transform="translate(1833.22 581.31) scale(.98 1)"><tspan x="0" y="0">倉庫</tspan></text>
    <text class="cls-30" transform="translate(420.79 190.92) scale(.98 1)"><tspan x="0" y="0">養生室</tspan></text>
    <text class="cls-30" transform="translate(639.53 338) scale(.98 1)"><tspan x="0" y="0">危険</tspan><tspan x="-7" y="16.8">薬品庫</tspan></text>
    <text class="cls-30" transform="translate(162.42 807.2) scale(.98 1)"><tspan x="0" y="0">合宿所</tspan></text>
    <text class="cls-30" transform="translate(151.98 886.53) scale(.98 1)"><tspan x="0" y="0">クラブ</tspan><tspan x="0" y="16.8">練習室</tspan></text>
    <text class="cls-30" transform="translate(742.84 136.87) scale(.98 1)"><tspan x="0" y="0">自転車置き場</tspan></text>
    <text class="cls-30" transform="translate(442.42 938) scale(.98 1)"><tspan x="0" y="0">準備室</tspan></text>
    <text class="cls-30" transform="translate(543.92 938) scale(.98 1)"><tspan x="0" y="0">工具室</tspan></text>
    <line class="cls-10" x1="490.67" y1="910" x2="484.33" y2="923.33"/>
    <line class="cls-10" x1="436" y1="909.33" x2="442" y2="924"/>
    <line class="cls-10" x1="732.68" y1="469.73" x2="735.5" y2="487.23"/>
    <line class="cls-10" x1="673.88" y1="469.73" x2="669.5" y2="487.23"/>
    <line class="cls-1" x1="1142.62" y1="379.02" x2="1142.62" y2="393.69"/>
    <line class="cls-1" x1="1218" y1="378.38" x2="1218" y2="394.33"/>
    <text class="cls-30" transform="translate(819.72 908.81) scale(.98 1)"><tspan x="0" y="0">F12</tspan></text>
    <line class="cls-1" x1="1466.5" y1="381.5" x2="1458" y2="394.33"/>
    <text class="cls-30" transform="translate(1212.95 858.67) scale(.98 1)"><tspan x="0" y="0">部室</tspan></text>
    <line class="cls-1" x1="293.25" y1="345.88" x2="303.25" y2="366.62"/>
    <line class="cls-1" x1="332.75" y1="345.12" x2="330.25" y2="366.38"/>
    <line class="cls-1" x1="445.12" y1="196.88" x2="442.99" y2="215.06"/>
    <text class="cls-15" transform="translate(788.63 1190.97) scale(.98 1)"><tspan x="0" y="0">グラウンド</tspan></text>
    <text class="cls-26" transform="translate(734.05 817.95) scale(.98 1)"><tspan x="0" y="0">機械実習棟(F棟)</tspan></text>
    <text class="cls-26" transform="translate(119.04 721.13) scale(.98 1)"><tspan x="0" y="0">情報工学科棟(I棟)</tspan></text>
    <text class="cls-26" transform="translate(154.32 539.75) scale(.98 1)"><tspan x="0" y="0">建築棟(H棟)</tspan></text>
    <text class="cls-26" transform="translate(753.78 596.32) scale(.98 1)"><tspan x="0" y="0">機械・電気科棟(E棟)</tspan></text>
    <text class="cls-26" transform="translate(773.12 380.03) scale(.98 1)"><tspan x="0" y="0">化学棟(D棟)</tspan></text>
    <text class="cls-26" transform="translate(736.04 301.54) scale(.98 1)"><tspan x="0" y="0">土木・建築棟(C棟)</tspan></text>
    <text class="cls-26" transform="translate(1294.95 258.62) scale(.98 1)"><tspan x="0" y="0">管理棟(A棟)</tspan></text>
    <text class="cls-26" transform="translate(1131.7 713.05) scale(.98 1)"><tspan x="0" y="0">ホームルーム棟(B棟)</tspan></text>
    <text class="cls-26" transform="translate(23.93 335.93) scale(.98 1)"><tspan x="0" y="0">土木・建築実習棟(G棟)</tspan></text>
    <text class="cls-21" transform="translate(1324.88 144.78) scale(.98 1)"><tspan x="0" y="0">車廻</tspan></text>
    <text class="cls-27" transform="translate(1273 357.89)"><tspan class="cls-33"><tspan x="0" y="0">A14</tspan></tspan><tspan class="cls-49"><tspan x="-13.5" y="20.4">事務室</tspan></tspan></text>
    <text class="cls-12" transform="translate(1597.37 929.02)"><tspan x="0" y="0">家庭科</tspan><tspan x="0" y="19.2">研究室</tspan></text>
    <line class="cls-1" x1="1621.37" y1="898.36" x2="1621.37" y2="914.32"/>
    <text class="cls-26" transform="translate(1628.75 827.88) scale(.98 1)"><tspan x="0" y="0">家庭科棟</tspan></text>
    <text class="cls-30" transform="translate(1327.5 290.6)"><tspan x="0" y="0">職員入口</tspan></text>
    <line class="cls-1" x1="1870.61" y1="333.02" x2="1862.11" y2="345.85"/>
    <rect class="cls-4" x="1242.75" y="411.35" width="106.16" height="65.1"/>
    <text class="cls-31" transform="translate(1192.81 577.26) scale(.92 1)" onclick="alert('とん汁\n心温まる一杯を、、、')"><tspan x="0" y="0">土木3年</tspan></text>
    <rect class="cls-4" x="1475.66" y="441.34" width="33.58" height="47.84" transform="translate(1027.19 1957.71) rotate(-90)"/>
    <rect class="cls-4" x="1475.66" y="479.74" width="33.58" height="47.84" transform="translate(988.8 1996.11) rotate(-90)"/>
    <rect class="cls-4" x="1423.26" y="479.74" width="33.58" height="47.84" transform="translate(936.4 1943.71) rotate(-90)"/>
    <rect class="cls-4" x="1476.71" y="556.56" width="33.58" height="47.84" transform="translate(913.02 2073.98) rotate(-90)"/>
    <rect class="cls-4" x="1302.2" y="556.08" width="33.58" height="47.84" transform="translate(738.99 1898.99) rotate(-90)"/>
    <rect class="cls-4" x="1195.31" y="555.71" width="33.58" height="47.84" transform="translate(632.48 1791.73) rotate(-90)"/>
    <rect class="cls-4" x="1137.97" y="555.71" width="33.58" height="47.84" transform="translate(575.14 1734.39) rotate(-90)"/>
    <text class="cls-31" transform="translate(1135.47 577.26) scale(.92 1)" onclick="alert('やきとり\n炭火焼きで香ばしい～!')"><tspan x="0" y="0">電気3年</tspan></text>
    <text class="cls-31" transform="translate(1307.96 577.26) scale(.92 1)" onclick="alert('生徒会本部\nお困りごとはこちらへ!\n気軽にお越しください。')"><tspan x="0" y="0">本部</tspan></text>
    <text class="cls-31" transform="translate(1420.76 501.33) scale(.92 1)" onclick="alert('Chocolate Banana\nその場で出来立てが食べれます!')"><tspan x="0" y="0">建築3年</tspan></text>
    <text class="cls-31" transform="translate(1473.15 500.41) scale(.92 1)" onclick="alert('焼きそば\n鉄板で本格的な味を再現!!')"><tspan x="0" y="0">情報3年</tspan></text>
    <text class="cls-31" transform="translate(1473.15 461.84) scale(.92 1)" onclick="alert('ミスタードーナツ長工店\nあのミスドが長工に!?')"><tspan x="0" y="0">物化3年</tspan></text>
    <text class="cls-31" transform="translate(1473.95 577.26) scale(.92 1)" onclick="alert('カツン！チュロリン！フィエスタ！\nメンチカツ、チュロスの販売です\n甘いandしょっぱいで無限ループ!?')"><tspan x="0" y="0">機械3年</tspan></text>
    <text class="cls-25" transform="translate(1257.54 441) scale(.92 1)" onclick="alert('YFステージ企画\n長工生の雄姿をご覧ください!')"><tspan x="0" y="0">YFステージ</tspan></text>
    <line class="cls-7" x1="571.97" y1="34.98" x2="1104" y2="34.98"/>
    <line class="cls-7" x1="1165.66" y1="34.98" x2="1307" y2="34.98"/>
    <rect class="cls-7" x="1104.05" y="30.8" width="8.35" height="8.35"/>
    <rect class="cls-7" x="1157.32" y="30.8" width="8.35" height="8.35"/>
    <rect class="cls-7" x="1307.72" y="30.8" width="8.35" height="8.35"/>
    <rect class="cls-7" x="1370.27" y="30.8" width="8.35" height="8.35"/>
    <polyline class="cls-7" points="1901.21 54.45 1867.49 34.98 1380 34.98"/>
    <rect class="cls-7" x="1901.44" y="52.81" width="8.35" height="8.35" transform="translate(283.8 -945.17) rotate(30)"/>
    <line class="cls-7" x1="1952.38" y1="83.99" x2="1986.1" y2="103.46"/>
    <rect class="cls-7" x="1944.59" y="77.73" width="8.35" height="8.35" transform="translate(302.04 -963.41) rotate(30)"/>
    <text class="cls-25" transform="translate(1892.59 45.87) scale(.98 1)"><tspan x="0" y="0">車両出入口</tspan></text>
    <g>
      <line class="cls-7" x1="1932.96" y1="60.54" x2="1921.42" y2="80.53"/>
      <path d="M1936.58,54.27c-2.8,2.32-6.78,4.9-10.07,6.03l5.97,1.07,3.91,4.64c-.67-3.41-.42-8.15.19-11.74Z"/>
      <path d="M1917.79,86.81c.61-3.58.85-8.32.19-11.74l3.91,4.64,5.97,1.07c-3.29,1.13-7.27,3.71-10.07,6.03Z"/>
    </g>
    <text class="cls-25" transform="translate(1648.06 81.9) scale(.98 1)"><tspan x="0" y="0">駐車場</tspan></text>
    <rect class="cls-4" x="1326.38" y="9.96" width="33.58" height="50.04" transform="translate(1308.19 1378.15) rotate(-90)"/>
    <text class="cls-31" transform="translate(1326.63 32.59) scale(.92 1)" onclick="alert('正門アーチ\n建築科3年生が制作したアーチです！')"><tspan x="0" y="0">入場口</tspan><tspan x="-6" y="14.4">アーチ　</tspan></text>
    <rect class="cls-4" x="1114.47" y="192.58" width="33.58" height="50.04" transform="translate(913.66 1348.86) rotate(-90)"/>
    <rect class="cls-4" x="1114.47" y="241.68" width="33.58" height="50.04" transform="translate(864.56 1397.96) rotate(-90)"/>
    <text class="cls-16" transform="translate(1112.88 224.29) scale(.92 1)"><tspan x="0" y="0">受付</tspan></text>
    <text class="cls-16" transform="translate(1112.88 273.39) scale(.92 1)"><tspan x="0" y="0">受付</tspan></text>
    <text class="cls-16" transform="translate(1178.88 173) scale(.92 1)"><tspan x="0" y="0">来場者受付は</tspan><tspan x="20" y="24">こちら！</tspan></text>
    <rect class="cls-4" x="1447.18" y="252.75" width="33.58" height="47.84" transform="translate(1187.31 1740.64) rotate(-90)"/>
    <text class="cls-31" transform="translate(1444.68 274.34) scale(.92 1)" onclick="alert('群馬自動車大学校とのコラボ\nスポーツカーの展示、セグウェイ体験を行っています！')"><tspan x="0" y="0">機械3年</tspan></text>
    <rect class="cls-4" x="1209.55" y="25.56" width="48.93" height="149.78" transform="translate(1133.57 1334.47) rotate(-90)"/>
    <text class="cls-25" transform="translate(1202.78 95.94) scale(.92 1)"><tspan x="0" y="0">来場者用</tspan><tspan x="-17" y="20.4">自転車置き場</tspan></text>
    <rect class="cls-4" x="1219.01" y="221.83" width="33.58" height="112.89" transform="translate(957.53 1514.09) rotate(-90)"/>
    <text class="cls-25" transform="translate(1189 283.97) scale(.92 1)" onclick="alert('吊り橋\n土木科3年生が制作した吊り橋です。\n是非渡ってみてください！')"><tspan x="0" y="0">土木構造物</tspan></text>
    <g>
      <path class="cls-9" d="M1233.77,203.4c0,38.37,6.87,37.33-50.67,37.03"/>
      <path d="M1170.12,240.39c6.11-2.24,13.71-6.08,18.42-10.15l-3.74,10.21,3.66,10.24c-4.68-4.11-12.24-8.01-18.34-10.3Z"/>
    </g>
    <text class="cls-31" transform="translate(1624.86 414.29) scale(.92 1)" onclick="alert('沖縄そば\nお値段500円!\n本場の味が楽しめます!')"><tspan x="0" y="0">執</tspan><tspan x="0" y="14.4">行</tspan><tspan x="0" y="28.8">部</tspan></text>
    <rect class="cls-4" x="1295.24" y="951.44" width="139.51" height="355.06" transform="translate(236.03 2493.97) rotate(-90)"/>
    <text class="cls-18" transform="translate(1217.97 1118.36) scale(.92 1)" onclick="alert('ソフトボール対決\n参加者が攻撃で、野球班の守備を体験できます。\nソフトボールを楽しもう!')"><tspan x="0" y="0">グラウンド北東側</tspan><tspan x="0" y="48">【硬式野球班】　</tspan></text>
    <rect class="cls-4" x="296.09" y="1120.72" width="139.51" height="355.06" transform="translate(-932.41 1664.1) rotate(-90)"/>
    <text class="cls-18" transform="translate(218.81 1287.64) scale(.92 1)"><tspan x="0" y="0">グラウンド南西側</tspan><tspan x="0" y="48">【ラグビー班】　</tspan></text>
    <rect class="cls-4" x="1479.39" y="165.85" width="138.24" height="32.01" transform="translate(1366.65 1730.36) rotate(-90)"/>
    <text class="cls-31" transform="translate(1542.99 126.5) scale(.92 1)" onclick="alert('献血\n日曜日のみ行っています。\n参加するとクッキーがもらえるよ！')"><tspan x="0" y="0">ボ</tspan><tspan x="0" y="14.4">ラ</tspan><tspan x="0" y="28.8">ン</tspan><tspan x="0" y="43.2">テ</tspan><tspan x="0" y="57.6">ィ</tspan><tspan x="0" y="72">ア</tspan><tspan x="0" y="86.4">企</tspan><tspan x="0" y="100.8">画</tspan></text>
    <text class="cls-30" transform="translate(1142.6 661.92) scale(.92 1)" onclick="alert('鳴らすな!!!!!\n音を鳴らさないように素早く進もう!!')"><tspan x="0" y="0">B16　</tspan><tspan x="-7" y="16.8">建築1年</tspan></text>
    <g>
      <circle class="cls-6" cx="1173.35" cy="656.61" r="7.14"/>
      <text class="cls-19" transform="translate(1169.52 659.67)"><tspan x="0" y="0">ク</tspan></text>
    </g>
    <g>
      <text class="cls-30" transform="translate(1198.89 661.92) scale(.92 1)" onclick="alert('定時制展示\n課題研究の展示がされています!')"><tspan x="0" y="0">B15　</tspan><tspan x="-3.5" y="16.8">定時制</tspan></text>
      <g>
        <circle class="cls-6" cx="1228.65" cy="656.61" r="7.14"/>
        <text class="cls-19" transform="translate(1224.82 659.67)"><tspan x="0" y="0">科</tspan></text>
      </g>
    </g>
    <g>
      <text class="cls-30" transform="translate(1255.14 661.92) scale(.92 1)" onclick="alert('eスポーツ体験\n様々なジャンルのeスポーツが体験できます!')"><tspan x="0" y="0">B14　</tspan><tspan x="-7" y="16.8">情報1年</tspan></text>
      <g>
        <circle class="cls-6" cx="1285.89" cy="656.61" r="7.14"/>
        <text class="cls-19" transform="translate(1282.05 659.67)"><tspan x="0" y="0">ク</tspan></text>
      </g>
    </g>
    <g>
      <text class="cls-30" transform="translate(1311.43 662.05) scale(.92 1)" onclick="alert('田中クオリティー\n宝石石けん体験、化学クイズを楽しめます!')"><tspan x="0" y="0">B13　</tspan><tspan x="-7" y="16.8">物化1年</tspan></text>
      <g>
        <circle class="cls-6" cx="1342.18" cy="656.48" r="7.14"/>
        <text class="cls-19" transform="translate(1338.34 659.54)"><tspan x="0" y="0">ク</tspan></text>
      </g>
    </g>
    <g>
      <text class="cls-30" transform="translate(1408.86 661.92) scale(.92 1)" onclick="alert('ダークネス・ソウル～解放されしモンスターを封印せよ～\nボールを投げて遊ぼう!')"><tspan x="0" y="0">B12　</tspan><tspan x="-7" y="16.8">電気1年</tspan></text>
      <g>
        <circle class="cls-6" cx="1439.61" cy="656.61" r="7.14"/>
        <text class="cls-19" transform="translate(1435.77 659.67)"><tspan x="0" y="0">ク</tspan></text>
      </g>
    </g>
    <g>
      <text class="cls-30" transform="translate(1474.86 661.92) scale(.92 1)" onclick="alert('脱出ゲーム\nちょっぴりホラー!?\n五体満足で脱出しよう')"><tspan x="0" y="0">B11　</tspan><tspan x="-7" y="16.8">機械1年</tspan></text>
      <g>
        <circle class="cls-6" cx="1505.61" cy="656.61" r="7.14"/>
        <text class="cls-19" transform="translate(1501.77 659.67)"><tspan x="0" y="0">ク</tspan></text>
      </g>
    </g>
    <g>
      <circle class="cls-6" cx="1154.76" cy="587.14" r="7.14"/>
      <text class="cls-19" transform="translate(1150.93 590.21)"><tspan x="0" y="0">模</tspan></text>
    </g>
    <g>
      <circle class="cls-6" cx="1212.11" cy="587.14" r="7.14"/>
      <text class="cls-19" transform="translate(1208.27 590.21)"><tspan x="0" y="0">模</tspan></text>
    </g>
    <g>
      <circle class="cls-6" cx="1493.5" cy="587.15" r="7.14"/>
      <text class="cls-19" transform="translate(1489.67 590.21)"><tspan x="0" y="0">模</tspan></text>
    </g>
    <g>
      <circle class="cls-6" cx="1440.05" cy="511.56" r="7.14"/>
      <text class="cls-19" transform="translate(1436.22 514.62)"><tspan x="0" y="0">模</tspan></text>
    </g>
    <g>
      <circle class="cls-6" cx="1492.45" cy="511.56" r="7.14"/>
      <text class="cls-19" transform="translate(1488.62 514.63)"><tspan x="0" y="0">模</tspan></text>
    </g>
    <g>
      <circle class="cls-6" cx="1492.45" cy="472.42" r="7.14"/>
      <text class="cls-19" transform="translate(1488.62 475.48)"><tspan x="0" y="0">模</tspan></text>
    </g>
    <g>
      <circle class="cls-6" cx="970.86" cy="647.82" r="7.14"/>
      <text class="cls-19" transform="translate(967.03 650.88)"><tspan x="0" y="0">科</tspan></text>
    </g>
    <g>
      <circle class="cls-6" cx="906.53" cy="658.03" r="7.14"/>
      <text class="cls-19" transform="translate(902.7 661.09)"><tspan x="0" y="0">科</tspan></text>
    </g>
    <g>
      <circle class="cls-6" cx="989.32" cy="647.82" r="7.14"/>
      <text class="cls-19" transform="translate(985.49 650.88)"><tspan x="0" y="0">班</tspan></text>
    </g>
    <g>
      <ellipse class="cls-6" cx="1487.36" cy="1151.17" rx="18.32" ry="18.05"/>
      <text class="cls-32" transform="translate(1477.53 1158.9) scale(1.02 1)"><tspan x="0" y="0">班</tspan></text>
    </g>
    <g>
      <ellipse class="cls-6" cx="485.6" cy="1320.45" rx="18.32" ry="18.05"/>
      <text class="cls-32" transform="translate(475.77 1328.19) scale(1.02 1)"><tspan x="0" y="0">班</tspan></text>
    </g>
    <g>
      <ellipse class="cls-6" cx="1683.91" cy="888.96" rx="14.11" ry="13.9"/>
      <text class="cls-23" transform="translate(1676.33 894.92) scale(1.02 1)"><tspan x="0" y="0">班</tspan></text>
    </g>
    <g>
      <ellipse class="cls-6" cx="1825.44" cy="755.1" rx="18.32" ry="18.05"/>
      <text class="cls-32" transform="translate(1815.61 762.84) scale(1.02 1)"><tspan x="0" y="0">班</tspan></text>
    </g>
    <g>
      <ellipse class="cls-6" cx="1761.96" cy="203.09" rx="13.09" ry="12.89"/>
      <text class="cls-20" transform="translate(1754.94 208.62) scale(1.02 1)"><tspan x="0" y="0">班</tspan></text>
    </g>
    <g>
      <ellipse class="cls-6" cx="1845.55" cy="1111.66" rx="13.09" ry="12.89"/>
      <text class="cls-20" transform="translate(1838.53 1117.19) scale(1.02 1)"><tspan x="0" y="0">班</tspan></text>
    </g>
    <g>
      <circle class="cls-6" cx="1318.99" cy="587.14" r="7.14"/>
      <text class="cls-19" transform="translate(1314.96 589.84)"><tspan x="0" y="0">係</tspan></text>
    </g>
    <g>
      <circle class="cls-6" cx="1548.51" cy="239.21" r="7.14"/>
      <text class="cls-19" transform="translate(1544.48 241.9)"><tspan x="0" y="0">係</tspan></text>
    </g>
    <g>
      <circle class="cls-6" cx="1279.12" cy="278.28" r="9.35"/>
      <text class="cls-24" transform="translate(1274.1 282.29)"><tspan x="0" y="0">ク</tspan></text>
    </g>
    <g>
      <circle class="cls-6" cx="1360.79" cy="42.15" r="6.3"/>
      <text class="cls-14" transform="translate(1357.41 44.85)"><tspan x="0" y="0">ク</tspan></text>
    </g>
    <g>
      <ellipse class="cls-6" cx="960.53" cy="219.58" rx="8.91" ry="8.78"/>
      <text class="cls-29" transform="translate(955.74 223.34) scale(1.02 1)"><tspan x="0" y="0">班</tspan></text>
    </g>
    <g>
      <ellipse class="cls-6" cx="860.62" cy="219.57" rx="8.91" ry="8.78"/>
      <text class="cls-29" transform="translate(855.84 223.34) scale(1.02 1)"><tspan x="0" y="0">班</tspan></text>
    </g>
    <g>
      <circle class="cls-6" cx="485.75" cy="635.12" r="10.22"/>
      <text class="cls-17" transform="translate(480.27 639.5)"><tspan x="0" y="0">科</tspan></text>
    </g>
    <g>
      <circle class="cls-6" cx="1463.69" cy="284.21" r="7.14"/>
      <text class="cls-19" transform="translate(1459.85 287.28)"><tspan x="0" y="0">ク</tspan></text>
    </g>
    <g>
      <circle class="cls-6" cx="1295.83" cy="459.15" r="10.38"/>
      <text class="cls-22" transform="translate(1289.98 463.07)"><tspan x="0" y="0">係</tspan></text>
    </g>
    <rect class="cls-4" x="1506.26" y="355.6" width="65.83" height="25.66" transform="translate(1170.74 1907.61) rotate(-90)"/>
    <text class="cls-28" transform="translate(1534.58 346.09) scale(.92 1)" onclick="alert('物販・募金\n能登半島地震被災者支援のために行っています。')"><tspan x="0" y="0">Ｐ</tspan><tspan x="0" y="12">Ｔ</tspan><tspan x="0" y="24">Ａ</tspan><tspan x="0" y="36">展</tspan></text>
    <g>
      <circle class="cls-6" cx="1539.17" cy="392.36" r="7.14"/>
      <text class="cls-19" transform="translate(1535.15 395.05)"><tspan x="0" y="0">係</tspan></text>
    </g>
    <g>
      <circle class="cls-6" cx="1629.8" cy="454.69" r="7.14"/>
      <text class="cls-19" transform="translate(1625.97 457.75)"><tspan x="0" y="0">模</tspan></text>
    </g>
    <rect class="cls-7" x="563.83" y="30.8" width="8.35" height="8.35"/>
    <rect class="cls-7" x="509.33" y="30.8" width="8.35" height="8.35"/>
    <line class="cls-7" x1="14.85" y1="34.98" x2="509.33" y2="34.98"/>
  </g>
</svg>
