<?xml version="1.0" encoding="UTF-8"?>
<svg xmlns="http://www.w3.org/2000/svg" viewBox="0 0 2551.09 1480.22">
  <defs>
    <style>
      .cls-1, .cls-2, .cls-3, .cls-4, .cls-5 {
        stroke: #000;
      }

      .cls-1, .cls-2, .cls-3, .cls-4, .cls-5, .cls-6 {
        stroke-miterlimit: 10;
      }

      .cls-1, .cls-2, .cls-3, .cls-6 {
        fill: none;
      }

      .cls-1, .cls-3, .cls-5, .cls-6 {
        stroke-width: .5px;
      }

      .cls-3 {
        stroke-linecap: round;
      }

      .cls-7, .cls-8, .cls-9, .cls-10, .cls-11, .cls-12, .cls-13, .cls-14 {
        font-family: UDDigiKyokashoN-R, 'UD Digi Kyokasho N-R';
      }

      .cls-7, .cls-15 {
        font-size: 16px;
      }

      .cls-16, .cls-4, .cls-5 {
        fill: #fff;
      }

      .cls-8 {
        font-size: 48px;
      }

      .cls-17 {
        fill: #e73964;
      }

      .cls-18 {
        fill: #b9dba9;
      }

      .cls-19 {
        fill: #c3b7ab;
      }

      .cls-9, .cls-20 {
        font-size: 20px;
      }

      .cls-21 {
        font-size: 13px;
      }

      .cls-22 {
        fill: #f3a6b3;
      }

      .cls-10 {
        font-size: 19px;
      }

      .cls-23 {
        fill: #9adeff;
      }

      .cls-24 {
        fill: #f9d0bd;
      }

      .cls-25 {
        fill: #b2dee2;
      }

      .cls-26 {
        font-size: 11px;
      }

      .cls-27 {
        fill: #f5f4a9;
      }

      .cls-28, .cls-14 {
        font-size: 14px;
      }

      .cls-11, .cls-29 {
        font-size: 17px;
      }

      .cls-12 {
        font-size: 24px;
      }

      .cls-30 {
        font-size: 12px;
      }

      .cls-31 {
        fill: #b9dba9;
      }

      .cls-32 {
        fill: #c3b7ab;
      }

      .cls-33 {
        fill: #2668b2;
      }

      .cls-34 {
        fill: #42b035;
      }

      .cls-35 {
        fill: #b2dee2;
      }

      .cls-6 {
        stroke: #231815;
      }
    </style>
  </defs>
  <g id="_レイヤー_5" data-name="レイヤー_5">
    <rect class="cls-25" x="244.2" y="678.82" width="159.3" height="89.75"/>
    <rect class="cls-35" x="328.67" y="769.07" width="74.83" height="24"/>
    <rect class="cls-35" x="328.67" y="648.32" width="74.83" height="31.34"/>
    <rect class="cls-24" x="183" y="435.57" width="350" height="154"/>
    <rect class="cls-31" x="740.75" y="465.57" width="59.75" height="90"/>
    <rect class="cls-31" x="720" y="500.9" width="20.75" height="54.67"/>
    <rect class="cls-31" x="663.25" y="500.9" width="20.5" height="54.67"/>
    <rect class="cls-18" x="568" y="465.82" width="95.25" height="89.75"/>
    <rect class="cls-22" x="364" y="902.57" width="126.31" height="90"/>
    <rect class="cls-19" x="563" y="263.73" width="121" height="90"/>
    <rect class="cls-19" x="720" y="298.4" width="38.5" height="55.42"/>
    <rect class="cls-19" x="800.5" y="264.32" width="102.25" height="89.75"/>
    <rect class="cls-27" x="568" y="678.82" width="60" height="89.75"/>
    <rect class="cls-27" x="628" y="712.9" width="55.67" height="55.67"/>
    <rect class="cls-27" x="720" y="712.9" width="64.5" height="55.92"/>
    <polyline class="cls-32" points="235.87 284.57 255 284.57 255 387.57 150.67 387.57 150.67 284.57 235.87 284.57"/>
    <rect class="cls-19" x="663.25" y="298.65" width="20.75" height="55.08"/>
    <rect class="cls-19" x="758.5" y="298.15" width="42" height="55.67"/>
    <rect class="cls-19" x="882" y="298.57" width="20.75" height="55"/>
    <rect class="cls-19" x="984.25" y="298.15" width="20.88" height="55.42"/>
    <rect class="cls-32" x="255" y="285.07" width="67.58" height="102.5"/>
    <rect class="cls-32" x="322.58" y="284.57" width="70.21" height="103"/>
    <rect class="cls-32" x="392.5" y="284.57" width="70.5" height="103"/>
    <rect class="cls-32" x="463" y="285.07" width="70" height="102.5"/>
    <rect class="cls-32" x="229.67" y="284.07" width="25.33" height="34.25"/>
    <rect class="cls-32" x="427.9" y="285.07" width="35.1" height="16.5"/>
    <rect class="cls-24" x="183" y="435.9" width="72" height="153.17"/>
    <rect class="cls-24" x="291" y="435.9" width="26.5" height="55.17"/>
    <rect class="cls-24" x="317.5" y="435.9" width="25.5" height="55.17"/>
    <rect class="cls-24" x="343.72" y="435.57" width="122.95" height="55.5"/>
    <rect class="cls-24" x="466.67" y="435.9" width="30.83" height="54.17"/>
    <rect class="cls-24" x="254.33" y="530.4" width="36.17" height="59.17"/>
    <rect class="cls-24" x="291" y="530.57" width="119" height="58.5"/>
    <rect class="cls-24" x="410" y="530.4" width="122.5" height="58.67"/>
    <rect class="cls-25" x="183" y="678.82" width="61.2" height="89.75"/>
    <rect class="cls-25" x="244.2" y="700.45" width="58.94" height="67.62"/>
    <rect class="cls-25" x="303.47" y="718.82" width="25.2" height="49.25"/>
    <rect class="cls-25" x="403.5" y="678.82" width="129.5" height="89.75"/>
    <rect class="cls-31" x="800.5" y="465.57" width="43.5" height="90.25"/>
    <rect class="cls-31" x="843.5" y="466.57" width="44" height="89"/>
    <rect class="cls-27" x="784.81" y="713.15" width="37" height="55.42"/>
    <rect class="cls-27" x="821.81" y="712.82" width="39.75" height="55.75"/>
    <rect class="cls-27" x="861.56" y="712.82" width="60.75" height="55.75"/>
    <rect class="cls-27" x="922.31" y="712.9" width="82.81" height="55.92"/>
    <rect class="cls-22" x="490.5" y="903.07" width="46.46" height="89.5"/>
    <rect class="cls-22" x="536.96" y="902.07" width="91.04" height="90.5"/>
    <rect class="cls-22" x="628" y="903.07" width="83" height="89.5"/>
    <rect class="cls-22" x="711" y="903.07" width="65.67" height="29.83"/>
    <rect class="cls-22" x="711" y="933.23" width="65.67" height="59.33"/>
    <rect class="cls-22" x="776.67" y="902.07" width="245.33" height="90.5"/>
    <rect class="cls-22" x="807.03" y="970.06" width="45.97" height="22.5"/>
    <rect class="cls-22" x="428.25" y="903.07" width="15.42" height="18.83"/>
    <rect class="cls-22" x="428.25" y="953.23" width="15.5" height="38.83"/>
    <rect class="cls-22" x="482.25" y="953.23" width="16" height="39.33"/>
    <rect class="cls-22" x="569.25" y="953.23" width="15.75" height="39.33"/>
    <rect class="cls-16" x="887.5" y="500.4" width="58.81" height="55.17"/>
    <rect class="cls-16" x="946.31" y="500.4" width="58.81" height="55.42"/>
    <rect class="cls-16" x="1044.75" y="264.07" width="50.25" height="111.75"/>
    <rect class="cls-16" x="1065.12" y="410.4" width="29.88" height="55.42"/>
    <rect class="cls-16" x="1131" y="410.65" width="23.25" height="54.79"/>
    <rect class="cls-16" x="1154.25" y="410.59" width="51.75" height="54.85"/>
    <rect class="cls-16" x="1206" y="410.77" width="24" height="54.92"/>
    <rect class="cls-16" x="1230" y="410.59" width="24" height="55.29"/>
    <rect class="cls-16" x="1254" y="410.4" width="62" height="55.17"/>
    <rect class="cls-16" x="1316" y="349.23" width="76" height="26.48"/>
    <rect class="cls-16" x="1392" y="410.4" width="62" height="55.17"/>
    <rect class="cls-16" x="1453.75" y="419.4" width="19.88" height="46.17"/>
    <rect class="cls-16" x="1473.75" y="419.4" width="19.5" height="46.17"/>
    <rect class="cls-16" x="1454.25" y="410.32" width="39.25" height="9.08"/>
    <rect class="cls-16" x="1493.25" y="410.32" width="30.75" height="55.5"/>
    <rect class="cls-16" x="1473.75" y="473.57" width="39" height="45"/>
    <rect class="cls-16" x="1458" y="713.67" width="66" height="55.15"/>
    <rect class="cls-16" x="1392" y="713.65" width="66" height="55.05"/>
    <rect class="cls-16" x="1299.71" y="713.55" width="56.29" height="55.26"/>
    <rect class="cls-16" x="1243.42" y="713.55" width="56.29" height="55.26"/>
    <rect class="cls-16" x="1187.13" y="713.55" width="56.29" height="55.15"/>
    <rect class="cls-16" x="1130.84" y="713.67" width="56.29" height="55.03"/>
    <rect class="cls-16" x="1064.97" y="713.42" width="29.88" height="55.42"/>
    <rect class="cls-16" x="1571.5" y="190.07" width="307.5" height="225"/>
    <rect class="cls-16" x="1721.44" y="448.19" width="156.5" height="116"/>
    <rect class="cls-16" x="1610.94" y="544.57" width="71.5" height="113"/>
    <rect class="cls-16" x="1732" y="648.9" width="93.44" height="61.42"/>
    <rect class="cls-16" x="1825.44" y="597.32" width="43" height="113"/>
    <rect class="cls-16" x="1610.44" y="672.81" width="44.25" height="18.75"/>
    <rect class="cls-16" x="1610.44" y="691.57" width="44.5" height="18.75"/>
    <rect class="cls-16" x="1610.44" y="722.07" width="171" height="148.5"/>
    <rect class="cls-16" x="1781.33" y="722.23" width="86.6" height="148.34"/>
    <rect class="cls-16" x="1637.75" y="914.06" width="94.25" height="69.25"/>
    <rect class="cls-16" x="1605" y="937.07" width="33.06" height="46.25"/>
    <rect class="cls-19" x="902.75" y="263.73" width="102.25" height="90.33"/>
    <rect x="1064.97" y="522.23" width="30.03" height="25.04"/>
    <rect x="1064.97" y="547.27" width="30.03" height="25.04"/>
    <rect class="cls-16" x="115" y="847.19" width="136" height="65.04"/>
    <rect class="cls-16" x="134" y="932.18" width="77.13" height="66.75"/>
    <rect class="cls-16" x="1722.19" y="1024.31" width="150" height="340.5"/>
    <rect class="cls-22" x="807.03" y="970.06" width="45.97" height="22.5"/>
    <rect class="cls-23" x="1721.44" y="448.19" width="156.5" height="116"/>
    <rect class="cls-31" x="887.5" y="500.17" width="58.81" height="55.64"/>
  </g>
  <g id="_白塗り" data-name="白塗り">
    <rect class="cls-16" x="182.69" y="648.32" width="54.15" height="12.62"/>
    <rect class="cls-16" x="183" y="659.57" width="14.39" height="18.67"/>
    <rect class="cls-16" x="369.5" y="793.07" width="20.67" height="95.17"/>
    <rect class="cls-16" x="388.25" y="869.57" width="295.5" height="18.67"/>
    <rect class="cls-16" x="567.75" y="443.98" width="121.5" height="16.58"/>
    <polygon class="cls-16" points="568 443.98 533 469.98 533 485.73 568 460.48 568 443.98"/>
    <rect class="cls-16" x="663.25" y="465.82" width="77.5" height="34.87"/>
    <rect class="cls-16" x="684" y="500.1" width="36" height="55.46"/>
    <rect class="cls-16" x="683.75" y="264.04" width="116.75" height="34.1"/>
    <rect class="cls-16" x="684.12" y="297.44" width="35.88" height="59.12"/>
    <rect class="cls-16" x="683.75" y="710.87" width="36.25" height="59.94"/>
    <rect class="cls-16" x="628" y="678.67" width="383.25" height="34.23"/>
    <rect class="cls-16" x="1016" y="678.79" width="508" height="34.87"/>
    <rect class="cls-16" x="1005" y="229.57" width="90" height="180.83"/>
    <rect class="cls-16" x="1006" y="403.38" width="59.12" height="365.19"/>
    <rect class="cls-16" x="887.5" y="465.52" width="118.5" height="34.87"/>
    <rect class="cls-16" x="1022" y="766.5" width="29.5" height="226.06"/>
    <rect class="cls-16" x="1356" y="397.07" width="36" height="372"/>
    <rect class="cls-16" x="1030.25" y="375.71" width="493.75" height="34.6"/>
    <rect class="cls-16" x="1316.23" y="403.82" width="39.77" height="61.75"/>
    <rect class="cls-16" x="1183.5" y="231.07" width="79.5" height="71.5"/>
    <rect class="cls-16" x="1430" y="231.07" width="91.5" height="58"/>
    <rect class="cls-16" x="1524" y="378.31" width="47.5" height="29.41"/>
    <rect class="cls-16" x="1571.25" y="415.17" width="39.19" height="455.4"/>
    <rect class="cls-16" x="1524" y="681.9" width="47.5" height="28.41"/>
    <rect class="cls-16" x="1610.94" y="606.52" width="100.06" height="66.3"/>
    <rect class="cls-16" x="1610.44" y="476.23" width="38.23" height="68.34"/>
    <rect class="cls-16" x="1844.67" y="374.4" width="59.33" height="40.67"/>
    <rect class="cls-16" x="1576" y="870.57" width="29" height="43.49"/>
    <rect class="cls-16" x="1576" y="913.32" width="61.75" height="70"/>
    <rect class="cls-16" x="1746.44" y="869.82" width="35" height="126.25"/>
    <rect class="cls-16" x="1746.44" y="996.06" width="84" height="28"/>
    <rect class="cls-16" x="1095" y="409.5" width="36" height="56.33"/>
    <rect class="cls-16" x="1094.84" y="713.55" width="36.16" height="55.01"/>
    <rect class="cls-16" x="1051.44" y="869.68" width="445.29" height="45.27"/>
    <rect class="cls-16" x="1051.44" y="947.98" width="445.29" height="44.59"/>
    <rect class="cls-16" x="683.75" y="353.57" width="36.25" height="111.96"/>
  </g>
  <g id="_テクスチャ" data-name="テクスチャ">
    <polyline class="cls-2" points="533 435.57 183 435.57 183 589.57 533 589.57"/>
    <polyline class="cls-2" points="1005 465.82 568 465.82 568 555.82 1005 555.82"/>
    <rect class="cls-2" x="150.67" y="284.57" width="382.33" height="103"/>
    <rect class="cls-2" x="563" y="264.07" width="442" height="90"/>
    <polyline class="cls-2" points="1005.13 465.82 1005.13 229.57 1095 229.57 1095 376.32"/>
    <polyline class="cls-2" points="1095 375.82 1524 375.82 1524 465.82 1095 465.82"/>
    <rect class="cls-2" x="1316" y="349.23" width="76" height="26.58"/>
    <rect class="cls-4" x="1473.75" y="473.57" width="39" height="45"/>
    <rect class="cls-4" x="630.5" y="395.57" width="45.5" height="45.5"/>
    <rect class="cls-4" x="577" y="229.57" width="120" height="21"/>
    <rect class="cls-4" x="706" y="229.57" width="122" height="21"/>
    <rect class="cls-4" x="836" y="229.57" width="119" height="21"/>
    <rect class="cls-4" x="568" y="152.57" width="509" height="38"/>
    <rect class="cls-4" x="684" y="555.82" width="36" height="123"/>
    <rect class="cls-2" x="1356" y="465.82" width="36" height="212.75"/>
    <rect class="cls-4" x="684" y="769.07" width="36" height="133.5"/>
    <rect class="cls-2" x="328.67" y="769.07" width="74.83" height="24"/>
    <rect class="cls-2" x="364" y="902.57" width="658" height="90"/>
    <rect class="cls-2" x="1051.5" y="869.81" width="445.17" height="45"/>
    <rect class="cls-2" x="1051.5" y="947.57" width="445.17" height="45"/>
    <rect class="cls-2" x="1610.94" y="476.23" width="37.73" height="68.34"/>
    <line class="cls-4" x1="1576" y1="913.32" x2="1576" y2="870.57"/>
    <line class="cls-4" x1="1605" y1="870.57" x2="1605" y2="913.32"/>
    <rect class="cls-2" x="1576" y="913.32" width="156" height="70"/>
    <rect class="cls-2" x="1746.44" y="870.57" width="35" height="125.49"/>
    <rect class="cls-2" x="1746.44" y="996.06" width="84" height="28"/>
    <rect class="cls-2" x="1721.94" y="1024.06" width="150.5" height="341"/>
    <rect class="cls-2" x="1825.44" y="597.32" width="43" height="113"/>
    <rect class="cls-4" x="115" y="847.19" width="136" height="65.49"/>
    <rect class="cls-4" x="134" y="932.18" width="77.13" height="66.75"/>
    <rect class="cls-2" x="1571.5" y="415.07" width="38.94" height="455.5"/>
    <rect class="cls-2" x="1610.44" y="722.07" width="257.5" height="148.5"/>
    <rect class="cls-2" x="1732" y="648.9" width="93.44" height="61.42"/>
    <rect class="cls-2" x="1610.44" y="672.81" width="44.5" height="37.5"/>
    <rect class="cls-2" x="1721.44" y="448.19" width="156.5" height="116"/>
    <rect class="cls-4" x="349.12" y="152.57" width="48" height="107"/>
    <rect class="cls-4" x="418.5" y="152.57" width="91.5" height="27"/>
    <rect class="cls-4" x="418.5" y="205.99" width="45.75" height="16.88"/>
    <line class="cls-4" x1="1571.5" y1="710.32" x2="1524" y2="710.32"/>
    <line class="cls-4" x1="1524" y1="681.9" x2="1571.5" y2="681.9"/>
    <rect class="cls-4" x="470.5" y="205.99" width="43" height="16.88"/>
    <rect class="cls-4" x="418.5" y="226.57" width="95" height="19"/>
    <rect class="cls-4" x="182.5" y="152.57" width="59.5" height="107"/>
    <polyline class="cls-2" points="533 485.82 568.11 460.52 684.5 460.57"/>
    <line class="cls-4" x1="1065.12" y1="465.82" x2="1065.12" y2="678.82"/>
    <line class="cls-2" x1="363.54" y1="1056.84" x2="1005.54" y2="1056.84"/>
    <line class="cls-2" x1="1078.54" y1="1056.84" x2="1533.54" y2="1056.84"/>
    <path class="cls-2" d="M1579.29,1056.84l100.38,64.37v359.01"/>
    <line class="cls-2" x1="313.62" y1="1056.84" x2="160.63" y2="1056.84"/>
    <line class="cls-2" x1="160.63" y1="1056.84" x2="48.14" y2="1153.14"/>
    <line class="cls-2" x1="48.14" y1="1153.14" x2="48.14" y2="1466.62"/>
    <circle class="cls-4" cx="1343.5" cy="267.57" r="36.5"/>
    <rect class="cls-2" x="1430" y="231.07" width="91.5" height="58"/>
    <rect class="cls-2" x="1183.5" y="231.07" width="79.5" height="71.5"/>
    <path class="cls-2" d="M1005.13,555.82v123h-437.13v90h454v223.75h29.5v-223.75h472.5v-90h-454.89"/>
    <line class="cls-2" x1="1095" y1="465.82" x2="1065.12" y2="465.82"/>
    <line class="cls-2" x1="1069" y1="678.82" x2="1065.12" y2="678.82"/>
    <line class="cls-4" x1="1571.5" y1="407.73" x2="1524" y2="407.73"/>
    <line class="cls-4" x1="1524" y1="378.31" x2="1571.5" y2="378.32"/>
    <line class="cls-2" x1="1781.44" y1="870.57" x2="1781.44" y2="722.07"/>
    <line class="cls-2" x1="1005" y1="264.07" x2="1095" y2="264.07"/>
    <line class="cls-2" x1="533" y1="435.57" x2="533" y2="589.57"/>
    <polyline class="cls-2" points="1879 415.07 1904 415.07 1904 374.4 1879 374.4 1879 190.07 1571.5 190.07 1571.5 415.07 1879 415.07"/>
    <line class="cls-2" x1="1682.44" y1="657.57" x2="1711.67" y2="657.57"/>
    <path class="cls-2" d="M1711.67,657.48v-51.01l-29.23.09v-61.99h-71.5v113h71.5"/>
    <polyline class="cls-2" points="369.5 793.07 369.5 888.23 683.75 888.23"/>
    <polyline class="cls-2" points="683.75 869.57 390.17 869.57 390.17 793.07"/>
    <polyline class="cls-2" points="403.5 769.07 533 769.07 533 678.82 403.5 678.82 403.5 648.32 328.67 648.32 328.67 678.82 183 678.82 183 769.07 335.5 769.07"/>
    <path class="cls-2" d="M533,470.07l35-26s.05-.03.11-.08h115.89c0-3.07,0-89.92,0-89.92h36v111.75h-36v-5.25"/>
    <line class="cls-2" x1="1005.13" y1="465.82" x2="1005.13" y2="555.82"/>
  </g>
  <g id="_間取り" data-name="間取り">
    <line class="cls-2" x1="1356" y1="768.82" x2="1356" y2="713.65"/>
    <line class="cls-2" x1="1392" y1="768.82" x2="1392" y2="713.65"/>
    <line class="cls-1" x1="1374" y1="752.98" x2="1356" y2="752.98"/>
    <line class="cls-1" x1="1374" y1="752.98" x2="1392" y2="752.98"/>
    <line class="cls-1" x1="1524" y1="713.65" x2="1391.52" y2="713.65"/>
    <polyline class="cls-1" points="1356 713.65 1374 713.65 1374 752.98"/>
    <line class="cls-1" x1="1374" y1="733.32" x2="1392" y2="733.32"/>
    <line class="cls-1" x1="1374" y1="723.48" x2="1392" y2="723.48"/>
    <line class="cls-1" x1="1392" y1="743.15" x2="1374" y2="743.15"/>
    <line class="cls-1" x1="1356" y1="733.32" x2="1374" y2="733.32"/>
    <line class="cls-1" x1="1356" y1="723.48" x2="1374" y2="723.48"/>
    <line class="cls-1" x1="1374" y1="743.15" x2="1356" y2="743.15"/>
    <line class="cls-2" x1="1356" y1="465.57" x2="1356" y2="410.4"/>
    <line class="cls-2" x1="1392" y1="465.57" x2="1392" y2="410.4"/>
    <polyline class="cls-1" points="1374 449.73 1374 410.4 1355.5 410.4"/>
    <line class="cls-1" x1="1374" y1="449.73" x2="1356" y2="449.73"/>
    <line class="cls-1" x1="1374" y1="449.73" x2="1392" y2="449.73"/>
    <line class="cls-1" x1="1374" y1="430.07" x2="1392" y2="430.07"/>
    <line class="cls-1" x1="1374" y1="420.23" x2="1392" y2="420.23"/>
    <line class="cls-1" x1="1392" y1="439.9" x2="1374" y2="439.9"/>
    <line class="cls-1" x1="1356" y1="430.07" x2="1374" y2="430.07"/>
    <line class="cls-1" x1="1356" y1="420.23" x2="1374" y2="420.23"/>
    <line class="cls-1" x1="1374" y1="439.9" x2="1356" y2="439.9"/>
    <line class="cls-1" x1="1524" y1="410.4" x2="1391.49" y2="410.4"/>
    <path class="cls-1" d="M719.5,712.9h285.62v55.91"/>
    <line class="cls-2" x1="684" y1="768.57" x2="684" y2="712.9"/>
    <line class="cls-2" x1="720" y1="768.49" x2="720" y2="712.9"/>
    <line class="cls-1" x1="702" y1="752.73" x2="684" y2="752.73"/>
    <line class="cls-1" x1="702" y1="752.73" x2="720" y2="752.73"/>
    <line class="cls-1" x1="702" y1="733.07" x2="720" y2="733.07"/>
    <line class="cls-1" x1="702" y1="723.23" x2="720" y2="723.23"/>
    <line class="cls-1" x1="720" y1="742.9" x2="702" y2="742.9"/>
    <line class="cls-1" x1="684" y1="733.07" x2="702" y2="733.07"/>
    <line class="cls-1" x1="684" y1="723.23" x2="702" y2="723.23"/>
    <line class="cls-1" x1="702" y1="742.9" x2="684" y2="742.9"/>
    <line class="cls-1" x1="1095" y1="375.82" x2="1044.75" y2="375.82"/>
    <line class="cls-1" x1="1005.13" y1="556.97" x2="1005.13" y2="500.4"/>
    <line class="cls-1" x1="1005.13" y1="500.4" x2="887.5" y2="500.4"/>
    <line class="cls-2" x1="684" y1="556.07" x2="684" y2="500.9"/>
    <line class="cls-2" x1="720" y1="555.57" x2="720" y2="500.9"/>
    <line class="cls-1" x1="702" y1="500.9" x2="702" y2="540.23"/>
    <line class="cls-1" x1="702" y1="540.23" x2="684" y2="540.23"/>
    <line class="cls-1" x1="702" y1="540.23" x2="720" y2="540.23"/>
    <line class="cls-1" x1="702" y1="520.57" x2="720" y2="520.57"/>
    <line class="cls-1" x1="702" y1="510.73" x2="720" y2="510.73"/>
    <line class="cls-1" x1="720" y1="530.4" x2="702" y2="530.4"/>
    <line class="cls-1" x1="684" y1="520.57" x2="702" y2="520.57"/>
    <line class="cls-1" x1="684" y1="510.73" x2="702" y2="510.73"/>
    <line class="cls-1" x1="702" y1="530.4" x2="684" y2="530.4"/>
    <line class="cls-2" x1="684" y1="354.07" x2="684" y2="298.4"/>
    <line class="cls-2" x1="720" y1="353.57" x2="720" y2="298.4"/>
    <polyline class="cls-1" points="702 338.23 702 298.4 684 298.4"/>
    <line class="cls-1" x1="702" y1="338.23" x2="684" y2="338.23"/>
    <line class="cls-1" x1="702" y1="338.23" x2="720" y2="338.23"/>
    <line class="cls-1" x1="702" y1="318.57" x2="720" y2="318.57"/>
    <line class="cls-1" x1="702" y1="308.73" x2="720" y2="308.73"/>
    <line class="cls-1" x1="720" y1="328.4" x2="702" y2="328.4"/>
    <line class="cls-1" x1="684" y1="318.57" x2="702" y2="318.57"/>
    <line class="cls-1" x1="684" y1="308.73" x2="702" y2="308.73"/>
    <line class="cls-1" x1="702" y1="328.4" x2="684" y2="328.4"/>
    <line class="cls-1" x1="1605" y1="937.07" x2="1637.75" y2="937.07"/>
    <line class="cls-1" x1="1637.75" y1="983.32" x2="1637.75" y2="937.07"/>
    <line class="cls-1" x1="1605" y1="937.07" x2="1605" y2="983.32"/>
    <line class="cls-1" x1="1637.75" y1="937.07" x2="1637.75" y2="914.06"/>
    <polyline class="cls-1" points="1576 970.07 1590.97 970.07 1590.97 937.07 1605 937.07"/>
    <line class="cls-1" x1="1590.97" y1="953.57" x2="1576" y2="953.57"/>
    <line class="cls-1" x1="1590.97" y1="961.82" x2="1576" y2="961.82"/>
    <path class="cls-1" d="M1590.97,945.32h-15.34,15.34Z"/>
    <g>
      <line class="cls-1" x1="1583.48" y1="937.07" x2="1583.48" y2="965.05"/>
      <path d="M1583.48,968.07c-.53-1.42-1.43-3.18-2.38-4.27l2.38.86,2.38-.86c-.95,1.09-1.85,2.85-2.38,4.27Z"/>
    </g>
    <line class="cls-4" x1="1095" y1="465.82" x2="1095" y2="410.65"/>
    <line class="cls-4" x1="1131" y1="465.82" x2="1131" y2="410.65"/>
    <polyline class="cls-1" points="1113 449.98 1113 410.65 1131 410.65"/>
    <line class="cls-1" x1="1113" y1="449.98" x2="1095" y2="449.98"/>
    <line class="cls-1" x1="1113" y1="449.98" x2="1131" y2="449.98"/>
    <line class="cls-1" x1="1113" y1="430.32" x2="1131" y2="430.32"/>
    <line class="cls-1" x1="1113" y1="420.48" x2="1131" y2="420.48"/>
    <line class="cls-1" x1="1131" y1="440.15" x2="1113" y2="440.15"/>
    <line class="cls-1" x1="1095" y1="430.32" x2="1113" y2="430.32"/>
    <line class="cls-1" x1="1095" y1="420.48" x2="1113" y2="420.48"/>
    <line class="cls-1" x1="1113" y1="440.15" x2="1095" y2="440.15"/>
    <path class="cls-1" d="M1095.49,410.65h-30.63c0,4.02.01,55.19.01,55.19"/>
    <line class="cls-1" x1="1131" y1="410.65" x2="1316.25" y2="410.44"/>
    <line class="cls-1" x1="1316.25" y1="410.44" x2="1316" y2="465.57"/>
    <line class="cls-1" x1="1254" y1="410.59" x2="1254" y2="465.88"/>
    <line class="cls-1" x1="1154.25" y1="410.52" x2="1154.25" y2="465.44"/>
    <line class="cls-1" x1="1230" y1="410.77" x2="1230" y2="465.69"/>
    <line class="cls-1" x1="1206" y1="410.77" x2="1206" y2="465.69"/>
    <line class="cls-1" x1="1454" y1="410.4" x2="1454" y2="465.57"/>
    <line class="cls-1" x1="1493.25" y1="410.4" x2="1493.25" y2="465.57"/>
    <line class="cls-1" x1="1454" y1="419.4" x2="1493.25" y2="419.4"/>
    <line class="cls-1" x1="1473.62" y1="465.57" x2="1473.62" y2="419.4"/>
    <line class="cls-1" x1="1044.75" y1="375.82" x2="1044.75" y2="264.07"/>
    <line class="cls-1" x1="719.51" y1="298.4" x2="800.42" y2="298.4"/>
    <line class="cls-1" x1="800.5" y1="353.82" x2="800.5" y2="298.15"/>
    <line class="cls-1" x1="758.5" y1="298.4" x2="758.5" y2="353.82"/>
    <line class="cls-1" x1="800.5" y1="298.65" x2="800.5" y2="264.32"/>
    <line class="cls-1" x1="902.75" y1="263.73" x2="902.75" y2="353.73"/>
    <polyline class="cls-1" points="882 353.73 882 298.57 902.75 298.57"/>
    <polyline class="cls-1" points="1005 298.4 984.25 298.4 984.25 353.57"/>
    <polyline class="cls-1" points="683.75 298.4 663.25 298.4 663.25 353.57"/>
    <line class="cls-1" x1="533" y1="530.57" x2="255" y2="530.4"/>
    <line class="cls-1" x1="497.5" y1="490.9" x2="291" y2="490.9"/>
    <line class="cls-2" x1="497.5" y1="435.57" x2="497.5" y2="491.15"/>
    <polyline class="cls-1" points="515 450.07 515 469.57 497.5 469.57"/>
    <line class="cls-1" x1="515" y1="450.07" x2="497.5" y2="450.07"/>
    <line class="cls-1" x1="515" y1="459.82" x2="497.5" y2="459.82"/>
    <line class="cls-1" x1="532.5" y1="459.82" x2="515" y2="459.82"/>
    <line class="cls-1" x1="532.5" y1="450.07" x2="515" y2="450.07"/>
    <line class="cls-1" x1="515" y1="450.07" x2="533" y2="435.57"/>
    <line class="cls-1" x1="497.5" y1="435.57" x2="515" y2="450.07"/>
    <line class="cls-1" x1="466.67" y1="435.57" x2="466.67" y2="490.9"/>
    <line class="cls-2" x1="291" y1="435.4" x2="291" y2="490.9"/>
    <line class="cls-2" x1="255" y1="435.9" x2="255" y2="491.07"/>
    <path class="cls-1" d="M273,451.23v39.67h18"/>
    <line class="cls-1" x1="273" y1="451.23" x2="291" y2="451.23"/>
    <line class="cls-1" x1="273" y1="451.23" x2="255" y2="451.23"/>
    <line class="cls-1" x1="273" y1="470.9" x2="255" y2="470.9"/>
    <line class="cls-1" x1="273" y1="480.73" x2="255" y2="480.73"/>
    <line class="cls-1" x1="255" y1="461.07" x2="273" y2="461.07"/>
    <line class="cls-1" x1="291" y1="470.9" x2="273" y2="470.9"/>
    <line class="cls-1" x1="291" y1="480.73" x2="273" y2="480.73"/>
    <line class="cls-1" x1="273" y1="461.07" x2="291" y2="461.07"/>
    <line class="cls-1" x1="317.5" y1="435.9" x2="317.5" y2="490.9"/>
    <line class="cls-1" x1="343" y1="435.57" x2="343" y2="490.9"/>
    <line class="cls-1" x1="291" y1="530.57" x2="291" y2="589.57"/>
    <line class="cls-2" x1="255" y1="530.4" x2="255" y2="589.57"/>
    <line class="cls-1" x1="410" y1="530.57" x2="410" y2="589.57"/>
    <line class="cls-1" x1="255" y1="491.07" x2="255" y2="530.4"/>
    <line class="cls-1" x1="463" y1="284.57" x2="463" y2="387.57"/>
    <line class="cls-2" x1="392.79" y1="284.57" x2="392.79" y2="387.57"/>
    <line class="cls-1" x1="322.58" y1="284.57" x2="322.58" y2="387.57"/>
    <line class="cls-1" x1="255" y1="284.57" x2="255" y2="387.57"/>
    <polyline class="cls-1" points="229.67 284.57 229.67 341.12 254.93 341.12"/>
    <path class="cls-1" d="M427.9,284.57v17h35"/>
    <line class="cls-1" x1="684" y1="264.07" x2="684" y2="298.9"/>
    <line class="cls-1" x1="684" y1="500.9" x2="663.25" y2="500.9"/>
    <line class="cls-1" x1="663.25" y1="555.82" x2="663.25" y2="500.9"/>
    <line class="cls-1" x1="663.25" y1="465.82" x2="663.25" y2="500.9"/>
    <line class="cls-1" x1="800.5" y1="465.82" x2="800.5" y2="555.57"/>
    <line class="cls-1" x1="740.75" y1="500.9" x2="720" y2="500.9"/>
    <line class="cls-1" x1="740.75" y1="465.82" x2="740.75" y2="500.9"/>
    <line class="cls-1" x1="740.75" y1="555.57" x2="740.75" y2="500.9"/>
    <line class="cls-1" x1="887.5" y1="465.82" x2="887.5" y2="555.57"/>
    <line class="cls-1" x1="946.31" y1="500.4" x2="946.31" y2="556.07"/>
    <line class="cls-1" x1="844" y1="465.82" x2="844" y2="555.82"/>
    <line class="cls-1" x1="684" y1="712.9" x2="628" y2="712.9"/>
    <line class="cls-1" x1="628" y1="678.82" x2="628" y2="713.4"/>
    <line class="cls-1" x1="628" y1="713.4" x2="628" y2="768.46"/>
    <line class="cls-1" x1="922.31" y1="712.9" x2="922.31" y2="767.57"/>
    <line class="cls-1" x1="861.56" y1="713.4" x2="861.56" y2="768.57"/>
    <line class="cls-1" x1="821.81" y1="712.9" x2="821.81" y2="769.07"/>
    <line class="cls-1" x1="784.81" y1="713.15" x2="784.81" y2="768.82"/>
    <line class="cls-1" x1="1064.97" y1="768.83" x2="1064.97" y2="713.42"/>
    <line class="cls-2" x1="1094.84" y1="768.83" x2="1094.84" y2="713.67"/>
    <line class="cls-2" x1="1130.84" y1="768.83" x2="1130.84" y2="713.67"/>
    <line class="cls-1" x1="1112.84" y1="753" x2="1094.84" y2="753"/>
    <line class="cls-1" x1="1112.84" y1="753" x2="1130.84" y2="753"/>
    <line class="cls-1" x1="1112.84" y1="733.33" x2="1130.84" y2="733.33"/>
    <line class="cls-1" x1="1112.84" y1="723.5" x2="1130.84" y2="723.5"/>
    <line class="cls-1" x1="1130.84" y1="743.17" x2="1112.84" y2="743.17"/>
    <line class="cls-1" x1="1094.84" y1="733.33" x2="1112.84" y2="733.33"/>
    <line class="cls-1" x1="1094.84" y1="723.5" x2="1112.84" y2="723.5"/>
    <line class="cls-1" x1="1112.84" y1="743.17" x2="1094.84" y2="743.17"/>
    <line class="cls-1" x1="1064.97" y1="713.67" x2="1095.34" y2="713.67"/>
    <line class="cls-1" x1="1130.84" y1="713.65" x2="1356" y2="713.65"/>
    <line class="cls-1" x1="1458" y1="713.67" x2="1458" y2="768.82"/>
    <line class="cls-1" x1="1299.71" y1="713.55" x2="1299.71" y2="768.7"/>
    <line class="cls-1" x1="1243.42" y1="713.55" x2="1243.42" y2="768.7"/>
    <line class="cls-1" x1="1187.13" y1="713.55" x2="1187.13" y2="768.7"/>
    <polyline class="cls-1" points="1879 361.32 1835.5 361.32 1835.5 243.82 1879 243.82"/>
    <line class="cls-1" x1="1844.67" y1="361.32" x2="1844.67" y2="415.07"/>
    <line class="cls-1" x1="1844.67" y1="243.82" x2="1844.67" y2="190.07"/>
    <line class="cls-1" x1="1844.67" y1="374.65" x2="1879" y2="374.65"/>
    <polyline class="cls-2" points="1654.94 672.81 1711.67 672.81 1711.67 657.57"/>
    <line class="cls-1" x1="1691.83" y1="657.52" x2="1691.83" y2="672.86"/>
    <line class="cls-1" x1="1630.38" y1="657.52" x2="1630.38" y2="672.86"/>
    <line class="cls-1" x1="1661.1" y1="657.48" x2="1661.1" y2="672.81"/>
    <line class="cls-1" x1="1676.47" y1="657.52" x2="1676.47" y2="672.86"/>
    <line class="cls-1" x1="1645.74" y1="657.48" x2="1645.74" y2="672.81"/>
    <line class="cls-1" x1="1668.79" y1="657.52" x2="1668.79" y2="672.86"/>
    <line class="cls-1" x1="1684.15" y1="657.52" x2="1684.15" y2="672.86"/>
    <line class="cls-1" x1="1653.42" y1="657.48" x2="1653.42" y2="672.81"/>
    <line class="cls-1" x1="1638.06" y1="657.52" x2="1638.06" y2="672.86"/>
    <g>
      <line class="cls-1" x1="1625.39" y1="665.15" x2="1694.48" y2="665.15"/>
      <path d="M1697.5,665.15c-1.42.53-3.18,1.43-4.27,2.38l.86-2.38-.86-2.38c1.09.95,2.85,1.85,4.27,2.38Z"/>
    </g>
    <g>
      <line class="cls-1" x1="1383" y1="411.57" x2="1383" y2="452.88"/>
      <path d="M1383,455.9c-.53-1.42-1.43-3.18-2.38-4.27l2.38.86,2.38-.86c-.95,1.09-1.85,2.85-2.38,4.27Z"/>
    </g>
    <g>
      <line class="cls-1" x1="1104" y1="410.52" x2="1104" y2="452.92"/>
      <path d="M1104,455.94c-.53-1.42-1.43-3.18-2.38-4.27l2.38.86,2.38-.86c-.95,1.09-1.85,2.85-2.38,4.27Z"/>
    </g>
    <g>
      <line class="cls-1" x1="1383" y1="713.55" x2="1383" y2="757.71"/>
      <path d="M1383,760.73c-.53-1.42-1.43-3.18-2.38-4.27l2.38.86,2.38-.86c-.95,1.09-1.85,2.85-2.38,4.27Z"/>
    </g>
    <g>
      <line class="cls-1" x1="1103.84" y1="713.42" x2="1103.84" y2="756.8"/>
      <path d="M1103.84,759.82c-.53-1.42-1.43-3.18-2.38-4.27l2.38.86,2.38-.86c-.95,1.09-1.85,2.85-2.38,4.27Z"/>
    </g>
    <polyline class="cls-1" points="1130.84 713.67 1112.84 713.67 1112.84 753"/>
    <g>
      <line class="cls-1" x1="711" y1="712.9" x2="711" y2="756.28"/>
      <path d="M711,759.3c-.53-1.42-1.43-3.18-2.38-4.27l2.38.86,2.38-.86c-.95,1.09-1.85,2.85-2.38,4.27Z"/>
    </g>
    <g>
      <line class="cls-1" x1="711" y1="500.9" x2="711" y2="544.28"/>
      <path d="M711,547.3c-.53-1.42-1.43-3.18-2.38-4.27l2.38.86,2.38-.86c-.95,1.09-1.85,2.85-2.38,4.27Z"/>
    </g>
    <g>
      <line class="cls-1" x1="711" y1="298.4" x2="711" y2="341.78"/>
      <path d="M711,344.8c-.53-1.42-1.43-3.18-2.38-4.27l2.38.86,2.38-.86c-.95,1.09-1.85,2.85-2.38,4.27Z"/>
    </g>
    <line class="cls-1" x1="523.75" y1="469.57" x2="523.75" y2="442.82"/>
    <line class="cls-1" x1="506.25" y1="442.82" x2="523.75" y2="442.82"/>
    <g>
      <line class="cls-1" x1="506.25" y1="442.62" x2="506.25" y2="462.8"/>
      <path d="M506.25,465.82c-.53-1.42-1.43-3.18-2.38-4.27l2.38.86,2.38-.86c-.95,1.09-1.85,2.85-2.38,4.27Z"/>
    </g>
    <g>
      <line class="cls-1" x1="264" y1="491.07" x2="264" y2="446.33"/>
      <path d="M264,443.32c.53,1.42,1.43,3.18,2.38,4.27l-2.38-.86-2.38.86c.95-1.09,1.85-2.85,2.38-4.27Z"/>
    </g>
    <polyline class="cls-1" points="684 712.9 702 712.9 702 752.73"/>
    <line class="cls-1" x1="684" y1="500.9" x2="702" y2="500.9"/>
    <polyline class="cls-4" points="1064.97 522.23 1095 522.23 1095 572.32 1065.12 572.32"/>
    <line class="cls-5" x1="1095" y1="547.27" x2="1065.12" y2="547.27"/>
    <line class="cls-5" x1="244.33" y1="678.82" x2="244.33" y2="769.07"/>
    <polyline class="cls-1" points="244.2 700.68 302.86 700.45 303.14 768.95"/>
    <polyline class="cls-1" points="302.94 718.82 328.67 718.82 328.67 769.07"/>
    <line class="cls-5" x1="403.5" y1="678.82" x2="403.5" y2="769.07"/>
    <line class="cls-4" x1="385" y1="678.82" x2="375.5" y2="663.57"/>
    <line class="cls-4" x1="346" y1="678.82" x2="356.33" y2="663.57"/>
    <line class="cls-5" x1="328.67" y1="662.23" x2="348.17" y2="648.32"/>
    <line class="cls-5" x1="403.5" y1="662.23" x2="384" y2="648.32"/>
    <line class="cls-1" x1="328.67" y1="679.07" x2="346" y2="679.07"/>
    <line class="cls-1" x1="356.33" y1="663.57" x2="375.5" y2="663.57"/>
    <line class="cls-1" x1="351.17" y1="671.19" x2="380.25" y2="671.19"/>
    <line class="cls-1" x1="353.92" y1="667.12" x2="377.9" y2="667.12"/>
    <line class="cls-1" x1="348.72" y1="674.8" x2="382.5" y2="674.8"/>
    <line class="cls-1" x1="377.9" y1="667.12" x2="391.43" y2="653.6"/>
    <line class="cls-1" x1="380.25" y1="671.19" x2="395.1" y2="656.34"/>
    <line class="cls-1" x1="382.5" y1="674.8" x2="398.4" y2="658.89"/>
    <line class="cls-1" x1="353.92" y1="667.12" x2="340.54" y2="653.74"/>
    <line class="cls-1" x1="351.17" y1="671.19" x2="336.6" y2="656.62"/>
    <line class="cls-1" x1="348.72" y1="674.8" x2="333.21" y2="659.29"/>
    <line class="cls-1" x1="356.33" y1="663.57" x2="344.07" y2="651.31"/>
    <line class="cls-1" x1="375.5" y1="663.57" x2="387.95" y2="651.11"/>
    <line class="cls-1" x1="346" y1="678.82" x2="329.1" y2="661.91"/>
    <line class="cls-1" x1="385" y1="678.82" x2="402.43" y2="661.38"/>
    <g>
      <line class="cls-1" x1="350.11" y1="657.34" x2="338.88" y2="676.22"/>
      <path d="M337.33,678.82c.27-1.49.4-3.46.14-4.89l1.6,1.95,2.48.48c-1.38.45-3.05,1.51-4.23,2.46Z"/>
    </g>
    <g>
      <line class="cls-1" x1="381.63" y1="657.44" x2="392.72" y2="676.22"/>
      <path d="M394.25,678.82c-1.18-.95-2.85-2.02-4.22-2.47l2.48-.47,1.61-1.95c-.26,1.42-.14,3.4.13,4.89Z"/>
    </g>
    <g>
      <line class="cls-1" x1="365.61" y1="680.82" x2="366.02" y2="660.36"/>
      <path d="M366.08,657.34c.5,1.43,1.36,3.21,2.29,4.32l-2.36-.91-2.39.81c.97-1.07,1.91-2.82,2.46-4.22Z"/>
    </g>
    <polyline class="cls-1" points="182.75 678.53 182.75 648.32 236.83 648.32 236.83 660.94 197.4 660.94 197.4 678.53"/>
    <line class="cls-1" x1="197.39" y1="661.23" x2="197.39" y2="648.61"/>
    <line class="cls-1" x1="216.83" y1="648.61" x2="216.83" y2="661.23"/>
    <line class="cls-1" x1="207.16" y1="648.32" x2="207.16" y2="660.95"/>
    <line class="cls-1" x1="227.39" y1="648.61" x2="227.39" y2="661.23"/>
    <line class="cls-1" x1="211.99" y1="648.47" x2="211.99" y2="661.09"/>
    <line class="cls-1" x1="202.32" y1="648.61" x2="202.32" y2="661.23"/>
    <line class="cls-1" x1="222.55" y1="648.47" x2="222.55" y2="661.09"/>
    <line class="cls-1" x1="232.03" y1="648.61" x2="232.03" y2="661.23"/>
    <g>
      <line class="cls-1" x1="236.83" y1="654.89" x2="192.14" y2="654.89"/>
      <path d="M189.13,654.89c1.42-.53,3.18-1.43,4.27-2.38l-.86,2.38.86,2.38c-1.09-.95-2.85-1.85-4.27-2.38Z"/>
    </g>
    <line class="cls-1" x1="536.96" y1="902.57" x2="536.96" y2="992.57"/>
    <polyline class="cls-1" points="428.25 992.57 428.25 953.23 443.67 953.23 443.67 992.57"/>
    <polyline class="cls-1" points="428.25 902.57 428.25 921.9 443.67 921.9 443.67 902.57"/>
    <polyline class="cls-1" points="482.6 992.57 482.6 953.23 498.02 953.23 498.02 992.57"/>
    <line class="cls-1" x1="490.31" y1="902.57" x2="490.31" y2="953.23"/>
    <line class="cls-1" x1="628" y1="902.57" x2="628" y2="992.57"/>
    <line class="cls-1" x1="711" y1="902.57" x2="711" y2="992.57"/>
    <line class="cls-1" x1="776.67" y1="902.57" x2="776.67" y2="992.57"/>
    <line class="cls-1" x1="711" y1="933.23" x2="776.67" y2="933.23"/>
    <polyline class="cls-1" points="807 992.57 807 970.06 853.33 970.07 853.33 992.57"/>
    <polyline class="cls-1" points="569.62 992.57 569.62 953.23 585.04 953.23 585.04 992.57"/>
    <path class="cls-3" d="M384.71,678.86s.22.15.33.2c.9,0,18.46,0,18.46,0"/>
    <line class="cls-3" x1="346.24" y1="678.93" x2="346.01" y2="679.07"/>
  </g>
  <g id="_構内道路" data-name="構内道路">
    <path class="cls-1" d="M1392,635.57h132.25v43.25"/>
    <path class="cls-1" d="M1392,602.44h132.25v-136.62"/>
    <line class="cls-1" x1="1356" y1="602.44" x2="1065.12" y2="602.44"/>
    <line class="cls-1" x1="1356" y1="635.57" x2="1064.97" y2="635.57"/>
    <line class="cls-1" x1="1005" y1="602.44" x2="720" y2="602.44"/>
    <line class="cls-1" x1="1005" y1="635.57" x2="720" y2="635.57"/>
    <polyline class="cls-1" points="683.75 602.44 568 602.44 568 555.82"/>
    <path class="cls-1" d="M683.75,635.57h-115.75v43.25"/>
    <circle class="cls-1" cx="1189.98" cy="534.13" r="26.87"/>
    <polyline class="cls-1" points="568 768.82 568 795.57 683.75 795.57"/>
    <polyline class="cls-1" points="683.75 832.57 568 832.57 568 869.57"/>
    <line class="cls-1" x1="720" y1="795.57" x2="1022" y2="795.57"/>
    <line class="cls-1" x1="720" y1="832.57" x2="1022" y2="832.57"/>
    <path class="cls-1" d="M1051.5,795.57h472.78v-26.75"/>
    <line class="cls-1" x1="1051.5" y1="832.57" x2="1524" y2="832.57"/>
    <line class="cls-1" x1="1524" y1="832.57" x2="1524" y2="869.81"/>
    <line class="cls-1" x1="1496.67" y1="869.81" x2="1524" y2="869.81"/>
  </g>
  <g id="_レイヤー_6" data-name="レイヤー_6">
    <text class="cls-14" transform="translate(611.99 313.79)"><tspan x="0" y="0">C15</tspan></text>
    <text class="cls-14" transform="translate(727.74 331.17)"><tspan x="0" y="0">C14</tspan></text>
    <text class="cls-14" transform="translate(767.99 331.04)"><tspan x="0" y="0">C13</tspan></text>
    <text class="cls-14" transform="translate(840.11 314.25)"><tspan x="0" y="0">C12</tspan></text>
    <text class="cls-14" transform="translate(942.36 313.96)"><tspan x="0" y="0">C11</tspan></text>
    <text class="cls-14" transform="translate(190.63 341.12)"><tspan x="0" y="0">G15</tspan></text>
    <text class="cls-14" transform="translate(276.92 341.37)"><tspan x="0" y="0">G14</tspan></text>
    <text class="cls-14" transform="translate(346.03 341.12)"><tspan x="0" y="0">G13</tspan></text>
    <text class="cls-14" transform="translate(415.88 341.12)"><tspan x="0" y="0">G12</tspan></text>
    <text class="cls-14" transform="translate(486.13 341.37)"><tspan x="0" y="0">G11</tspan></text>
    <text class="cls-14" transform="translate(207.11 517.54)"><tspan x="0" y="0">H14</tspan></text>
    <text class="cls-14" transform="translate(278.5 418.82)"><tspan x="0" y="0">H15</tspan></text>
    <text class="cls-14" transform="translate(324.5 419.32)"><tspan x="0" y="0">H16</tspan></text>
    <text class="cls-14" transform="translate(393.3 468.37)"><tspan x="0" y="0">H17</tspan></text>
    <text class="cls-14" transform="translate(470.19 468.04)"><tspan x="0" y="0">H18</tspan></text>
    <text class="cls-14" transform="translate(260.52 565.04)"><tspan x="0" y="0">H13</tspan></text>
    <text class="cls-14" transform="translate(338.61 564.87)"><tspan x="0" y="0">H12</tspan></text>
    <text class="cls-14" transform="translate(459.36 564.79)"><tspan x="0" y="0">H11</tspan></text>
    <text class="cls-14" transform="translate(203.81 728.75)"><tspan x="0" y="0">I13</tspan></text>
    <text class="cls-13" transform="translate(258.67 730.11)"><tspan class="cls-20"><tspan x="0" y="0">I12</tspan></tspan><tspan class="cls-26"><tspan x="-12.5" y="13.2">情報工学科</tspan></tspan><tspan class="cls-26"><tspan x="-1.5" y="26.4">研究室</tspan></tspan></text>
    <text class="cls-14" transform="translate(458.46 728.75)"><tspan x="0" y="0">I11</tspan></text>
    <text class="cls-14" transform="translate(385 952.87)"><tspan x="0" y="0">F1８</tspan></text>
    <text class="cls-14" transform="translate(502.19 952.87)"><tspan x="0" y="0">F16</tspan></text>
    <text class="cls-14" transform="translate(571.32 952.37)"><tspan x="0" y="0">F15</tspan></text>
    <text class="cls-14" transform="translate(453.83 952.87)"><tspan x="0" y="0">F17</tspan></text>
    <text class="cls-14" transform="translate(658.34 952.87)"><tspan x="0" y="0">F14</tspan></text>
    <text class="cls-14" transform="translate(732.68 967.96)"><tspan x="0" y="0">F13</tspan></text>
    <text class="cls-14" transform="translate(888.18 952.37)"><tspan x="0" y="0">F11</tspan></text>
    <text class="cls-14" transform="translate(586.71 728.5)"><tspan x="0" y="0">E17</tspan></text>
    <text class="cls-14" transform="translate(644.21 746.04)"><tspan x="0" y="0">E16</tspan></text>
    <text class="cls-13" transform="translate(740.98 734.48) scale(.94 1)"><tspan class="cls-15"><tspan x="0" y="0">E15</tspan></tspan><tspan class="cls-21"><tspan x="-20.5" y="15.6">機械工学科</tspan></tspan><tspan class="cls-26"><tspan x="-4.5" y="28.8">研究室</tspan></tspan></text>
    <text class="cls-14" transform="translate(792.02 746.47)"><tspan x="0" y="0">E14</tspan></text>
    <text class="cls-14" transform="translate(830.39 746.47)"><tspan x="0" y="0">E13</tspan></text>
    <text class="cls-14" transform="translate(880.64 746.47)"><tspan x="0" y="0">E12</tspan></text>
    <text class="cls-14" transform="translate(952.43 746.47)"><tspan x="0" y="0">E11</tspan></text>
    <text class="cls-14" transform="translate(604 515.75)"><tspan x="0" y="0">D18</tspan></text>
    <text class="cls-14" transform="translate(656 579.13)"><tspan x="0" y="0">D17</tspan></text>
    <text class="cls-14" transform="translate(724 579.13)"><tspan x="0" y="0">D16</tspan></text>
    <text class="cls-14" transform="translate(758.62 515.62)"><tspan x="0" y="0">D15</tspan></text>
    <text class="cls-14" transform="translate(810.25 515.75)"><tspan x="0" y="0">D14</tspan></text>
    <text class="cls-14" transform="translate(852.73 516.12)"><tspan x="0" y="0">D13</tspan></text>
    <text class="cls-14" transform="translate(904.14 533.04)"><tspan x="0" y="0">D12</tspan></text>
    <text class="cls-13" transform="translate(963.72 528.11)"><tspan class="cls-15"><tspan x="0" y="0">D11</tspan></tspan><tspan class="cls-28"><tspan x="-16" y="16.8">生徒会室</tspan></tspan></text>
    <text class="cls-13" transform="translate(1168.13 435.45)"><tspan class="cls-15"><tspan x="0" y="0">A16</tspan></tspan><tspan class="cls-29"><tspan x="-13.5" y="20.4">応接室</tspan></tspan></text>
    <text class="cls-14" transform="translate(987.62 313.6)"><tspan x="0" y="0">準</tspan><tspan x="0" y="16.8">備</tspan><tspan x="0" y="33.6">室</tspan></text>
    <text class="cls-14" transform="translate(884.83 313.6)"><tspan x="0" y="0">準</tspan><tspan x="0" y="16.8">備</tspan><tspan x="0" y="33.6">室</tspan></text>
    <text class="cls-14" transform="translate(233.83 301.57)"><tspan x="0" y="0">準</tspan><tspan x="0" y="16.8">備</tspan><tspan x="0" y="33.6">室</tspan></text>
    <text class="cls-14" transform="translate(667 314.25)"><tspan x="0" y="0">準</tspan><tspan x="0" y="16.8">備</tspan><tspan x="0" y="33.6">室</tspan></text>
    <text class="cls-14" transform="translate(1131 486.9)"><tspan x="0" y="0">A17</tspan></text>
    <text class="cls-13" transform="translate(1206 486.6)"><tspan class="cls-15"><tspan x="0" y="0">A15</tspan></tspan><tspan class="cls-28"><tspan x="-9" y="16.8">校長室</tspan></tspan></text>
    <text class="cls-14" transform="translate(1235 434.89)"><tspan x="0" y="0">倉</tspan><tspan x="0" y="16.8">庫</tspan></text>
    <text class="cls-13" transform="translate(1413 435.45)"><tspan class="cls-15"><tspan x="0" y="0">A13</tspan></tspan><tspan class="cls-29"><tspan x="-13.5" y="20.4">保健室</tspan></tspan></text>
    <text class="cls-14" transform="translate(1438 484.23)"><tspan x="0" y="0">A12</tspan></text>
    <text class="cls-14" transform="translate(1499.23 444.81)"><tspan x="0" y="0">A11</tspan></text>
    <text class="cls-13" transform="translate(1149.34 734.29) scale(.92 1)"><tspan class="cls-28"><tspan x="0" y="0">B16</tspan></tspan><tspan class="cls-28"><tspan x="-14" y="16.8">建築1年</tspan></tspan><tspan class="cls-30"><tspan x="4.5" y="31.2">HR</tspan></tspan></text>
    <g>
      <path class="cls-34" d="M1077.49,527.2c-.39.12-.72.39-.91.74-.19.35-.21.8-.07,1.17.18.46.58.8,1.09.93.15.04.43.05.6.03.42-.06.82-.3,1.06-.64.26-.36.33-.85.19-1.26-.11-.33-.34-.61-.63-.8-.15-.09-.21-.12-.37-.17q-.13-.04-.49-.04c-.35,0-.36,0-.48.04Z"/>
      <path class="cls-34" d="M1077.78,530.58c-.55.07-1.02.46-1.18.98l-.03.11v5.34l.04.12c.17.52.6.87,1.15.96.13.02.37.01.48-.01.05-.01.08-.01.1,0,.02.01.71.02,2.63.02h2.59s1.29,2.12,1.29,2.12c.71,1.16,1.29,2.12,1.3,2.12,0,0,.12-.05.26-.13s.27-.14.3-.15.49-.26,1.03-.56c1.05-.58,1.08-.6,1.17-.75.14-.25.1-.54-.1-.75-.14-.14-.29-.2-.49-.2-.18,0-.25.03-.79.33-.27.15-.49.27-.5.26,0,0-.5-.82-1.11-1.82-.6-1-1.1-1.82-1.11-1.82,0,0-.02,0-.03,0-.03.03-.04.02-.04-.02,0-.06-.05-.22-.11-.32-.07-.13-.25-.3-.39-.37-.05-.03-.15-.07-.22-.09l-.12-.03h-2.26s-2.26,0-2.26,0v-1.11h1.75s1.75,0,1.75,0l.09-.03s.12-.06.17-.09c.32-.24.3-.7-.03-.92-.16-.1-.03-.1-1.98-.1h-1.74v-.98c-.01-.97-.01-.98-.04-1.09-.14-.48-.53-.84-1.02-.96-.15-.04-.38-.05-.53-.03Z"/>
      <path class="cls-34" d="M1075.61,534.16c-.41.24-.77.52-1.13.87-.47.46-.82.93-1.11,1.51-.56,1.11-.72,2.36-.47,3.58.19.88.59,1.71,1.2,2.43.3.35.81.81,1.21,1.08.46.31,1,.57,1.56.75.38.12.86.22,1.3.27.26.03,1,.02,1.26,0,.45-.05.81-.13,1.23-.26,1.34-.42,2.48-1.3,3.22-2.46.15-.23.35-.62.45-.86l.07-.18-.43-.71c-.24-.39-.43-.71-.44-.71s-.02.08-.03.18c-.1.66-.36,1.3-.76,1.88-.53.76-1.32,1.36-2.21,1.7-.58.22-1.14.32-1.79.32-1.28,0-2.46-.47-3.37-1.33-.81-.77-1.29-1.75-1.39-2.86-.02-.22,0-.73.02-.94.16-1.12.73-2.13,1.59-2.84l.18-.14v-.68c0-.37,0-.67-.01-.67s-.08.04-.15.08Z"/>
    </g>
    <g>
      <path class="cls-17" d="M1079.92,550.68c-.49.08-.87.37-1.08.84-.14.31-.17.7-.09,1.04.04.16.14.37.24.51.28.4.77.63,1.23.57.58-.07,1.04-.49,1.2-1.11.02-.09.03-.15.03-.37,0-.25,0-.27-.04-.39-.02-.07-.06-.18-.08-.23-.22-.5-.69-.83-1.2-.85-.09,0-.18,0-.2,0Z"/>
      <path class="cls-17" d="M1078.88,554.03c-.38.05-.74.25-1.03.57-.25.27-.37.52-.51,1-.43,1.53-.48,1.71-.87,3.1-.08.29-.18.64-.22.78-.08.28-.1.42-.07.56.05.3.28.51.56.51.22,0,.41-.13.52-.36.03-.05.25-.83.58-2.04.3-1.07.54-1.97.54-1.99v-.04h.3l-.19.7c-.1.39-.32,1.17-.47,1.75s-.36,1.33-.45,1.68c-.5,1.86-.75,2.82-.75,2.84,0,.01.24.02.87.02h.87v2.6c0,2.82,0,2.69.07,2.85.1.21.3.34.53.36.33.02.62-.2.68-.53.01-.05.01-.84.01-2.69v-2.62h.38v2.63c0,2.28,0,2.64.02,2.71.05.23.19.39.4.47.11.04.35.04.46,0,.22-.09.35-.25.4-.49.01-.08.02-.51.02-2.69v-2.59h.86c.48,0,.87,0,.87,0s-.05-.23-.13-.51c-.07-.28-.22-.82-.32-1.2-.1-.38-.24-.89-.3-1.13s-.2-.73-.29-1.08-.23-.84-.29-1.08-.2-.75-.3-1.13c-.1-.38-.2-.73-.21-.77l-.02-.07h.16c.09,0,.16,0,.16,0s.03.1.06.22c.03.12.13.48.23.82s.26.95.38,1.38c.4,1.45.44,1.58.48,1.67.12.24.36.38.58.34.3-.06.49-.31.49-.65,0-.17.06.07-.56-2.12-.16-.57-.36-1.27-.44-1.56-.28-1-.28-1.01-.43-1.25-.24-.4-.59-.7-.98-.85-.25-.09-.19-.09-1.43-.09-.62,0-1.17,0-1.22,0Z"/>
    </g>
    <g>
      <g>
        <path class="cls-33" d="M1075.48,429.01c-.38.07-.71.31-.92.66-.17.29-.25.61-.22.97.04.55.39,1.06.86,1.26.19.08.28.1.51.1.22,0,.27,0,.44-.07.34-.12.67-.44.82-.8.16-.39.17-.83.02-1.22-.1-.25-.3-.52-.49-.66-.3-.22-.68-.31-1.01-.24Z"/>
        <path class="cls-33" d="M1074.04,432.36s-.06.01-.12.02c-.14.02-.35.1-.48.18-.5.28-.85.8-.94,1.42-.02.14-.02.28-.02,2.63v2.48l.03.1c.09.32.41.51.71.43.21-.05.35-.18.43-.4l.03-.09v-2.21s0-2.21,0-2.21h.29v5.92s0,5.92,0,5.92l.03.09c.08.24.2.4.38.5.25.13.51.13.76,0,.2-.1.35-.31.41-.56.01-.06.02-.76.02-3.52v-3.45h.28v3.43c0,2.96,0,3.45.02,3.53.08.42.44.7.85.67.34-.03.6-.24.7-.57l.04-.11v-5.92s0-5.92,0-5.92h.14s.14,0,.14,0v2.22c.01,1.57.02,2.23.03,2.26.1.29.3.45.58.45.3,0,.54-.23.58-.56.01-.08.01-.77.01-2.52,0-2.26,0-2.42-.03-2.54-.07-.42-.24-.77-.5-1.06-.24-.28-.51-.45-.87-.54l-.14-.04h-1.68c-.92,0-1.69,0-1.7,0Z"/>
      </g>
      <g>
        <path class="cls-17" d="M1083.31,428.99c-.49.08-.87.37-1.08.84-.14.31-.17.7-.09,1.04.04.16.14.37.24.51.28.4.77.63,1.23.57.58-.07,1.04-.49,1.2-1.11.02-.09.03-.15.03-.37,0-.25,0-.27-.04-.39-.02-.07-.06-.18-.08-.23-.22-.5-.69-.83-1.2-.85-.09,0-.18,0-.2,0Z"/>
        <path class="cls-17" d="M1082.28,432.35c-.38.05-.74.25-1.03.57-.25.27-.37.52-.51,1-.43,1.53-.48,1.71-.87,3.1-.08.29-.18.64-.22.78-.08.28-.1.42-.07.56.05.3.28.51.56.51.22,0,.41-.13.52-.36.03-.05.25-.83.58-2.04.3-1.07.54-1.97.54-1.99v-.04h.3l-.19.7c-.1.39-.32,1.17-.47,1.75s-.36,1.33-.45,1.68c-.5,1.86-.75,2.82-.75,2.84,0,.01.24.02.87.02h.87v2.6c0,2.82,0,2.69.07,2.85.1.21.3.34.53.36.33.02.62-.2.68-.53.01-.05.01-.84.01-2.69v-2.62h.38v2.63c0,2.28,0,2.64.02,2.71.05.23.19.39.4.47.11.04.35.04.46,0,.22-.09.35-.25.4-.49.01-.08.02-.51.02-2.69v-2.59h.86c.48,0,.87,0,.87,0s-.05-.23-.13-.51c-.07-.28-.22-.82-.32-1.2-.1-.38-.24-.89-.3-1.13s-.2-.73-.29-1.08-.23-.84-.29-1.08-.2-.75-.3-1.13c-.1-.38-.2-.73-.21-.77l-.02-.07h.16c.09,0,.16,0,.16,0s.03.1.06.22c.03.12.13.48.23.82s.26.95.38,1.38c.4,1.45.44,1.58.48,1.67.12.24.36.38.58.34.3-.06.49-.31.49-.65,0-.17.06.07-.56-2.12-.16-.57-.36-1.27-.44-1.56-.28-1-.28-1.01-.43-1.25-.24-.4-.59-.7-.98-.85-.25-.09-.19-.09-1.43-.09-.62,0-1.17,0-1.22,0Z"/>
      </g>
    </g>
    <g>
      <g>
        <path class="cls-33" d="M311.64,734.34c-.38.07-.71.31-.92.66-.17.29-.25.61-.22.97.04.55.39,1.06.86,1.26.19.08.28.1.51.1.22,0,.27,0,.44-.07.34-.12.67-.44.82-.8.16-.39.17-.83.02-1.22-.1-.25-.3-.52-.49-.66-.3-.22-.68-.31-1.01-.24Z"/>
        <path class="cls-33" d="M310.2,737.69s-.06.01-.12.02c-.14.02-.35.1-.48.18-.5.28-.85.8-.94,1.42-.02.14-.02.28-.02,2.63v2.48l.03.1c.09.32.41.51.71.43.21-.05.35-.18.43-.4l.03-.09v-2.21s0-2.21,0-2.21h.29v5.92s0,5.92,0,5.92l.03.09c.08.24.2.4.38.5.25.13.51.13.76,0,.2-.1.35-.31.41-.56.01-.06.02-.76.02-3.52v-3.45h.28v3.43c0,2.96,0,3.45.02,3.53.08.42.44.7.85.67.34-.03.6-.24.7-.57l.04-.11v-5.92s0-5.92,0-5.92h.14s.14,0,.14,0v2.22c.01,1.57.02,2.23.03,2.26.1.29.3.45.58.45.3,0,.54-.23.58-.56.01-.08.01-.77.01-2.52,0-2.26,0-2.42-.03-2.54-.07-.42-.24-.77-.5-1.06-.24-.28-.51-.45-.87-.54l-.14-.04h-1.68c-.92,0-1.69,0-1.7,0Z"/>
      </g>
      <g>
        <path class="cls-17" d="M319.47,734.32c-.49.08-.87.37-1.08.84-.14.31-.17.7-.09,1.04.04.16.14.37.24.51.28.4.77.63,1.23.57.58-.07,1.04-.49,1.2-1.11.02-.09.03-.15.03-.37,0-.25,0-.27-.04-.39-.02-.07-.06-.18-.08-.23-.22-.5-.69-.83-1.2-.85-.09,0-.18,0-.2,0Z"/>
        <path class="cls-17" d="M318.44,737.68c-.38.05-.74.25-1.03.57-.25.27-.37.52-.51,1-.43,1.53-.48,1.71-.87,3.1-.08.29-.18.64-.22.78-.08.28-.1.42-.07.56.05.3.28.51.56.51.22,0,.41-.13.52-.36.03-.05.25-.83.58-2.04.3-1.07.54-1.97.54-1.99v-.04h.3l-.19.7c-.1.39-.32,1.17-.47,1.75s-.36,1.33-.45,1.68c-.5,1.86-.75,2.82-.75,2.84,0,.01.24.02.87.02h.87v2.6c0,2.82,0,2.69.07,2.85.1.21.3.34.53.36.33.02.62-.2.68-.53.01-.05.01-.84.01-2.69v-2.62h.38v2.63c0,2.28,0,2.64.02,2.71.05.23.19.39.4.47.11.04.35.04.46,0,.22-.09.35-.25.4-.49.01-.08.02-.51.02-2.69v-2.59h.86c.48,0,.87,0,.87,0s-.05-.23-.13-.51c-.07-.28-.22-.82-.32-1.2-.1-.38-.24-.89-.3-1.13s-.2-.73-.29-1.08-.23-.84-.29-1.08-.2-.75-.3-1.13c-.1-.38-.2-.73-.21-.77l-.02-.07h.16c.09,0,.16,0,.16,0s.03.1.06.22c.03.12.13.48.23.82s.26.95.38,1.38c.4,1.45.44,1.58.48,1.67.12.24.36.38.58.34.3-.06.49-.31.49-.65,0-.17.06.07-.56-2.12-.16-.57-.36-1.27-.44-1.56-.28-1-.28-1.01-.43-1.25-.24-.4-.59-.7-.98-.85-.25-.09-.19-.09-1.43-.09-.62,0-1.17,0-1.22,0Z"/>
      </g>
    </g>
    <g>
      <g>
        <path class="cls-33" d="M1075.48,731.13c-.38.07-.71.31-.92.66-.17.29-.25.61-.22.97.04.55.39,1.06.86,1.26.19.08.28.1.51.1.22,0,.27,0,.44-.07.34-.12.67-.44.82-.8.16-.39.17-.83.02-1.22-.1-.25-.3-.52-.49-.66-.3-.22-.68-.31-1.01-.24Z"/>
        <path class="cls-33" d="M1074.04,734.48s-.06.01-.12.02c-.14.02-.35.1-.48.18-.5.28-.85.8-.94,1.42-.02.14-.02.28-.02,2.63v2.48l.03.1c.09.32.41.51.71.43.21-.05.35-.18.43-.4l.03-.09v-2.21s0-2.21,0-2.21h.29v5.92s0,5.92,0,5.92l.03.09c.08.24.2.4.38.5.25.13.51.13.76,0,.2-.1.35-.31.41-.56.01-.06.02-.76.02-3.52v-3.45h.28v3.43c0,2.96,0,3.45.02,3.53.08.42.44.7.85.67.34-.03.6-.24.7-.57l.04-.11v-5.92s0-5.92,0-5.92h.14s.14,0,.14,0v2.22c.01,1.57.02,2.23.03,2.26.1.29.3.45.58.45.3,0,.54-.23.58-.56.01-.08.01-.77.01-2.52,0-2.26,0-2.42-.03-2.54-.07-.42-.24-.77-.5-1.06-.24-.28-.51-.45-.87-.54l-.14-.04h-1.68c-.92,0-1.69,0-1.7,0Z"/>
      </g>
      <g>
        <path class="cls-17" d="M1083.31,731.11c-.49.08-.87.37-1.08.84-.14.31-.17.7-.09,1.04.04.16.14.37.24.51.28.4.77.63,1.23.57.58-.07,1.04-.49,1.2-1.11.02-.09.03-.15.03-.37,0-.25,0-.27-.04-.39-.02-.07-.06-.18-.08-.23-.22-.5-.69-.83-1.2-.85-.09,0-.18,0-.2,0Z"/>
        <path class="cls-17" d="M1082.28,734.47c-.38.05-.74.25-1.03.57-.25.27-.37.52-.51,1-.43,1.53-.48,1.71-.87,3.1-.08.29-.18.64-.22.78-.08.28-.1.42-.07.56.05.3.28.51.56.51.22,0,.41-.13.52-.36.03-.05.25-.83.58-2.04.3-1.07.54-1.97.54-1.99v-.04h.3l-.19.7c-.1.39-.32,1.17-.47,1.75s-.36,1.33-.45,1.68c-.5,1.86-.75,2.82-.75,2.84,0,.01.24.02.87.02h.87v2.6c0,2.82,0,2.69.07,2.85.1.21.3.34.53.36.33.02.62-.2.68-.53.01-.05.01-.84.01-2.69v-2.62h.38v2.63c0,2.28,0,2.64.02,2.71.05.23.19.39.4.47.11.04.35.04.46,0,.22-.09.35-.25.4-.49.01-.08.02-.51.02-2.69v-2.59h.86c.48,0,.87,0,.87,0s-.05-.23-.13-.51c-.07-.28-.22-.82-.32-1.2-.1-.38-.24-.89-.3-1.13s-.2-.73-.29-1.08-.23-.84-.29-1.08-.2-.75-.3-1.13c-.1-.38-.2-.73-.21-.77l-.02-.07h.16c.09,0,.16,0,.16,0s.03.1.06.22c.03.12.13.48.23.82s.26.95.38,1.38c.4,1.45.44,1.58.48,1.67.12.24.36.38.58.34.3-.06.49-.31.49-.65,0-.17.06.07-.56-2.12-.16-.57-.36-1.27-.44-1.56-.28-1-.28-1.01-.43-1.25-.24-.4-.59-.7-.98-.85-.25-.09-.19-.09-1.43-.09-.62,0-1.17,0-1.22,0Z"/>
      </g>
    </g>
    <g>
      <g>
        <path class="cls-33" d="M1628.26,682.47c-.38.07-.71.31-.92.66-.17.29-.25.61-.22.97.04.55.39,1.06.86,1.26.19.08.28.1.51.1.22,0,.27,0,.44-.07.34-.12.67-.44.82-.8.16-.39.17-.83.02-1.22-.1-.25-.3-.52-.49-.66-.3-.22-.68-.31-1.01-.24Z"/>
        <path class="cls-33" d="M1626.82,685.82s-.06.01-.12.02c-.14.02-.35.1-.48.18-.5.28-.85.8-.94,1.42-.02.14-.02.28-.02,2.63v2.48l.03.1c.09.32.41.51.71.43.21-.05.35-.18.43-.4l.03-.09v-2.21s0-2.21,0-2.21h.29v5.92s0,5.92,0,5.92l.03.09c.08.24.2.4.38.5.25.13.51.13.76,0,.2-.1.35-.31.41-.56.01-.06.02-.76.02-3.52v-3.45h.28v3.43c0,2.96,0,3.45.02,3.53.08.42.44.7.85.67.34-.03.6-.24.7-.57l.04-.11v-5.92s0-5.92,0-5.92h.14s.14,0,.14,0v2.22c.01,1.57.02,2.23.03,2.26.1.29.3.45.58.45.3,0,.54-.23.58-.56.01-.08.01-.77.01-2.52,0-2.26,0-2.42-.03-2.54-.07-.42-.24-.77-.5-1.06-.24-.28-.51-.45-.87-.54l-.14-.04h-1.68c-.92,0-1.69,0-1.7,0Z"/>
      </g>
      <g>
        <path class="cls-17" d="M1636.09,682.45c-.49.08-.87.37-1.08.84-.14.31-.17.7-.09,1.04.04.16.14.37.24.51.28.4.77.63,1.23.57.58-.07,1.04-.49,1.2-1.11.02-.09.03-.15.03-.37,0-.25,0-.27-.04-.39-.02-.07-.06-.18-.08-.23-.22-.5-.69-.83-1.2-.85-.09,0-.18,0-.2,0Z"/>
        <path class="cls-17" d="M1635.06,685.81c-.38.05-.74.25-1.03.57-.25.27-.37.52-.51,1-.43,1.53-.48,1.71-.87,3.1-.08.29-.18.64-.22.78-.08.28-.1.42-.07.56.05.3.28.51.56.51.22,0,.41-.13.52-.36.03-.05.25-.83.58-2.04.3-1.07.54-1.97.54-1.99v-.04h.3l-.19.7c-.1.39-.32,1.17-.47,1.75s-.36,1.33-.45,1.68c-.5,1.86-.75,2.82-.75,2.84,0,.01.24.02.87.02h.87v2.6c0,2.82,0,2.69.07,2.85.1.21.3.34.53.36.33.02.62-.2.68-.53.01-.05.01-.84.01-2.69v-2.62h.38v2.63c0,2.28,0,2.64.02,2.71.05.23.19.39.4.47.11.04.35.04.46,0,.22-.09.35-.25.4-.49.01-.08.02-.51.02-2.69v-2.59h.86c.48,0,.87,0,.87,0s-.05-.23-.13-.51c-.07-.28-.22-.82-.32-1.2-.1-.38-.24-.89-.3-1.13s-.2-.73-.29-1.08-.23-.84-.29-1.08-.2-.75-.3-1.13c-.1-.38-.2-.73-.21-.77l-.02-.07h.16c.09,0,.16,0,.16,0s.03.1.06.22c.03.12.13.48.23.82s.26.95.38,1.38c.4,1.45.44,1.58.48,1.67.12.24.36.38.58.34.3-.06.49-.31.49-.65,0-.17.06.07-.56-2.12-.16-.57-.36-1.27-.44-1.56-.28-1-.28-1.01-.43-1.25-.24-.4-.59-.7-.98-.85-.25-.09-.19-.09-1.43-.09-.62,0-1.17,0-1.22,0Z"/>
      </g>
    </g>
    <text class="cls-14" transform="translate(1063.02 308.2) scale(.98 1)"><tspan x="0" y="0">昇</tspan><tspan x="0" y="16.8">降</tspan><tspan x="0" y="33.6">口</tspan></text>
    <text class="cls-12" transform="translate(1678.21 306.6) scale(.98 1)"><tspan x="0" y="0">大体育館</tspan></text>
    <text class="cls-11" transform="translate(1795.19 438.07) scale(.98 1)"><tspan x="0" y="0">保健体育科研究室</tspan></text>
    <text class="cls-9" transform="translate(1770.29 512.63) scale(.98 1)"><tspan x="0" y="0">プール</tspan></text>
    <text class="cls-14" transform="translate(1758.14 684.67) scale(.98 1)"><tspan x="0" y="0">更衣室</tspan></text>
    <text class="cls-9" transform="translate(1627.09 606.13) scale(.98 1)"><tspan x="0" y="0">食堂</tspan></text>
    <text class="cls-12" transform="translate(1660.66 802.25) scale(.98 1)"><tspan x="0" y="0">格技室</tspan></text>
    <text class="cls-12" transform="translate(1790.16 802.25) scale(.98 1)"><tspan x="0" y="0">柔道場</tspan></text>
    <text class="cls-14" transform="translate(1664.29 952.56) scale(.98 1)"><tspan x="0" y="0">調理室</tspan></text>
    <text class="cls-12" transform="translate(1750.15 1198.34) scale(.98 1)"><tspan x="0" y="0">小体育館</tspan></text>
    <text class="cls-14" transform="translate(1669.38 631.98) scale(.98 1)"><tspan x="0" y="0">２F</tspan><tspan x="-17.5" y="16.8">同窓会館</tspan></text>
    <text class="cls-14" transform="translate(1833.22 658.88) scale(.98 1)"><tspan x="0" y="0">倉庫</tspan></text>
    <text class="cls-14" transform="translate(420.79 268.48) scale(.98 1)"><tspan x="0" y="0">養生室</tspan></text>
    <text class="cls-14" transform="translate(639.53 415.57) scale(.98 1)"><tspan x="0" y="0">危険</tspan><tspan x="-7" y="16.8">薬品庫</tspan></text>
    <text class="cls-14" transform="translate(162.42 884.77) scale(.98 1)"><tspan x="0" y="0">合宿所</tspan></text>
    <text class="cls-14" transform="translate(151.98 964.09) scale(.98 1)"><tspan x="0" y="0">クラブ</tspan><tspan x="0" y="16.8">練習室</tspan></text>
    <text class="cls-14" transform="translate(742.84 214.43) scale(.98 1)"><tspan x="0" y="0">自転車置き場</tspan></text>
    <text class="cls-14" transform="translate(442.42 1015.57) scale(.98 1)"><tspan x="0" y="0">準備室</tspan></text>
    <text class="cls-14" transform="translate(543.92 1015.57) scale(.98 1)"><tspan x="0" y="0">工具室</tspan></text>
    <line class="cls-6" x1="490.67" y1="987.57" x2="484.33" y2="1000.9"/>
    <line class="cls-6" x1="436" y1="986.9" x2="442" y2="1001.57"/>
    <line class="cls-6" x1="732.68" y1="547.3" x2="735.5" y2="564.79"/>
    <line class="cls-6" x1="673.88" y1="547.3" x2="669.5" y2="564.79"/>
    <line class="cls-1" x1="1142.62" y1="456.59" x2="1142.62" y2="471.25"/>
    <line class="cls-1" x1="1218" y1="455.94" x2="1218" y2="471.9"/>
    <text class="cls-14" transform="translate(819.72 986.37) scale(.98 1)"><tspan x="0" y="0">F12</tspan></text>
    <line class="cls-1" x1="1466.5" y1="459.07" x2="1458" y2="471.9"/>
    <text class="cls-14" transform="translate(1212.95 936.23) scale(.98 1)"><tspan x="0" y="0">部室</tspan></text>
    <line class="cls-1" x1="293.25" y1="423.44" x2="303.25" y2="444.19"/>
    <line class="cls-1" x1="332.75" y1="422.69" x2="330.25" y2="443.94"/>
    <line class="cls-1" x1="445.12" y1="274.44" x2="442.99" y2="292.63"/>
    <text class="cls-8" transform="translate(788.63 1268.53) scale(.98 1)"><tspan x="0" y="0">グラウンド</tspan></text>
    <text class="cls-12" transform="translate(734.05 895.51) scale(.98 1)"><tspan x="0" y="0">機械実習棟(F棟)</tspan></text>
    <text class="cls-12" transform="translate(119.04 798.7) scale(.98 1)"><tspan x="0" y="0">情報工学科棟(I棟)</tspan></text>
    <text class="cls-12" transform="translate(154.32 617.32) scale(.98 1)"><tspan x="0" y="0">建築棟(H棟)</tspan></text>
    <text class="cls-12" transform="translate(753.78 673.88) scale(.98 1)"><tspan x="0" y="0">機械・電気科棟(E棟)</tspan></text>
    <text class="cls-12" transform="translate(773.12 457.6) scale(.98 1)"><tspan x="0" y="0">化学棟(D棟)</tspan></text>
    <text class="cls-12" transform="translate(736.04 379.1) scale(.98 1)"><tspan x="0" y="0">土木・建築棟(C棟)</tspan></text>
    <text class="cls-12" transform="translate(1153.32 368.16) scale(.98 1)"><tspan x="0" y="0">管理棟(A棟)</tspan></text>
    <text class="cls-12" transform="translate(1106.28 673.88) scale(.98 1)"><tspan x="0" y="0">ホームルーム棟(B棟)</tspan></text>
    <text class="cls-12" transform="translate(23.93 413.5) scale(.98 1)"><tspan x="0" y="0">土木・建築実習棟(G棟)</tspan></text>
    <text class="cls-10" transform="translate(1324.88 222.35) scale(.98 1)"><tspan x="0" y="0">車廻</tspan></text>
    <text class="cls-13" transform="translate(1273 435.45)"><tspan class="cls-15"><tspan x="0" y="0">A14</tspan></tspan><tspan class="cls-29"><tspan x="-13.5" y="20.4">事務室</tspan></tspan></text>
    <text class="cls-13" transform="translate(1205.63 734.29) scale(.92 1)"><tspan class="cls-28"><tspan x="0" y="0">B16</tspan></tspan><tspan class="cls-28"><tspan x="-14" y="16.8">土木1年</tspan></tspan><tspan class="cls-30"><tspan x="4.5" y="31.2">HR</tspan></tspan></text>
    <text class="cls-13" transform="translate(1261.92 734.29) scale(.92 1)"><tspan class="cls-28"><tspan x="0" y="0">B16</tspan></tspan><tspan class="cls-28"><tspan x="-14" y="16.8">情報1年</tspan></tspan><tspan class="cls-30"><tspan x="4.5" y="31.2">HR</tspan></tspan></text>
    <text class="cls-13" transform="translate(1318.21 734.29) scale(.92 1)"><tspan class="cls-28"><tspan x="0" y="0">B16</tspan></tspan><tspan class="cls-28"><tspan x="-14" y="16.8">物質1年</tspan></tspan><tspan class="cls-30"><tspan x="4.5" y="31.2">HR</tspan></tspan></text>
    <text class="cls-13" transform="translate(1415.35 734.29) scale(.92 1)"><tspan class="cls-28"><tspan x="0" y="0">B16</tspan></tspan><tspan class="cls-28"><tspan x="-14" y="16.8">電気1年</tspan></tspan><tspan class="cls-30"><tspan x="4.5" y="31.2">HR</tspan></tspan></text>
    <text class="cls-13" transform="translate(1481.35 734.29) scale(.92 1)"><tspan class="cls-28"><tspan x="0" y="0">B16</tspan></tspan><tspan class="cls-28"><tspan x="-14" y="16.8">機械1年</tspan></tspan><tspan class="cls-30"><tspan x="4.5" y="31.2">HR</tspan></tspan></text>
    <text/>
    <text class="cls-7" transform="translate(1597.37 1006.59)"><tspan x="0" y="0">家庭科</tspan><tspan x="0" y="19.2">研究室</tspan></text>
    <line class="cls-1" x1="1621.37" y1="975.93" x2="1621.37" y2="991.89"/>
    <text class="cls-12" transform="translate(1628.75 905.45) scale(.98 1)"><tspan x="0" y="0">家庭科棟</tspan></text>
    <text class="cls-14" transform="translate(1327.5 368.16)"><tspan x="0" y="0">来客入口</tspan></text>
    <line class="cls-1" x1="1870.61" y1="410.58" x2="1862.11" y2="423.41"/>
  </g>
</svg>