<?xml version="1.0" encoding="UTF-8"?>
<svg xmlns="http://www.w3.org/2000/svg" viewBox="0 0 2459.17 1691.43">
  <defs>
    <style>
      .cls-1, .cls-2, .cls-3, .cls-4, .cls-5, .cls-6, .cls-7, .cls-8, .cls-9, .cls-10 {
        stroke-miterlimit: 10;
      }

      .cls-1, .cls-2, .cls-3, .cls-4, .cls-5, .cls-7, .cls-8, .cls-9 {
        stroke: #000;
      }

      .cls-1, .cls-2, .cls-3, .cls-4, .cls-7, .cls-9, .cls-10 {
        fill: none;
      }

      .cls-1, .cls-3, .cls-8, .cls-10 {
        stroke-width: .5px;
      }

      .cls-11 {
        font-size: 9px;
      }

      .cls-3 {
        stroke-linecap: round;
      }

      .cls-4 {
        stroke-width: .75px;
      }

      .cls-12, .cls-13, .cls-14, .cls-15, .cls-16, .cls-17, .cls-18, .cls-19, .cls-20, .cls-21, .cls-22, .cls-23, .cls-24, .cls-25, .cls-26, .cls-27, .cls-28, .cls-29, .cls-30, .cls-31, .cls-32 {
        font-family: UDDigiKyokashoN-R, 'UD Digi Kyokasho N-R';
      }

      .cls-12, .cls-33 {
        font-size: 16px;
      }

      .cls-13, .cls-34 {
        font-size: 21px;
      }

      .cls-14 {
        font-size: 7.1px;
      }

      .cls-14, .cls-17, .cls-19, .cls-20, .cls-22, .cls-23, .cls-24, .cls-29, .cls-32 {
        fill: #231815;
      }

      .cls-35, .cls-5, .cls-8 {
        fill: #fff;
      }

      .cls-15 {
        font-size: 48px;
      }

      .cls-6 {
        fill: #eff0a8;
      }

      .cls-6, .cls-10 {
        stroke: #231815;
      }

      .cls-36 {
        fill: #e73964;
      }

      .cls-37 {
        fill: #b9dba9;
      }

      .cls-38 {
        fill: #c3b7ab;
      }

      .cls-16, .cls-39 {
        font-size: 20px;
      }

      .cls-17 {
        font-size: 11.52px;
      }

      .cls-18 {
        font-size: 40px;
      }

      .cls-40 {
        font-size: 13px;
      }

      .cls-19 {
        font-size: 8.06px;
      }

      .cls-7 {
        stroke-width: 2px;
      }

      .cls-41 {
        fill: #f3a6b3;
      }

      .cls-20 {
        font-size: 14.54px;
      }

      .cls-21 {
        font-size: 19px;
      }

      .cls-42 {
        font-size: 18px;
      }

      .cls-22 {
        font-size: 11.7px;
      }

      .cls-43 {
        fill: #9adeff;
      }

      .cls-23 {
        font-size: 15.68px;
      }

      .cls-44 {
        fill: #f9d0bd;
      }

      .cls-24 {
        font-size: 10.55px;
      }

      .cls-45 {
        fill: #b2dee2;
      }

      .cls-46 {
        font-size: 11px;
      }

      .cls-47 {
        fill: #f5f4a9;
      }

      .cls-48, .cls-30 {
        font-size: 14px;
      }

      .cls-25, .cls-49 {
        font-size: 17px;
      }

      .cls-50, .cls-26 {
        font-size: 24px;
      }

      .cls-51, .cls-31 {
        font-size: 12px;
      }

      .cls-52 {
        fill: #b9dba9;
      }

      .cls-53 {
        fill: #c3b7ab;
      }

      .cls-54 {
        fill: #2668b2;
      }

      .cls-55 {
        fill: #42b035;
      }

      .cls-28 {
        font-size: 10px;
      }

      .cls-29 {
        font-size: 9.9px;
      }

      .cls-56 {
        fill: #b2dee2;
      }

      .cls-9 {
        stroke-width: 5px;
      }

      .cls-32 {
        font-size: 20.36px;
      }
    </style>
  </defs>
  <g id="_レイヤー_5" data-name="レイヤー_5">
    <rect class="cls-45" x="629" y="787.88" width="159.3" height="89.75"/>
    <rect class="cls-56" x="713.47" y="878.13" width="74.83" height="24"/>
    <rect class="cls-56" x="713.47" y="757.38" width="74.83" height="31.34"/>
    <rect class="cls-44" x="567.8" y="544.63" width="350" height="154"/>
    <rect class="cls-52" x="1125.55" y="574.63" width="59.75" height="90"/>
    <rect class="cls-52" x="1104.8" y="609.96" width="20.75" height="54.67"/>
    <rect class="cls-52" x="1048.05" y="609.96" width="20.5" height="54.67"/>
    <rect class="cls-37" x="952.8" y="574.88" width="95.25" height="89.75"/>
    <rect class="cls-41" x="748.8" y="1011.63" width="126.31" height="90"/>
    <rect class="cls-38" x="947.8" y="372.8" width="121" height="90"/>
    <rect class="cls-38" x="1104.8" y="407.46" width="38.5" height="55.42"/>
    <rect class="cls-38" x="1185.3" y="373.38" width="102.25" height="89.75"/>
    <rect class="cls-47" x="952.8" y="787.88" width="60" height="89.75"/>
    <rect class="cls-47" x="1012.8" y="821.96" width="55.67" height="55.67"/>
    <rect class="cls-47" x="1104.8" y="821.96" width="64.5" height="55.92"/>
    <polyline class="cls-53" points="620.67 393.63 639.8 393.63 639.8 496.63 535.47 496.63 535.47 393.63 620.67 393.63"/>
    <rect class="cls-38" x="1048.05" y="407.71" width="20.75" height="55.08"/>
    <rect class="cls-38" x="1143.3" y="407.21" width="42" height="55.67"/>
    <rect class="cls-38" x="1266.8" y="407.63" width="20.75" height="55"/>
    <rect class="cls-38" x="1369.05" y="407.21" width="20.88" height="55.42"/>
    <rect class="cls-53" x="639.8" y="394.13" width="67.58" height="102.5"/>
    <rect class="cls-53" x="707.39" y="393.63" width="70.21" height="103"/>
    <rect class="cls-53" x="777.3" y="393.63" width="70.5" height="103"/>
    <rect class="cls-53" x="847.8" y="394.13" width="70" height="102.5"/>
    <rect class="cls-53" x="614.47" y="393.13" width="25.33" height="34.25"/>
    <rect class="cls-53" x="812.7" y="394.13" width="35.1" height="16.5"/>
    <rect class="cls-44" x="567.8" y="544.96" width="72" height="153.17"/>
    <rect class="cls-44" x="675.8" y="544.96" width="26.5" height="55.17"/>
    <rect class="cls-44" x="702.3" y="544.96" width="25.5" height="55.17"/>
    <rect class="cls-44" x="728.52" y="544.63" width="122.95" height="55.5"/>
    <rect class="cls-44" x="851.47" y="544.96" width="30.83" height="54.17"/>
    <rect class="cls-44" x="639.14" y="639.46" width="36.17" height="59.17"/>
    <rect class="cls-44" x="675.8" y="639.63" width="119" height="58.5"/>
    <rect class="cls-44" x="794.8" y="639.46" width="122.5" height="58.67"/>
    <rect class="cls-45" x="567.8" y="787.88" width="61.2" height="89.75"/>
    <rect class="cls-45" x="629" y="809.51" width="58.94" height="67.62"/>
    <rect class="cls-45" x="688.27" y="827.88" width="25.2" height="49.25"/>
    <rect class="cls-45" x="788.3" y="787.88" width="129.5" height="89.75"/>
    <rect class="cls-52" x="1185.3" y="574.63" width="43.5" height="90.25"/>
    <rect class="cls-52" x="1228.3" y="575.63" width="44" height="89"/>
    <rect class="cls-47" x="1169.62" y="822.21" width="37" height="55.42"/>
    <rect class="cls-47" x="1206.62" y="821.88" width="39.75" height="55.75"/>
    <rect class="cls-47" x="1246.37" y="821.88" width="60.75" height="55.75"/>
    <rect class="cls-47" x="1307.12" y="821.96" width="82.81" height="55.92"/>
    <rect class="cls-41" x="875.3" y="1012.13" width="46.46" height="89.5"/>
    <rect class="cls-41" x="921.76" y="1011.13" width="91.04" height="90.5"/>
    <rect class="cls-41" x="1012.8" y="1012.13" width="83" height="89.5"/>
    <rect class="cls-41" x="1095.8" y="1012.13" width="65.67" height="29.83"/>
    <rect class="cls-41" x="1095.8" y="1042.3" width="65.67" height="59.33"/>
    <rect class="cls-41" x="1161.47" y="1011.13" width="245.33" height="90.5"/>
    <rect class="cls-41" x="1191.83" y="1079.13" width="45.97" height="22.5"/>
    <rect class="cls-41" x="813.05" y="1012.13" width="15.42" height="18.83"/>
    <rect class="cls-41" x="813.05" y="1062.3" width="15.5" height="38.83"/>
    <rect class="cls-41" x="867.05" y="1062.3" width="16" height="39.33"/>
    <rect class="cls-41" x="954.05" y="1062.3" width="15.75" height="39.33"/>
    <rect class="cls-35" x="1272.3" y="609.46" width="58.81" height="55.17"/>
    <rect class="cls-35" x="1331.12" y="609.46" width="58.81" height="55.42"/>
    <rect class="cls-35" x="1429.55" y="373.13" width="50.25" height="111.75"/>
    <rect class="cls-35" x="1449.93" y="519.46" width="29.88" height="55.42"/>
    <rect class="cls-35" x="1515.8" y="519.71" width="23.25" height="54.79"/>
    <rect class="cls-35" x="1539.05" y="519.65" width="51.75" height="54.85"/>
    <rect class="cls-35" x="1590.8" y="519.84" width="24" height="54.92"/>
    <rect class="cls-35" x="1614.8" y="519.65" width="24" height="55.29"/>
    <rect class="cls-35" x="1638.8" y="519.46" width="62" height="55.17"/>
    <rect class="cls-35" x="1700.8" y="458.3" width="76" height="26.48"/>
    <rect class="cls-35" x="1776.8" y="519.46" width="62" height="55.17"/>
    <rect class="cls-35" x="1838.55" y="528.46" width="19.88" height="46.17"/>
    <rect class="cls-35" x="1858.55" y="528.46" width="19.5" height="46.17"/>
    <rect class="cls-35" x="1839.05" y="519.38" width="39.25" height="9.08"/>
    <rect class="cls-35" x="1878.05" y="519.38" width="30.75" height="55.5"/>
    <rect class="cls-35" x="1858.55" y="582.63" width="39" height="45"/>
    <rect class="cls-35" x="1842.8" y="822.73" width="66" height="55.15"/>
    <rect class="cls-35" x="1776.8" y="822.71" width="66" height="55.05"/>
    <rect class="cls-35" x="1684.52" y="822.62" width="56.29" height="55.26"/>
    <rect class="cls-35" x="1628.23" y="822.62" width="56.29" height="55.26"/>
    <rect class="cls-35" x="1571.94" y="822.62" width="56.29" height="55.15"/>
    <rect class="cls-35" x="1515.65" y="822.73" width="56.29" height="55.03"/>
    <rect class="cls-35" x="1449.77" y="822.48" width="29.88" height="55.42"/>
    <rect class="cls-35" x="1956.3" y="299.13" width="307.5" height="225"/>
    <rect class="cls-35" x="2106.24" y="557.26" width="156.5" height="116"/>
    <rect class="cls-35" x="1995.74" y="653.63" width="71.5" height="113"/>
    <rect class="cls-35" x="2116.8" y="757.96" width="93.44" height="61.42"/>
    <rect class="cls-35" x="2210.24" y="706.38" width="43" height="113"/>
    <rect class="cls-35" x="1995.24" y="781.88" width="44.25" height="18.75"/>
    <rect class="cls-35" x="1995.24" y="800.63" width="44.5" height="18.75"/>
    <rect class="cls-35" x="1995.24" y="831.13" width="171" height="148.5"/>
    <rect class="cls-35" x="2166.14" y="831.3" width="86.6" height="148.34"/>
    <rect class="cls-35" x="2022.55" y="1023.13" width="94.25" height="69.25"/>
    <rect class="cls-35" x="1989.8" y="1046.13" width="33.06" height="46.25"/>
    <rect class="cls-38" x="1287.55" y="372.8" width="102.25" height="90.33"/>
    <rect x="1449.77" y="631.3" width="30.03" height="25.04"/>
    <rect x="1449.77" y="656.34" width="30.03" height="25.04"/>
    <rect class="cls-35" x="499.8" y="956.26" width="136" height="65.04"/>
    <rect class="cls-35" x="518.8" y="1041.25" width="77.13" height="66.75"/>
    <rect class="cls-35" x="2106.99" y="1133.37" width="150" height="340.5"/>
    <rect class="cls-41" x="1191.83" y="1079.13" width="45.97" height="22.5"/>
    <rect class="cls-43" x="2106.24" y="557.26" width="156.5" height="116"/>
    <rect class="cls-52" x="1272.3" y="609.24" width="58.81" height="55.64"/>
  </g>
  <g id="_白塗り" data-name="白塗り">
    <rect class="cls-35" x="567.49" y="757.38" width="54.15" height="12.62"/>
    <rect class="cls-35" x="567.8" y="768.63" width="14.39" height="18.67"/>
    <rect class="cls-35" x="754.3" y="902.13" width="20.67" height="95.17"/>
    <rect class="cls-35" x="773.05" y="978.63" width="295.5" height="18.67"/>
    <rect class="cls-35" x="952.56" y="553.05" width="121.5" height="16.58"/>
    <polygon class="cls-35" points="952.8 553.05 917.8 579.05 917.8 594.8 952.8 569.55 952.8 553.05"/>
    <rect class="cls-35" x="1048.05" y="574.88" width="77.5" height="34.87"/>
    <rect class="cls-35" x="1068.8" y="609.17" width="36" height="55.46"/>
    <rect class="cls-35" x="1068.55" y="373.11" width="116.75" height="34.1"/>
    <rect class="cls-35" x="1068.93" y="406.51" width="35.88" height="59.12"/>
    <rect class="cls-35" x="1068.55" y="819.94" width="36.25" height="59.94"/>
    <rect class="cls-35" x="1012.8" y="787.73" width="383.25" height="34.23"/>
    <rect class="cls-35" x="1400.8" y="787.86" width="508" height="34.87"/>
    <rect class="cls-35" x="1389.8" y="338.63" width="90" height="180.83"/>
    <rect class="cls-35" x="1390.8" y="512.44" width="59.12" height="365.19"/>
    <rect class="cls-35" x="1272.3" y="574.59" width="118.5" height="34.87"/>
    <rect class="cls-35" x="1406.8" y="875.57" width="29.5" height="226.06"/>
    <rect class="cls-35" x="1740.8" y="506.13" width="36" height="372"/>
    <rect class="cls-35" x="1415.05" y="484.78" width="493.75" height="34.6"/>
    <rect class="cls-35" x="1701.04" y="512.88" width="39.77" height="61.75"/>
    <rect class="cls-35" x="1491.05" y="387.44" width="50.04" height="33.58"/>
    <rect class="cls-35" x="1814.8" y="340.13" width="76.51" height="58"/>
    <rect class="cls-35" x="1908.8" y="487.38" width="47.5" height="29.41"/>
    <rect class="cls-35" x="1956.05" y="524.23" width="39.19" height="455.4"/>
    <rect class="cls-35" x="1908.8" y="790.97" width="47.5" height="28.41"/>
    <rect class="cls-35" x="1995.74" y="715.58" width="100.06" height="66.3"/>
    <rect class="cls-35" x="1995.24" y="585.3" width="38.23" height="68.34"/>
    <rect class="cls-35" x="2229.47" y="483.46" width="59.33" height="40.67"/>
    <rect class="cls-35" x="1960.8" y="979.63" width="29" height="43.49"/>
    <rect class="cls-35" x="1960.8" y="1022.38" width="61.75" height="70"/>
    <rect class="cls-35" x="2131.24" y="978.88" width="35" height="126.25"/>
    <rect class="cls-35" x="2131.24" y="1105.13" width="84" height="28"/>
    <rect class="cls-35" x="1479.8" y="518.57" width="36" height="56.33"/>
    <rect class="cls-35" x="1479.65" y="822.62" width="36.16" height="55.01"/>
    <rect class="cls-35" x="1436.24" y="978.74" width="445.29" height="45.27"/>
    <rect class="cls-35" x="1436.24" y="1057.04" width="445.29" height="44.59"/>
    <rect class="cls-35" x="1068.55" y="462.63" width="36.25" height="111.96"/>
    <rect class="cls-35" x="1491.05" y="436.53" width="50.04" height="33.58"/>
    <rect class="cls-35" x="1563.68" y="448.12" width="113.38" height="33.58"/>
    <rect class="cls-35" x="1917.3" y="299.13" width="32.01" height="138.47"/>
    <rect class="cls-35" x="1702.95" y="204.82" width="50.04" height="33.58"/>
    <rect class="cls-35" x="1543.94" y="262.43" width="149.78" height="49.12"/>
    <rect class="cls-35" x="1824.86" y="446.5" width="47.84" height="33.58"/>
    <rect class="cls-35" x="1911.15" y="521.65" width="25.66" height="66.33"/>
    <rect class="cls-35" x="1853.34" y="635.11" width="47.84" height="33.57"/>
    <rect class="cls-35" x="1853.34" y="673.49" width="47.84" height="33.58"/>
    <rect class="cls-35" x="1800.94" y="673.49" width="47.84" height="33.58"/>
    <rect class="cls-5" x="1627.56" y="597.98" width="106.16" height="65.1"/>
    <rect class="cls-5" x="1679.88" y="749.84" width="47.84" height="33.58"/>
    <rect class="cls-5" x="1572.99" y="749.46" width="47.84" height="33.58"/>
    <rect class="cls-5" x="1515.65" y="749.46" width="47.84" height="33.58"/>
    <rect class="cls-5" x="1854.39" y="750.32" width="47.84" height="33.58"/>
  </g>
  <g id="_テクスチャ" data-name="テクスチャ">
    <polyline class="cls-2" points="917.8 544.63 567.8 544.63 567.8 698.63 917.8 698.63"/>
    <polyline class="cls-2" points="1389.8 574.88 952.8 574.88 952.8 664.88 1389.8 664.88"/>
    <rect class="cls-2" x="535.47" y="393.63" width="382.33" height="103"/>
    <rect class="cls-2" x="947.8" y="373.13" width="442" height="90"/>
    <polyline class="cls-2" points="1389.93 574.88 1389.93 338.63 1479.8 338.63 1479.8 485.38"/>
    <polyline class="cls-2" points="1479.8 484.88 1908.8 484.88 1908.8 574.88 1479.8 574.88"/>
    <rect class="cls-2" x="1700.8" y="458.3" width="76" height="26.58"/>
    <rect class="cls-5" x="1858.55" y="582.63" width="39" height="45"/>
    <rect class="cls-5" x="1015.3" y="504.63" width="45.5" height="45.5"/>
    <rect class="cls-5" x="961.8" y="338.63" width="120" height="21"/>
    <rect class="cls-5" x="1090.8" y="338.63" width="122" height="21"/>
    <rect class="cls-5" x="1220.8" y="338.63" width="119" height="21"/>
    <rect class="cls-5" x="952.8" y="261.63" width="509" height="38"/>
    <rect class="cls-5" x="1068.8" y="664.88" width="36" height="123"/>
    <rect class="cls-2" x="1740.8" y="574.88" width="36" height="212.75"/>
    <rect class="cls-5" x="1068.8" y="878.13" width="36" height="133.5"/>
    <rect class="cls-2" x="713.47" y="878.13" width="74.83" height="24"/>
    <rect class="cls-2" x="748.8" y="1011.63" width="658" height="90"/>
    <rect class="cls-2" x="1436.3" y="978.88" width="445.17" height="45"/>
    <rect class="cls-2" x="1436.3" y="1056.63" width="445.17" height="45"/>
    <rect class="cls-2" x="1995.74" y="585.3" width="37.73" height="68.34"/>
    <line class="cls-5" x1="1960.8" y1="1022.38" x2="1960.8" y2="979.63"/>
    <line class="cls-5" x1="1989.8" y1="979.63" x2="1989.8" y2="1022.38"/>
    <rect class="cls-2" x="1960.8" y="1022.38" width="156" height="70"/>
    <rect class="cls-2" x="2131.24" y="979.63" width="35" height="125.49"/>
    <rect class="cls-2" x="2131.24" y="1105.13" width="84" height="28"/>
    <rect class="cls-2" x="2106.74" y="1133.13" width="150.5" height="341"/>
    <rect class="cls-2" x="2210.24" y="706.38" width="43" height="113"/>
    <rect class="cls-5" x="499.8" y="956.26" width="136" height="65.49"/>
    <rect class="cls-5" x="518.8" y="1041.25" width="77.13" height="66.75"/>
    <rect class="cls-2" x="1956.3" y="524.13" width="38.94" height="455.5"/>
    <rect class="cls-2" x="1995.24" y="831.13" width="257.5" height="148.5"/>
    <rect class="cls-2" x="2116.8" y="757.96" width="93.44" height="61.42"/>
    <rect class="cls-2" x="1995.24" y="781.88" width="44.5" height="37.5"/>
    <rect class="cls-2" x="2106.24" y="557.26" width="156.5" height="116"/>
    <rect class="cls-5" x="733.93" y="261.63" width="48" height="107"/>
    <rect class="cls-5" x="803.3" y="261.63" width="91.5" height="27"/>
    <rect class="cls-5" x="803.3" y="315.06" width="45.75" height="16.88"/>
    <line class="cls-5" x1="1956.3" y1="819.38" x2="1908.8" y2="819.38"/>
    <line class="cls-5" x1="1908.8" y1="790.97" x2="1956.3" y2="790.97"/>
    <rect class="cls-5" x="855.3" y="315.06" width="43" height="16.88"/>
    <rect class="cls-5" x="803.3" y="335.63" width="95" height="19"/>
    <rect class="cls-5" x="567.3" y="261.63" width="59.5" height="107"/>
    <polyline class="cls-2" points="917.8 594.88 952.91 569.58 1069.31 569.63"/>
    <line class="cls-5" x1="1449.93" y1="574.88" x2="1449.93" y2="787.88"/>
    <line class="cls-2" x1="748.35" y1="1165.91" x2="1390.35" y2="1165.91"/>
    <line class="cls-2" x1="1463.35" y1="1165.91" x2="1918.35" y2="1165.91"/>
    <path class="cls-2" d="M1964.09,1165.91l100.38,64.37v359.01"/>
    <line class="cls-2" x1="698.43" y1="1165.91" x2="545.44" y2="1165.91"/>
    <line class="cls-2" x1="545.44" y1="1165.91" x2="432.94" y2="1262.2"/>
    <line class="cls-2" x1="432.94" y1="1262.2" x2="432.94" y2="1575.69"/>
    <circle class="cls-5" cx="1728.3" cy="376.63" r="36.5"/>
    <rect class="cls-2" x="1814.8" y="340.13" width="76.51" height="58"/>
    <path class="cls-2" d="M1389.93,664.88v123h-437.13v90h454v223.75h29.5v-223.75h472.5v-90h-454.89"/>
    <line class="cls-2" x1="1479.8" y1="574.88" x2="1449.93" y2="574.88"/>
    <line class="cls-2" x1="1453.8" y1="787.88" x2="1449.93" y2="787.88"/>
    <line class="cls-5" x1="1956.3" y1="516.79" x2="1908.8" y2="516.79"/>
    <line class="cls-5" x1="1908.8" y1="487.38" x2="1956.3" y2="487.38"/>
    <line class="cls-2" x1="2166.24" y1="979.63" x2="2166.24" y2="831.13"/>
    <line class="cls-2" x1="1389.8" y1="373.13" x2="1479.8" y2="373.13"/>
    <line class="cls-2" x1="917.8" y1="544.63" x2="917.8" y2="698.63"/>
    <polyline class="cls-2" points="2263.8 524.13 2288.8 524.13 2288.8 483.46 2263.8 483.46 2263.8 299.13 1956.3 299.13 1956.3 524.13 2263.8 524.13"/>
    <line class="cls-2" x1="2067.24" y1="766.63" x2="2096.47" y2="766.63"/>
    <path class="cls-2" d="M2096.47,766.54v-51.01l-29.23.09v-61.99h-71.5v113h71.5"/>
    <polyline class="cls-2" points="754.3 902.13 754.3 997.3 1068.55 997.3"/>
    <polyline class="cls-2" points="1068.55 978.63 774.97 978.63 774.97 902.13"/>
    <polyline class="cls-2" points="788.3 878.13 917.8 878.13 917.8 787.88 788.3 787.88 788.3 757.38 713.47 757.38 713.47 787.88 567.8 787.88 567.8 878.13 720.3 878.13"/>
    <path class="cls-2" d="M917.8,579.13l35-26s.05-.03.11-.08h115.89c0-3.07,0-89.92,0-89.92h36v111.75h-36v-5.25"/>
    <line class="cls-2" x1="1389.93" y1="574.88" x2="1389.93" y2="664.88"/>
  </g>
  <g id="_間取り" data-name="間取り">
    <line class="cls-2" x1="1740.8" y1="877.88" x2="1740.8" y2="822.71"/>
    <line class="cls-2" x1="1776.8" y1="877.88" x2="1776.8" y2="822.71"/>
    <line class="cls-1" x1="1758.8" y1="862.05" x2="1740.8" y2="862.05"/>
    <line class="cls-1" x1="1758.8" y1="862.05" x2="1776.8" y2="862.05"/>
    <line class="cls-1" x1="1908.8" y1="822.71" x2="1776.32" y2="822.71"/>
    <polyline class="cls-1" points="1740.8 822.71 1758.8 822.71 1758.8 862.05"/>
    <line class="cls-1" x1="1758.8" y1="842.38" x2="1776.8" y2="842.38"/>
    <line class="cls-1" x1="1758.8" y1="832.55" x2="1776.8" y2="832.55"/>
    <line class="cls-1" x1="1776.8" y1="852.21" x2="1758.8" y2="852.21"/>
    <line class="cls-1" x1="1740.8" y1="842.38" x2="1758.8" y2="842.38"/>
    <line class="cls-1" x1="1740.8" y1="832.55" x2="1758.8" y2="832.55"/>
    <line class="cls-1" x1="1758.8" y1="852.21" x2="1740.8" y2="852.21"/>
    <line class="cls-2" x1="1740.8" y1="574.63" x2="1740.8" y2="519.46"/>
    <line class="cls-2" x1="1776.8" y1="574.63" x2="1776.8" y2="519.46"/>
    <polyline class="cls-1" points="1758.8 558.8 1758.8 519.46 1740.3 519.46"/>
    <line class="cls-1" x1="1758.8" y1="558.8" x2="1740.8" y2="558.8"/>
    <line class="cls-1" x1="1758.8" y1="558.8" x2="1776.8" y2="558.8"/>
    <line class="cls-1" x1="1758.8" y1="539.13" x2="1776.8" y2="539.13"/>
    <line class="cls-1" x1="1758.8" y1="529.3" x2="1776.8" y2="529.3"/>
    <line class="cls-1" x1="1776.8" y1="548.96" x2="1758.8" y2="548.96"/>
    <line class="cls-1" x1="1740.8" y1="539.13" x2="1758.8" y2="539.13"/>
    <line class="cls-1" x1="1740.8" y1="529.3" x2="1758.8" y2="529.3"/>
    <line class="cls-1" x1="1758.8" y1="548.96" x2="1740.8" y2="548.96"/>
    <line class="cls-1" x1="1908.8" y1="519.46" x2="1776.3" y2="519.46"/>
    <path class="cls-1" d="M1104.31,821.96h285.62v55.91"/>
    <line class="cls-2" x1="1068.8" y1="877.63" x2="1068.8" y2="821.96"/>
    <line class="cls-2" x1="1104.8" y1="877.55" x2="1104.8" y2="821.96"/>
    <line class="cls-1" x1="1086.8" y1="861.8" x2="1068.8" y2="861.8"/>
    <line class="cls-1" x1="1086.8" y1="861.8" x2="1104.8" y2="861.8"/>
    <line class="cls-1" x1="1086.8" y1="842.13" x2="1104.8" y2="842.13"/>
    <line class="cls-1" x1="1086.8" y1="832.3" x2="1104.8" y2="832.3"/>
    <line class="cls-1" x1="1104.8" y1="851.96" x2="1086.8" y2="851.96"/>
    <line class="cls-1" x1="1068.8" y1="842.13" x2="1086.8" y2="842.13"/>
    <line class="cls-1" x1="1068.8" y1="832.3" x2="1086.8" y2="832.3"/>
    <line class="cls-1" x1="1086.8" y1="851.96" x2="1068.8" y2="851.96"/>
    <line class="cls-1" x1="1479.8" y1="484.88" x2="1429.55" y2="484.88"/>
    <line class="cls-1" x1="1389.93" y1="666.04" x2="1389.93" y2="609.46"/>
    <line class="cls-1" x1="1389.93" y1="609.46" x2="1272.3" y2="609.46"/>
    <line class="cls-2" x1="1068.8" y1="665.13" x2="1068.8" y2="609.96"/>
    <line class="cls-2" x1="1104.8" y1="664.63" x2="1104.8" y2="609.96"/>
    <line class="cls-1" x1="1086.8" y1="609.96" x2="1086.8" y2="649.3"/>
    <line class="cls-1" x1="1086.8" y1="649.3" x2="1068.8" y2="649.3"/>
    <line class="cls-1" x1="1086.8" y1="649.3" x2="1104.8" y2="649.3"/>
    <line class="cls-1" x1="1086.8" y1="629.63" x2="1104.8" y2="629.63"/>
    <line class="cls-1" x1="1086.8" y1="619.8" x2="1104.8" y2="619.8"/>
    <line class="cls-1" x1="1104.8" y1="639.46" x2="1086.8" y2="639.46"/>
    <line class="cls-1" x1="1068.8" y1="629.63" x2="1086.8" y2="629.63"/>
    <line class="cls-1" x1="1068.8" y1="619.8" x2="1086.8" y2="619.8"/>
    <line class="cls-1" x1="1086.8" y1="639.46" x2="1068.8" y2="639.46"/>
    <line class="cls-2" x1="1068.8" y1="463.13" x2="1068.8" y2="407.46"/>
    <line class="cls-2" x1="1104.8" y1="462.63" x2="1104.8" y2="407.46"/>
    <polyline class="cls-1" points="1086.8 447.3 1086.8 407.46 1068.8 407.46"/>
    <line class="cls-1" x1="1086.8" y1="447.3" x2="1068.8" y2="447.3"/>
    <line class="cls-1" x1="1086.8" y1="447.3" x2="1104.8" y2="447.3"/>
    <line class="cls-1" x1="1086.8" y1="427.63" x2="1104.8" y2="427.63"/>
    <line class="cls-1" x1="1086.8" y1="417.8" x2="1104.8" y2="417.8"/>
    <line class="cls-1" x1="1104.8" y1="437.46" x2="1086.8" y2="437.46"/>
    <line class="cls-1" x1="1068.8" y1="427.63" x2="1086.8" y2="427.63"/>
    <line class="cls-1" x1="1068.8" y1="417.8" x2="1086.8" y2="417.8"/>
    <line class="cls-1" x1="1086.8" y1="437.46" x2="1068.8" y2="437.46"/>
    <line class="cls-1" x1="1989.8" y1="1046.13" x2="2022.55" y2="1046.13"/>
    <line class="cls-1" x1="2022.55" y1="1092.38" x2="2022.55" y2="1046.13"/>
    <line class="cls-1" x1="1989.8" y1="1046.13" x2="1989.8" y2="1092.38"/>
    <line class="cls-1" x1="2022.55" y1="1046.13" x2="2022.55" y2="1023.13"/>
    <polyline class="cls-1" points="1960.8 1079.13 1975.77 1079.13 1975.77 1046.13 1989.8 1046.13"/>
    <line class="cls-1" x1="1975.77" y1="1062.63" x2="1960.8" y2="1062.63"/>
    <line class="cls-1" x1="1975.77" y1="1070.88" x2="1960.8" y2="1070.88"/>
    <path class="cls-1" d="M1975.77,1054.38h-15.34,15.34Z"/>
    <g>
      <line class="cls-1" x1="1968.29" y1="1046.13" x2="1968.29" y2="1074.11"/>
      <path d="M1968.29,1077.13c-.53-1.42-1.43-3.18-2.38-4.27l2.38.86,2.38-.86c-.95,1.09-1.85,2.85-2.38,4.27Z"/>
    </g>
    <line class="cls-5" x1="1479.8" y1="574.88" x2="1479.8" y2="519.71"/>
    <line class="cls-5" x1="1515.8" y1="574.88" x2="1515.8" y2="519.71"/>
    <polyline class="cls-1" points="1497.8 559.05 1497.8 519.71 1515.8 519.71"/>
    <line class="cls-1" x1="1497.8" y1="559.05" x2="1479.8" y2="559.05"/>
    <line class="cls-1" x1="1497.8" y1="559.05" x2="1515.8" y2="559.05"/>
    <line class="cls-1" x1="1497.8" y1="539.38" x2="1515.8" y2="539.38"/>
    <line class="cls-1" x1="1497.8" y1="529.55" x2="1515.8" y2="529.55"/>
    <line class="cls-1" x1="1515.8" y1="549.21" x2="1497.8" y2="549.21"/>
    <line class="cls-1" x1="1479.8" y1="539.38" x2="1497.8" y2="539.38"/>
    <line class="cls-1" x1="1479.8" y1="529.55" x2="1497.8" y2="529.55"/>
    <line class="cls-1" x1="1497.8" y1="549.21" x2="1479.8" y2="549.21"/>
    <path class="cls-1" d="M1480.3,519.71h-30.63c0,4.02.01,55.19.01,55.19"/>
    <line class="cls-1" x1="1515.8" y1="519.71" x2="1701.05" y2="519.51"/>
    <line class="cls-1" x1="1701.05" y1="519.51" x2="1700.8" y2="574.63"/>
    <line class="cls-1" x1="1638.8" y1="519.65" x2="1638.8" y2="574.94"/>
    <line class="cls-1" x1="1539.05" y1="519.59" x2="1539.05" y2="574.51"/>
    <line class="cls-1" x1="1614.8" y1="519.84" x2="1614.8" y2="574.76"/>
    <line class="cls-1" x1="1590.8" y1="519.84" x2="1590.8" y2="574.76"/>
    <line class="cls-1" x1="1838.8" y1="519.46" x2="1838.8" y2="574.63"/>
    <line class="cls-1" x1="1878.05" y1="519.46" x2="1878.05" y2="574.63"/>
    <line class="cls-1" x1="1838.8" y1="528.46" x2="1878.05" y2="528.46"/>
    <line class="cls-1" x1="1858.43" y1="574.63" x2="1858.43" y2="528.46"/>
    <line class="cls-1" x1="1429.55" y1="484.88" x2="1429.55" y2="373.13"/>
    <line class="cls-1" x1="1104.31" y1="407.46" x2="1185.23" y2="407.46"/>
    <line class="cls-1" x1="1185.3" y1="462.88" x2="1185.3" y2="407.21"/>
    <line class="cls-1" x1="1143.3" y1="407.46" x2="1143.3" y2="462.88"/>
    <line class="cls-1" x1="1185.3" y1="407.71" x2="1185.3" y2="373.38"/>
    <line class="cls-1" x1="1287.55" y1="372.8" x2="1287.55" y2="462.8"/>
    <polyline class="cls-1" points="1266.8 462.8 1266.8 407.63 1287.55 407.63"/>
    <polyline class="cls-1" points="1389.8 407.46 1369.05 407.46 1369.05 462.63"/>
    <polyline class="cls-1" points="1068.55 407.46 1048.05 407.46 1048.05 462.63"/>
    <line class="cls-1" x1="917.8" y1="639.63" x2="639.8" y2="639.46"/>
    <line class="cls-1" x1="882.3" y1="599.96" x2="675.8" y2="599.96"/>
    <line class="cls-2" x1="882.3" y1="544.63" x2="882.3" y2="600.21"/>
    <polyline class="cls-1" points="899.8 559.13 899.8 578.63 882.3 578.63"/>
    <line class="cls-1" x1="899.8" y1="559.13" x2="882.3" y2="559.13"/>
    <line class="cls-1" x1="899.8" y1="568.88" x2="882.3" y2="568.88"/>
    <line class="cls-1" x1="917.3" y1="568.88" x2="899.8" y2="568.88"/>
    <line class="cls-1" x1="917.3" y1="559.13" x2="899.8" y2="559.13"/>
    <line class="cls-1" x1="899.8" y1="559.13" x2="917.8" y2="544.63"/>
    <line class="cls-1" x1="882.3" y1="544.63" x2="899.8" y2="559.13"/>
    <line class="cls-1" x1="851.47" y1="544.63" x2="851.47" y2="599.96"/>
    <line class="cls-2" x1="675.8" y1="544.46" x2="675.8" y2="599.96"/>
    <line class="cls-2" x1="639.8" y1="544.96" x2="639.8" y2="600.13"/>
    <path class="cls-1" d="M657.8,560.3v39.67h18"/>
    <line class="cls-1" x1="657.8" y1="560.3" x2="675.8" y2="560.3"/>
    <line class="cls-1" x1="657.8" y1="560.3" x2="639.8" y2="560.3"/>
    <line class="cls-1" x1="657.8" y1="579.96" x2="639.8" y2="579.96"/>
    <line class="cls-1" x1="657.8" y1="589.8" x2="639.8" y2="589.8"/>
    <line class="cls-1" x1="639.8" y1="570.13" x2="657.8" y2="570.13"/>
    <line class="cls-1" x1="675.8" y1="579.96" x2="657.8" y2="579.96"/>
    <line class="cls-1" x1="675.8" y1="589.8" x2="657.8" y2="589.8"/>
    <line class="cls-1" x1="657.8" y1="570.13" x2="675.8" y2="570.13"/>
    <line class="cls-1" x1="702.3" y1="544.96" x2="702.3" y2="599.96"/>
    <line class="cls-1" x1="727.8" y1="544.63" x2="727.8" y2="599.96"/>
    <line class="cls-1" x1="675.8" y1="639.63" x2="675.8" y2="698.63"/>
    <line class="cls-2" x1="639.8" y1="639.46" x2="639.8" y2="698.63"/>
    <line class="cls-1" x1="794.8" y1="639.63" x2="794.8" y2="698.63"/>
    <line class="cls-1" x1="639.8" y1="600.13" x2="639.8" y2="639.46"/>
    <line class="cls-1" x1="847.8" y1="393.63" x2="847.8" y2="496.63"/>
    <line class="cls-2" x1="777.6" y1="393.63" x2="777.6" y2="496.63"/>
    <line class="cls-1" x1="707.39" y1="393.63" x2="707.39" y2="496.63"/>
    <line class="cls-1" x1="639.8" y1="393.63" x2="639.8" y2="496.63"/>
    <polyline class="cls-1" points="614.47 393.63 614.47 450.19 639.73 450.19"/>
    <path class="cls-1" d="M812.7,393.63v17h35"/>
    <line class="cls-1" x1="1068.8" y1="373.13" x2="1068.8" y2="407.96"/>
    <line class="cls-1" x1="1068.8" y1="609.96" x2="1048.05" y2="609.96"/>
    <line class="cls-1" x1="1048.05" y1="664.88" x2="1048.05" y2="609.96"/>
    <line class="cls-1" x1="1048.05" y1="574.88" x2="1048.05" y2="609.96"/>
    <line class="cls-1" x1="1185.3" y1="574.88" x2="1185.3" y2="664.63"/>
    <line class="cls-1" x1="1125.55" y1="609.96" x2="1104.8" y2="609.96"/>
    <line class="cls-1" x1="1125.55" y1="574.88" x2="1125.55" y2="609.96"/>
    <line class="cls-1" x1="1125.55" y1="664.63" x2="1125.55" y2="609.96"/>
    <line class="cls-1" x1="1272.3" y1="574.88" x2="1272.3" y2="664.63"/>
    <line class="cls-1" x1="1331.12" y1="609.46" x2="1331.12" y2="665.13"/>
    <line class="cls-1" x1="1228.8" y1="574.88" x2="1228.8" y2="664.88"/>
    <line class="cls-1" x1="1068.8" y1="821.96" x2="1012.8" y2="821.96"/>
    <line class="cls-1" x1="1012.8" y1="787.88" x2="1012.8" y2="822.46"/>
    <line class="cls-1" x1="1012.8" y1="822.46" x2="1012.8" y2="877.52"/>
    <line class="cls-1" x1="1307.12" y1="821.96" x2="1307.12" y2="876.63"/>
    <line class="cls-1" x1="1246.37" y1="822.46" x2="1246.37" y2="877.63"/>
    <line class="cls-1" x1="1206.62" y1="821.96" x2="1206.62" y2="878.13"/>
    <line class="cls-1" x1="1169.62" y1="822.21" x2="1169.62" y2="877.88"/>
    <line class="cls-1" x1="1449.77" y1="877.9" x2="1449.77" y2="822.48"/>
    <line class="cls-2" x1="1479.65" y1="877.9" x2="1479.65" y2="822.73"/>
    <line class="cls-2" x1="1515.65" y1="877.9" x2="1515.65" y2="822.73"/>
    <line class="cls-1" x1="1497.65" y1="862.07" x2="1479.65" y2="862.07"/>
    <line class="cls-1" x1="1497.65" y1="862.07" x2="1515.65" y2="862.07"/>
    <line class="cls-1" x1="1497.65" y1="842.4" x2="1515.65" y2="842.4"/>
    <line class="cls-1" x1="1497.65" y1="832.57" x2="1515.65" y2="832.57"/>
    <line class="cls-1" x1="1515.65" y1="852.23" x2="1497.65" y2="852.23"/>
    <line class="cls-1" x1="1479.65" y1="842.4" x2="1497.65" y2="842.4"/>
    <line class="cls-1" x1="1479.65" y1="832.57" x2="1497.65" y2="832.57"/>
    <line class="cls-1" x1="1497.65" y1="852.23" x2="1479.65" y2="852.23"/>
    <line class="cls-1" x1="1449.77" y1="822.73" x2="1480.15" y2="822.73"/>
    <line class="cls-1" x1="1515.65" y1="822.71" x2="1740.8" y2="822.71"/>
    <line class="cls-1" x1="1842.8" y1="822.73" x2="1842.8" y2="877.88"/>
    <line class="cls-1" x1="1684.52" y1="822.62" x2="1684.52" y2="877.77"/>
    <line class="cls-1" x1="1628.23" y1="822.62" x2="1628.23" y2="877.77"/>
    <line class="cls-1" x1="1571.94" y1="822.62" x2="1571.94" y2="877.77"/>
    <polyline class="cls-1" points="2263.8 470.38 2220.3 470.38 2220.3 352.88 2263.8 352.88"/>
    <line class="cls-1" x1="2229.47" y1="470.38" x2="2229.47" y2="524.13"/>
    <line class="cls-1" x1="2229.47" y1="352.88" x2="2229.47" y2="299.13"/>
    <line class="cls-1" x1="2229.47" y1="483.71" x2="2263.8" y2="483.71"/>
    <polyline class="cls-2" points="2039.74 781.88 2096.47 781.88 2096.47 766.63"/>
    <line class="cls-1" x1="2076.64" y1="766.59" x2="2076.64" y2="781.93"/>
    <line class="cls-1" x1="2015.18" y1="766.59" x2="2015.18" y2="781.93"/>
    <line class="cls-1" x1="2045.91" y1="766.54" x2="2045.91" y2="781.88"/>
    <line class="cls-1" x1="2061.27" y1="766.59" x2="2061.27" y2="781.93"/>
    <line class="cls-1" x1="2030.54" y1="766.54" x2="2030.54" y2="781.88"/>
    <line class="cls-1" x1="2053.59" y1="766.59" x2="2053.59" y2="781.93"/>
    <line class="cls-1" x1="2068.96" y1="766.59" x2="2068.96" y2="781.93"/>
    <line class="cls-1" x1="2038.23" y1="766.54" x2="2038.23" y2="781.88"/>
    <line class="cls-1" x1="2022.86" y1="766.59" x2="2022.86" y2="781.93"/>
    <g>
      <line class="cls-1" x1="2010.19" y1="774.21" x2="2079.29" y2="774.21"/>
      <path d="M2082.3,774.21c-1.42.53-3.18,1.43-4.27,2.38l.86-2.38-.86-2.38c1.09.95,2.85,1.85,4.27,2.38Z"/>
    </g>
    <g>
      <line class="cls-1" x1="1767.8" y1="520.63" x2="1767.8" y2="561.95"/>
      <path d="M1767.8,564.96c-.53-1.42-1.43-3.18-2.38-4.27l2.38.86,2.38-.86c-.95,1.09-1.85,2.85-2.38,4.27Z"/>
    </g>
    <g>
      <line class="cls-1" x1="1488.8" y1="519.59" x2="1488.8" y2="561.99"/>
      <path d="M1488.8,565.01c-.53-1.42-1.43-3.18-2.38-4.27l2.38.86,2.38-.86c-.95,1.09-1.85,2.85-2.38,4.27Z"/>
    </g>
    <g>
      <line class="cls-1" x1="1767.8" y1="822.62" x2="1767.8" y2="866.78"/>
      <path d="M1767.8,869.8c-.53-1.42-1.43-3.18-2.38-4.27l2.38.86,2.38-.86c-.95,1.09-1.85,2.85-2.38,4.27Z"/>
    </g>
    <g>
      <line class="cls-1" x1="1488.65" y1="822.48" x2="1488.65" y2="865.86"/>
      <path d="M1488.65,868.88c-.53-1.42-1.43-3.18-2.38-4.27l2.38.86,2.38-.86c-.95,1.09-1.85,2.85-2.38,4.27Z"/>
    </g>
    <polyline class="cls-1" points="1515.65 822.73 1497.65 822.73 1497.65 862.07"/>
    <g>
      <line class="cls-1" x1="1095.8" y1="821.96" x2="1095.8" y2="865.34"/>
      <path d="M1095.8,868.36c-.53-1.42-1.43-3.18-2.38-4.27l2.38.86,2.38-.86c-.95,1.09-1.85,2.85-2.38,4.27Z"/>
    </g>
    <g>
      <line class="cls-1" x1="1095.8" y1="609.96" x2="1095.8" y2="653.34"/>
      <path d="M1095.8,656.36c-.53-1.42-1.43-3.18-2.38-4.27l2.38.86,2.38-.86c-.95,1.09-1.85,2.85-2.38,4.27Z"/>
    </g>
    <g>
      <line class="cls-1" x1="1095.8" y1="407.46" x2="1095.8" y2="450.84"/>
      <path d="M1095.8,453.86c-.53-1.42-1.43-3.18-2.38-4.27l2.38.86,2.38-.86c-.95,1.09-1.85,2.85-2.38,4.27Z"/>
    </g>
    <line class="cls-1" x1="908.55" y1="578.63" x2="908.55" y2="551.88"/>
    <line class="cls-1" x1="891.05" y1="551.88" x2="908.55" y2="551.88"/>
    <g>
      <line class="cls-1" x1="891.05" y1="551.68" x2="891.05" y2="571.86"/>
      <path d="M891.05,574.88c-.53-1.42-1.43-3.18-2.38-4.27l2.38.86,2.38-.86c-.95,1.09-1.85,2.85-2.38,4.27Z"/>
    </g>
    <g>
      <line class="cls-1" x1="648.8" y1="600.13" x2="648.8" y2="555.4"/>
      <path d="M648.8,552.38c.53,1.42,1.43,3.18,2.38,4.27l-2.38-.86-2.38.86c.95-1.09,1.85-2.85,2.38-4.27Z"/>
    </g>
    <polyline class="cls-1" points="1068.8 821.96 1086.8 821.96 1086.8 861.8"/>
    <line class="cls-1" x1="1068.8" y1="609.96" x2="1086.8" y2="609.96"/>
    <polyline class="cls-5" points="1449.77 631.3 1479.8 631.3 1479.8 681.38 1449.93 681.38"/>
    <line class="cls-8" x1="1479.8" y1="656.34" x2="1449.93" y2="656.34"/>
    <line class="cls-8" x1="629.14" y1="787.88" x2="629.14" y2="878.13"/>
    <polyline class="cls-1" points="629 809.75 687.67 809.51 687.94 878.01"/>
    <polyline class="cls-1" points="687.74 827.88 713.47 827.88 713.47 878.13"/>
    <line class="cls-8" x1="788.3" y1="787.88" x2="788.3" y2="878.13"/>
    <line class="cls-5" x1="769.8" y1="787.88" x2="760.3" y2="772.63"/>
    <line class="cls-5" x1="730.8" y1="787.88" x2="741.14" y2="772.63"/>
    <line class="cls-8" x1="713.47" y1="771.3" x2="732.97" y2="757.38"/>
    <line class="cls-8" x1="788.3" y1="771.3" x2="768.8" y2="757.38"/>
    <line class="cls-1" x1="713.47" y1="788.13" x2="730.8" y2="788.13"/>
    <line class="cls-1" x1="741.14" y1="772.63" x2="760.3" y2="772.63"/>
    <line class="cls-1" x1="735.97" y1="780.26" x2="765.05" y2="780.26"/>
    <line class="cls-1" x1="738.73" y1="776.19" x2="762.71" y2="776.19"/>
    <line class="cls-1" x1="733.53" y1="783.86" x2="767.3" y2="783.86"/>
    <line class="cls-1" x1="762.71" y1="776.19" x2="776.23" y2="762.66"/>
    <line class="cls-1" x1="765.05" y1="780.26" x2="779.91" y2="765.4"/>
    <line class="cls-1" x1="767.3" y1="783.86" x2="783.2" y2="767.96"/>
    <line class="cls-1" x1="738.73" y1="776.19" x2="725.34" y2="762.81"/>
    <line class="cls-1" x1="735.97" y1="780.26" x2="721.4" y2="765.68"/>
    <line class="cls-1" x1="733.53" y1="783.86" x2="718.02" y2="768.35"/>
    <line class="cls-1" x1="741.14" y1="772.63" x2="728.88" y2="760.37"/>
    <line class="cls-1" x1="760.3" y1="772.63" x2="772.76" y2="760.18"/>
    <line class="cls-1" x1="730.8" y1="787.88" x2="713.9" y2="770.98"/>
    <line class="cls-1" x1="769.8" y1="787.88" x2="787.24" y2="770.45"/>
    <g>
      <line class="cls-1" x1="734.91" y1="766.4" x2="723.68" y2="785.29"/>
      <path d="M722.14,787.88c.27-1.49.4-3.46.14-4.89l1.6,1.95,2.48.48c-1.38.45-3.05,1.51-4.23,2.46Z"/>
    </g>
    <g>
      <line class="cls-1" x1="766.43" y1="766.5" x2="777.52" y2="785.28"/>
      <path d="M779.05,787.88c-1.18-.95-2.85-2.02-4.22-2.47l2.48-.47,1.61-1.95c-.26,1.42-.14,3.4.13,4.89Z"/>
    </g>
    <g>
      <line class="cls-1" x1="750.41" y1="789.88" x2="750.83" y2="769.42"/>
      <path d="M750.89,766.4c.5,1.43,1.36,3.21,2.29,4.32l-2.36-.91-2.39.81c.97-1.07,1.91-2.82,2.46-4.22Z"/>
    </g>
    <polyline class="cls-1" points="567.56 787.59 567.56 757.38 621.64 757.38 621.64 770 582.2 770 582.2 787.59"/>
    <line class="cls-1" x1="582.2" y1="770.3" x2="582.2" y2="757.68"/>
    <line class="cls-1" x1="601.63" y1="757.68" x2="601.63" y2="770.3"/>
    <line class="cls-1" x1="591.96" y1="757.39" x2="591.96" y2="770.01"/>
    <line class="cls-1" x1="612.19" y1="757.68" x2="612.19" y2="770.3"/>
    <line class="cls-1" x1="596.8" y1="757.53" x2="596.8" y2="770.15"/>
    <line class="cls-1" x1="587.12" y1="757.68" x2="587.12" y2="770.3"/>
    <line class="cls-1" x1="607.36" y1="757.53" x2="607.36" y2="770.15"/>
    <line class="cls-1" x1="616.83" y1="757.68" x2="616.83" y2="770.3"/>
    <g>
      <line class="cls-1" x1="621.64" y1="763.96" x2="576.95" y2="763.96"/>
      <path d="M573.93,763.96c1.42-.53,3.18-1.43,4.27-2.38l-.86,2.38.86,2.38c-1.09-.95-2.85-1.85-4.27-2.38Z"/>
    </g>
    <line class="cls-1" x1="921.76" y1="1011.63" x2="921.76" y2="1101.63"/>
    <polyline class="cls-1" points="813.05 1101.63 813.05 1062.3 828.47 1062.3 828.47 1101.63"/>
    <polyline class="cls-1" points="813.05 1011.63 813.05 1030.96 828.47 1030.96 828.47 1011.63"/>
    <polyline class="cls-1" points="867.41 1101.63 867.41 1062.3 882.83 1062.3 882.83 1101.63"/>
    <line class="cls-1" x1="875.12" y1="1011.63" x2="875.12" y2="1062.3"/>
    <line class="cls-1" x1="1012.8" y1="1011.63" x2="1012.8" y2="1101.63"/>
    <line class="cls-1" x1="1095.8" y1="1011.63" x2="1095.8" y2="1101.63"/>
    <line class="cls-1" x1="1161.47" y1="1011.63" x2="1161.47" y2="1101.63"/>
    <line class="cls-1" x1="1095.8" y1="1042.3" x2="1161.47" y2="1042.3"/>
    <polyline class="cls-1" points="1191.8 1101.64 1191.8 1079.13 1238.14 1079.13 1238.14 1101.63"/>
    <polyline class="cls-1" points="954.43 1101.63 954.43 1062.3 969.85 1062.3 969.85 1101.63"/>
    <path class="cls-3" d="M769.51,787.93s.22.15.33.2c.9,0,18.46,0,18.46,0"/>
    <line class="cls-3" x1="731.04" y1="787.99" x2="730.81" y2="788.14"/>
  </g>
  <g id="_構内道路" data-name="構内道路">
    <path class="cls-1" d="M1776.8,744.63h132.25v43.25"/>
    <path class="cls-1" d="M1776.8,711.51h132.25v-136.62"/>
    <line class="cls-1" x1="1740.8" y1="711.51" x2="1449.93" y2="711.51"/>
    <line class="cls-1" x1="1740.8" y1="744.63" x2="1449.77" y2="744.63"/>
    <line class="cls-1" x1="1389.8" y1="711.51" x2="1104.8" y2="711.51"/>
    <line class="cls-1" x1="1389.8" y1="744.63" x2="1104.8" y2="744.63"/>
    <polyline class="cls-1" points="1068.55 711.51 952.8 711.51 952.8 664.88"/>
    <path class="cls-1" d="M1068.55,744.63h-115.75v43.25"/>
    <circle class="cls-1" cx="1574.78" cy="643.19" r="26.87"/>
    <polyline class="cls-1" points="952.8 877.88 952.8 904.63 1068.55 904.63"/>
    <polyline class="cls-1" points="1068.55 941.63 952.8 941.63 952.8 978.63"/>
    <line class="cls-1" x1="1104.8" y1="904.63" x2="1406.8" y2="904.63"/>
    <line class="cls-1" x1="1104.8" y1="941.63" x2="1406.8" y2="941.63"/>
    <path class="cls-1" d="M1436.3,904.63h472.78v-26.75"/>
    <line class="cls-1" x1="1436.3" y1="941.63" x2="1908.8" y2="941.63"/>
    <line class="cls-1" x1="1908.8" y1="941.63" x2="1908.8" y2="978.88"/>
    <line class="cls-1" x1="1881.47" y1="978.88" x2="1908.8" y2="978.88"/>
  </g>
  <g id="_レイヤー_6" data-name="レイヤー_6">
    <text class="cls-30" transform="translate(996.79 422.86)"><tspan x="0" y="0">C15</tspan></text>
    <text class="cls-30" transform="translate(1113.13 439.92)"><tspan x="0" y="0">C14</tspan></text>
    <text class="cls-30" transform="translate(1152.79 440.11)"><tspan x="0" y="0">C13</tspan></text>
    <text class="cls-27" transform="translate(1208.77 411.52)"><tspan class="cls-48"><tspan x="0" y="0">C12　</tspan></tspan><tspan class="cls-48"><tspan x="-17.5" y="16.8">土質実験室</tspan></tspan><tspan class="cls-40"><tspan x="-28" y="32.4">【土木工学班】</tspan></tspan></text>
    <text class="cls-27" transform="translate(1311.14 411.52)"><tspan class="cls-48"><tspan x="0" y="0">C11　</tspan></tspan><tspan class="cls-48"><tspan x="-17.5" y="16.8">材料実験室</tspan></tspan><tspan class="cls-40"><tspan x="-28" y="32.4">【土木工学班】</tspan></tspan></text>
    <text class="cls-30" transform="translate(575.44 450.19)"><tspan x="0" y="0">G15</tspan></text>
    <text class="cls-30" transform="translate(661.73 450.44)"><tspan x="0" y="0">G14</tspan></text>
    <text class="cls-30" transform="translate(730.83 450.19)"><tspan x="0" y="0">G13</tspan></text>
    <text class="cls-30" transform="translate(800.69 450.19)"><tspan x="0" y="0">G12</tspan></text>
    <text class="cls-30" transform="translate(870.94 450.44)"><tspan x="0" y="0">G11</tspan></text>
    <text class="cls-30" transform="translate(591.91 626.61)"><tspan x="0" y="0">H14</tspan></text>
    <text class="cls-30" transform="translate(663.3 527.88)"><tspan x="0" y="0">H15</tspan></text>
    <text class="cls-30" transform="translate(709.3 528.38)"><tspan x="0" y="0">H16</tspan></text>
    <text class="cls-30" transform="translate(778.1 577.44)"><tspan x="0" y="0">H17</tspan></text>
    <text class="cls-30" transform="translate(854.99 577.11)"><tspan x="0" y="0">H18</tspan></text>
    <text class="cls-30" transform="translate(645.33 674.11)"><tspan x="0" y="0">H13</tspan></text>
    <text class="cls-30" transform="translate(723.41 673.94)"><tspan x="0" y="0">H12</tspan></text>
    <text class="cls-30" transform="translate(844.16 673.86)"><tspan x="0" y="0">H11</tspan></text>
    <text class="cls-30" transform="translate(588.61 837.81)"><tspan x="0" y="0">I13</tspan></text>
    <text class="cls-27" transform="translate(643.47 839.17)"><tspan class="cls-39"><tspan x="0" y="0">I12</tspan></tspan><tspan class="cls-46"><tspan x="-12.5" y="13.2">情報工学科</tspan></tspan><tspan class="cls-46"><tspan x="-1.5" y="26.4">研究室</tspan></tspan></text>
    <text class="cls-21" transform="translate(829.98 828.96)"><tspan x="0" y="0">I11　</tspan><tspan x="-42.75" y="22.8">【情報工学科】</tspan></text>
    <text class="cls-30" transform="translate(770.71 1056.38)"><tspan x="0" y="0">F18</tspan></text>
    <text class="cls-30" transform="translate(887.9 1056.12)"><tspan x="0" y="0">F16</tspan></text>
    <text class="cls-30" transform="translate(955.87 1056.12)"><tspan x="0" y="0">F15</tspan></text>
    <text class="cls-30" transform="translate(839.55 1055.94)"><tspan x="0" y="0">F17</tspan></text>
    <text class="cls-30" transform="translate(1045.11 1062.51)"><tspan x="0" y="0">F14</tspan></text>
    <text class="cls-30" transform="translate(1117.48 1077.02)"><tspan x="0" y="0">F13</tspan></text>
    <text class="cls-30" transform="translate(1272.98 1061.44)"><tspan x="0" y="0">F11</tspan></text>
    <text class="cls-30" transform="translate(971.51 837.56)"><tspan x="0" y="0">E17</tspan></text>
    <text class="cls-30" transform="translate(1029.01 855.11)"><tspan x="0" y="0">E16</tspan></text>
    <text class="cls-27" transform="translate(1125.79 843.54) scale(.94 1)"><tspan class="cls-33"><tspan x="0" y="0">E15</tspan></tspan><tspan class="cls-40"><tspan x="-20.5" y="15.6">機械工学科</tspan></tspan><tspan class="cls-46"><tspan x="-4.5" y="28.8">研究室</tspan></tspan></text>
    <text class="cls-30" transform="translate(1176.82 855.53)"><tspan x="0" y="0">E14</tspan></text>
    <text class="cls-30" transform="translate(1215.2 855.53)"><tspan x="0" y="0">E13</tspan></text>
    <text class="cls-27" transform="translate(1259.24 850.59)"><tspan class="cls-48"><tspan x="0" y="0">E12　</tspan></tspan><tspan class="cls-11"><tspan x="-14" y="10.8">【機械工学科】</tspan></tspan></text>
    <text class="cls-27" transform="translate(1324.02 840.18)"><tspan class="cls-48"><tspan x="0" y="0">E11　　</tspan></tspan><tspan class="cls-51"><tspan x="-17.5" y="14.4">【機械工学科】</tspan></tspan><tspan class="cls-51"><tspan x="-17.5" y="28.8">【機械工学班】</tspan></tspan></text>
    <text class="cls-30" transform="translate(988.8 624.81)"><tspan x="0" y="0">D18</tspan></text>
    <text class="cls-30" transform="translate(1040.8 688.19)"><tspan x="0" y="0">D17</tspan></text>
    <text class="cls-30" transform="translate(1108.8 688.19)"><tspan x="0" y="0">D16</tspan></text>
    <text class="cls-30" transform="translate(1143.43 624.69)"><tspan x="0" y="0">D15</tspan></text>
    <text class="cls-30" transform="translate(1195.05 624.81)"><tspan x="0" y="0">D14</tspan></text>
    <text class="cls-30" transform="translate(1237.53 625.19)"><tspan x="0" y="0">D13</tspan></text>
    <text class="cls-30" transform="translate(1288.94 642.11)"><tspan x="0" y="0">D12</tspan></text>
    <text class="cls-27" transform="translate(1348.52 637.17)"><tspan class="cls-33"><tspan x="0" y="0">D11</tspan></tspan><tspan class="cls-48"><tspan x="-16" y="16.8">生徒会室</tspan></tspan></text>
    <text class="cls-27" transform="translate(1552.93 544.52)"><tspan class="cls-33"><tspan x="0" y="0">A16</tspan></tspan><tspan class="cls-49"><tspan x="-13.5" y="20.4">応接室</tspan></tspan></text>
    <text class="cls-30" transform="translate(1372.43 422.67)"><tspan x="0" y="0">準</tspan><tspan x="0" y="16.8">備</tspan><tspan x="0" y="33.6">室</tspan></text>
    <text class="cls-30" transform="translate(1269.64 422.67)"><tspan x="0" y="0">準</tspan><tspan x="0" y="16.8">備</tspan><tspan x="0" y="33.6">室</tspan></text>
    <text class="cls-30" transform="translate(618.64 410.63)"><tspan x="0" y="0">準</tspan><tspan x="0" y="16.8">備</tspan><tspan x="0" y="33.6">室</tspan></text>
    <text class="cls-30" transform="translate(1051.8 423.31)"><tspan x="0" y="0">準</tspan><tspan x="0" y="16.8">備</tspan><tspan x="0" y="33.6">室</tspan></text>
    <text class="cls-30" transform="translate(1515.8 595.96)"><tspan x="0" y="0">A17</tspan></text>
    <text class="cls-27" transform="translate(1590.8 595.66)"><tspan class="cls-33"><tspan x="0" y="0">A15</tspan></tspan><tspan class="cls-48"><tspan x="-9" y="16.8">校長室</tspan></tspan></text>
    <text class="cls-30" transform="translate(1619.8 543.96)"><tspan x="0" y="0">倉</tspan><tspan x="0" y="16.8">庫</tspan></text>
    <text class="cls-27" transform="translate(1797.8 544.52)"><tspan class="cls-33"><tspan x="0" y="0">A13</tspan></tspan><tspan class="cls-49"><tspan x="-13.5" y="20.4">保健室</tspan></tspan></text>
    <text class="cls-30" transform="translate(1822.8 593.3)"><tspan x="0" y="0">A12</tspan></text>
    <text class="cls-30" transform="translate(1884.04 553.87)"><tspan x="0" y="0">A11</tspan></text>
    <g>
      <path class="cls-55" d="M1462.29,636.27c-.39.12-.72.39-.91.74-.19.35-.21.8-.07,1.17.18.46.58.8,1.09.93.15.04.43.05.6.03.42-.06.82-.3,1.06-.64.26-.36.33-.85.19-1.26-.11-.33-.34-.61-.63-.8-.15-.09-.21-.12-.37-.17q-.13-.04-.49-.04c-.35,0-.36,0-.48.04Z"/>
      <path class="cls-55" d="M1462.59,639.64c-.55.07-1.02.46-1.18.98l-.03.11v5.34l.04.12c.17.52.6.87,1.15.96.13.02.37.01.48-.01.05-.01.08-.01.1,0,.02.01.71.02,2.63.02h2.59s1.29,2.12,1.29,2.12c.71,1.16,1.29,2.12,1.3,2.12,0,0,.12-.05.26-.13s.27-.14.3-.15.49-.26,1.03-.56c1.05-.58,1.08-.6,1.17-.75.14-.25.1-.54-.1-.75-.14-.14-.29-.2-.49-.2-.18,0-.25.03-.79.33-.27.15-.49.27-.5.26,0,0-.5-.82-1.11-1.82-.6-1-1.1-1.82-1.11-1.82,0,0-.02,0-.03,0-.03.03-.04.02-.04-.02,0-.06-.05-.22-.11-.32-.07-.13-.25-.3-.39-.37-.05-.03-.15-.07-.22-.09l-.12-.03h-2.26s-2.26,0-2.26,0v-1.11h1.75s1.75,0,1.75,0l.09-.03s.12-.06.17-.09c.32-.24.3-.7-.03-.92-.16-.1-.03-.1-1.98-.1h-1.74v-.98c-.01-.97-.01-.98-.04-1.09-.14-.48-.53-.84-1.02-.96-.15-.04-.38-.05-.53-.03Z"/>
      <path class="cls-55" d="M1460.41,643.22c-.41.24-.77.52-1.13.87-.47.46-.82.93-1.11,1.51-.56,1.11-.72,2.36-.47,3.58.19.88.59,1.71,1.2,2.43.3.35.81.81,1.21,1.08.46.31,1,.57,1.56.75.38.12.86.22,1.3.27.26.03,1,.02,1.26,0,.45-.05.81-.13,1.23-.26,1.34-.42,2.48-1.3,3.22-2.46.15-.23.35-.62.45-.86l.07-.18-.43-.71c-.24-.39-.43-.71-.44-.71s-.02.08-.03.18c-.1.66-.36,1.3-.76,1.88-.53.76-1.32,1.36-2.21,1.7-.58.22-1.14.32-1.79.32-1.28,0-2.46-.47-3.37-1.33-.81-.77-1.29-1.75-1.39-2.86-.02-.22,0-.73.02-.94.16-1.12.73-2.13,1.59-2.84l.18-.14v-.68c0-.37,0-.67-.01-.67s-.08.04-.15.08Z"/>
    </g>
    <g>
      <path class="cls-36" d="M1464.72,659.74c-.49.08-.87.37-1.08.84-.14.31-.17.7-.09,1.04.04.16.14.37.24.51.28.4.77.63,1.23.57.58-.07,1.04-.49,1.2-1.11.02-.09.03-.15.03-.37,0-.25,0-.27-.04-.39-.02-.07-.06-.18-.08-.23-.22-.5-.69-.83-1.2-.85-.09,0-.18,0-.2,0Z"/>
      <path class="cls-36" d="M1463.69,663.1c-.38.05-.74.25-1.03.57-.25.27-.37.52-.51,1-.43,1.53-.48,1.71-.87,3.1-.08.29-.18.64-.22.78-.08.28-.1.42-.07.56.05.3.28.51.56.51.22,0,.41-.13.52-.36.03-.05.25-.83.58-2.04.3-1.07.54-1.97.54-1.99v-.04h.3l-.19.7c-.1.39-.32,1.17-.47,1.75s-.36,1.33-.45,1.68c-.5,1.86-.75,2.82-.75,2.84,0,.01.24.02.87.02h.87v2.6c0,2.82,0,2.69.07,2.85.1.21.3.34.53.36.33.02.62-.2.68-.53.01-.05.01-.84.01-2.69v-2.62h.38v2.63c0,2.28,0,2.64.02,2.71.05.23.19.39.4.47.11.04.35.04.46,0,.22-.09.35-.25.4-.49.01-.08.02-.51.02-2.69v-2.59h.86c.48,0,.87,0,.87,0s-.05-.23-.13-.51c-.07-.28-.22-.82-.32-1.2-.1-.38-.24-.89-.3-1.13s-.2-.73-.29-1.08-.23-.84-.29-1.08-.2-.75-.3-1.13c-.1-.38-.2-.73-.21-.77l-.02-.07h.16c.09,0,.16,0,.16,0s.03.1.06.22c.03.12.13.48.23.82s.26.95.38,1.38c.4,1.45.44,1.58.48,1.67.12.24.36.38.58.34.3-.06.49-.31.49-.65,0-.17.06.07-.56-2.12-.16-.57-.36-1.27-.44-1.56-.28-1-.28-1.01-.43-1.25-.24-.4-.59-.7-.98-.85-.25-.09-.19-.09-1.43-.09-.62,0-1.17,0-1.22,0Z"/>
    </g>
    <g>
      <g>
        <path class="cls-54" d="M1460.29,538.07c-.38.07-.71.31-.92.66-.17.29-.25.61-.22.97.04.55.39,1.06.86,1.26.19.08.28.1.51.1.22,0,.27,0,.44-.07.34-.12.67-.44.82-.8.16-.39.17-.83.02-1.22-.1-.25-.3-.52-.49-.66-.3-.22-.68-.31-1.01-.24Z"/>
        <path class="cls-54" d="M1458.84,541.42s-.06.01-.12.02c-.14.02-.35.1-.48.18-.5.28-.85.8-.94,1.42-.02.14-.02.28-.02,2.63v2.48l.03.1c.09.32.41.51.71.43.21-.05.35-.18.43-.4l.03-.09v-2.21s0-2.21,0-2.21h.29v5.92s0,5.92,0,5.92l.03.09c.08.24.2.4.38.5.25.13.51.13.76,0,.2-.1.35-.31.41-.56.01-.06.02-.76.02-3.52v-3.45h.28v3.43c0,2.96,0,3.45.02,3.53.08.42.44.7.85.67.34-.03.6-.24.7-.57l.04-.11v-5.92s0-5.92,0-5.92h.14s.14,0,.14,0v2.22c.01,1.57.02,2.23.03,2.26.1.29.3.45.58.45.3,0,.54-.23.58-.56.01-.08.01-.77.01-2.52,0-2.26,0-2.42-.03-2.54-.07-.42-.24-.77-.5-1.06-.24-.28-.51-.45-.87-.54l-.14-.04h-1.68c-.92,0-1.69,0-1.7,0Z"/>
      </g>
      <g>
        <path class="cls-36" d="M1468.12,538.05c-.49.08-.87.37-1.08.84-.14.31-.17.7-.09,1.04.04.16.14.37.24.51.28.4.77.63,1.23.57.58-.07,1.04-.49,1.2-1.11.02-.09.03-.15.03-.37,0-.25,0-.27-.04-.39-.02-.07-.06-.18-.08-.23-.22-.5-.69-.83-1.2-.85-.09,0-.18,0-.2,0Z"/>
        <path class="cls-36" d="M1467.08,541.41c-.38.05-.74.25-1.03.57-.25.27-.37.52-.51,1-.43,1.53-.48,1.71-.87,3.1-.08.29-.18.64-.22.78-.08.28-.1.42-.07.56.05.3.28.51.56.51.22,0,.41-.13.52-.36.03-.05.25-.83.58-2.04.3-1.07.54-1.97.54-1.99v-.04h.3l-.19.7c-.1.39-.32,1.17-.47,1.75s-.36,1.33-.45,1.68c-.5,1.86-.75,2.82-.75,2.84,0,.01.24.02.87.02h.87v2.6c0,2.82,0,2.69.07,2.85.1.21.3.34.53.36.33.02.62-.2.68-.53.01-.05.01-.84.01-2.69v-2.62h.38v2.63c0,2.28,0,2.64.02,2.71.05.23.19.39.4.47.11.04.35.04.46,0,.22-.09.35-.25.4-.49.01-.08.02-.51.02-2.69v-2.59h.86c.48,0,.87,0,.87,0s-.05-.23-.13-.51c-.07-.28-.22-.82-.32-1.2-.1-.38-.24-.89-.3-1.13s-.2-.73-.29-1.08-.23-.84-.29-1.08-.2-.75-.3-1.13c-.1-.38-.2-.73-.21-.77l-.02-.07h.16c.09,0,.16,0,.16,0s.03.1.06.22c.03.12.13.48.23.82s.26.95.38,1.38c.4,1.45.44,1.58.48,1.67.12.24.36.38.58.34.3-.06.49-.31.49-.65,0-.17.06.07-.56-2.12-.16-.57-.36-1.27-.44-1.56-.28-1-.28-1.01-.43-1.25-.24-.4-.59-.7-.98-.85-.25-.09-.19-.09-1.43-.09-.62,0-1.17,0-1.22,0Z"/>
      </g>
    </g>
    <g>
      <g>
        <path class="cls-54" d="M696.45,843.41c-.38.07-.71.31-.92.66-.17.29-.25.61-.22.97.04.55.39,1.06.86,1.26.19.08.28.1.51.1.22,0,.27,0,.44-.07.34-.12.67-.44.82-.8.16-.39.17-.83.02-1.22-.1-.25-.3-.52-.49-.66-.3-.22-.68-.31-1.01-.24Z"/>
        <path class="cls-54" d="M695,846.75s-.06.01-.12.02c-.14.02-.35.1-.48.18-.5.28-.85.8-.94,1.42-.02.14-.02.28-.02,2.63v2.48l.03.1c.09.32.41.51.71.43.21-.05.35-.18.43-.4l.03-.09v-2.21s0-2.21,0-2.21h.29v5.92s0,5.92,0,5.92l.03.09c.08.24.2.4.38.5.25.13.51.13.76,0,.2-.1.35-.31.41-.56.01-.06.02-.76.02-3.52v-3.45h.28v3.43c0,2.96,0,3.45.02,3.53.08.42.44.7.85.67.34-.03.6-.24.7-.57l.04-.11v-5.92s0-5.92,0-5.92h.14s.14,0,.14,0v2.22c.01,1.57.02,2.23.03,2.26.1.29.3.45.58.45.3,0,.54-.23.58-.56.01-.08.01-.77.01-2.52,0-2.26,0-2.42-.03-2.54-.07-.42-.24-.77-.5-1.06-.24-.28-.51-.45-.87-.54l-.14-.04h-1.68c-.92,0-1.69,0-1.7,0Z"/>
      </g>
      <g>
        <path class="cls-36" d="M704.28,843.39c-.49.08-.87.37-1.08.84-.14.31-.17.7-.09,1.04.04.16.14.37.24.51.28.4.77.63,1.23.57.58-.07,1.04-.49,1.2-1.11.02-.09.03-.15.03-.37,0-.25,0-.27-.04-.39-.02-.07-.06-.18-.08-.23-.22-.5-.69-.83-1.2-.85-.09,0-.18,0-.2,0Z"/>
        <path class="cls-36" d="M703.25,846.75c-.38.05-.74.25-1.03.57-.25.27-.37.52-.51,1-.43,1.53-.48,1.71-.87,3.1-.08.29-.18.64-.22.78-.08.28-.1.42-.07.56.05.3.28.51.56.51.22,0,.41-.13.52-.36.03-.05.25-.83.58-2.04.3-1.07.54-1.97.54-1.99v-.04h.3l-.19.7c-.1.39-.32,1.17-.47,1.75s-.36,1.33-.45,1.68c-.5,1.86-.75,2.82-.75,2.84,0,.01.24.02.87.02h.87v2.6c0,2.82,0,2.69.07,2.85.1.21.3.34.53.36.33.02.62-.2.68-.53.01-.05.01-.84.01-2.69v-2.62h.38v2.63c0,2.28,0,2.64.02,2.71.05.23.19.39.4.47.11.04.35.04.46,0,.22-.09.35-.25.4-.49.01-.08.02-.51.02-2.69v-2.59h.86c.48,0,.87,0,.87,0s-.05-.23-.13-.51c-.07-.28-.22-.82-.32-1.2-.1-.38-.24-.89-.3-1.13s-.2-.73-.29-1.08-.23-.84-.29-1.08-.2-.75-.3-1.13c-.1-.38-.2-.73-.21-.77l-.02-.07h.16c.09,0,.16,0,.16,0s.03.1.06.22c.03.12.13.48.23.82s.26.95.38,1.38c.4,1.45.44,1.58.48,1.67.12.24.36.38.58.34.3-.06.49-.31.49-.65,0-.17.06.07-.56-2.12-.16-.57-.36-1.27-.44-1.56-.28-1-.28-1.01-.43-1.25-.24-.4-.59-.7-.98-.85-.25-.09-.19-.09-1.43-.09-.62,0-1.17,0-1.22,0Z"/>
      </g>
    </g>
    <g>
      <g>
        <path class="cls-54" d="M1460.29,840.2c-.38.07-.71.31-.92.66-.17.29-.25.61-.22.97.04.55.39,1.06.86,1.26.19.08.28.1.51.1.22,0,.27,0,.44-.07.34-.12.67-.44.82-.8.16-.39.17-.83.02-1.22-.1-.25-.3-.52-.49-.66-.3-.22-.68-.31-1.01-.24Z"/>
        <path class="cls-54" d="M1458.84,843.55s-.06.01-.12.02c-.14.02-.35.1-.48.18-.5.28-.85.8-.94,1.42-.02.14-.02.28-.02,2.63v2.48l.03.1c.09.32.41.51.71.43.21-.05.35-.18.43-.4l.03-.09v-2.21s0-2.21,0-2.21h.29v5.92s0,5.92,0,5.92l.03.09c.08.24.2.4.38.5.25.13.51.13.76,0,.2-.1.35-.31.41-.56.01-.06.02-.76.02-3.52v-3.45h.28v3.43c0,2.96,0,3.45.02,3.53.08.42.44.7.85.67.34-.03.6-.24.7-.57l.04-.11v-5.92s0-5.92,0-5.92h.14s.14,0,.14,0v2.22c.01,1.57.02,2.23.03,2.26.1.29.3.45.58.45.3,0,.54-.23.58-.56.01-.08.01-.77.01-2.52,0-2.26,0-2.42-.03-2.54-.07-.42-.24-.77-.5-1.06-.24-.28-.51-.45-.87-.54l-.14-.04h-1.68c-.92,0-1.69,0-1.7,0Z"/>
      </g>
      <g>
        <path class="cls-36" d="M1468.12,840.18c-.49.08-.87.37-1.08.84-.14.31-.17.7-.09,1.04.04.16.14.37.24.51.28.4.77.63,1.23.57.58-.07,1.04-.49,1.2-1.11.02-.09.03-.15.03-.37,0-.25,0-.27-.04-.39-.02-.07-.06-.18-.08-.23-.22-.5-.69-.83-1.2-.85-.09,0-.18,0-.2,0Z"/>
        <path class="cls-36" d="M1467.08,843.54c-.38.05-.74.25-1.03.57-.25.27-.37.52-.51,1-.43,1.53-.48,1.71-.87,3.1-.08.29-.18.64-.22.78-.08.28-.1.42-.07.56.05.3.28.51.56.51.22,0,.41-.13.52-.36.03-.05.25-.83.58-2.04.3-1.07.54-1.97.54-1.99v-.04h.3l-.19.7c-.1.39-.32,1.17-.47,1.75s-.36,1.33-.45,1.68c-.5,1.86-.75,2.82-.75,2.84,0,.01.24.02.87.02h.87v2.6c0,2.82,0,2.69.07,2.85.1.21.3.34.53.36.33.02.62-.2.68-.53.01-.05.01-.84.01-2.69v-2.62h.38v2.63c0,2.28,0,2.64.02,2.71.05.23.19.39.4.47.11.04.35.04.46,0,.22-.09.35-.25.4-.49.01-.08.02-.51.02-2.69v-2.59h.86c.48,0,.87,0,.87,0s-.05-.23-.13-.51c-.07-.28-.22-.82-.32-1.2-.1-.38-.24-.89-.3-1.13s-.2-.73-.29-1.08-.23-.84-.29-1.08-.2-.75-.3-1.13c-.1-.38-.2-.73-.21-.77l-.02-.07h.16c.09,0,.16,0,.16,0s.03.1.06.22c.03.12.13.48.23.82s.26.95.38,1.38c.4,1.45.44,1.58.48,1.67.12.24.36.38.58.34.3-.06.49-.31.49-.65,0-.17.06.07-.56-2.12-.16-.57-.36-1.27-.44-1.56-.28-1-.28-1.01-.43-1.25-.24-.4-.59-.7-.98-.85-.25-.09-.19-.09-1.43-.09-.62,0-1.17,0-1.22,0Z"/>
      </g>
    </g>
    <g>
      <g>
        <path class="cls-54" d="M2013.07,791.53c-.38.07-.71.31-.92.66-.17.29-.25.61-.22.97.04.55.39,1.06.86,1.26.19.08.28.1.51.1.22,0,.27,0,.44-.07.34-.12.67-.44.82-.8.16-.39.17-.83.02-1.22-.1-.25-.3-.52-.49-.66-.3-.22-.68-.31-1.01-.24Z"/>
        <path class="cls-54" d="M2011.62,794.88s-.06.01-.12.02c-.14.02-.35.1-.48.18-.5.28-.85.8-.94,1.42-.02.14-.02.28-.02,2.63v2.48l.03.1c.09.32.41.51.71.43.21-.05.35-.18.43-.4l.03-.09v-2.21s0-2.21,0-2.21h.29v5.92s0,5.92,0,5.92l.03.09c.08.24.2.4.38.5.25.13.51.13.76,0,.2-.1.35-.31.41-.56.01-.06.02-.76.02-3.52v-3.45h.28v3.43c0,2.96,0,3.45.02,3.53.08.42.44.7.85.67.34-.03.6-.24.7-.57l.04-.11v-5.92s0-5.92,0-5.92h.14s.14,0,.14,0v2.22c.01,1.57.02,2.23.03,2.26.1.29.3.45.58.45.3,0,.54-.23.58-.56.01-.08.01-.77.01-2.52,0-2.26,0-2.42-.03-2.54-.07-.42-.24-.77-.5-1.06-.24-.28-.51-.45-.87-.54l-.14-.04h-1.68c-.92,0-1.69,0-1.7,0Z"/>
      </g>
      <g>
        <path class="cls-36" d="M2020.9,791.51c-.49.08-.87.37-1.08.84-.14.31-.17.7-.09,1.04.04.16.14.37.24.51.28.4.77.63,1.23.57.58-.07,1.04-.49,1.2-1.11.02-.09.03-.15.03-.37,0-.25,0-.27-.04-.39-.02-.07-.06-.18-.08-.23-.22-.5-.69-.83-1.2-.85-.09,0-.18,0-.2,0Z"/>
        <path class="cls-36" d="M2019.87,794.87c-.38.05-.74.25-1.03.57-.25.27-.37.52-.51,1-.43,1.53-.48,1.71-.87,3.1-.08.29-.18.64-.22.78-.08.28-.1.42-.07.56.05.3.28.51.56.51.22,0,.41-.13.52-.36.03-.05.25-.83.58-2.04.3-1.07.54-1.97.54-1.99v-.04h.3l-.19.7c-.1.39-.32,1.17-.47,1.75s-.36,1.33-.45,1.68c-.5,1.86-.75,2.82-.75,2.84,0,.01.24.02.87.02h.87v2.6c0,2.82,0,2.69.07,2.85.1.21.3.34.53.36.33.02.62-.2.68-.53.01-.05.01-.84.01-2.69v-2.62h.38v2.63c0,2.28,0,2.64.02,2.71.05.23.19.39.4.47.11.04.35.04.46,0,.22-.09.35-.25.4-.49.01-.08.02-.51.02-2.69v-2.59h.86c.48,0,.87,0,.87,0s-.05-.23-.13-.51c-.07-.28-.22-.82-.32-1.2-.1-.38-.24-.89-.3-1.13s-.2-.73-.29-1.08-.23-.84-.29-1.08-.2-.75-.3-1.13c-.1-.38-.2-.73-.21-.77l-.02-.07h.16c.09,0,.16,0,.16,0s.03.1.06.22c.03.12.13.48.23.82s.26.95.38,1.38c.4,1.45.44,1.58.48,1.67.12.24.36.38.58.34.3-.06.49-.31.49-.65,0-.17.06.07-.56-2.12-.16-.57-.36-1.27-.44-1.56-.28-1-.28-1.01-.43-1.25-.24-.4-.59-.7-.98-.85-.25-.09-.19-.09-1.43-.09-.62,0-1.17,0-1.22,0Z"/>
      </g>
    </g>
    <text class="cls-13" transform="translate(1445.12 413.33) scale(.91 1)"><tspan x="0" y="0">入</tspan><tspan x="0" y="25.2">場</tspan><tspan x="0" y="50.4">口</tspan></text>
    <text class="cls-27" transform="translate(2034.28 398.84) scale(.98 1)"><tspan class="cls-50"><tspan x="0" y="0">大体育館　</tspan></tspan><tspan class="cls-39"><tspan x="-60" y="24">【軽音楽班】【EV競技班】</tspan></tspan><tspan class="cls-39"><tspan x="-50" y="48">【吹奏楽班】【合唱班】</tspan></tspan></text>
    <text class="cls-25" transform="translate(2180 547.13) scale(.98 1)"><tspan x="0" y="0">保健体育科研究室</tspan></text>
    <text class="cls-16" transform="translate(2155.09 621.69) scale(.98 1)"><tspan x="0" y="0">プール</tspan></text>
    <text class="cls-30" transform="translate(2142.94 793.73) scale(.98 1)"><tspan x="0" y="0">更衣室</tspan></text>
    <text class="cls-16" transform="translate(2011.89 715.19) scale(.98 1)"><tspan x="0" y="0">食堂</tspan></text>
    <text class="cls-26" transform="translate(2045.46 911.32) scale(.98 1)"><tspan x="0" y="0">格技室</tspan></text>
    <text class="cls-27" transform="translate(2174.96 890.2) scale(.98 1)"><tspan class="cls-50"><tspan x="0" y="0">柔道場</tspan></tspan><tspan class="cls-34"><tspan x="-16.5" y="25.2">【柔道班】</tspan></tspan></text>
    <text class="cls-30" transform="translate(2049.1 1042.38) scale(.98 1)"><tspan x="0" y="0">調理室</tspan><tspan x="-21" y="16.8">【家庭科班】</tspan></text>
    <text class="cls-27" transform="translate(2123.19 1307.41) scale(.98 1)"><tspan class="cls-50"><tspan x="0" y="0">小体育館　</tspan></tspan><tspan class="cls-42"><tspan x="-21" y="21.6">【バレーボール班】</tspan></tspan></text>
    <text class="cls-30" transform="translate(2054.18 741.04) scale(.98 1)"><tspan x="0" y="0">２F</tspan><tspan x="-17.5" y="16.8">同窓会館</tspan></text>
    <text class="cls-30" transform="translate(2218.02 767.94) scale(.98 1)"><tspan x="0" y="0">倉庫</tspan></text>
    <text class="cls-30" transform="translate(805.6 377.55) scale(.98 1)"><tspan x="0" y="0">養生室</tspan></text>
    <text class="cls-30" transform="translate(1024.33 524.63) scale(.98 1)"><tspan x="0" y="0">危険</tspan><tspan x="-7" y="16.8">薬品庫</tspan></text>
    <text class="cls-30" transform="translate(547.22 993.83) scale(.98 1)"><tspan x="0" y="0">合宿所</tspan></text>
    <text class="cls-30" transform="translate(536.79 1073.16) scale(.98 1)"><tspan x="0" y="0">クラブ</tspan><tspan x="0" y="16.8">練習室</tspan></text>
    <text class="cls-30" transform="translate(1127.64 323.5) scale(.98 1)"><tspan x="0" y="0">自転車置き場</tspan></text>
    <text class="cls-30" transform="translate(827.22 1124.63) scale(.98 1)"><tspan x="0" y="0">準備室</tspan></text>
    <text class="cls-30" transform="translate(928.72 1124.63) scale(.98 1)"><tspan x="0" y="0">工具室</tspan></text>
    <line class="cls-10" x1="875.47" y1="1096.63" x2="869.14" y2="1109.96"/>
    <line class="cls-10" x1="820.8" y1="1095.96" x2="826.8" y2="1110.63"/>
    <line class="cls-10" x1="1117.48" y1="656.36" x2="1120.3" y2="673.86"/>
    <line class="cls-10" x1="1058.68" y1="656.36" x2="1054.3" y2="673.86"/>
    <line class="cls-1" x1="1527.43" y1="565.65" x2="1527.43" y2="580.32"/>
    <line class="cls-1" x1="1602.8" y1="565.01" x2="1602.8" y2="580.96"/>
    <text class="cls-30" transform="translate(1204.53 1095.44) scale(.98 1)"><tspan x="0" y="0">F12</tspan></text>
    <line class="cls-1" x1="1851.3" y1="568.13" x2="1842.8" y2="580.96"/>
    <text class="cls-30" transform="translate(1597.75 1045.3) scale(.98 1)"><tspan x="0" y="0">部室</tspan></text>
    <line class="cls-1" x1="678.05" y1="532.51" x2="688.05" y2="553.26"/>
    <line class="cls-1" x1="717.55" y1="531.76" x2="715.05" y2="553.01"/>
    <line class="cls-1" x1="829.93" y1="383.51" x2="827.79" y2="401.69"/>
    <text class="cls-15" transform="translate(1173.43 1377.6) scale(.98 1)"><tspan x="0" y="0">グラウンド</tspan></text>
    <text class="cls-26" transform="translate(1118.85 1004.58) scale(.98 1)"><tspan x="0" y="0">機械実習棟(F棟)</tspan></text>
    <text class="cls-26" transform="translate(503.84 907.76) scale(.98 1)"><tspan x="0" y="0">情報工学科棟(I棟)</tspan></text>
    <text class="cls-26" transform="translate(539.12 726.38) scale(.98 1)"><tspan x="0" y="0">建築棟(H棟)</tspan></text>
    <text class="cls-26" transform="translate(1138.58 782.95) scale(.98 1)"><tspan x="0" y="0">機械・電気科棟(E棟)</tspan></text>
    <text class="cls-26" transform="translate(1157.93 566.66) scale(.98 1)"><tspan x="0" y="0">化学棟(D棟)</tspan></text>
    <text class="cls-26" transform="translate(1120.84 488.17) scale(.98 1)"><tspan x="0" y="0">土木・建築棟(C棟)</tspan></text>
    <text class="cls-26" transform="translate(1679.75 445.25) scale(.98 1)"><tspan x="0" y="0">管理棟(A棟)</tspan></text>
    <text class="cls-26" transform="translate(1516.51 899.68) scale(.98 1)"><tspan x="0" y="0">ホームルーム棟(B棟)</tspan></text>
    <text class="cls-26" transform="translate(408.74 522.56) scale(.98 1)"><tspan x="0" y="0">土木・建築実習棟(G棟)</tspan></text>
    <text class="cls-21" transform="translate(1709.68 331.41) scale(.98 1)"><tspan x="0" y="0">車廻</tspan></text>
    <text class="cls-27" transform="translate(1657.8 544.52)"><tspan class="cls-33"><tspan x="0" y="0">A14</tspan></tspan><tspan class="cls-49"><tspan x="-13.5" y="20.4">事務室</tspan></tspan></text>
    <text class="cls-12" transform="translate(1982.18 1115.65)"><tspan x="0" y="0">家庭科</tspan><tspan x="0" y="19.2">研究室</tspan></text>
    <line class="cls-1" x1="2006.18" y1="1084.99" x2="2006.18" y2="1100.95"/>
    <text class="cls-26" transform="translate(2013.56 1014.51) scale(.98 1)"><tspan x="0" y="0">家庭科棟</tspan></text>
    <text class="cls-30" transform="translate(1712.3 477.23)"><tspan x="0" y="0">職員入口</tspan></text>
    <line class="cls-1" x1="2255.42" y1="519.65" x2="2246.92" y2="532.48"/>
    <rect class="cls-4" x="1627.56" y="597.98" width="106.16" height="65.1"/>
    <text class="cls-31" transform="translate(1577.61 763.89) scale(.92 1)"><tspan x="0" y="0">土木3年</tspan></text>
    <rect class="cls-4" x="1860.46" y="627.97" width="33.58" height="47.84" transform="translate(1225.36 2529.15) rotate(-90)"/>
    <rect class="cls-4" x="1860.46" y="666.37" width="33.58" height="47.84" transform="translate(1186.97 2567.54) rotate(-90)"/>
    <rect class="cls-4" x="1808.07" y="666.37" width="33.58" height="47.84" transform="translate(1134.57 2515.14) rotate(-90)"/>
    <rect class="cls-4" x="1861.51" y="743.19" width="33.58" height="47.84" transform="translate(1111.19 2645.41) rotate(-90)"/>
    <rect class="cls-4" x="1687" y="742.71" width="33.58" height="47.84" transform="translate(937.16 2470.43) rotate(-90)"/>
    <rect class="cls-4" x="1580.12" y="742.34" width="33.58" height="47.84" transform="translate(830.65 2363.17) rotate(-90)"/>
    <rect class="cls-4" x="1522.77" y="742.34" width="33.58" height="47.84" transform="translate(773.31 2305.82) rotate(-90)"/>
    <text class="cls-31" transform="translate(1520.27 763.89) scale(.92 1)"><tspan x="0" y="0">電気3年</tspan></text>
    <text class="cls-31" transform="translate(1692.77 763.89) scale(.92 1)"><tspan x="0" y="0">本部</tspan></text>
    <text class="cls-31" transform="translate(1805.56 687.96) scale(.92 1)"><tspan x="0" y="0">建築3年</tspan></text>
    <text class="cls-31" transform="translate(1857.96 687.04) scale(.92 1)"><tspan x="0" y="0">情報3年</tspan></text>
    <text class="cls-31" transform="translate(1857.96 648.47) scale(.92 1)"><tspan x="0" y="0">物化3年</tspan></text>
    <text class="cls-31" transform="translate(1858.76 763.89) scale(.92 1)"><tspan x="0" y="0">機械3年</tspan></text>
    <text class="cls-25" transform="translate(1642.34 627.63) scale(.92 1)"><tspan x="0" y="0">YFステージ</tspan></text>
    <line class="cls-7" x1="956.78" y1="221.61" x2="1488.8" y2="221.61"/>
    <line class="cls-7" x1="1550.47" y1="221.61" x2="1691.8" y2="221.61"/>
    <rect class="cls-7" x="1488.86" y="217.43" width="8.35" height="8.35"/>
    <rect class="cls-7" x="1542.12" y="217.43" width="8.35" height="8.35"/>
    <rect class="cls-7" x="1692.53" y="217.43" width="8.35" height="8.35"/>
    <rect class="cls-7" x="1755.08" y="217.43" width="8.35" height="8.35"/>
    <polyline class="cls-7" points="2286.01 241.08 2252.29 221.61 1764.8 221.61"/>
    <rect class="cls-7" x="2286.24" y="239.44" width="8.35" height="8.35" transform="translate(428.67 -1112.57) rotate(30)"/>
    <line class="cls-7" x1="2337.18" y1="270.62" x2="2370.9" y2="290.09"/>
    <rect class="cls-7" x="2329.4" y="264.36" width="8.35" height="8.35" transform="translate(446.91 -1130.81) rotate(30)"/>
    <text class="cls-25" transform="translate(2277.4 232.51) scale(.98 1)"><tspan x="0" y="0">車両出入口</tspan></text>
    <g>
      <line class="cls-7" x1="2317.76" y1="247.17" x2="2306.22" y2="267.16"/>
      <path d="M2321.38,240.9c-2.8,2.32-6.78,4.9-10.07,6.03l5.97,1.07,3.91,4.64c-.67-3.41-.42-8.15.19-11.74Z"/>
      <path d="M2302.6,273.44c.61-3.58.85-8.32.19-11.74l3.91,4.64,5.97,1.07c-3.29,1.13-7.27,3.71-10.07,6.03Z"/>
    </g>
    <text class="cls-25" transform="translate(2032.86 268.53) scale(.98 1)"><tspan x="0" y="0">駐車場</tspan></text>
    <rect class="cls-4" x="1711.18" y="196.59" width="33.58" height="50.04" transform="translate(1506.37 1949.58) rotate(-90)"/>
    <text class="cls-31" transform="translate(1711.43 219.22) scale(.92 1)"><tspan x="0" y="0">入場口</tspan><tspan x="-6" y="14.4">アーチ　</tspan></text>
    <rect class="cls-4" x="1499.27" y="379.21" width="33.58" height="50.04" transform="translate(1111.84 1920.3) rotate(-90)"/>
    <rect class="cls-4" x="1499.27" y="428.31" width="33.58" height="50.04" transform="translate(1062.74 1969.39) rotate(-90)"/>
    <text class="cls-16" transform="translate(1497.69 410.92) scale(.92 1)"><tspan x="0" y="0">受付</tspan></text>
    <text class="cls-16" transform="translate(1497.69 460.02) scale(.92 1)"><tspan x="0" y="0">受付</tspan></text>
    <text class="cls-16" transform="translate(1563.69 359.63) scale(.92 1)"><tspan x="0" y="0">来場者受付は</tspan><tspan x="20" y="24">こちら！</tspan></text>
    <rect class="cls-4" x="1831.98" y="439.38" width="33.58" height="47.84" transform="translate(1385.48 2312.07) rotate(-90)"/>
    <text class="cls-31" transform="translate(1829.48 460.97) scale(.92 1)"><tspan x="0" y="0">機械3年</tspan></text>
    <rect class="cls-4" x="1594.36" y="212.19" width="48.93" height="149.78" transform="translate(1331.74 1905.91) rotate(-90)"/>
    <text class="cls-25" transform="translate(1587.58 282.57) scale(.92 1)"><tspan x="0" y="0">来場者用</tspan><tspan x="-17" y="20.4">自転車置き場</tspan></text>
    <rect class="cls-4" x="1603.82" y="408.46" width="33.58" height="112.89" transform="translate(1155.7 2085.52) rotate(-90)"/>
    <text class="cls-25" transform="translate(1573.81 470.6) scale(.92 1)"><tspan x="0" y="0">土木構造物</tspan></text>
    <g>
      <path class="cls-9" d="M1618.57,390.03c0,38.37,6.87,37.33-50.67,37.03"/>
      <path d="M1554.92,427.02c6.11-2.24,13.71-6.08,18.42-10.15l-3.74,10.21,3.66,10.24c-4.68-4.11-12.24-8.01-18.34-10.3Z"/>
    </g>
    <text class="cls-31" transform="translate(2009.67 600.92) scale(.92 1)"><tspan x="0" y="0">執</tspan><tspan x="0" y="14.4">行</tspan><tspan x="0" y="28.8">部</tspan></text>
    <rect class="cls-4" x="1680.05" y="1138.07" width="139.51" height="355.06" transform="translate(434.21 3065.4) rotate(-90)"/>
    <text class="cls-18" transform="translate(1602.77 1304.99) scale(.92 1)"><tspan x="0" y="0">グラウンド北東側</tspan><tspan x="0" y="48">【硬式野球班】　</tspan></text>
    <rect class="cls-4" x="680.9" y="1307.35" width="139.51" height="355.06" transform="translate(-734.23 2235.54) rotate(-90)"/>
    <text class="cls-18" transform="translate(603.62 1474.27) scale(.92 1)"><tspan x="0" y="0">グラウンド南西側</tspan><tspan x="0" y="48">【ラグビー班】　</tspan></text>
    <rect class="cls-4" x="1864.19" y="352.48" width="138.24" height="32.01" transform="translate(1564.82 2301.79) rotate(-90)"/>
    <text class="cls-31" transform="translate(1927.8 313.13) scale(.92 1)"><tspan x="0" y="0">ボ</tspan><tspan x="0" y="14.4">ラ</tspan><tspan x="0" y="28.8">ン</tspan><tspan x="0" y="43.2">テ</tspan><tspan x="0" y="57.6">ィ</tspan><tspan x="0" y="72">ア</tspan><tspan x="0" y="86.4">企</tspan><tspan x="0" y="100.8">画</tspan></text>
    <text class="cls-30" transform="translate(1527.4 848.55) scale(.92 1)"><tspan x="0" y="0">B16　</tspan><tspan x="-7" y="16.8">建築1年</tspan></text>
    <g>
      <circle class="cls-6" cx="1558.15" cy="843.24" r="7.14"/>
      <text class="cls-19" transform="translate(1554.32 846.3)"><tspan x="0" y="0">ク</tspan></text>
    </g>
    <g>
      <text class="cls-30" transform="translate(1583.69 848.55) scale(.92 1)"><tspan x="0" y="0">B15　</tspan><tspan x="-3.5" y="16.8">定時制</tspan></text>
      <g>
        <circle class="cls-6" cx="1613.46" cy="843.24" r="7.14"/>
        <text class="cls-19" transform="translate(1609.62 846.3)"><tspan x="0" y="0">科</tspan></text>
      </g>
    </g>
    <g>
      <text class="cls-30" transform="translate(1639.94 848.56) scale(.92 1)"><tspan x="0" y="0">B14　</tspan><tspan x="-7" y="16.8">情報1年</tspan></text>
      <g>
        <circle class="cls-6" cx="1670.69" cy="843.24" r="7.14"/>
        <text class="cls-19" transform="translate(1666.86 846.3)"><tspan x="0" y="0">ク</tspan></text>
      </g>
    </g>
    <g>
      <text class="cls-30" transform="translate(1696.23 848.68) scale(.92 1)"><tspan x="0" y="0">B13　</tspan><tspan x="-7" y="16.8">物質1年</tspan></text>
      <g>
        <circle class="cls-6" cx="1726.98" cy="843.11" r="7.14"/>
        <text class="cls-19" transform="translate(1723.15 846.17)"><tspan x="0" y="0">ク</tspan></text>
      </g>
    </g>
    <g>
      <text class="cls-30" transform="translate(1793.66 848.55) scale(.92 1)"><tspan x="0" y="0">B12　</tspan><tspan x="-7" y="16.8">電気1年</tspan></text>
      <g>
        <circle class="cls-6" cx="1824.41" cy="843.24" r="7.14"/>
        <text class="cls-19" transform="translate(1820.58 846.3)"><tspan x="0" y="0">ク</tspan></text>
      </g>
    </g>
    <g>
      <text class="cls-30" transform="translate(1859.66 848.56) scale(.92 1)"><tspan x="0" y="0">B11　</tspan><tspan x="-7" y="16.8">機械1年</tspan></text>
      <g>
        <circle class="cls-6" cx="1890.41" cy="843.24" r="7.14"/>
        <text class="cls-19" transform="translate(1886.58 846.3)"><tspan x="0" y="0">ク</tspan></text>
      </g>
    </g>
    <g>
      <circle class="cls-6" cx="1539.57" cy="773.78" r="7.14"/>
      <text class="cls-19" transform="translate(1535.73 776.84)"><tspan x="0" y="0">模</tspan></text>
    </g>
    <g>
      <circle class="cls-6" cx="1596.91" cy="773.78" r="7.14"/>
      <text class="cls-19" transform="translate(1593.08 776.84)"><tspan x="0" y="0">模</tspan></text>
    </g>
    <g>
      <circle class="cls-6" cx="1878.3" cy="773.78" r="7.14"/>
      <text class="cls-19" transform="translate(1874.47 776.84)"><tspan x="0" y="0">模</tspan></text>
    </g>
    <g>
      <circle class="cls-6" cx="1824.86" cy="698.19" r="7.14"/>
      <text class="cls-19" transform="translate(1821.03 701.25)"><tspan x="0" y="0">模</tspan></text>
    </g>
    <g>
      <circle class="cls-6" cx="1877.25" cy="698.19" r="7.14"/>
      <text class="cls-19" transform="translate(1873.42 701.26)"><tspan x="0" y="0">模</tspan></text>
    </g>
    <g>
      <circle class="cls-6" cx="1877.25" cy="659.05" r="7.14"/>
      <text class="cls-19" transform="translate(1873.42 662.11)"><tspan x="0" y="0">模</tspan></text>
    </g>
    <g>
      <circle class="cls-6" cx="1355.67" cy="834.45" r="7.14"/>
      <text class="cls-19" transform="translate(1351.83 837.51)"><tspan x="0" y="0">科</tspan></text>
    </g>
    <g>
      <circle class="cls-6" cx="1291.33" cy="844.66" r="7.14"/>
      <text class="cls-19" transform="translate(1287.5 847.72)"><tspan x="0" y="0">科</tspan></text>
    </g>
    <g>
      <circle class="cls-6" cx="1374.12" cy="834.45" r="7.14"/>
      <text class="cls-19" transform="translate(1370.29 837.51)"><tspan x="0" y="0">班</tspan></text>
    </g>
    <g>
      <ellipse class="cls-6" cx="1872.16" cy="1337.8" rx="18.32" ry="18.05"/>
      <text class="cls-32" transform="translate(1862.33 1345.53) scale(1.02 1)"><tspan x="0" y="0">班</tspan></text>
    </g>
    <g>
      <ellipse class="cls-6" cx="870.41" cy="1507.08" rx="18.32" ry="18.05"/>
      <text class="cls-32" transform="translate(860.58 1514.82) scale(1.02 1)"><tspan x="0" y="0">班</tspan></text>
    </g>
    <g>
      <ellipse class="cls-6" cx="2068.71" cy="1075.59" rx="14.11" ry="13.9"/>
      <text class="cls-23" transform="translate(2061.14 1081.55) scale(1.02 1)"><tspan x="0" y="0">班</tspan></text>
    </g>
    <g>
      <ellipse class="cls-6" cx="2210.24" cy="941.73" rx="18.32" ry="18.05"/>
      <text class="cls-32" transform="translate(2200.41 949.47) scale(1.02 1)"><tspan x="0" y="0">班</tspan></text>
    </g>
    <g>
      <ellipse class="cls-6" cx="2146.77" cy="389.72" rx="13.09" ry="12.89"/>
      <text class="cls-20" transform="translate(2139.75 395.25) scale(1.02 1)"><tspan x="0" y="0">班</tspan></text>
    </g>
    <g>
      <ellipse class="cls-6" cx="2230.36" cy="1298.29" rx="13.09" ry="12.89"/>
      <text class="cls-20" transform="translate(2223.34 1303.82) scale(1.02 1)"><tspan x="0" y="0">班</tspan></text>
    </g>
    <g>
      <circle class="cls-6" cx="1703.79" cy="773.78" r="7.14"/>
      <text class="cls-19" transform="translate(1699.77 776.47)"><tspan x="0" y="0">係</tspan></text>
    </g>
    <g>
      <circle class="cls-6" cx="1933.31" cy="425.84" r="7.14"/>
      <text class="cls-19" transform="translate(1929.28 428.53)"><tspan x="0" y="0">係</tspan></text>
    </g>
    <g>
      <circle class="cls-6" cx="1663.92" cy="464.91" r="9.35"/>
      <text class="cls-24" transform="translate(1658.9 468.92)"><tspan x="0" y="0">ク</tspan></text>
    </g>
    <g>
      <circle class="cls-6" cx="1745.59" cy="228.78" r="6.3"/>
      <text class="cls-14" transform="translate(1742.21 231.48)"><tspan x="0" y="0">ク</tspan></text>
    </g>
    <g>
      <ellipse class="cls-6" cx="1345.33" cy="406.21" rx="8.91" ry="8.78"/>
      <text class="cls-29" transform="translate(1340.55 409.97) scale(1.02 1)"><tspan x="0" y="0">班</tspan></text>
    </g>
    <g>
      <ellipse class="cls-6" cx="1245.42" cy="406.21" rx="8.91" ry="8.78"/>
      <text class="cls-29" transform="translate(1240.64 409.97) scale(1.02 1)"><tspan x="0" y="0">班</tspan></text>
    </g>
    <g>
      <circle class="cls-6" cx="870.55" cy="821.75" r="10.22"/>
      <text class="cls-17" transform="translate(865.07 826.13)"><tspan x="0" y="0">科</tspan></text>
    </g>
    <g>
      <circle class="cls-6" cx="1848.49" cy="470.84" r="7.14"/>
      <text class="cls-19" transform="translate(1844.66 473.91)"><tspan x="0" y="0">ク</tspan></text>
    </g>
    <g>
      <circle class="cls-6" cx="1680.64" cy="645.78" r="10.38"/>
      <text class="cls-22" transform="translate(1674.79 649.7)"><tspan x="0" y="0">係</tspan></text>
    </g>
    <rect class="cls-4" x="1891.06" y="542.23" width="65.83" height="25.66" transform="translate(1368.92 2479.04) rotate(-90)"/>
    <text class="cls-28" transform="translate(1919.38 532.72) scale(.92 1)"><tspan x="0" y="0">Ｐ</tspan><tspan x="0" y="12">Ｔ</tspan><tspan x="0" y="24">Ａ</tspan><tspan x="0" y="36">展</tspan></text>
    <g>
      <circle class="cls-6" cx="1923.98" cy="578.99" r="7.14"/>
      <text class="cls-19" transform="translate(1919.95 581.68)"><tspan x="0" y="0">係</tspan></text>
    </g>
    <g>
      <circle class="cls-6" cx="2014.61" cy="641.32" r="7.14"/>
      <text class="cls-19" transform="translate(2010.77 644.38)"><tspan x="0" y="0">模</tspan></text>
    </g>
    <rect class="cls-7" x="948.63" y="217.43" width="8.35" height="8.35"/>
    <rect class="cls-7" x="894.13" y="217.43" width="8.35" height="8.35"/>
    <line class="cls-7" x1="399.65" y1="221.61" x2="894.13" y2="221.61"/>
  </g>
</svg>